<svg width="651" height="718" viewBox="0 0 651 718" fill="none" xmlns="http://www.w3.org/2000/svg">
<path fill-rule="evenodd" clip-rule="evenodd" d="M74.1493 512.922C62.2463 512.922 49.9563 509.809 40.9413 503.812C25.0793 493.259 25.3562 477.773 41.5602 469.223C48.5542 465.532 57.3712 463.737 66.4112 463.737C78.3142 463.737 90.6032 466.85 99.6192 472.848C115.48 483.4 115.203 498.886 99.0002 507.437C92.0062 511.127 83.1893 512.923 74.1493 512.922Z" fill="#DAE6EE"/>
<path fill-rule="evenodd" clip-rule="evenodd" d="M33.0691 192.04C34.3231 189.252 32.9221 186 30.0401 184.979C26.4981 183.724 22.0851 183.617 20.1581 189.485C17.9641 196.166 12.8321 208.899 9.35606 217.357C8.16006 220.266 11.8531 222.733 14.0591 220.49C15.9921 218.526 17.6691 215.957 18.2751 212.695C18.2751 212.695 16.3401 218.137 14.3091 222.694C13.2621 225.044 15.576 227.511 17.969 226.565C22.113 224.928 26.6951 221.635 26.7931 215.073C26.9141 207.004 30.6331 197.454 33.0691 192.04Z" fill="#2E3D6E"/>
<path fill-rule="evenodd" clip-rule="evenodd" d="M37.9332 193.134C36.1262 195.907 33.2612 197.242 31.5342 196.117C29.8082 194.992 29.8732 191.831 31.6812 189.058C33.4882 186.286 36.3532 184.95 38.0802 186.075C39.8062 187.201 39.7412 190.361 37.9332 193.134Z" fill="#1F2348"/>
<path fill-rule="evenodd" clip-rule="evenodd" d="M71.9451 288.846C70.8961 289.389 69.8301 289.937 68.6341 290.105C65.8731 290.491 62.8961 288.823 60.1461 287.21C59.8961 287.062 59.6351 286.907 59.4481 286.658C59.0621 286.143 59.1301 285.442 59.2911 284.895C60.2851 281.521 61.8871 281.605 64.2081 279.664C65.2571 278.788 66.1871 277.753 67.2221 276.86C68.8391 275.464 70.6971 274.426 72.5461 273.394C74.7861 272.143 82.9631 267.857 84.6311 273.987C85.3521 276.636 85.1141 278.376 83.8141 280.101C82.2471 282.179 81.3861 283.169 79.3201 284.602C76.9821 286.224 74.4631 287.543 71.9451 288.846Z" fill="#F3BDAA"/>
<path fill-rule="evenodd" clip-rule="evenodd" d="M60.3302 282.931C61.2172 280.686 61.4442 279.372 62.6982 277.443C63.6762 275.939 65.0832 274.772 66.7502 274.108C69.9772 272.822 75.3552 270.988 77.1422 272.229C79.4442 273.827 77.0923 276.509 75.6543 278.157C72.7943 281.436 67.9723 283.743 64.0713 285.201C63.4033 285.451 62.8592 285.293 62.4822 284.935C62.3112 285.283 63.7582 284.343 63.6132 284.709C62.7312 286.942 59.4562 285.142 60.3302 282.931Z" fill="#F3BDAA"/>
<path fill-rule="evenodd" clip-rule="evenodd" d="M61.1371 281.82L57.3372 285.81L64.7172 294.473L69.0742 290.043L61.1371 281.82Z" fill="#CEE5ED"/>
<path fill-rule="evenodd" clip-rule="evenodd" d="M87.595 475.575L70.35 462.431L60.293 460.715C56.97 473.804 58.476 472.219 62.293 475.57L77.301 484.916C85.202 488.696 87.71 489.171 92.314 487.156C95.099 484.199 92.463 480.352 87.595 475.575Z" fill="#2E3D6E"/>
<path fill-rule="evenodd" clip-rule="evenodd" d="M68.2881 488.083L51.0431 474.939L40.9861 473.223C37.6621 486.312 39.1691 484.727 42.9861 488.079L57.9941 497.424C65.8951 501.204 68.4031 501.68 73.0061 499.664C75.7921 496.707 73.1561 492.86 68.2881 488.083Z" fill="#2E3D6E"/>
<path fill-rule="evenodd" clip-rule="evenodd" d="M38.7311 245.579C44.7201 239.643 55.3521 237.347 63.4871 237.446C66.1661 237.479 66.1681 233.317 63.4871 233.284C54.2431 233.171 42.5601 235.924 35.7871 242.636C33.8821 244.524 36.8251 247.467 38.7311 245.579Z" fill="#FFFFFE"/>
<path fill-rule="evenodd" clip-rule="evenodd" d="M71.8471 242.826C73.4831 265.179 76.332 287.139 81.331 308.999C83.718 319.439 99.7921 315.089 97.4021 304.638C92.7311 284.208 90.024 263.784 88.495 242.893C87.718 232.276 71.0641 232.12 71.8471 242.826Z" fill="#E15789"/>
<path fill-rule="evenodd" clip-rule="evenodd" d="M68.31 326.876C68.951 372.277 66.5721 416.746 58.9851 461.488C57.2081 471.968 73.2481 476.472 75.0391 465.914C82.8791 419.676 85.6211 373.802 84.9581 326.876C84.8071 316.173 68.159 316.142 68.31 326.876Z" fill="#F3BDAA"/>
<path fill-rule="evenodd" clip-rule="evenodd" d="M46.5411 339.825C43.9431 385.101 39.9191 430.408 39.8411 475.786C39.8221 486.499 56.4701 486.515 56.4891 475.786C56.5671 430.408 60.5911 385.101 63.1891 339.825C63.8031 329.121 47.1531 329.157 46.5411 339.825Z" fill="#F3BDAA"/>
<path fill-rule="evenodd" clip-rule="evenodd" d="M30.3142 344.976C32.0022 368.37 46.9662 370.729 62.0692 362.01C77.1712 353.291 85.5712 333.447 85.5712 316.009C85.5712 316.009 77.1711 290.142 62.0681 298.862C46.9661 307.581 28.3542 317.812 30.3142 344.976Z" fill="#E15789"/>
<path fill-rule="evenodd" clip-rule="evenodd" d="M81.7911 248.317C81.7911 248.317 91.7912 264.033 90.6492 273.514C89.9222 279.547 85.5711 286.33 84.9351 288.262C79.7311 304.069 82.6052 308.856 82.0452 313.23C82.0452 313.23 78.5761 328.264 41.4651 314.053L25.8801 268.261L81.7911 248.317Z" fill="#E15789"/>
<path fill-rule="evenodd" clip-rule="evenodd" d="M28.6251 278.301C27.2601 277.464 26.9221 275.226 26.9221 275.226C25.9781 267.063 21.4901 263.354 30.3721 249.379C31.7991 247.134 51.2272 237.065 65.8292 234.426C72.9072 233.146 79.9051 237.086 82.7601 243.687C84.4301 247.547 86.0492 255.181 86.0482 255.185C86.7432 270.176 80.1022 250.492 79.0482 258.77C79.0842 258.57 79.1351 258.367 79.1641 258.168C79.1641 258.168 77.3541 272.151 75.9821 282.977C75.1331 289.731 74.5301 294.617 74.4741 295.302L74.4702 295.387L49.1451 315.353L28.6251 278.301Z" fill="#E15789"/>
<path fill-rule="evenodd" clip-rule="evenodd" d="M64.9181 234.213C64.9181 234.213 77.5781 247.285 66.5991 256.551C55.6211 265.817 36.9231 245.108 36.9231 245.108C46.7391 238.963 56.1751 234.791 64.9181 234.213Z" fill="#F3BDAA"/>
<path fill-rule="evenodd" clip-rule="evenodd" d="M85.572 316.009L94.547 377.674C94.595 378.513 94.337 379.328 93.785 380.061C90.34 384.639 72.9161 396.621 34.842 389.887C30.454 389.111 29.731 388.903 29.7448 386.02L31.958 336.928L54.3731 336.704L85.572 316.009Z" fill="#E15789"/>
<path fill-rule="evenodd" clip-rule="evenodd" d="M59.1931 241.755L65.2312 218.445L50.6242 223.07L45.7122 242.104C44.6652 245.208 54.8231 253.659 59.1931 241.755Z" fill="#F3BDAA"/>
<path fill-rule="evenodd" clip-rule="evenodd" d="M65.4051 236.012C65.5691 238.725 66.4331 241.449 66.9911 244.096C67.9581 248.678 69.6041 252.052 64.4931 254.469C55.2311 258.849 45.281 249.485 39.073 243.613C37.127 241.773 34.179 244.711 36.13 246.556C43.744 253.758 54.8541 263.5 66.1261 258.338C70.2821 256.435 72.719 253.757 72.151 249.21C71.601 244.804 69.8341 240.425 69.5671 236.012C69.4061 233.351 65.2421 233.333 65.4051 236.012Z" fill="#FFFFFE"/>
<path fill-rule="evenodd" clip-rule="evenodd" d="M64.5 234.999L68.844 233.672C75.535 231.629 79.3371 224.482 77.2931 217.791L70.5451 195.699C68.5021 189.008 61.355 185.206 54.664 187.25L50.32 188.576C43.629 190.62 39.8271 197.767 41.8711 204.457L48.6191 226.55C50.6631 233.241 57.809 237.043 64.5 234.999Z" fill="#F3BDAA"/>
<path fill-rule="evenodd" clip-rule="evenodd" d="M61.7151 235.386C59.7751 235.813 54.8261 235.327 52.7041 234.343C52.7041 234.343 56.8231 238.733 61.3561 239.191L61.7151 235.386Z" fill="#DE8266"/>
<path fill-rule="evenodd" clip-rule="evenodd" d="M55.4341 194.517C55.4341 194.517 51.6341 212.995 46.3951 218.592L48.1161 221.942C49.8491 225.317 49.9522 229.297 48.3972 232.758L47.7562 234.185C47.7562 234.185 13.3591 215.15 35.1481 191.24C49.8931 175.061 73.6381 183.435 73.6271 200.705L55.4341 194.517Z" fill="#2E3D6E"/>
<path fill-rule="evenodd" clip-rule="evenodd" d="M46.3561 227.848C48.8311 228.791 50.8472 227.483 50.8582 224.927C50.8692 222.37 48.8711 219.534 46.3951 218.592C43.9191 217.649 41.9032 218.957 41.8931 221.513C41.8822 224.069 43.8801 226.906 46.3561 227.848Z" fill="#F3BDAA"/>
<path fill-rule="evenodd" clip-rule="evenodd" d="M106.537 322.823L100.94 326.392C98.2071 328.135 94.9751 328.003 93.7581 326.099L92.9051 324.765C91.6871 322.859 92.9292 319.871 95.6652 318.127L101.262 314.558C103.995 312.815 107.227 312.947 108.444 314.852L109.297 316.185C110.515 318.092 109.273 321.079 106.537 322.823Z" fill="#F3BDAA"/>
<path fill-rule="evenodd" clip-rule="evenodd" d="M59.5911 316.907L59.6011 315.546L61.3531 316.223L61.7281 315.358L105.58 290.04C106.109 289.735 107.04 289.774 107.65 290.126L126.529 301.026V300.723L130.021 302.125V303.571H129.997C129.953 303.712 129.844 303.842 129.665 303.945L84.0311 330.292C83.5031 330.597 82.5721 330.558 81.9621 330.206L60.0951 317.581C59.7631 317.389 59.5931 317.142 59.5921 316.907H59.5911Z" fill="#A4BDD7"/>
<path fill-rule="evenodd" clip-rule="evenodd" d="M84.0572 328.853L129.691 302.506C130.219 302.201 130.152 301.663 129.542 301.311L107.675 288.687C107.066 288.334 106.134 288.296 105.606 288.601L59.9732 314.947C59.4452 315.252 59.5112 315.79 60.1212 316.142L81.9882 328.767C82.5982 329.119 83.5292 329.157 84.0572 328.853Z" fill="#E0E9EE"/>
<path fill-rule="evenodd" clip-rule="evenodd" d="M80.9392 311.883L91.9832 305.507C92.1112 305.433 92.0952 305.303 91.9472 305.218L86.6552 302.162C86.5082 302.077 86.2822 302.068 86.1552 302.142L75.1112 308.518C74.9832 308.592 74.9992 308.722 75.1462 308.807L80.4392 311.862C80.5862 311.948 80.8122 311.957 80.9392 311.883Z" fill="#A4BDD7"/>
<path fill-rule="evenodd" clip-rule="evenodd" d="M85.2211 299.203C85.4061 298.002 86.3471 296.579 87.3221 296.025L132.628 270.277C133.032 270.048 133.377 270.006 133.631 270.117L133.633 270.116L133.64 270.121C133.73 270.162 133.809 270.222 133.874 270.302L135.374 271.877L134.01 271.756L129.704 299.597C129.518 300.798 128.577 302.221 127.602 302.775L84.7621 327.121L83.3791 328.676L83.2071 329.058C82.3411 329.245 80.2661 327.772 80.2661 327.772L85.2211 299.203Z" fill="#FFFFFE"/>
<path fill-rule="evenodd" clip-rule="evenodd" d="M83.9043 330.203L129.209 304.455C130.185 303.901 131.126 302.478 131.311 301.277L135.665 273.129C135.85 271.928 135.211 271.404 134.235 271.958L88.9302 297.705C87.9552 298.259 87.0142 299.682 86.8282 300.883L82.4742 329.032C82.2892 330.233 82.9293 330.757 83.9043 330.203Z" fill="#2E3D6E"/>
<path fill-rule="evenodd" clip-rule="evenodd" d="M107.979 302.95C107.748 304.446 109.104 304.78 111.009 303.698C112.913 302.616 114.645 300.526 114.876 299.031C115.107 297.536 113.751 297.201 111.846 298.283C109.942 299.365 108.211 301.455 107.979 302.95Z" fill="#FFFFFE"/>
<path fill-rule="evenodd" clip-rule="evenodd" d="M24.7182 255.694C20.0662 266.435 13.9792 277.495 12.7372 289.315C11.8292 297.953 11.0372 312.024 17.3302 318.864C23.3192 325.372 33.3062 324.244 41.0942 322.613C45.9082 321.605 50.5932 320.078 55.2852 318.622C57.3462 317.983 59.4112 317.373 61.4852 316.777C62.3522 316.527 64.5802 316.442 63.5712 316.186C71.3632 318.166 74.6862 306.127 66.8912 304.146C61.1322 302.683 54.5362 305.809 49.1362 307.469C43.7762 309.117 33.5682 313.622 28.0602 311.143C23.4732 309.078 24.6062 295.396 25.0902 290.673C26.1142 280.675 31.5742 271.059 35.5002 261.996C38.6612 254.698 27.9072 248.332 24.7182 255.694Z" fill="#F3BDAA"/>
<path fill-rule="evenodd" clip-rule="evenodd" d="M22.1071 254.321C12.9741 272.372 11.9872 291.845 11.9832 311.181C11.9822 319.896 28.6261 320.283 28.6271 311.54C28.6311 293.296 29.4592 275.307 38.0792 258.271C42.1502 250.226 26.1381 246.355 22.1071 254.321Z" fill="#E15789"/>
<path fill-rule="evenodd" clip-rule="evenodd" d="M81.9972 313.457L82.2872 312.377C83.1422 309.198 81.2402 305.899 78.0602 305.046L69.1282 302.65C65.9522 301.799 62.6552 303.7 61.8012 306.875L61.5112 307.955C60.6572 311.134 62.5592 314.433 65.7382 315.286L74.6702 317.682C77.8462 318.533 81.1432 316.632 81.9972 313.457Z" fill="#F3BDAA"/>
<path fill-rule="evenodd" clip-rule="evenodd" d="M2.09023 383.567L1.33723 385.095C1.28423 385.201 1.34522 385.262 1.47322 385.231L1.45522 385.214C1.58322 385.183 1.6762 385.063 1.7292 384.956L2.48219 383.428C2.53419 383.322 2.52623 383.268 2.39723 383.299L2.39021 383.312C2.26121 383.344 2.14223 383.46 2.09023 383.567Z" fill="#3F3E5B"/>
<path fill-rule="evenodd" clip-rule="evenodd" d="M0.772247 386.241L0.0192562 387.769C-0.0337438 387.875 0.0262426 387.937 0.155243 387.905L0.136261 387.889C0.265261 387.857 0.358247 387.737 0.410247 387.631L1.16324 386.103C1.21624 385.997 1.20725 385.943 1.07925 385.974L1.07223 385.987C0.943235 386.018 0.824247 386.135 0.772247 386.241Z" fill="#3F3E5B"/>
<path fill-rule="evenodd" clip-rule="evenodd" d="M169.074 489.461C170.237 494.345 171.738 505.161 163.566 509.08C162.352 509.662 160.932 509.647 159.703 509.097L157.205 507.979C154.684 506.851 153.688 503.799 155.062 501.402C156.828 498.324 158.958 493.991 159.928 489.628C160.548 486.837 163.427 485.188 166.111 486.174L166.149 486.188C167.609 486.724 168.714 487.948 169.074 489.461Z" fill="#DBECF3"/>
<path fill-rule="evenodd" clip-rule="evenodd" d="M125.063 717.606C111.697 717.606 98.3034 714.651 88.0724 708.744C67.6974 696.98 67.5934 677.966 87.8424 666.276C97.9254 660.455 111.153 657.547 124.409 657.547C137.776 657.547 151.169 660.502 161.4 666.409C181.776 678.173 181.879 697.187 161.63 708.877C151.548 714.698 138.319 717.606 125.063 717.606Z" fill="#DAE6EE"/>
<path fill-rule="evenodd" clip-rule="evenodd" d="M157.086 690.741L136.255 683.694L129.986 688.698C126.688 692.981 125.285 695.465 126.935 699.699C128.322 703.258 134.515 704.741 138.014 705.061L154.163 704.833C165.873 705.111 167.311 701.102 168.094 697.558C168.624 693.385 164.073 691.772 157.086 690.741Z" fill="#2E3D6E"/>
<path fill-rule="evenodd" clip-rule="evenodd" d="M110.447 661.783L88.8995 666.177L86.0005 673.656C85.3055 679.017 85.3425 681.869 88.8995 684.697C91.8895 687.075 97.9875 685.24 101.173 683.755L115.012 675.432C125.272 669.779 124.497 665.591 123.39 662.134C121.748 658.262 117.003 659.158 110.447 661.783Z" fill="#2E3D6E"/>
<path fill-rule="evenodd" clip-rule="evenodd" d="M131.322 384.428C130.395 384.428 129.206 384.009 127.683 382.894C121.547 378.399 123.016 369.989 123.016 369.989C123.016 369.989 128.168 370.151 134.79 378.321L134.536 380.578C134.536 380.578 134.13 384.428 131.322 384.428Z" fill="#FFFFFE"/>
<path fill-rule="evenodd" clip-rule="evenodd" d="M123.311 370.357C123.311 370.357 128.29 370.836 134.743 378.401L134.514 380.354C134.514 380.354 133.865 386.252 127.905 381.926C121.946 377.601 123.311 370.357 123.311 370.357ZM127.611 383.084C135.62 388.897 136.493 380.957 136.493 380.957L136.559 381L136.703 378.276C128.259 368.502 122.04 367.979 122.04 367.979C122.04 367.979 119.601 377.27 127.611 383.084Z" fill="#442F44"/>
<path fill-rule="evenodd" clip-rule="evenodd" d="M139.516 382.954L134.705 379.825L134.862 376.86L139.673 379.989L139.516 382.954Z" fill="#442F44"/>
<path fill-rule="evenodd" clip-rule="evenodd" d="M122.124 370.286L121.272 369.732C120.807 369.429 120.458 368.666 120.492 368.027C120.526 367.387 120.93 367.114 121.395 367.416L122.247 367.97C122.712 368.273 123.061 369.036 123.027 369.675C122.993 370.315 122.589 370.588 122.124 370.286Z" fill="#442F44"/>
<path fill-rule="evenodd" clip-rule="evenodd" d="M153.238 390.516L152.386 389.962C151.921 389.66 151.571 388.897 151.605 388.257C151.639 387.618 152.043 387.345 152.508 387.647L153.36 388.201C153.825 388.503 154.175 389.266 154.141 389.906C154.107 390.545 153.703 390.818 153.238 390.516Z" fill="#442F44"/>
<path fill-rule="evenodd" clip-rule="evenodd" d="M146.843 393.52C140.388 391.005 139.439 384.756 139.439 384.756L139.108 382.669C145.987 382.69 151.502 387.733 151.502 387.733C151.502 387.733 153.299 396.035 146.843 393.52ZM152.822 386.904C152.822 386.904 145.931 380.534 136.926 380.391L137.191 383.106L137.262 383.137C137.262 383.137 138.539 391.55 147.215 394.931C155.891 398.311 152.822 386.904 152.822 386.904Z" fill="#2E3D6E"/>
<path fill-rule="evenodd" clip-rule="evenodd" d="M140.916 385.551C140.74 385.262 140.722 384.926 140.876 384.8L142.672 383.331C142.827 383.205 143.095 383.337 143.271 383.626C143.448 383.915 143.466 384.252 143.312 384.378L141.515 385.847C141.361 385.973 141.093 385.841 140.916 385.551Z" fill="#2E3D6E"/>
<path fill-rule="evenodd" clip-rule="evenodd" d="M123.767 374.002C123.591 373.713 123.573 373.376 123.727 373.25L125.524 371.782C125.678 371.655 125.946 371.788 126.122 372.077C126.299 372.366 126.317 372.703 126.163 372.829L124.366 374.298C124.212 374.424 123.944 374.292 123.767 374.002Z" fill="#FFFEFE"/>
<path fill-rule="evenodd" clip-rule="evenodd" d="M109.655 416.229L114.535 394.479L127.803 403.407L123.807 423.21C123.417 426.426 108.696 423.618 109.655 416.229Z" fill="#F3BDAA"/>
<path fill-rule="evenodd" clip-rule="evenodd" d="M122.161 361.96C122.161 361.96 110.378 350.832 106.921 373.077C104.516 388.552 111.915 403.38 123.717 411.324C131.066 416.271 141.46 412.896 143.047 405.25C146.614 394.283 148.214 383.77 145.878 374.167C147.791 364.946 140.899 367.298 129.932 365.044L122.161 361.96Z" fill="#F3BDAA"/>
<path fill-rule="evenodd" clip-rule="evenodd" d="M108.178 404.044C108.178 404.044 93.8085 396.121 98.4555 374.932C103.485 352.004 124.488 357.184 136.499 357.82C141.817 358.102 145.687 360.385 147.906 364.687C150.092 368.923 148.427 377.671 141.332 377.255C138.517 377.09 138.669 384.761 137.725 387.243C136.046 391.657 132.869 393.463 131.156 397.73C129.534 401.767 122.382 407.405 118.301 407.269C111.031 407.026 108.178 404.044 108.178 404.044Z" fill="#26305A"/>
<path fill-rule="evenodd" clip-rule="evenodd" d="M152.783 391.171L132.872 390.116C132.164 390.079 131.615 389.469 131.653 388.761C131.69 388.053 132.301 387.504 133.009 387.541L152.919 388.596C153.627 388.633 154.177 389.243 154.139 389.952C154.102 390.66 153.491 391.208 152.783 391.171Z" fill="#2E3D6E"/>
<path fill-rule="evenodd" clip-rule="evenodd" d="M135.389 393.779C135.155 397.489 132.811 400.361 130.153 400.194C129.862 400.176 129.579 400.122 129.306 400.035C127.09 399.332 125.554 396.477 125.762 393.173C125.995 389.462 128.341 386.59 130.999 386.758C133.657 386.925 135.622 390.068 135.389 393.779Z" fill="#F3BDAA"/>
<path fill-rule="evenodd" clip-rule="evenodd" d="M182.249 468.97H182.248C179.332 467.968 177.765 464.761 178.768 461.844L183.072 449.318C184.075 446.401 187.281 444.835 190.198 445.838C193.115 446.84 194.682 450.047 193.679 452.963L189.375 465.489C188.372 468.406 185.165 469.973 182.249 468.97Z" fill="#E6AD99"/>
<path fill-rule="evenodd" clip-rule="evenodd" d="M91.6975 446.347C97.6575 458.241 107.524 468.401 120.219 472.911C137.781 479.15 155.946 471.534 170.017 460.926C176.318 456.176 170.138 445.393 163.751 450.207C152.362 458.793 137.944 466.327 123.519 460.94C113.877 457.339 106.915 449.058 102.416 440.081C98.8374 432.938 88.1245 439.217 91.6975 446.347Z" fill="#E6AD99"/>
<path fill-rule="evenodd" clip-rule="evenodd" d="M120.354 555.129C128.604 579.375 129.377 605.422 128.593 630.796C128.009 649.667 125.044 668.701 125.506 687.577C125.81 699.97 145.105 700.017 144.8 687.577C144.323 668.138 147.405 648.545 147.936 629.105C148.657 602.699 147.537 575.21 138.959 550C134.981 538.31 116.339 543.328 120.354 555.129Z" fill="#2E3D6E"/>
<path fill-rule="evenodd" clip-rule="evenodd" d="M81.5454 533.39C85.8924 549.219 87.8563 565.541 89.4323 581.842C90.3533 591.367 91.4463 600.419 90.4443 609.915C88.4223 629.078 84.8654 648.602 84.9884 667.908C85.0664 680.318 104.36 680.346 104.281 667.908C104.157 648.289 107.81 628.464 109.835 608.988C110.853 599.194 109.499 589.632 108.53 579.839C106.818 562.528 104.766 545.073 100.149 528.261C96.8654 516.303 78.2474 521.38 81.5454 533.39Z" fill="#2E3D6E"/>
<path fill-rule="evenodd" clip-rule="evenodd" d="M97.3544 558.896C99.1364 560.893 91.4814 551.18 93.7724 552.564C98.5434 555.447 125.327 573.645 130.901 573.737C137.634 573.849 133.709 567.341 138.721 562.844C143.476 558.577 144.596 551.645 145.06 545.273C145.188 543.512 145.276 541.673 144.573 540.053C143.812 538.304 142.241 537.063 140.72 535.912C128.822 526.906 105.416 504.615 88.7924 511.744C69.5844 519.98 88.8294 549.338 97.3544 558.896Z" fill="#2E3D6E"/>
<path fill-rule="evenodd" clip-rule="evenodd" d="M83.3925 416.347C79.8695 420.889 80.2875 423.696 80.4565 429.897C80.6215 435.96 84.7305 441.207 90.5695 442.844L150.213 459.571C150.213 459.571 153.64 436.626 141.876 429.719C135.539 425.998 125.708 420.046 117.986 415.346C106.644 408.442 91.5295 405.854 83.3925 416.347Z" fill="#9BC1DD"/>
<path fill-rule="evenodd" clip-rule="evenodd" d="M80.2463 524.155C76.4483 522.688 77.3563 457.43 80.7693 421.388L147.906 453.331C147.568 484.012 143.693 508.224 147.368 545.611L80.2463 524.155Z" fill="#9BC1DD"/>
<path fill-rule="evenodd" clip-rule="evenodd" d="M124.969 552.286C108.382 546.236 92.5825 539.612 83.2985 528.227C78.7385 525.595 79.3155 520.954 84.5805 517.914C89.8455 514.875 97.8835 514.542 102.442 517.174L144.113 541.233C148.672 543.865 148.095 548.506 142.83 551.545C137.566 554.585 129.528 554.918 124.969 552.286Z" fill="#9BC1DD"/>
<path fill-rule="evenodd" clip-rule="evenodd" d="M147.906 453.331L136.842 448.067C136.389 477.975 132.724 501.998 136.333 538.715L136.15 538.656C136.228 540.733 134.75 542.943 131.796 544.649C126.531 547.688 118.493 548.021 113.934 545.389C105.971 542.485 98.1984 539.442 91.2324 535.809C100.39 542.826 112.454 547.721 124.969 552.286C129.528 554.918 137.566 554.585 142.83 551.545C145.785 549.839 147.262 547.629 147.184 545.553L147.368 545.611C143.693 508.224 147.568 484.012 147.906 453.331Z" fill="#6E9FC8"/>
<path fill-rule="evenodd" clip-rule="evenodd" d="M134.311 424.963C118.909 422.646 108.506 431.04 104.827 408.856C107.075 407.463 109.973 408.138 111.478 410.312C114.121 414.13 119.744 416.545 125.955 415.783C127.814 415.555 129.64 416.411 130.653 417.987L134.311 424.963Z" fill="#FFFFFE"/>
<path fill-rule="evenodd" clip-rule="evenodd" d="M133.854 445.196C134.583 455.15 134.55 465.589 138.01 475.077C141.238 483.929 145.339 495.279 152.667 501.596C172.077 518.328 185.553 477.546 189.535 465.026C191.962 457.395 179.972 457.904 177.556 465.501C174.88 473.917 171.894 484.522 165.429 490.979C162.342 494.062 161.393 493.655 158.636 489.724C149.077 476.094 147.439 461.183 146.268 445.196C145.687 437.276 133.269 437.213 133.854 445.196Z" fill="#E6AD99"/>
<path fill-rule="evenodd" clip-rule="evenodd" d="M130.408 445.001C134.163 476.746 144.171 496.938 158.038 507.207C165.331 511.244 172.152 499.736 169.364 492.788C155.556 480.51 150.708 461.363 149.395 439.505C147.59 435.069 142.459 432.671 137.528 433.957C132.389 435.299 129.249 440.168 130.408 445.001Z" fill="#9BC1DD"/>
<path fill-rule="evenodd" clip-rule="evenodd" d="M169.074 488.413C170.237 493.297 171.738 504.113 163.566 508.032C162.352 508.614 160.932 508.599 159.703 508.049L157.205 506.932C154.684 505.803 153.688 502.751 155.062 500.355C156.828 497.277 158.958 492.943 159.928 488.58C160.548 485.789 163.427 484.14 166.111 485.126L166.149 485.14C167.609 485.676 168.714 486.9 169.074 488.413Z" fill="#FFFFFE"/>
<path fill-rule="evenodd" clip-rule="evenodd" d="M182.092 468.385L168.64 458.353C167.839 457.768 167.597 456.466 168.101 455.444L181.286 428.694C181.789 427.672 182.847 427.317 183.649 427.902L197.028 437.66C197.83 438.245 198.071 439.547 197.567 440.569L184.445 467.192C184.114 467.865 183.775 467.949 183.092 468.115L182.092 468.385Z" fill="#BAD2E3"/>
<path fill-rule="evenodd" clip-rule="evenodd" d="M183.642 441.336C183.642 441.336 167.597 456.466 168.101 455.444L181.296 427.771L182.559 427.643C182.927 427.576 183.311 427.655 183.65 427.902L197.028 437.66C197.42 437.946 197.677 438.402 197.78 438.914L183.642 441.336Z" fill="#BAD2E3"/>
<path fill-rule="evenodd" clip-rule="evenodd" d="M180.719 468.222L167.381 458.47C166.58 457.885 166.38 456.589 166.884 455.567L180.068 428.817C180.572 427.795 181.609 427.438 182.41 428.022L195.738 437.773C196.54 438.358 196.73 439.653 196.226 440.675L183.042 467.425C182.538 468.447 181.52 468.807 180.719 468.222Z" fill="#2E3D6E"/>
<path fill-rule="evenodd" clip-rule="evenodd" d="M182.814 463.813L169.679 454.234L181.232 430.636L194.287 440.158L182.619 463.134C182.521 463.333 182.993 463.944 182.814 463.813Z" fill="#DBECF3"/>
<path fill-rule="evenodd" clip-rule="evenodd" d="M190.624 436.184L186.496 433.174C186.351 433.069 186.307 432.831 186.398 432.647C186.489 432.462 186.682 432.397 186.827 432.503L190.954 435.513C191.098 435.618 191.142 435.856 191.051 436.041C190.96 436.225 190.768 436.29 190.624 436.184Z" fill="#807EAF"/>
<path fill-rule="evenodd" clip-rule="evenodd" d="M187.422 464.469L189.027 461.123C187.737 461.088 186.233 466.363 186.263 465.296L186.311 450.387C186.341 449.319 187.421 448.474 188.712 448.509C190.002 448.544 191.034 449.446 191.004 450.514L190.799 457.877C190.769 458.944 188.713 464.503 187.422 464.469Z" fill="#E6AD99"/>
<path fill-rule="evenodd" clip-rule="evenodd" d="M282.796 657.776C264.706 657.775 246.566 653.645 232.856 645.425C206.586 629.666 206.996 604.832 233.786 589.954C246.676 582.795 263.316 579.247 280.046 579.247C298.086 579.247 316.226 583.374 329.856 591.55C356.136 607.307 358.956 631.313 328.966 647.334C315.916 654.306 299.376 657.776 282.796 657.776Z" fill="#CCD4E2"/>
<path fill-rule="evenodd" clip-rule="evenodd" d="M308.186 588.078C283.226 573.113 242.376 572.435 216.936 586.564C191.496 600.693 191.106 624.279 216.056 639.244C241.016 654.21 281.416 654.9 307.326 641.058C335.816 625.843 333.136 603.044 308.186 588.078Z" fill="#B9406E"/>
<path fill-rule="evenodd" clip-rule="evenodd" d="M307.306 572.562C282.356 557.596 241.506 556.918 216.066 571.047C190.626 585.176 190.226 608.762 215.186 623.727C240.136 638.693 280.546 639.383 306.456 625.541C334.936 610.326 332.266 587.527 307.306 572.562Z" fill="#DF538D"/>
<path fill-rule="evenodd" clip-rule="evenodd" d="M239.196 580.972L231.796 606.398C231.136 608.662 231.726 611.108 233.346 612.826C234.956 614.543 237.366 615.278 239.666 614.758L299.626 601.188C303.216 600.376 305.466 596.809 304.646 593.22C303.836 589.631 300.266 587.381 296.686 588.193L247.746 599.267L251.996 584.696C253.016 581.164 250.986 577.466 247.456 576.438C243.926 575.409 240.226 577.439 239.196 580.972Z" fill="#FFFFFE"/>
<path fill-rule="evenodd" clip-rule="evenodd" d="M481.043 631.387L272.293 503.181C259.703 495.915 249.503 476.419 249.503 459.637L249.493 20.3961C249.493 3.61408 259.703 -4.09892 272.283 3.16708L482.403 124.479C494.993 131.746 505.193 151.241 505.193 168.023V605.187C505.193 616.229 501.753 618.257 494.813 622.268L481.043 631.387Z" fill="#B4D0E1"/>
<path fill-rule="evenodd" clip-rule="evenodd" d="M348.613 209.172C348.613 209.172 249.403 475.986 249.403 459.204L244.263 5.76332L258.113 1.09532C261.993 -0.730675 266.883 -0.332676 272.193 2.73532L482.313 124.046C488.453 127.594 494.033 134.058 498.133 141.698L348.613 209.172Z" fill="#DBEEF4"/>
<path fill-rule="evenodd" clip-rule="evenodd" d="M463.113 633.037L253.503 511.725C240.923 504.459 231.233 484.963 231.233 468.181V28.94C231.233 12.158 241.173 4.44503 253.753 11.711L463.243 133.023C475.823 140.29 485.403 159.785 485.403 176.567V615.808C485.403 632.59 475.693 640.303 463.113 633.037Z" fill="#2E3D6E"/>
<path fill-rule="evenodd" clip-rule="evenodd" d="M494.393 208.786V233.874C494.393 235.62 495.433 236.43 496.743 235.674L496.433 235.46C497.743 234.704 498.133 232.656 498.133 230.91V205.822C498.133 204.076 497.733 203.265 496.423 204.022L496.413 204.236C495.103 204.992 494.393 207.039 494.393 208.786Z" fill="#2E3D6E"/>
<path fill-rule="evenodd" clip-rule="evenodd" d="M494.393 252.705V277.793C494.393 279.54 495.433 280.35 496.743 279.594L496.433 279.379C497.743 278.623 498.133 276.576 498.133 274.83V249.741C498.133 247.995 497.733 247.185 496.423 247.941L496.413 248.155C495.103 248.912 494.393 250.959 494.393 252.705Z" fill="#2E3D6E"/>
<path fill-rule="evenodd" clip-rule="evenodd" d="M457.293 557.973L252.933 439.984C250.803 438.757 249.493 436.489 249.493 434.035V63.1003C249.493 57.8113 255.223 54.5063 259.803 57.1503L464.163 175.139C466.293 176.366 467.603 178.634 467.603 181.088V552.024C467.603 557.312 461.873 560.617 457.293 557.973Z" fill="#9BC1DD"/>
<path fill-rule="evenodd" clip-rule="evenodd" d="M395.103 119.555L330.283 82.1352C328.013 80.8222 326.153 77.2672 326.153 74.2352C326.153 71.2042 328.013 69.7972 330.283 71.1102L395.103 108.53C397.373 109.843 399.233 113.398 399.233 116.43C399.233 119.462 397.373 120.868 395.103 119.555Z" fill="#324D8D"/>
<path fill-rule="evenodd" clip-rule="evenodd" d="M524.913 251.492L350.883 150.973V253.4L524.913 353.874V251.492Z" fill="#D6E9F1"/>
<path fill-rule="evenodd" clip-rule="evenodd" d="M422.203 277.88L363.923 244.229V177.348L422.203 210.998V277.88Z" fill="#2E3D6E"/>
<path fill-rule="evenodd" clip-rule="evenodd" d="M398.983 224.623C398.973 224.765 398.953 224.893 398.943 224.993C398.953 224.879 398.973 224.755 398.983 224.623ZM410.303 260.656C410.303 256.211 408.383 248.703 406.573 246.021C405.733 244.789 404.713 243.822 403.823 242.97C402.893 242.09 401.683 240.843 400.513 239.638C400.123 239.235 399.723 238.829 399.343 238.432L396.973 235.892C396.623 235.438 396.273 234.984 395.913 234.53C395.853 234.451 395.723 234.313 395.673 234.214C395.643 234.043 395.663 233.858 395.653 233.704C395.603 232.619 395.563 231.535 395.513 230.451C396.473 229.942 397.053 228.789 397.233 227.26C398.813 228.228 399.163 226.164 399.303 224.699C399.403 223.659 399.523 221.037 398.293 220.04C398.313 219.877 398.343 219.719 398.373 219.582C398.553 218.723 398.713 217.831 398.703 216.83C398.703 215.83 398.523 214.707 398.093 213.596C397.993 213.338 397.853 213.06 397.693 212.853C397.713 212.514 397.613 212.069 397.493 211.67C396.553 208.555 394.673 205.757 392.723 204.029C390.773 202.3 388.753 201.536 386.873 201.266C385.493 201.068 383.663 201.253 383.643 203.709C383.633 204.028 383.703 204.337 383.813 204.636C383.553 204.508 383.353 204.676 383.213 204.883C382.823 205.505 382.683 206.449 382.723 207.468C382.763 208.487 382.953 209.585 383.183 210.682C383.213 210.852 383.243 211.039 383.283 211.232C381.763 210.317 382.083 213.469 382.263 214.76C382.483 216.369 382.943 218.788 384.383 219.718C384.483 220.437 384.633 221.162 384.853 221.893C385.193 222.964 385.643 223.911 386.163 224.781L386.153 224.822C386.203 225.935 386.253 227.048 386.303 228.161C386.303 228.255 386.333 228.437 386.323 228.548L386.013 228.686C385.793 228.793 385.583 228.9 385.363 229.007L385.353 228.996L384.733 228.897V228.878L384.583 228.846C384.183 228.758 383.763 228.708 383.343 228.673L383.293 228.665V228.668C382.763 228.626 382.233 228.609 381.703 228.596C380.753 228.572 379.773 228.547 378.863 228.351C377.983 228.159 376.973 227.942 376.173 228.216C374.503 228.79 372.813 231.357 372.893 240.141L410.303 263.018V260.656Z" fill="#FFFFFE"/>
<path fill-rule="evenodd" clip-rule="evenodd" d="M456.213 232.652L429.943 217.484V226.355L456.213 241.523V232.652Z" fill="#9BC1DD"/>
<path fill-rule="evenodd" clip-rule="evenodd" d="M478.683 274.07L428.713 245.217V236.346L478.683 265.199V274.07Z" fill="#9BC1DD"/>
<path fill-rule="evenodd" clip-rule="evenodd" d="M513.643 294.049L463.673 265.196V256.325L513.643 285.178V294.049Z" fill="#9BC1DD"/>
<path fill-rule="evenodd" clip-rule="evenodd" d="M513.643 313.795L463.673 284.942V276.071L513.643 304.924V313.795Z" fill="#9BC1DD"/>
<path fill-rule="evenodd" clip-rule="evenodd" d="M481.783 256.326L431.803 227.473V218.602L481.783 247.455V256.326Z" fill="#9BC1DD"/>
<path fill-rule="evenodd" clip-rule="evenodd" d="M477.463 292.932L427.483 264.079V255.208L477.463 284.062V292.932Z" fill="#9BC1DD"/>
<mask id="mask0" mask-type="alpha" maskUnits="userSpaceOnUse" x="340" y="181" width="60" height="102">
<path d="M399.223 282.379L340.943 248.728V181.847L350.883 187.591V253.4L399.223 281.307V282.379Z" fill="white"/>
</mask>
<g mask="url(#mask0)">
<path fill-rule="evenodd" clip-rule="evenodd" d="M340.943 282.379H399.223V181.847H340.943V282.379Z" fill="#BBD7E6"/>
</g>
<path fill-rule="evenodd" clip-rule="evenodd" d="M399.223 281.307L350.883 253.4V187.591L363.923 195.116V244.229L399.223 264.61V281.307Z" fill="#E6F2F7"/>
<path fill-rule="evenodd" clip-rule="evenodd" d="M399.223 264.61L363.923 244.229V195.116L382.803 206.02C382.733 206.463 382.703 206.956 382.723 207.468C382.763 208.487 382.953 209.585 383.183 210.682C383.213 210.852 383.243 211.039 383.283 211.232C383.093 211.119 382.933 211.068 382.803 211.068C381.843 211.068 382.103 213.629 382.263 214.76C382.483 216.369 382.943 218.788 384.383 219.718C384.483 220.437 384.633 221.162 384.853 221.893C385.193 222.964 385.643 223.911 386.163 224.781L386.153 224.822C386.203 225.935 386.253 227.048 386.303 228.161C386.303 228.255 386.333 228.437 386.323 228.548L386.013 228.686C385.793 228.793 385.583 228.9 385.363 229.007L385.353 228.996L384.733 228.897V228.878L384.583 228.846C384.183 228.758 383.763 228.708 383.343 228.673L383.293 228.665V228.668C382.763 228.626 382.233 228.609 381.703 228.596C380.753 228.572 379.773 228.547 378.863 228.351C378.283 228.224 377.643 228.086 377.053 228.086C376.743 228.086 376.453 228.123 376.173 228.216C374.503 228.79 372.813 231.357 372.893 240.141L399.223 256.243V264.61ZM399.223 238.306L396.973 235.892C396.623 235.438 396.273 234.984 395.913 234.53C395.853 234.451 395.723 234.313 395.673 234.214C395.643 234.043 395.663 233.858 395.653 233.704C395.603 232.619 395.563 231.535 395.513 230.451C396.473 229.942 397.053 228.789 397.233 227.26C397.513 227.433 397.753 227.509 397.963 227.509C398.763 227.509 399.073 226.419 399.223 225.362V238.306ZM398.943 224.993C398.953 224.879 398.973 224.755 398.983 224.623C398.973 224.765 398.953 224.893 398.943 224.993ZM399.223 221.899C399.083 221.152 398.803 220.455 398.293 220.04C398.313 219.877 398.343 219.719 398.373 219.582C398.553 218.723 398.713 217.831 398.703 216.83C398.703 216.282 398.643 215.696 398.523 215.096L399.223 215.498V221.899Z" fill="#6D7999"/>
<path fill-rule="evenodd" clip-rule="evenodd" d="M399.223 256.243L372.893 240.142C372.813 231.358 374.503 228.791 376.173 228.217C376.453 228.124 376.743 228.087 377.053 228.087C377.643 228.087 378.283 228.225 378.863 228.352C379.773 228.548 380.753 228.572 381.703 228.596C382.233 228.609 382.763 228.627 383.293 228.669V228.665L383.343 228.674C383.763 228.709 384.183 228.758 384.583 228.846L384.733 228.879V228.898L385.353 228.997L385.363 229.008C385.583 228.901 385.793 228.794 386.013 228.687L386.323 228.549C386.333 228.438 386.303 228.255 386.303 228.161C386.253 227.048 386.203 225.936 386.153 224.823L386.163 224.782C385.643 223.912 385.193 222.965 384.853 221.894C384.633 221.163 384.483 220.438 384.383 219.719C382.943 218.789 382.483 216.369 382.263 214.76C382.103 213.629 381.843 211.069 382.803 211.069C382.933 211.069 383.093 211.12 383.283 211.233C383.243 211.04 383.213 210.852 383.183 210.682C382.953 209.585 382.763 208.488 382.723 207.469C382.703 206.957 382.733 206.464 382.803 206.021L398.523 215.096C398.643 215.696 398.703 216.283 398.703 216.831C398.713 217.832 398.553 218.724 398.373 219.583C398.343 219.72 398.313 219.877 398.293 220.04C398.803 220.455 399.083 221.153 399.223 221.9V225.363C399.073 226.42 398.763 227.51 397.963 227.51C397.753 227.51 397.513 227.433 397.233 227.26C397.053 228.789 396.473 229.943 395.513 230.452C395.563 231.536 395.603 232.619 395.653 233.704C395.663 233.858 395.643 234.044 395.673 234.215C395.723 234.314 395.853 234.452 395.913 234.531C396.273 234.985 396.623 235.439 396.973 235.893L399.223 238.307V256.243ZM398.983 224.624C398.973 224.756 398.953 224.879 398.943 224.993C398.953 224.893 398.973 224.766 398.983 224.624Z" fill="#FFFFFE"/>
<path fill-rule="evenodd" clip-rule="evenodd" d="M337.323 277.118V501.342L448.423 565.531V341.307L337.323 277.118Z" fill="#FFFFFE"/>
<path fill-rule="evenodd" clip-rule="evenodd" d="M425.403 385.088L375.433 356.235V347.364L425.403 376.217V385.088Z" fill="#9BC1DD"/>
<path fill-rule="evenodd" clip-rule="evenodd" d="M425.403 425.315L375.433 396.462V387.591L425.403 416.444V425.315Z" fill="#9BC1DD"/>
<path fill-rule="evenodd" clip-rule="evenodd" d="M425.403 465.542L375.433 436.689V427.818L425.403 456.671V465.542Z" fill="#9BC1DD"/>
<path fill-rule="evenodd" clip-rule="evenodd" d="M362.443 353.614L352.373 347.796C350.873 346.929 349.653 344.604 349.653 342.602V332.05C349.653 330.048 350.873 329.128 352.373 329.995L362.443 335.812C363.943 336.679 365.163 339.004 365.163 341.006V351.559C365.163 353.56 363.953 354.48 362.443 353.614Z" fill="#5266A1"/>
<path fill-rule="evenodd" clip-rule="evenodd" d="M362.443 396.693L352.373 390.875C350.873 390.008 349.653 387.683 349.653 385.681V375.129C349.653 373.127 350.873 372.207 352.373 373.074L362.443 378.892C363.943 379.758 365.163 382.084 365.163 384.085V394.638C365.163 396.64 363.953 397.56 362.443 396.693Z" fill="#5266A1"/>
<path fill-rule="evenodd" clip-rule="evenodd" d="M362.443 439.772L352.373 433.955C350.873 433.088 349.653 430.762 349.653 428.761V418.208C349.653 416.207 350.873 415.286 352.373 416.153L362.443 421.971C363.943 422.838 365.163 425.163 365.163 427.165V437.717C365.163 439.719 363.953 440.639 362.443 439.772Z" fill="#5266A1"/>
<path fill-rule="evenodd" clip-rule="evenodd" d="M391.773 522.341L333.313 488.589C325.343 483.986 318.823 471.523 318.823 460.894V457.78C318.823 447.151 325.343 442.22 333.313 446.823L391.773 480.575C399.743 485.178 406.273 497.64 406.273 508.27V511.384C406.273 522.013 399.743 526.944 391.773 522.341Z" fill="#E15789"/>
<path fill-rule="evenodd" clip-rule="evenodd" d="M386.363 500.039L335.623 470.747C334.593 470.15 333.743 468.532 333.743 467.151C333.743 465.771 334.593 465.131 335.623 465.729L386.363 495.02C387.393 495.618 388.243 497.236 388.243 498.616C388.243 499.996 387.393 500.636 386.363 500.039Z" fill="#FFFFFE"/>
<path fill-rule="evenodd" clip-rule="evenodd" d="M309.803 439.334L243.433 402.978C241.843 402.106 240.873 400.496 240.883 398.74L241.183 355.669C241.193 353.601 243.593 352.282 245.463 353.309L311.483 389.469C313.043 390.322 313.983 391.897 313.973 393.615L313.673 437.204C313.663 439.07 311.503 440.261 309.803 439.334Z" fill="#FFFFFE"/>
<path fill-rule="evenodd" clip-rule="evenodd" d="M250.463 406.862L259.763 397.488C261.953 395.275 265.773 395.833 267.043 398.552L275.453 416.602L285.523 403.444C287.633 400.687 292.103 401.21 293.293 404.354L305.693 437.111L250.463 406.862Z" fill="#6594C1"/>
<path fill-rule="evenodd" clip-rule="evenodd" d="M266.933 378.824C266.913 381.863 264.933 383.251 262.513 381.925C260.093 380.6 258.143 377.062 258.163 374.024C258.193 370.986 260.163 369.598 262.583 370.923C265.003 372.249 266.953 375.786 266.933 378.824Z" fill="#E15789"/>
<path fill-rule="evenodd" clip-rule="evenodd" d="M420.633 169.171L354.733 131C353.153 130.084 352.193 128.435 352.213 126.659L352.633 83.0892C352.653 80.9972 355.043 79.7122 356.903 80.7912L422.453 118.756C424.003 119.652 424.933 121.266 424.923 123.003L424.493 167.097C424.473 168.985 422.313 170.145 420.633 169.171Z" fill="#FFFFFE"/>
<path fill-rule="evenodd" clip-rule="evenodd" d="M169.085 281.999L318.823 368.448V119.554L169.085 33.1055V281.999Z" fill="#D6E9F1"/>
<path fill-rule="evenodd" clip-rule="evenodd" d="M276.193 248.502C276.673 271.775 260.633 281.602 240.363 270.451C220.096 259.301 203.277 231.396 202.796 208.123C202.316 184.85 218.357 175.023 238.623 186.174C258.893 197.324 275.713 225.229 276.193 248.502ZM184.769 198.205C185.485 232.91 210.567 274.524 240.793 291.152C271.013 307.78 294.933 293.125 294.223 258.42C293.503 223.715 268.423 182.101 238.193 165.473C207.973 148.845 184.052 163.5 184.769 198.205Z" fill="#2E3D6E"/>
<path fill-rule="evenodd" clip-rule="evenodd" d="M238.193 165.472C219.7 155.296 203.577 156.853 194.004 167.536L209.193 187.332C215.636 180.372 226.353 179.421 238.623 186.173C255.403 195.402 269.803 216.111 274.543 236.17L291.953 240.829C285.083 210.668 263.433 179.358 238.193 165.472Z" fill="#E15789"/>
<path fill-rule="evenodd" clip-rule="evenodd" d="M199.37 247.389L212.828 241.543C206.802 230.841 203.02 218.978 202.796 208.122C202.593 198.293 205.345 190.875 210.11 186.41L195.997 165.524C188.692 172.147 184.461 183.326 184.768 198.204C185.098 214.173 190.596 231.601 199.37 247.389Z" fill="#FFFFFE"/>
<path fill-rule="evenodd" clip-rule="evenodd" d="M215.137 139.323L197.402 129.084C194.513 127.416 192.172 122.943 192.172 119.092C192.172 115.241 194.513 113.471 197.402 115.139L215.137 125.378C218.025 127.046 220.366 131.519 220.366 135.37C220.366 139.221 218.025 140.991 215.137 139.323Z" fill="#FFFFFE"/>
<path fill-rule="evenodd" clip-rule="evenodd" d="M251.843 157.348L234.113 147.109C231.223 145.442 228.883 140.968 228.883 137.117C228.883 133.267 231.223 131.497 234.113 133.164L251.843 143.404C254.733 145.071 257.073 149.544 257.073 153.395C257.073 157.246 254.733 159.016 251.843 157.348Z" fill="#FFFFFE"/>
<path fill-rule="evenodd" clip-rule="evenodd" d="M288.553 177.617L270.823 167.378C267.933 165.71 265.593 161.237 265.593 157.386C265.593 153.535 267.933 151.765 270.823 153.433L288.553 163.672C291.443 165.34 293.783 169.813 293.783 173.664C293.783 177.515 291.443 179.284 288.553 177.617Z" fill="#FFFFFE"/>
<path fill-rule="evenodd" clip-rule="evenodd" d="M297.353 144.716L198.41 87.5915C195.92 86.1535 193.902 82.2975 193.902 78.9775C193.902 75.6575 195.92 74.1315 198.41 75.5685L297.353 132.694C299.843 134.132 301.863 137.987 301.863 141.307C301.863 144.627 299.843 146.154 297.353 144.716Z" fill="#3D5595"/>
<path fill-rule="evenodd" clip-rule="evenodd" d="M412.663 133.506L362.693 104.653V95.7822L412.663 124.635V133.506Z" fill="#9BC1DD"/>
<path fill-rule="evenodd" clip-rule="evenodd" d="M412.663 154.142L362.693 125.289V116.418L412.663 145.271V154.142Z" fill="#9BC1DD"/>
<path fill-rule="evenodd" clip-rule="evenodd" d="M587.011 691.734C571.211 691.734 555.242 688.817 542.632 682.944C516.732 670.883 514.851 650.93 538.421 638.377C550.521 631.937 566.972 628.695 583.622 628.695C599.412 628.695 615.392 631.613 628.002 637.485C653.892 649.546 655.782 669.499 632.202 682.052C620.112 688.492 603.651 691.734 587.011 691.734Z" fill="#DAE6EE"/>
<path fill-rule="evenodd" clip-rule="evenodd" d="M621.531 649.331L628.361 627.43L635.981 619.79C646.861 629.046 644.591 628.601 643.351 633.83L636.121 651.084C631.621 659.184 629.751 661.13 624.541 662.211C620.331 661.366 620.251 656.433 621.531 649.331Z" fill="#2E3D6E"/>
<path fill-rule="evenodd" clip-rule="evenodd" d="M632.601 632.913C631.051 632.913 629.491 632.477 628.091 631.566C626.971 630.839 600.661 613.419 590.681 584.71C585.791 570.627 579.201 525.902 578.921 524.005C578.251 519.476 581.391 515.268 585.921 514.604C590.441 513.929 594.651 517.072 595.321 521.601C597.151 534.092 602.701 568.804 606.341 579.267C614.421 602.526 636.931 617.545 637.161 617.694C640.981 620.205 642.051 625.339 639.541 629.163C637.951 631.591 635.301 632.913 632.601 632.913Z" fill="#2E3D6E"/>
<path fill-rule="evenodd" clip-rule="evenodd" d="M527.602 652.449L548.271 642.506L559.061 642.872C559.711 657.142 558.491 655.179 553.821 657.838L536.281 664.322C527.291 666.554 524.592 666.512 520.252 663.442C517.992 659.784 521.542 656.361 527.602 652.449Z" fill="#2E3D6E"/>
<path fill-rule="evenodd" clip-rule="evenodd" d="M551.002 649.29C547.052 649.29 543.552 646.448 542.842 642.42C525.942 545.053 544.912 504.081 545.722 502.384C547.712 498.258 552.662 496.526 556.782 498.507C560.892 500.484 562.632 505.406 560.682 509.522C560.392 510.153 543.382 548.649 559.172 639.583C559.962 644.093 556.942 648.383 552.432 649.166C551.952 649.25 551.472 649.29 551.002 649.29Z" fill="#2E3D6E"/>
<path fill-rule="evenodd" clip-rule="evenodd" d="M522.281 419.929C520.001 427.637 512.712 442.049 503.192 442.73C488.922 443.752 489.361 408.67 489.171 401.141C488.961 393.252 476.682 393.221 476.882 401.141C477.312 417.288 478.492 455.989 503.072 455.041C518.752 454.436 530.172 436.585 534.122 423.194C536.362 415.598 524.511 412.353 522.281 419.929Z" fill="#F3BDAA"/>
<path fill-rule="evenodd" clip-rule="evenodd" d="M534.802 390.028C526.952 396.337 521.482 407.251 516.002 418.461C513.992 421.308 515.522 425.557 518.822 427.961L529.782 437.018C532.332 438.137 536.662 433.352 537.992 430.794L552.602 402.623C554.982 398.038 553.632 392.434 549.472 389.662C545.132 386.773 540.702 385.716 534.802 390.028Z" fill="#465C9A"/>
<path fill-rule="evenodd" clip-rule="evenodd" d="M582.462 402.601L552.842 396.555L556.492 381.964C565.322 381.432 571.652 383.994 579.302 388.735L582.462 402.601Z" fill="#323F4D"/>
<path fill-rule="evenodd" clip-rule="evenodd" d="M554.551 526.269C559.081 529.409 579.191 540.143 584.711 540.006C591.371 539.84 594.641 539.241 599.411 534.59C603.931 530.176 604.751 523.278 604.951 516.96C605.011 515.214 605.021 513.392 604.261 511.82C603.431 510.122 601.831 508.96 600.281 507.884C588.151 499.468 564.101 478.392 547.951 486.12C529.301 495.049 546.971 521.023 554.551 526.269Z" fill="#2E3D6E"/>
<path fill-rule="evenodd" clip-rule="evenodd" d="M538.712 392.036C535.412 396.67 535.942 399.428 536.362 405.551C536.772 411.538 541.052 416.556 546.892 417.936L606.532 432.027C606.532 432.027 617.862 413.1 605.952 406.755C599.532 403.336 580.692 393.958 572.862 389.628C561.372 383.268 546.322 381.33 538.712 392.036Z" fill="#465C9A"/>
<path fill-rule="evenodd" clip-rule="evenodd" d="M539.502 497.009C540.452 494.356 541.452 437.231 536.322 397.127L604.002 425.953C604.922 456.297 602.082 480.391 607.252 517.2L539.502 497.009Z" fill="#465C9A"/>
<path fill-rule="evenodd" clip-rule="evenodd" d="M585.382 524.716C568.732 519.415 551.752 512.297 542.102 501.422C537.492 499.007 538.961 495.613 544.041 492.393C549.121 489.172 557.061 488.513 561.671 490.929L603.852 513.005C608.472 515.42 608.081 520.031 603.011 523.252H603.002C597.932 526.472 589.992 527.131 585.382 524.716Z" fill="#465C9A"/>
<path fill-rule="evenodd" clip-rule="evenodd" d="M567.042 398.56C567.042 398.56 559.812 398.831 557.942 386.319L553.102 385.847C552.462 386.401 551.062 386.103 550.592 390.334C550.302 392.851 550.582 395.399 551.302 397.829L553.382 404.919C553.842 406.509 555.842 407.16 557.162 406.149L567.042 398.56Z" fill="#FFFFFE"/>
<path fill-rule="evenodd" clip-rule="evenodd" d="M563.022 395.996L559.002 370.512L574.102 376.962L577.362 397.77C578.152 401.187 566.442 409.143 563.022 395.996Z" fill="#F3BDAA"/>
<path fill-rule="evenodd" clip-rule="evenodd" d="M563.212 392.229L558.172 392.725C550.392 393.49 543.412 387.756 542.652 379.984L540.122 354.321C539.362 346.549 545.092 339.564 552.862 338.8L557.912 338.304C565.682 337.54 572.672 343.273 573.432 351.046L575.952 376.708C576.722 384.48 570.992 391.465 563.212 392.229Z" fill="#F3BDAA"/>
<path fill-rule="evenodd" clip-rule="evenodd" d="M561.031 358.425C555.901 361.259 548.892 362.015 542.882 360.131C536.362 358.088 535.782 349.256 540.482 344.285C543.012 341.598 545.701 339.738 551.301 337.031C567.191 329.353 585.002 335.898 586.832 354.489C586.832 354.489 589.992 379.912 575.362 384.639L574.852 383.092C574.452 381.874 574.611 380.552 575.261 379.444C576.451 377.394 577.602 373.657 572.822 370.641C570.722 369.312 568.541 365.882 568.531 362.774C568.531 359.627 563.791 356.903 561.031 358.425Z" fill="#2E3D6E"/>
<path fill-rule="evenodd" clip-rule="evenodd" d="M578.002 377.185C576.052 379.412 573.381 379.18 572.031 376.666C570.681 374.153 571.161 370.31 573.111 368.083C575.051 365.856 577.721 366.089 579.081 368.602C580.431 371.116 579.942 374.958 578.002 377.185Z" fill="#F3BDAA"/>
<path fill-rule="evenodd" clip-rule="evenodd" d="M562.271 392.321C564.531 391.814 569.501 389.9 570.151 389.583C570.151 389.583 566.582 393.682 562.922 395.328L562.271 392.321Z" fill="#DE8266"/>
<path fill-rule="evenodd" clip-rule="evenodd" d="M563.302 398.13C563.302 398.13 571.642 400.621 579.302 388.735L584.932 395.166C585.442 396.165 585.502 396.285 584.712 397.219L574.401 409.387C573.191 410.815 570.842 410.755 569.962 409.273L563.302 398.13Z" fill="#FFFFFE"/>
<path fill-rule="evenodd" clip-rule="evenodd" d="M525.872 376.762L502.562 384.703L505.372 392.948L528.682 385.006C530.122 384.518 530.652 382.277 529.872 380C529.102 377.723 527.312 376.274 525.872 376.762Z" fill="#AED0E3"/>
<path fill-rule="evenodd" clip-rule="evenodd" d="M521.042 376.408L487.862 387.707L491.852 399.439L525.042 388.14C527.072 387.445 527.832 384.256 526.732 381.017C525.632 377.777 523.082 375.714 521.042 376.408Z" fill="#AED0E3"/>
<path fill-rule="evenodd" clip-rule="evenodd" d="M500.451 380.705L500.411 380.723L459.691 393.359V393.373L459.531 393.413C456.651 394.391 455.781 399.466 457.581 404.747C459.381 410.029 463.161 413.518 466.041 412.54L466.191 412.47L466.201 412.485L506.171 397.511C509.051 396.532 510.101 391.977 508.511 387.337C506.931 382.696 503.331 379.727 500.451 380.705Z" fill="#2E3D6E"/>
<path fill-rule="evenodd" clip-rule="evenodd" d="M474.252 387.291L474.202 387.313L454.511 392.129L463.452 416.037L481.362 408.178C484.932 406.963 486.241 401.301 484.271 395.533C482.311 389.766 477.822 386.075 474.252 387.291Z" fill="#465C9A"/>
<path fill-rule="evenodd" clip-rule="evenodd" d="M466.771 401.488C469.051 408.194 467.072 414.933 462.352 416.54C457.632 418.148 451.951 414.015 449.671 407.31C447.391 400.604 449.362 393.865 454.092 392.258C458.812 390.65 464.481 394.783 466.771 401.488Z" fill="#FFFFFE"/>
<path fill-rule="evenodd" clip-rule="evenodd" d="M464.752 402.176C466.492 407.297 464.982 412.443 461.382 413.67C457.772 414.898 453.432 411.742 451.692 406.622C449.952 401.502 451.462 396.356 455.062 395.128C458.672 393.9 463.002 397.056 464.752 402.176Z" fill="#2E3D6E"/>
<path fill-rule="evenodd" clip-rule="evenodd" d="M479.002 381.074L482.462 380.895C485.582 380.735 488.252 383.149 488.412 386.26L488.552 388.944C488.712 392.055 486.302 394.731 483.192 394.891L479.722 395.07C476.612 395.23 473.932 392.816 473.772 389.706L473.632 387.021C473.472 383.91 475.892 381.234 479.002 381.074Z" fill="#F3BDAA"/>
<path fill-rule="evenodd" clip-rule="evenodd" d="M601.321 422.916C607.031 435.039 615.631 445.561 621.711 457.514C633.171 480.036 637.071 505.193 638.291 530.189C638.681 538.057 650.961 538.103 650.581 530.189C649.321 504.516 645.351 478.968 634.371 455.518C628.011 441.913 618.301 430.257 611.921 416.717C608.561 409.572 597.961 415.799 601.321 422.916Z" fill="#F3BDAA"/>
<path fill-rule="evenodd" clip-rule="evenodd" d="M592.782 420.448L610.032 448.445C616.792 455.27 632.582 440.557 627.572 434.474L608.672 409.025C605.452 405.149 599.812 404.35 595.632 407.176C591.282 410.122 590.022 415.974 592.782 420.448Z" fill="#465C9A"/>
<path fill-rule="evenodd" clip-rule="evenodd" d="M457.602 399.464C456.992 397.345 454.172 396.816 452.862 398.589C451.642 400.247 451.212 403.109 454.002 407.997C459.202 417.085 459.902 407.528 457.602 399.464Z" fill="#465C9A"/>
<path fill-rule="evenodd" clip-rule="evenodd" d="M458.471 398.903C459.021 399.821 458.861 400.936 458.111 401.394C457.351 401.852 456.291 401.479 455.731 400.561C455.181 399.642 455.341 398.527 456.091 398.069C456.851 397.611 457.911 397.985 458.471 398.903Z" fill="#FFFFFE"/>
</svg>
