<svg width="250" height="153" viewBox="0 0 250 153" fill="none" xmlns="http://www.w3.org/2000/svg">
<g clip-path="url(#clip0)">
<path d="M183.109 61.18C186.714 88.7439 167.386 114.021 139.942 117.641C138.942 117.772 137.945 117.874 136.951 117.944L129.926 64.1681L182.442 57.2424C182.712 58.5315 182.935 59.8442 183.109 61.18Z" fill="#2288ED"/>
<path d="M161.564 109.618C162.876 105.482 163.728 100.843 161.929 98.7485C158.309 94.5354 143.878 108.184 143.878 108.184C143.878 108.184 148.335 102.509 148.084 99.3962C147.894 97.0322 139.049 99.9469 134.798 101.488" stroke="#113355" stroke-opacity="0.24" stroke-width="2" stroke-miterlimit="10"/>
<path d="M132.564 83.3824C132.564 83.3824 152.234 92.6799 155.462 87.9756C158.69 83.2713 145.673 68.6641 146.907 67.5283C148.141 66.3928 152.844 68.8363 153.904 67.4689C154.802 66.3129 154.334 63.4656 153.693 61.0314" stroke="#113355" stroke-opacity="0.24" stroke-width="2" stroke-miterlimit="10"/>
<path fill-rule="evenodd" clip-rule="evenodd" d="M188.281 32.1475C188.448 32.045 188.64 31.9573 188.842 31.9423L188.901 32.7526C188.884 32.7538 188.822 32.7674 188.703 32.8406C188.59 32.9103 188.452 33.0172 188.291 33.1645C187.969 33.4587 187.589 33.8827 187.169 34.4026C186.331 35.4403 185.369 36.8198 184.456 38.2042C183.543 39.5868 182.685 40.9666 182.054 42.0011C181.738 42.5182 181.48 42.9489 181.301 43.25C181.211 43.4005 181.141 43.5185 181.094 43.5991C181.07 43.6392 181.052 43.67 181.04 43.6907L181.022 43.7218C181.022 43.7218 181.022 43.7218 180.673 43.5161L181.022 43.7218L180.942 43.8583L167.882 47.8688L167.646 47.092L180.404 43.1736C180.452 43.0928 180.52 42.9777 180.607 42.8329C180.787 42.5298 181.047 42.0967 181.364 41.5768C181.998 40.5374 182.862 39.149 183.781 37.7555C184.699 36.364 185.678 34.9591 186.541 33.8909C186.971 33.3577 187.381 32.898 187.746 32.5639C187.928 32.3971 188.108 32.2537 188.281 32.1475Z" fill="white"/>
<path d="M183.472 65.171C178.728 65.171 166.595 65.5135 165.87 68.727C164.962 72.7286 176.45 75.9874 176.463 76.8165C176.475 77.6458 163.037 78.5515 163.057 82.0808C163.068 84.2039 171.199 88.3871 177.675 91.3815" stroke="#113355" stroke-opacity="0.24" stroke-width="2" stroke-miterlimit="10"/>
<path d="M242.168 152.512H214.648C214.648 152.512 218.402 148.061 221.124 147.554C221.124 147.554 206.654 124.283 204.135 114.368C202.455 107.752 203.104 101.314 203.104 101.314L201.06 113.09L205.36 152.514H176.74C176.74 152.514 181.978 148.77 184.497 148.265C184.497 148.265 180.709 118.787 181.313 111.5C181.918 104.213 182.257 73.4938 193.083 62.7054C200.769 55.0396 212.748 55.0396 220.811 66.9138C228.177 77.7617 225.64 110.016 225.64 110.016L242.168 152.512Z" fill="#2B2BBA"/>
<path d="M203.957 79.7423L202.597 114.044" stroke="white" stroke-miterlimit="10"/>
<path d="M6.69385 152.512H31.6063C31.6063 152.512 28.6731 148.061 26.1652 147.554C26.1652 147.554 33.3664 122.16 34.5411 112.042C35.4569 104.151 35.7481 89.8624 35.7481 89.8624L38.5521 111.212L33.4491 152.514H59.8414C59.8414 152.514 55.0124 148.77 52.69 148.265C52.69 148.265 56.7057 118.29 56.7057 108.758C56.7057 101.452 56.321 73.4954 46.3406 62.707C39.2548 55.0413 27.3818 54.8144 22.0248 64.7406C15.8921 76.0939 15.3625 109.394 15.3625 109.394L6.69385 152.512Z" fill="#2B2BBA"/>
<path d="M35.5269 79.7423L36.7808 114.044" stroke="white" stroke-miterlimit="10"/>
<path d="M250 152.512H0" stroke="white" stroke-width="3" stroke-miterlimit="10"/>
<path opacity="0.2" d="M53.0553 37.4896L41.955 50.1492C38.9783 53.544 33.442 52.2924 32.1959 47.9495L28.0509 33.4754C27.1785 30.4373 28.9231 27.263 31.9484 26.3869C32.6787 26.1757 33.4452 26.1132 34.2008 26.2024L49.4538 28.0172C54.0117 28.5599 56.0897 34.0261 53.0553 37.4896Z" fill="#2288ED"/>
<path d="M41.1494 28.8712L44.5294 19.0372C44.5294 19.0372 41.4141 15.7769 43.0358 13.2864C44.6573 10.7958 47.011 12.9735 47.011 12.9735C47.011 12.9735 49.6217 9.68814 53.7341 10.7973C57.8464 11.9065 59.0677 14.9024 58.4772 18.2503C57.4539 24.0763 53.9024 24.8023 47.9784 22.7653L45.5108 29.1575" fill="#FFCC00"/>
<path d="M45.1958 12.1068C45.1958 12.1068 45.448 7.42912 51.4267 7.33367C57.4051 7.23825 57.9441 9.46757 60.3305 8.77296C62.7169 8.07835 63.5579 15.3029 57.0172 15.073C50.4765 14.843 50.7598 14.4785 50.7598 14.4785C50.7598 14.4785 50.1897 17.3711 48.565 16.8987C46.9404 16.4262 46.8999 13.3271 46.8999 13.3271" fill="#030207"/>
<path d="M56.6362 18.5959L56.689 21.1429" stroke="#170C2C" stroke-width="0.5" stroke-miterlimit="10"/>
<path d="M54.8527 19.4189C55.234 19.4189 55.5429 19.1086 55.5429 18.7259C55.5429 18.3431 55.234 18.0328 54.8527 18.0328C54.4717 18.0328 54.1628 18.3431 54.1628 18.7259C54.1628 19.1086 54.4717 19.4189 54.8527 19.4189Z" fill="#030207"/>
<path d="M57.7656 19.5128C58.1468 19.5128 58.4557 19.2025 58.4557 18.8198C58.4557 18.437 58.1468 18.1267 57.7656 18.1267C57.3846 18.1267 57.0757 18.437 57.0757 18.8198C57.0757 19.2025 57.3846 19.5128 57.7656 19.5128Z" fill="#030207"/>
<path fill-rule="evenodd" clip-rule="evenodd" d="M54.717 40.7293C54.717 40.7293 54.7168 40.7293 54.7676 40.3263C54.8181 39.9232 54.8181 39.9232 54.8181 39.9232L54.8301 39.9247L54.8672 39.9294C54.8998 39.9333 54.9486 39.9392 55.0127 39.9469C55.1407 39.9624 55.3294 39.9846 55.5713 40.0119C56.0549 40.0663 56.7509 40.141 57.5993 40.2216C59.2965 40.3825 61.6012 40.5662 64.033 40.6586C66.467 40.751 69.0183 40.7513 71.2124 40.5473C72.3095 40.4455 73.3088 40.2933 74.1555 40.0789C75.0068 39.8636 75.6773 39.5918 76.1361 39.2656L76.6037 39.9286C76.0284 40.3379 75.2484 40.6404 74.3529 40.8668C73.4528 41.0947 72.4089 41.2522 71.287 41.3564C69.0428 41.5648 66.4521 41.5636 64.0024 41.4704C61.5507 41.3776 59.2303 41.1923 57.5232 41.0304C56.6694 40.9494 55.9688 40.8742 55.481 40.8193C55.2372 40.7917 55.0465 40.7693 54.9165 40.7537C54.8517 40.7459 54.8019 40.7397 54.7683 40.7358L54.73 40.7308L54.717 40.7293Z" fill="white"/>
<path d="M130.109 45.4388L72.6436 52.2925C71.7324 29.3735 86.4326 8.91997 107.856 2.26328C110.002 1.5937 112.192 1.07118 114.409 0.698843C115.205 0.565866 116.009 0.450096 116.819 0.353102C119.448 0.0386493 122.098 -0.0661682 124.743 0.0402138L128.654 33.1266L129.216 37.8888L130.109 45.4388Z" fill="#FF3366"/>
<path d="M177.824 53.5642L135.807 55.4212L133.804 9.73962C156.582 12.3444 174.987 30.3809 177.824 53.5642Z" fill="#11BB99"/>
<path d="M109.987 64.9254L99.4184 118.116C73.942 111.419 57.7776 85.8497 62.9977 59.5798C63.2592 58.2624 63.5708 56.9672 63.9321 55.6952L109.987 64.9254Z" fill="#FFCC00"/>
<path fill-rule="evenodd" clip-rule="evenodd" d="M90.9405 13.7263C89.6172 13.5532 87.8245 13.7431 85.8144 14.8517C84.8328 15.393 83.4942 16.6069 82.0158 18.169C80.5477 19.72 78.9754 21.5777 77.5286 23.3688C76.0828 25.159 74.7663 26.8782 73.8112 28.15C73.3338 28.7859 72.9469 29.3097 72.6795 29.6744C72.5458 29.8567 72.4417 29.9991 72.3713 30.0959C72.3363 30.1444 72.3095 30.1814 72.2916 30.2063L72.2649 30.243L72.2646 30.2435C72.2646 30.2435 72.2646 30.2435 71.9368 30.0055C71.918 30.4113 71.918 30.4113 71.9177 30.4113L71.7339 30.4026C71.6135 30.3972 71.4366 30.3891 71.2109 30.3792C70.7592 30.359 70.1115 30.3307 69.3279 30.2979C67.7607 30.2326 65.6498 30.1499 63.4751 30.0799C61.2997 30.0099 59.063 29.9528 57.243 29.9392C56.3326 29.9323 55.5296 29.9363 54.892 29.9545C54.2433 29.9732 53.7958 30.0062 53.5777 30.0503L53.4187 29.2535C53.7143 29.1942 54.2283 29.1609 54.8689 29.1424C55.5205 29.1237 56.3343 29.1198 57.2492 29.1267C59.0789 29.1405 61.3233 29.1976 63.5009 29.2678C65.679 29.3378 67.7926 29.4208 69.3615 29.4861C70.1459 29.5189 70.7943 29.5472 71.2467 29.5674C71.453 29.5765 71.6186 29.5842 71.7379 29.5896C71.808 29.4933 71.9057 29.3592 72.0281 29.1924C72.297 28.8256 72.6859 28.2993 73.1653 27.6607C74.1243 26.384 75.4467 24.6569 76.9003 22.857C78.3532 21.058 79.9408 19.1821 81.4292 17.6093C82.9072 16.0478 84.3215 14.748 85.4251 14.1395C87.585 12.9483 89.5504 12.7252 91.045 12.9206C91.7901 13.018 92.4211 13.2198 92.9015 13.46C93.3608 13.6898 93.7457 13.9866 93.9086 14.3139C93.9636 14.4239 93.9906 14.5508 94.0063 14.6625C94.0232 14.7813 94.0318 14.9168 94.0347 15.0624C94.0404 15.3538 94.0232 15.7125 93.9886 16.1091C93.9192 16.9037 93.7774 17.8803 93.5916 18.8354C93.4064 19.7887 93.1743 20.7347 92.9216 21.4641C92.7958 21.827 92.6594 22.1522 92.5129 22.4016C92.4395 22.5262 92.3566 22.6444 92.2619 22.7408C92.1697 22.8348 92.0421 22.9327 91.8772 22.9714C91.7035 23.0123 91.5347 22.9778 91.3944 22.8874C91.2668 22.8053 91.179 22.6884 91.1179 22.5817C91.0119 22.3973 90.9371 22.1578 90.8806 21.9041C90.8122 22.2853 90.7374 22.6434 90.6557 22.9591C90.561 23.3265 90.4513 23.66 90.3213 23.9099C90.2565 24.0343 90.176 24.1593 90.0728 24.2581C89.9675 24.3586 89.8125 24.4558 89.612 24.4558C89.2499 24.4558 89.033 24.167 88.9206 23.9703C88.7923 23.7454 88.6905 23.4495 88.6061 23.131C88.4766 22.6417 88.3731 22.0374 88.2906 21.414C88.1854 22.0336 88.0647 22.6314 87.9302 23.1116C87.8429 23.4232 87.7435 23.709 87.6275 23.9228C87.5701 24.0287 87.4962 24.1401 87.3998 24.228C87.3012 24.3179 87.1471 24.4098 86.9486 24.3953C86.6473 24.3733 86.4577 24.1468 86.3539 23.986C86.2384 23.8065 86.1446 23.5767 86.0664 23.3356C85.9079 22.8487 85.7828 22.2209 85.6859 21.6143C85.5885 21.0036 85.5171 20.3967 85.4702 19.9437C85.4467 19.7169 85.4292 19.5279 85.4177 19.3954C85.4118 19.3291 85.4074 19.2769 85.4045 19.2411L85.4013 19.1999L85.4003 19.1863V19.1855C85.4003 19.1854 85.4 19.1851 85.8036 19.1545L86.207 19.1238L86.2072 19.1267L86.2079 19.1364L86.2109 19.1752C86.2138 19.2094 86.218 19.2599 86.2236 19.3243C86.2349 19.4532 86.2519 19.6378 86.2749 19.8597C86.3208 20.3041 86.3905 20.895 86.4847 21.4857C86.5796 22.0806 86.6971 22.6581 86.8353 23.0834C86.8811 23.2245 86.9263 23.3389 86.9687 23.4272C87.0266 23.2959 87.0882 23.1165 87.1513 22.8915C87.3142 22.3107 87.4609 21.5178 87.5845 20.7071C87.7079 19.8999 87.8061 19.0894 87.8735 18.4797C87.9072 18.175 87.9332 17.9211 87.9506 17.7436C87.9594 17.6548 87.966 17.5852 87.9704 17.5378L87.9754 17.4839L87.9771 17.4662L88.7842 17.4881V17.489L88.785 17.5059C88.7855 17.5179 88.7859 17.5359 88.7869 17.5595C88.7889 17.6067 88.7918 17.6763 88.796 17.7649C88.8041 17.9423 88.8169 18.1961 88.8355 18.5007C88.8726 19.1106 88.9322 19.9216 89.0225 20.7307C89.1132 21.5441 89.2335 22.3383 89.388 22.9222C89.4599 23.1941 89.534 23.3985 89.6044 23.5332C89.6915 23.3657 89.7828 23.1032 89.8726 22.7553C90.0507 22.0655 90.2003 21.1323 90.3208 20.1826C90.441 19.2366 90.5301 18.289 90.5892 17.5769C90.6189 17.2211 90.641 16.9247 90.6554 16.7174C90.6628 16.6138 90.6682 16.5325 90.6719 16.4773C90.6738 16.4496 90.6751 16.4285 90.676 16.4144L90.677 16.3999V16.3996V16.3984L90.6773 16.3936C90.6773 16.3935 90.6773 16.3933 91.0811 16.4183L90.6773 16.3936L91.4852 16.437V16.438L91.4849 16.4412V16.4434L91.4847 16.4436L91.4844 16.4544C91.4839 16.4661 91.4832 16.4837 91.4822 16.5067C91.4803 16.5527 91.4776 16.6204 91.4746 16.7068C91.4685 16.8794 91.4611 17.1261 91.455 17.4216C91.4432 18.0133 91.4376 18.7972 91.4631 19.5718C91.4884 20.3518 91.5445 21.1011 91.6505 21.6331C91.6881 21.8216 91.7285 21.9647 91.7678 22.0658C91.7828 22.0434 91.799 22.0178 91.8159 21.9888C91.9233 21.8061 92.0391 21.5381 92.1574 21.1969C92.3927 20.5183 92.6159 19.6138 92.7977 18.6796C92.979 17.7472 93.1162 16.7993 93.1824 16.0381C93.2158 15.6568 93.2308 15.3297 93.2258 15.0783C93.2234 14.9524 93.216 14.8522 93.2055 14.7772C93.1964 14.7138 93.1871 14.6846 93.1849 14.6778C93.1844 14.6758 93.1844 14.6757 93.1851 14.6772C93.1424 14.5915 92.9548 14.3944 92.5409 14.1873C92.1478 13.9908 91.6046 13.8131 90.9405 13.7263ZM89.6937 23.6653C89.6937 23.6655 89.6925 23.6646 89.6898 23.6622C89.6925 23.664 89.6937 23.6652 89.6937 23.6653ZM87.0843 23.6098C87.0843 23.6099 87.0833 23.6092 87.0813 23.6073C87.0833 23.6088 87.0845 23.6097 87.0843 23.6098ZM71.9368 30.0055L71.9177 30.4113L72.1366 30.4214L72.2646 30.2435L71.9368 30.0055Z" fill="white"/>
<path fill-rule="evenodd" clip-rule="evenodd" d="M159.353 46.1993C159.293 46.3619 159.232 46.5775 159.172 46.8411C159.017 47.5216 158.888 48.4376 158.783 49.367C158.679 50.2931 158.602 51.2197 158.551 51.9155C158.526 52.2631 158.507 52.5526 158.494 52.7549C158.488 52.8562 158.483 52.9355 158.48 52.9897L158.477 53.051L158.476 53.0715C158.476 53.0715 158.476 53.0717 158.071 53.0496L157.668 53.0816L157.667 53.0646L157.663 53.0133C157.659 52.9685 157.653 52.9022 157.646 52.8177C157.631 52.649 157.609 52.4073 157.58 52.1173C157.521 51.5366 157.435 50.7642 157.323 49.9935C157.21 49.2191 157.074 48.4613 156.918 47.903C156.858 47.6882 156.799 47.5164 156.743 47.3893C156.669 47.5369 156.587 47.7443 156.502 48.008C156.302 48.6288 156.105 49.4815 155.933 50.3848C155.585 52.2006 155.348 54.1326 155.348 54.6798C155.348 54.7579 155.393 54.9104 155.738 55.1078C156.078 55.3019 156.621 55.4838 157.394 55.639C158.933 55.9479 161.259 56.1283 164.375 56.1744C179.846 56.402 185.785 53.5785 188.982 51.204C190.541 50.046 191.606 48.6106 192.281 47.459C192.619 46.8842 192.857 46.3831 193.011 46.0273C193.088 45.8495 193.143 45.7083 193.179 45.6127C193.197 45.5651 193.21 45.5287 193.218 45.505C193.223 45.4929 193.226 45.4843 193.227 45.4789L193.229 45.4732L193.23 45.4722C193.23 45.4722 193.23 45.4725 193.614 45.5999C193.998 45.727 193.998 45.7273 193.998 45.7275V45.7277L193.997 45.7287L193.996 45.7317L193.993 45.741C193.99 45.7492 193.987 45.7605 193.981 45.775C193.971 45.8044 193.956 45.8462 193.936 45.8997C193.896 46.0066 193.835 46.1599 193.753 46.3508C193.588 46.732 193.335 47.2637 192.978 47.8715C192.266 49.0854 191.135 50.6154 189.463 51.8571C186.071 54.3761 179.934 57.216 164.363 56.9869C161.235 56.9406 158.848 56.7595 157.235 56.4358C156.432 56.2744 155.79 56.0721 155.338 55.8139C154.892 55.5587 154.539 55.1908 154.539 54.6798C154.539 54.0489 154.79 52.051 155.138 50.2315C155.313 49.3172 155.516 48.4258 155.733 47.7571C155.84 47.4255 155.956 47.1281 156.084 46.9064C156.147 46.7963 156.224 46.6854 156.318 46.5975C156.411 46.511 156.557 46.4139 156.751 46.4139C156.937 46.4139 157.081 46.5028 157.177 46.5913C157.271 46.6785 157.344 46.7874 157.401 46.8924C157.516 47.1035 157.613 47.3822 157.698 47.684C157.811 48.0902 157.912 48.581 158 49.0947C158.102 48.2174 158.229 47.3395 158.384 46.66C158.466 46.3001 158.56 45.9741 158.672 45.729C158.727 45.6075 158.796 45.4838 158.886 45.3838C158.974 45.2853 159.121 45.1685 159.327 45.1596C159.537 45.1505 159.694 45.2584 159.791 45.356C159.886 45.453 159.959 45.5747 160.016 45.6928C160.132 45.931 160.231 46.2508 160.317 46.6034C160.472 47.2361 160.604 48.0491 160.713 48.8725C160.759 48.6431 160.809 48.4268 160.865 48.2314C160.942 47.9636 161.037 47.7089 161.158 47.513C161.269 47.3349 161.477 47.088 161.81 47.088C162.002 47.088 162.151 47.1801 162.251 47.2725C162.35 47.3639 162.428 47.4792 162.49 47.5926C162.616 47.8205 162.724 48.1235 162.819 48.4551C163.011 49.1243 163.175 50.0034 163.308 50.8662C163.442 51.7324 163.546 52.5972 163.618 53.2444C163.653 53.5684 163.681 53.8382 163.699 54.0274C163.708 54.1223 163.715 54.1967 163.72 54.2474L163.725 54.3058L163.727 54.326V54.3263C163.727 54.3265 163.727 54.3265 163.324 54.3623L162.921 54.398L162.92 54.3793L162.914 54.3226C162.91 54.2731 162.903 54.1999 162.894 54.1068C162.876 53.9203 162.849 53.6537 162.813 53.3336C162.743 52.6933 162.64 51.8411 162.508 50.9903C162.377 50.1362 162.219 49.2982 162.042 48.6798C161.959 48.3916 161.877 48.1703 161.801 48.0218C161.751 48.1245 161.696 48.2686 161.643 48.4561C161.506 48.9336 161.399 49.5867 161.319 50.2608C161.239 50.9302 161.187 51.6016 161.155 52.1072C161.139 52.3595 161.128 52.5696 161.121 52.7165C161.118 52.7899 161.115 52.8475 161.114 52.8865L161.112 52.9308L161.112 52.9419L161.111 52.9451L160.304 52.9579L160.707 52.9308C160.304 52.9579 160.304 52.9579 160.304 52.9579L160.302 52.9375L160.298 52.8764C160.294 52.8227 160.289 52.7438 160.281 52.6433C160.266 52.4422 160.243 52.1547 160.214 51.8096C160.154 51.1192 160.066 50.2007 159.951 49.2849C159.835 48.3655 159.695 47.4625 159.532 46.7973C159.472 46.5524 159.412 46.3518 159.353 46.1993ZM161.896 47.8761C161.896 47.8764 161.894 47.8779 161.891 47.8798C161.894 47.8771 161.896 47.8759 161.896 47.8761ZM158.071 53.0496L157.668 53.0816L158.476 53.0715L158.071 53.0496Z" fill="white"/>
<path d="M190.277 15.6611C190.277 15.6611 185.439 20.7127 185.891 25.5172C186.342 30.3216 192.713 32.9888 192.713 32.9888L205.589 23.9761L190.277 15.6611Z" fill="black"/>
<path opacity="0.2" d="M222.142 46.3649C222.378 35.9754 214.186 27.3601 203.842 27.1221C193.497 26.8843 184.919 35.1119 184.682 45.5013L222.142 46.3649Z" fill="#FF3366"/>
<path d="M204.148 30.3699L202.474 18.3347C202.474 18.3347 205.915 15.6939 204.736 13.086C203.556 10.4781 200.997 12.2052 200.997 12.2052C200.997 12.2052 198.996 8.70089 194.922 9.14205C190.849 9.58324 189.489 14.6285 190.364 17.7871C191.657 22.4523 194.084 24.3781 198.62 22.4445L199.223 29.1168" fill="#FFCC00"/>
<path d="M193.438 19.2156L193.039 21.495" stroke="#170C2C" stroke-width="0.5" stroke-miterlimit="10"/>
<path d="M203.687 27.0567C199.133 26.5388 199.049 11.9379 199.049 11.9379C195.189 15.2404 190.156 14.9807 190.156 14.9807C190.156 14.9807 190.173 7.98139 197.632 7.49016C205.092 6.99891 207.544 11.4012 207.544 11.4012C207.544 11.4012 215.704 11.8972 216.942 18.2253C218.18 24.5535 212.172 29.9758 212.172 29.9758C212.172 29.9758 207.306 27.4696 203.687 27.0567Z" fill="black"/>
<path d="M192.352 20.0568C192.632 19.9385 192.713 19.4952 192.533 19.0668C192.354 18.6384 191.981 18.3871 191.701 18.5055C191.421 18.6239 191.34 19.0671 191.52 19.4955C191.7 19.9239 192.072 20.1752 192.352 20.0568Z" fill="#170C2C"/>
<path d="M194.986 19.4281C195.265 19.3097 195.347 18.8664 195.167 18.438C194.987 18.0096 194.615 17.7583 194.335 17.8767C194.055 17.9951 193.974 18.4384 194.154 18.8668C194.333 19.2952 194.706 19.5465 194.986 19.4281Z" fill="#170C2C"/>
<path fill-rule="evenodd" clip-rule="evenodd" d="M210.987 59.9385C209.989 61.7169 209.107 63.1688 208.561 63.7857C208.25 64.1361 207.694 64.4889 207.015 64.837C206.323 65.1923 205.453 65.567 204.471 65.9479C202.506 66.7102 200.065 67.509 197.63 68.2414C195.195 68.9742 192.761 69.6426 190.807 70.144C188.867 70.6421 187.373 70.9831 186.836 71.0511C186.382 71.1088 185.714 71.3209 184.932 71.6161C184.304 71.8533 183.63 72.1335 182.969 72.4077C182.816 72.4712 182.664 72.5343 182.513 72.5966C181.721 72.9241 180.963 73.2291 180.389 73.4023C180.107 73.4875 179.836 73.5513 179.615 73.559C179.507 73.5627 179.371 73.5548 179.243 73.5001C179.097 73.4375 178.963 73.3129 178.916 73.1212C178.877 72.9665 178.908 72.8208 178.942 72.7166C178.979 72.6067 179.035 72.4976 179.097 72.3944C179.223 72.1879 179.404 71.9563 179.612 71.7178C179.849 71.4473 180.133 71.1521 180.437 70.852C179.686 71.2544 178.931 71.6267 178.33 71.8526C178.006 71.974 177.693 72.0669 177.436 72.0842C177.31 72.0928 177.153 72.0866 177.006 72.0194C176.835 71.9405 176.708 71.79 176.671 71.5897C176.64 71.4224 176.677 71.2635 176.723 71.1403C176.771 71.0117 176.843 70.8816 176.925 70.755C177.089 70.5017 177.326 70.2171 177.601 69.9215C178.153 69.3275 178.899 68.6423 179.642 67.9975C179.785 67.8729 179.929 67.7497 180.071 67.6287C179.395 67.913 178.706 68.1739 178.158 68.3168C177.87 68.3915 177.588 68.4432 177.354 68.4339C177.238 68.4292 177.098 68.4082 176.97 68.3385C176.825 68.2599 176.709 68.1254 176.67 67.9406C176.629 67.7519 176.691 67.5821 176.747 67.4693C176.808 67.3491 176.895 67.2318 176.991 67.1217C177.182 66.9004 177.455 66.6538 177.768 66.399C178.399 65.8866 179.25 65.2963 180.095 64.7407C180.944 64.1836 181.797 63.6556 182.437 63.2671C182.758 63.0727 183.026 62.9133 183.213 62.8019C183.307 62.7465 183.381 62.7029 183.431 62.6733L183.489 62.6396L183.509 62.628L183.509 62.6277C183.509 62.6277 183.509 62.6277 183.712 62.9793C183.915 63.3307 183.915 63.3307 183.915 63.3309L183.896 63.3417L183.839 63.375C183.79 63.4041 183.717 63.447 183.624 63.5019C183.438 63.6118 183.173 63.77 182.856 63.9626C182.22 64.3482 181.376 64.8708 180.538 65.4207C179.699 65.9721 178.875 66.5446 178.278 67.0305C178.01 67.2478 177.799 67.4392 177.653 67.5972C177.739 67.5821 177.839 67.5602 177.954 67.5304C178.479 67.3937 179.178 67.1266 179.891 66.8233C180.598 66.522 181.302 66.1921 181.83 65.9368C182.093 65.8095 182.312 65.7008 182.465 65.6244C182.542 65.586 182.602 65.5559 182.642 65.5352L182.689 65.5116L182.7 65.5057L182.703 65.5042L182.704 65.5039L182.888 65.8656C183.134 66.1881 183.134 66.1881 183.134 66.1881L183.13 66.1913L183.117 66.2009L183.068 66.2394C183.024 66.2731 182.96 66.3229 182.879 66.3867C182.716 66.5141 182.483 66.6976 182.204 66.9214C181.646 67.3688 180.905 67.9749 180.171 68.6122C179.435 69.2511 178.714 69.9138 178.193 70.4756C177.931 70.7577 177.73 71.0028 177.602 71.1989C177.593 71.2137 177.584 71.2278 177.575 71.2413C177.699 71.212 177.857 71.163 178.046 71.0915C178.651 70.8641 179.456 70.4623 180.273 70.0186C181.085 69.577 181.893 69.1028 182.498 68.7381C182.801 68.5561 183.053 68.4018 183.228 68.2929C183.316 68.2387 183.385 68.1956 183.432 68.1665C183.455 68.1518 183.473 68.1407 183.485 68.133L183.503 68.1219C183.503 68.1219 183.503 68.1217 183.718 68.4656L183.975 68.78L183.974 68.7805L183.962 68.7904L183.924 68.8217C183.891 68.8492 183.842 68.8899 183.78 68.9419C183.656 69.0461 183.478 69.1961 183.265 69.3785C182.839 69.7434 182.274 70.2371 181.716 70.7537C181.156 71.2724 180.611 71.8063 180.221 72.2532C180.071 72.4244 179.951 72.5759 179.862 72.7036C179.947 72.6844 180.044 72.658 180.156 72.6242C180.686 72.4646 181.406 72.1758 182.205 71.8452C182.353 71.7843 182.503 71.722 182.655 71.6589C183.316 71.3845 184.006 71.0979 184.647 70.8557C185.427 70.5611 186.176 70.3159 186.735 70.245C187.211 70.1849 188.651 69.8589 190.607 69.3568C192.55 68.8579 194.974 68.1924 197.398 67.4631C199.823 66.7334 202.243 65.9415 204.179 65.1901C205.148 64.8141 205.989 64.4509 206.647 64.1134C207.32 63.7687 207.755 63.4733 207.956 63.2459C208.433 62.7076 209.272 61.3404 210.282 59.5399C211.283 57.7564 212.428 55.592 213.51 53.4965C214.592 51.4016 215.61 49.3786 216.358 47.8791C216.732 47.1294 217.038 46.5108 217.251 46.0796C217.357 45.864 217.44 45.6953 217.497 45.5804L217.581 45.408L217.582 45.4058L217.583 45.4053C217.583 45.4053 217.583 45.405 217.946 45.5841C218.309 45.7633 218.309 45.7635 218.309 45.7635L218.308 45.7642L218.222 45.9399C218.166 46.0552 218.082 46.2242 217.976 46.4403C217.763 46.8724 217.456 47.4921 217.081 48.243C216.332 49.7447 215.312 51.7714 214.228 53.8705C213.144 55.9692 211.995 58.1432 210.987 59.9385ZM183.718 68.4656L183.975 68.78L183.503 68.1219L183.718 68.4656ZM182.888 65.8656L183.134 66.1881L182.704 65.5039L182.888 65.8656ZM177.461 67.8561C177.461 67.8561 177.461 67.8549 177.462 67.8524C177.461 67.8549 177.461 67.8561 177.461 67.8561Z" fill="white"/>
<path fill-rule="evenodd" clip-rule="evenodd" d="M210.555 34.0351C210.646 33.979 210.777 33.9198 210.934 33.927L210.897 34.7385C210.945 34.7408 210.975 34.7287 210.983 34.7248C210.983 34.7252 210.982 34.7257 210.981 34.7265C210.966 34.7356 210.933 34.7605 210.882 34.8137C210.781 34.9201 210.65 35.0936 210.493 35.339C210.182 35.8268 209.802 36.5391 209.379 37.4117C208.533 39.1536 207.534 41.4885 206.575 43.8331C205.617 46.1761 204.703 48.5216 204.027 50.282C203.69 51.162 203.412 51.8955 203.219 52.4089C203.122 52.6657 203.047 52.8672 202.996 53.0047C202.98 53.047 202.966 53.0833 202.955 53.1133C202.948 53.1318 202.942 53.1478 202.937 53.1614L202.918 53.2141L202.917 53.2148C202.917 53.2148 202.917 53.2148 202.538 53.0732L202.917 53.2148L202.701 53.4447L185.255 61.1795L185.092 61.2139H183.159V60.4014H185.006L202.219 52.7706C202.225 52.7546 202.231 52.7376 202.238 52.7194C202.289 52.5814 202.365 52.3789 202.462 52.1217C202.656 51.607 202.934 50.8718 203.273 49.9898C203.949 48.2264 204.866 45.8748 205.827 43.5246C206.787 41.1759 207.795 38.8218 208.651 37.056C209.079 36.1747 209.475 35.4284 209.813 34.8999C209.98 34.6375 210.144 34.4136 210.298 34.2515C210.376 34.1706 210.461 34.0935 210.555 34.0351Z" fill="white"/>
<path fill-rule="evenodd" clip-rule="evenodd" d="M35.0368 56.6864C36.1291 58.4426 37.1283 59.8092 37.88 60.4358C38.1619 60.6708 38.6668 60.962 39.371 61.2964C40.0665 61.6265 40.9286 61.986 41.9038 62.3622C43.8535 63.1149 46.2353 63.9274 48.5999 64.7023C50.3204 65.266 52.0275 65.8083 53.5503 66.2919C54.1205 66.473 54.6646 66.646 55.1742 66.8086C57.0236 67.3994 58.4514 67.8672 58.945 68.1016C59.5081 68.3691 60.2905 68.7752 61.1413 69.2164L61.1462 69.2189C62.0015 69.6628 62.9303 70.1448 63.7951 70.5693C64.6639 70.9957 65.4529 71.3572 66.0307 71.5636C66.1725 71.6144 66.2949 71.6533 66.3979 71.6814C66.3111 71.5375 66.1904 71.3651 66.0402 71.1689C65.6658 70.6804 65.1433 70.0913 64.6065 69.518C64.0716 68.9466 63.5297 68.3982 63.1212 67.9919C62.9171 67.7892 62.7466 67.6221 62.6271 67.5061C62.5675 67.4479 62.5206 67.4026 62.4887 67.3718L62.4524 67.3368L62.4411 67.326L62.4404 67.3255L62.7196 67.0313C62.9374 66.6888 62.9374 66.6888 62.9374 66.6888L62.9384 66.6896L62.9561 66.7009C62.9686 66.709 62.9875 66.7209 63.012 66.7366C63.0611 66.7677 63.1332 66.8135 63.2252 66.8714C63.4092 66.9874 63.6725 67.152 63.9892 67.3464C64.6232 67.7354 65.4688 68.2425 66.3189 68.717C67.1727 69.1935 68.0164 69.6286 68.6514 69.8809C68.8619 69.9644 69.0356 70.0223 69.1712 70.0563C69.1644 70.0445 69.1573 70.0324 69.1499 70.0196C69.0351 69.8277 68.8528 69.5877 68.6141 69.3115C68.1389 68.7616 67.4801 68.1139 66.8059 67.4893C66.1339 66.8667 65.4546 66.2749 64.9428 65.8383C64.6872 65.6201 64.4737 65.4409 64.3243 65.3165C64.2495 65.2544 64.1909 65.2059 64.1509 65.1731L64.1055 65.1357L64.0913 65.1238L64.0905 65.1234C64.0905 65.1234 64.0905 65.1233 64.1207 65.0857L64.0905 65.1234L64.5307 64.4468L64.5314 64.4473L64.5466 64.4549L64.5947 64.4796C64.6371 64.5012 64.6995 64.5328 64.7787 64.5729C64.9377 64.653 65.1654 64.7666 65.4392 64.9001C65.9872 65.1675 66.7183 65.5139 67.4534 65.8314C68.1928 66.151 68.92 66.4343 69.4664 66.5829C69.6234 66.6255 69.7551 66.6541 69.8614 66.6706C69.8545 66.6603 69.8474 66.6497 69.84 66.6388C69.6997 66.436 69.4806 66.1776 69.1982 65.8773C68.6357 65.2793 67.8616 64.5579 67.0733 63.8575C66.2868 63.1587 65.4936 62.4871 64.8965 61.9897C64.5979 61.7411 64.3489 61.5363 64.1744 61.3939C64.1148 61.3452 64.064 61.304 64.0231 61.2705C64.0039 61.255 63.987 61.2412 63.972 61.2291L63.919 61.1862L63.9055 61.1752L63.9021 61.1724L63.9014 61.172C63.9014 61.172 63.9011 61.1717 64.1541 60.8549C64.4073 60.5378 64.4073 60.5378 64.4073 60.538H64.4075L64.4262 60.5531L64.4804 60.5969C64.5277 60.6353 64.5969 60.6918 64.685 60.7637C64.8611 60.9076 65.1121 61.1138 65.4129 61.3644C66.014 61.8648 66.8143 62.5423 67.6094 63.2489C68.4028 63.954 69.1985 64.6944 69.7863 65.3192C70.079 65.6304 70.3302 65.9233 70.5047 66.1756C70.5913 66.301 70.6678 66.4289 70.7196 66.5526C70.7667 66.6654 70.8187 66.8327 70.7807 67.0113C70.7399 67.202 70.617 67.3373 70.4693 67.4127C70.3386 67.4797 70.1963 67.4974 70.0785 67.4999C69.8408 67.5046 69.5513 67.4477 69.2549 67.3671C68.6506 67.2028 67.88 66.9002 67.1337 66.5777C67.0552 66.544 66.9769 66.5097 66.8992 66.4755C67.0498 66.6117 67.2024 66.7512 67.3545 66.8921C68.0356 67.5231 68.7201 68.1949 69.225 68.7791C69.4764 69.0698 69.6936 69.3507 69.8435 69.6015C69.9185 69.7271 69.9833 69.8558 70.0257 69.9829C70.0665 70.1056 70.0974 70.2591 70.0675 70.4185C70.028 70.6284 69.8901 70.7787 69.7127 70.8514C69.5633 70.9125 69.4033 70.9125 69.2758 70.8997C69.014 70.8735 68.6909 70.7703 68.3538 70.6363C67.6673 70.3638 66.7853 69.9068 65.9259 69.4271C65.7152 69.3095 65.5049 69.1901 65.2981 69.0708C65.8059 69.6173 66.3077 70.1854 66.6815 70.6735C66.88 70.9327 67.0515 71.1808 67.1685 71.3978C67.2272 71.5062 67.2785 71.6183 67.3111 71.7285C67.3417 71.8317 67.3692 71.9756 67.3319 72.1261C67.2799 72.3363 67.1249 72.459 66.9708 72.5115C66.8376 72.557 66.6977 72.5556 66.5851 72.5447C66.3538 72.5218 66.0662 72.439 65.7593 72.3291C65.1352 72.1059 64.3111 71.727 63.4399 71.2993C62.5672 70.8708 61.632 70.3855 60.7794 69.9432L60.7736 69.94C59.9159 69.4953 59.1472 69.0964 58.5994 68.8363C58.1688 68.6318 56.814 68.1848 54.9289 67.5829C54.4217 67.4208 53.8788 67.2484 53.3096 67.0678C51.7861 66.5836 50.0731 66.0396 48.3489 65.4747C45.9809 64.6988 43.5832 63.8809 41.6136 63.1206C40.6288 62.7406 39.7461 62.373 39.025 62.0308C38.3123 61.6926 37.7287 61.3654 37.3634 61.0611C36.4983 60.3399 35.4379 58.8649 34.3506 57.1168C33.2532 55.3525 32.0979 53.2593 31.0469 51.256C29.9954 49.2518 29.0456 47.3327 28.3587 45.9148C28.0152 45.206 27.7373 44.6221 27.5452 44.2153C27.4492 44.0118 27.3746 43.8526 27.3241 43.7442C27.2986 43.69 27.2795 43.6484 27.2665 43.6206L27.2466 43.5779C27.2466 43.5777 27.2466 43.5777 27.6134 43.4065C27.9804 43.2355 27.9804 43.2355 27.9804 43.2355L27.9995 43.2769C28.0123 43.3045 28.0314 43.3456 28.0564 43.3993C28.1067 43.5067 28.1808 43.6649 28.2763 43.8672C28.4674 44.2717 28.7441 44.8532 29.0861 45.5595C29.7706 46.972 30.7164 48.8832 31.7628 50.8773C32.8096 52.8725 33.9544 54.9463 35.0368 56.6864ZM62.7196 67.0313L62.9374 66.6888L62.4404 67.3255L62.7196 67.0313Z" fill="white"/>
<path fill-rule="evenodd" clip-rule="evenodd" d="M34.5925 32.551C34.5994 32.5537 34.6222 32.5608 34.6578 32.5591L34.6225 31.7475C34.7716 31.7409 34.8999 31.7929 34.9929 31.8448C35.0891 31.8988 35.1796 31.971 35.2628 32.0486C35.4291 32.2036 35.6077 32.4191 35.7935 32.6729C36.1669 33.1834 36.6092 33.9048 37.0901 34.7568C38.054 36.4642 39.1975 38.7404 40.292 41.0113C41.3872 43.2836 42.4362 45.5574 43.2115 47.2624C43.5989 48.1151 43.9181 48.8259 44.1406 49.3238C44.2518 49.5726 44.3386 49.7683 44.398 49.9016C44.4088 49.9264 44.4188 49.9489 44.4279 49.9693L61.6102 58.2237H63.1946V59.0362H61.5184L61.3438 58.9963L43.9441 50.6375L43.7488 50.4354L44.1188 50.2711C43.7488 50.4355 43.7488 50.4357 43.7488 50.4354L43.726 50.3837C43.7108 50.3495 43.6882 50.2987 43.6588 50.2322C43.5999 50.0994 43.5133 49.9045 43.4024 49.6562C43.1806 49.16 42.8622 48.4506 42.4755 47.5999C41.7017 45.8979 40.6553 43.63 39.5638 41.3651C38.4713 39.0984 37.3369 36.8414 36.3862 35.1576C35.91 34.314 35.4863 33.6254 35.1414 33.1538C34.9679 32.9166 34.8241 32.7481 34.7123 32.6438C34.6566 32.5919 34.6188 32.5655 34.5989 32.5544C34.596 32.5529 34.594 32.5517 34.5925 32.551Z" fill="white"/>
<path d="M99.8788 5.52344C97.3553 10.5297 95.0734 16.4135 96.7635 18.8212C99.9583 23.369 118.159 7.96868 118.159 7.96868C118.159 7.96868 113.859 13.4536 116.062 15.661C117.507 17.1113 123.291 16.1304 126.564 15.4342" stroke="#113355" stroke-opacity="0.24" stroke-width="2" stroke-linejoin="bevel"/>
<path d="M92.1934 49.9615C96.4865 44.6267 101.887 37.1627 100.533 35.0116C98.3433 31.5466 85.9985 41.739 85.408 41.1585C84.8177 40.578 89.4254 33.7916 86.9205 31.329C85.6948 30.1213 80.7397 30.96 75.9949 32.1315" stroke="#113355" stroke-opacity="0.24" stroke-width="2" stroke-miterlimit="10"/>
<path d="M55.5434 17.5025C55.5434 17.5025 54.4406 17.3101 53.9607 17.72" stroke="#170C2C" stroke-width="0.5" stroke-miterlimit="10"/>
<path d="M57.1587 16.8157C57.1587 16.8157 58.2944 16.1414 58.7865 16.9518" stroke="#170C2C" stroke-width="0.5" stroke-miterlimit="10"/>
<path d="M127.914 26.8736C123.619 25.7644 105.88 21.4512 103.536 25.2872C100.877 29.6412 119.065 36.4557 118.554 41.1241C118.384 42.6775 108.074 40.5623 107.182 41.8469C106.433 42.9248 107.835 45.6015 109.346 47.9169" stroke="#113355" stroke-opacity="0.24" stroke-width="2" stroke-miterlimit="10"/>
<path d="M129.217 37.887C128.334 37.6226 127.494 37.2316 126.725 36.7231C124.534 35.3151 123.251 33.397 123.858 32.449C124.439 31.5386 126.553 31.8483 128.659 33.125L129.217 37.887Z" fill="#113355" fill-opacity="0.24"/>
<path d="M80.7227 41.9604C81.431 40.3836 81.1756 38.7296 80.1521 38.266C79.1287 37.8023 77.7252 38.7045 77.0169 40.2813C76.3086 41.8579 76.5642 43.5121 77.5875 43.9755C78.6108 44.4392 80.0144 43.537 80.7227 41.9604Z" fill="#113355" fill-opacity="0.24"/>
<path d="M114.327 2.24137C113.668 3.70881 111.396 4.11087 109.255 3.13936C108.748 2.91407 108.278 2.61839 107.853 2.2617C109.999 1.59213 112.189 1.0696 114.406 0.697266C114.565 1.20414 114.537 1.7517 114.327 2.24137Z" fill="#113355" fill-opacity="0.24"/>
<path d="M99.1329 29.3306C99.4047 28.5264 98.3031 27.4236 96.6724 26.8673C95.0416 26.311 93.4989 26.512 93.2271 27.3162C92.955 28.1204 94.0566 29.2234 95.6876 29.7795C97.3184 30.3358 98.8608 30.135 99.1329 29.3306Z" fill="#113355" fill-opacity="0.24"/>
</g>
<defs>
<clipPath id="clip0">
<rect width="250" height="153" fill="white"/>
</clipPath>
</defs>
</svg>
