<svg width="264" height="194" viewBox="0 0 264 194" fill="none" xmlns="http://www.w3.org/2000/svg">
<path d="M114.919 90.4817H70.8688C69.5399 90.4817 68.4617 89.4035 68.4617 88.0746V54.1661C68.4617 52.8372 69.5399 51.759 70.8688 51.759H80.938C81.7117 51.759 82.4371 52.1316 82.8902 52.7584L84.8067 55.4162C85.2598 56.043 85.9852 56.4156 86.7589 56.4156H114.918C116.246 56.4156 117.325 57.4937 117.325 58.8226V88.0746C117.326 89.4035 116.248 90.4817 114.919 90.4817Z" fill="white"/>
<path d="M70.9369 90.4817H114.849C116.216 90.4817 117.325 89.3731 117.325 88.0066V62.6751C117.325 61.3086 116.216 60.2 114.849 60.2H70.9369C69.5703 60.2 68.4617 61.3086 68.4617 62.6751V88.0066C68.4617 89.3731 69.5703 90.4817 70.9369 90.4817Z" fill="#2288ED"/>
<path d="M114.919 142.241H70.8688C69.5399 142.241 68.4617 141.163 68.4617 139.834V105.925C68.4617 104.596 69.5399 103.518 70.8688 103.518H80.938C81.7117 103.518 82.4371 103.891 82.8902 104.518L84.8067 107.175C85.2598 107.802 85.9852 108.175 86.7589 108.175H114.918C116.246 108.175 117.325 109.253 117.325 110.582V139.834C117.326 141.163 116.248 142.241 114.919 142.241Z" fill="white"/>
<path d="M46.4577 142.241H2.40715C1.0782 142.241 0 141.163 0 139.834V105.925C0 104.596 1.0782 103.518 2.40715 103.518H12.4763C13.2501 103.518 13.9754 103.891 14.4286 104.518L16.345 107.175C16.7981 107.802 17.5235 108.175 18.2972 108.175H46.4559C47.7848 108.175 48.863 109.253 48.863 110.582V139.834C48.8648 141.163 47.7866 142.241 46.4577 142.241Z" fill="white"/>
<path d="M46.4577 90.4817H2.40715C1.0782 90.4817 0 89.4035 0 88.0746V54.1661C0 52.8372 1.0782 51.759 2.40715 51.759H12.4763C13.2501 51.759 13.9754 52.1316 14.4286 52.7584L16.345 55.4162C16.7981 56.043 17.5235 56.4156 18.2972 56.4156H46.4559C47.7848 56.4156 48.863 57.4937 48.863 58.8226V88.0746C48.8648 89.4035 47.7866 90.4817 46.4577 90.4817Z" fill="white"/>
<path d="M114.919 38.7226H70.8688C69.5399 38.7226 68.4617 37.6445 68.4617 36.3156V2.40707C68.4617 1.07817 69.5399 0 70.8688 0H80.938C81.7117 0 82.4371 0.372522 82.8902 0.999363L84.8067 3.65717C85.2598 4.28401 85.9852 4.65653 86.7589 4.65653H114.918C116.246 4.65653 117.325 5.7347 117.325 7.0636V36.3156C117.326 37.6445 116.248 38.7226 114.919 38.7226Z" fill="white"/>
<path d="M46.4577 38.7226H2.40715C1.0782 38.7226 0 37.6445 0 36.3156V2.40707C0 1.07817 1.0782 0 2.40715 0H12.4763C13.2501 0 13.9754 0.372522 14.4286 0.999363L16.345 3.65717C16.7981 4.28401 17.5235 4.65653 18.2972 4.65653H46.4559C47.7848 4.65653 48.863 5.7347 48.863 7.0636V36.3156C48.8648 37.6445 47.7866 38.7226 46.4577 38.7226Z" fill="white"/>
<path d="M114.919 194H70.8688C69.5399 194 68.4617 192.922 68.4617 191.593V157.684C68.4617 156.356 69.5399 155.277 70.8688 155.277H80.938C81.7117 155.277 82.4371 155.65 82.8902 156.277L84.8067 158.935C85.2598 159.561 85.9852 159.934 86.7589 159.934H114.918C116.246 159.934 117.325 161.012 117.325 162.341V191.593C117.326 192.922 116.248 194 114.919 194Z" fill="white"/>
<path d="M183.682 194H139.631C138.302 194 137.224 192.922 137.224 191.593V157.684C137.224 156.356 138.302 155.277 139.631 155.277H149.7C150.474 155.277 151.199 155.65 151.652 156.277L153.569 158.935C154.022 159.561 154.747 159.934 155.521 159.934H183.68C185.009 159.934 186.087 161.012 186.087 162.341V191.593C186.089 192.922 185.01 194 183.682 194Z" fill="white"/>
<path d="M46.4577 194H2.40715C1.0782 194 0 192.922 0 191.593V157.684C0 156.356 1.0782 155.277 2.40715 155.277H12.4763C13.2501 155.277 13.9754 155.65 14.4286 156.277L16.345 158.935C16.7981 159.561 17.5235 159.934 18.2972 159.934H46.4559C47.7848 159.934 48.863 161.012 48.863 162.341V191.593C48.8648 192.922 47.7866 194 46.4577 194Z" fill="white"/>
<path d="M2.47521 38.7226H46.3878C47.7544 38.7226 48.863 37.614 48.863 36.2474V10.9159C48.863 9.54941 47.7544 8.4408 46.3878 8.4408H2.47521C1.10865 8.4408 0 9.54941 0 10.9159V36.2474C0 37.614 1.10865 38.7226 2.47521 38.7226Z" fill="#2288ED"/>
<path d="M70.9369 38.7226H114.849C116.216 38.7226 117.325 37.614 117.325 36.2474V10.9159C117.325 9.54941 116.216 8.4408 114.849 8.4408H70.9369C69.5703 8.4408 68.4617 9.54941 68.4617 10.9159V36.2474C68.4617 37.614 69.5703 38.7226 70.9369 38.7226Z" fill="#2288ED"/>
<path d="M2.64953 90.4817H46.5621C47.9287 90.4817 49.0373 89.3731 49.0373 88.0066V62.6751C49.0373 61.3086 47.9287 60.2 46.5621 60.2H2.64953C1.28297 60.2 0.174316 61.3086 0.174316 62.6751V88.0066C0.174316 89.3731 1.28297 90.4817 2.64953 90.4817Z" fill="#2288ED"/>
<path d="M2.47521 142.241H46.3878C47.7544 142.241 48.863 141.132 48.863 139.766V114.434C48.863 113.068 47.7544 111.959 46.3878 111.959H2.47521C1.10865 111.959 0 113.068 0 114.434V139.766C0 141.132 1.10865 142.241 2.47521 142.241Z" fill="#2288ED"/>
<path d="M70.9369 142.241H114.849C116.216 142.241 117.325 141.132 117.325 139.766V114.434C117.325 113.068 116.216 111.959 114.849 111.959H70.9369C69.5703 111.959 68.4617 113.068 68.4617 114.434V139.766C68.4617 141.132 69.5703 142.241 70.9369 142.241Z" fill="#2288ED"/>
<path d="M2.64953 194H46.5621C47.9287 194 49.0373 192.891 49.0373 191.525V166.193C49.0373 164.827 47.9287 163.718 46.5621 163.718H2.64953C1.28297 163.718 0.174316 164.827 0.174316 166.193V191.525C0.174316 192.891 1.28297 194 2.64953 194Z" fill="#2288ED"/>
<path d="M70.9369 194H114.849C116.216 194 117.325 192.891 117.325 191.525V166.193C117.325 164.827 116.216 163.718 114.849 163.718H70.9369C69.5703 163.718 68.4617 164.827 68.4617 166.193V191.525C68.4617 192.891 69.5703 194 70.9369 194Z" fill="#2288ED"/>
<path d="M139.699 194H183.612C184.978 194 186.087 192.891 186.087 191.525V166.193C186.087 164.827 184.978 163.718 183.612 163.718H139.699C138.333 163.718 137.224 164.827 137.224 166.193V191.525C137.226 192.891 138.333 194 139.699 194Z" fill="#2288ED"/>
<path d="M169.371 82.0535H149.032C143.519 82.0535 139.05 77.585 139.05 72.0724C139.05 66.5598 143.519 62.0913 149.032 62.0913H169.373C174.885 62.0913 179.354 66.5598 179.354 72.0724C179.352 77.585 174.884 82.0535 169.371 82.0535Z" fill="#FF3366"/>
<path d="M237.771 160.923L219.353 176.248L159.132 112.153L98.8454 176.382L80.6323 160.83L141.022 95.1903C145.606 90.2132 152.036 87.3405 158.802 87.251C165.798 87.1578 172.503 90.0449 177.243 95.1903L237.771 160.923Z" fill="#FFCC00"/>
<path d="M231.073 171.492C236.102 167.197 239.107 162.459 237.784 160.91C236.46 159.36 231.31 161.585 226.281 165.88C221.251 170.175 218.247 174.912 219.57 176.462C220.893 178.012 226.043 175.786 231.073 171.492Z" fill="#113355"/>
<path d="M228.797 165.912L239.908 179.402L263.122 154.446L238.945 167.671L234.507 162.364" fill="#2DBFA2"/>
<path d="M84.9438 156.142C84.9438 156.142 115.177 154.751 115.132 144.942C115.099 137.72 102.211 137.373 102.211 137.373" stroke="#113355" stroke-opacity="0.24" stroke-miterlimit="10"/>
<path d="M120.085 153.753C120.085 153.753 106.389 144.317 102.126 147.99C97.8632 151.663 106.143 168.604 106.143 168.604" stroke="#113355" stroke-opacity="0.24" stroke-miterlimit="10"/>
<path d="M149.012 89.425C149.012 89.425 141.623 102.152 148.566 109.233C155.51 116.315 173.92 92.1849 173.92 92.1849" stroke="#113355" stroke-opacity="0.24" stroke-miterlimit="10"/>
<path d="M127.091 146.289C127.091 146.289 124.317 129.108 138.278 120.584" stroke="#113355" stroke-opacity="0.24" stroke-miterlimit="10"/>
<path d="M113.552 125.048C113.552 125.048 139.547 140.661 140.135 122.071" stroke="#113355" stroke-opacity="0.24" stroke-miterlimit="10"/>
<path d="M240.866 169.328L243.304 163.02" stroke="white" stroke-miterlimit="10"/>
<path d="M244.084 167.986L246.522 161.678" stroke="white" stroke-miterlimit="10"/>
<path d="M247.455 166.355L249.892 160.047" stroke="white" stroke-miterlimit="10"/>
<path d="M183.352 110.872C183.352 110.872 156.915 114.099 163.409 87.6414" stroke="#113355" stroke-opacity="0.24" stroke-miterlimit="10"/>
<path d="M98.8671 176.38C100.19 174.83 97.1858 170.092 92.1562 165.798C87.1266 161.503 81.9766 159.278 80.6533 160.827C79.33 162.377 82.3346 167.115 87.3642 171.409C92.3938 175.704 97.5438 177.929 98.8671 176.38Z" fill="#113355"/>
<path d="M89.5984 165.841L78.4868 179.328L55.2732 154.375L79.4504 167.598L83.8868 162.293" fill="#2DBFA2"/>
<path d="M77.5296 169.256L75.092 162.946" stroke="white" stroke-miterlimit="10"/>
<path d="M74.3114 167.915L71.8738 161.605" stroke="white" stroke-miterlimit="10"/>
<path d="M70.9412 166.283L68.5037 159.973" stroke="white" stroke-miterlimit="10"/>
<path d="M183.413 142.241H139.362C138.033 142.241 136.955 141.163 136.955 139.834V105.925C136.955 104.596 138.033 103.518 139.362 103.518H149.431C150.205 103.518 150.931 103.891 151.384 104.518L153.3 107.175C153.753 107.802 154.479 108.175 155.252 108.175H183.411C184.74 108.175 185.818 109.253 185.818 110.582V139.834C185.82 141.163 184.742 142.241 183.413 142.241Z" fill="#113355"/>
<path d="M174.797 83.8283L182.88 95.4177L169.075 117.774L179.972 125.049C179.972 125.049 199.331 101.203 197.508 92.647C195.629 83.8301 175.752 64.7992 175.752 64.7992" stroke="white" stroke-miterlimit="10"/>
<path d="M131.248 96.3365L125.696 86.8282L139.992 79.8882" stroke="white" stroke-miterlimit="10"/>
<path d="M144.187 104.331C144.296 109.362 140.308 113.528 135.275 113.637C130.828 113.734 127.056 110.626 126.166 106.428C126.049 105.877 125.981 105.309 125.969 104.725C125.859 99.6962 129.848 95.5286 134.881 95.4193C137.499 95.362 139.881 96.4151 141.581 98.1452C143.15 99.7445 144.135 101.919 144.187 104.331Z" fill="#FF3366"/>
<path d="M148.567 62.8237C140.724 63.0189 111.571 77.0333 110.321 82.725C109.073 88.4149 122.991 106.771 124.88 108.066C127.012 109.523 136.75 112.744 136.939 111.536C137.165 110.096 128.056 105.603 128.056 105.603C128.056 105.603 140.097 109.396 140.392 108.119C140.704 106.765 128.715 101.543 128.715 101.543C128.715 101.543 138.236 102.125 138.102 101.091C137.946 99.8951 129.514 97.1871 129.514 97.1871" stroke="white" stroke-miterlimit="10" stroke-linejoin="bevel"/>
<path d="M168.896 58.6687C167.952 63.1838 163.528 66.078 159.013 65.1341C155.021 64.2996 152.297 60.7463 152.37 56.8133C152.381 56.2975 152.438 55.7763 152.547 55.2516C153.491 50.7383 157.915 47.8423 162.43 48.7862C164.78 49.2769 166.689 50.7097 167.848 52.6063C168.919 54.3579 169.349 56.5052 168.896 58.6687Z" fill="#FFCC00"/>
<path d="M170.051 49.6421C169.659 51.5173 167.822 52.719 165.946 52.3286C164.288 51.9829 163.156 50.5054 163.186 48.872C163.19 48.6571 163.215 48.4404 163.26 48.2237C163.652 46.3485 165.49 45.1468 167.365 45.5372C168.341 45.7414 169.134 46.336 169.616 47.124C170.062 47.8512 170.24 48.7431 170.051 49.6421Z" fill="black"/>
<path d="M164.625 47.511C164.387 48.6537 163.267 49.3862 162.125 49.148C161.114 48.9367 160.425 48.0376 160.443 47.0418C160.445 46.9111 160.461 46.7785 160.487 46.646C160.726 45.5034 161.845 44.7708 162.988 45.009C163.582 45.1326 164.066 45.4962 164.36 45.9762C164.63 46.4203 164.739 46.9648 164.625 47.511Z" fill="black"/>
<path d="M165.688 62.8238C165.688 62.8238 163.986 62.3385 164.149 60.7552" stroke="black" stroke-miterlimit="10"/>
<path d="M166.461 59.8281C166.466 59.0338 166.065 58.3874 165.565 58.3843C165.066 58.3811 164.657 59.0225 164.652 59.8167C164.647 60.611 165.048 61.2574 165.547 61.2606C166.047 61.2637 166.456 60.6224 166.461 59.8281Z" fill="black"/>
<path d="M163.452 59.9085C163.457 59.1143 163.056 58.4678 162.557 58.4647C162.057 58.4616 161.648 59.1029 161.643 59.8972C161.638 60.6915 162.039 61.3379 162.539 61.341C163.038 61.3441 163.447 60.7028 163.452 59.9085Z" fill="black"/>
<path d="M155.517 55.8729C155.175 57.5134 153.568 58.5647 151.928 58.2209C150.479 57.9182 149.488 56.6269 149.515 55.1977C149.519 55.0097 149.54 54.8216 149.58 54.63C149.922 52.9912 151.528 51.9381 153.169 52.282C154.021 52.4611 154.716 52.9805 155.137 53.67C155.526 54.3076 155.682 55.0867 155.517 55.8729Z" fill="#FFCC00"/>
<path d="M167.515 52.309C167.515 52.309 164.228 53.552 159.178 51.4959L157.786 56.3459L154.736 54.9704C154.736 54.9704 154.503 51.9544 151.541 52.3896C151.541 52.3896 152.485 46.7266 156.011 46.3111C162.176 45.5875 166.745 49.1909 167.515 52.309Z" fill="black"/>
<path d="M227.53 164.832C227.53 164.832 220.538 141.589 199.652 155.277" stroke="#113355" stroke-opacity="0.24" stroke-miterlimit="10"/>
<path d="M210.904 167.254C210.904 167.254 198.902 137.697 214.239 135.367" stroke="#113355" stroke-opacity="0.24" stroke-miterlimit="10"/>
<path d="M185.268 120.033C185.268 120.033 199.707 124.663 199.652 132.817C199.596 140.973 188.847 143.778 188.847 143.778" stroke="#113355" stroke-opacity="0.24" stroke-miterlimit="10"/>
<path d="M140.077 142.241H183.593C184.516 142.241 185.358 141.713 185.761 140.882L195.971 119.768C196.743 118.17 195.579 116.313 193.804 116.313H150.286C149.363 116.313 148.521 116.841 148.118 117.672L137.908 138.786C137.138 140.385 138.302 142.241 140.077 142.241Z" fill="#2288ED"/>
<path d="M142.78 99.34C142.78 99.34 140.025 101.489 140.466 102.537C140.907 103.585 144.571 102.813 144.571 102.813" stroke="white" stroke-miterlimit="10" stroke-linejoin="bevel"/>
</svg>
