<svg width="660" height="496" viewBox="0 0 660 496" fill="none" xmlns="http://www.w3.org/2000/svg">
<path fill-rule="evenodd" clip-rule="evenodd" d="M1.25635 302.989L379.724 86.1139L380.417 12.2798L2.03989 219.546L1.25635 302.989Z" fill="#BC386A"/>
<path fill-rule="evenodd" clip-rule="evenodd" d="M274.762 471.164L3.71934 309.032C0.378704 307.061 0.456734 298.784 3.83314 296.875L379.49 84.5867C381.057 83.702 382.979 83.7199 384.528 84.6338L655.59 244.604C658.93 246.575 658.885 251.425 655.508 253.334L279.799 471.211C278.232 472.098 276.312 472.08 274.762 471.164Z" fill="#CC3D6C"/>
<path fill-rule="evenodd" clip-rule="evenodd" d="M8.27922 299.291L1.29395 299.226L1.3736 290.84L8.35887 290.907L8.27922 299.291Z" fill="#CC3D6C"/>
<path fill-rule="evenodd" clip-rule="evenodd" d="M658.454 249.488L647.278 249.384L647.371 239.601L658.547 239.705L658.454 249.488Z" fill="#CC3D6C"/>
<path fill-rule="evenodd" clip-rule="evenodd" d="M274.899 456.333L3.83765 296.363C0.497013 294.392 0.54253 289.541 3.92056 287.633L379.578 75.345C381.145 74.4603 383.065 74.4782 384.615 75.3921L655.677 235.363C659.018 237.334 658.971 242.183 655.594 244.092L279.939 456.38C278.37 457.265 276.45 457.247 274.899 456.333Z" fill="#BC386A"/>
<path fill-rule="evenodd" clip-rule="evenodd" d="M279.406 456.933L23.5386 311.059L24.3221 227.614L281.405 381.653L279.406 456.933Z" fill="#E0E9EE"/>
<path fill-rule="evenodd" clip-rule="evenodd" d="M24.1938 282.31L277.058 430.092L278.424 427.757L25.5577 279.975L24.1938 282.31Z" fill="#B5C7CC"/>
<path fill-rule="evenodd" clip-rule="evenodd" d="M24.4312 257.971L281.124 405.398L282.472 403.053L25.7772 255.624L24.4312 257.971Z" fill="#B5C7CC"/>
<path fill-rule="evenodd" clip-rule="evenodd" d="M24.041 298.54L276.907 446.324L278.271 443.987L25.4049 296.205L24.041 298.54Z" fill="#B5C7CC"/>
<path fill-rule="evenodd" clip-rule="evenodd" d="M49.2788 295.657C49.2788 295.657 15.6123 321.311 13.3364 347.665L37.2135 360.74C37.2135 360.74 57.5255 316.796 71.6505 308.732L49.2788 295.657Z" fill="#5D649F"/>
<path fill-rule="evenodd" clip-rule="evenodd" d="M279.258 456.932L640.292 249.251L640.987 175.418L280.028 374.885L279.258 456.932Z" fill="#FFFFFE"/>
<path fill-rule="evenodd" clip-rule="evenodd" d="M275.506 391.741L4.44397 231.772C1.10496 229.799 1.14885 224.95 4.52688 223.041L380.182 10.7544C381.751 9.86809 383.671 9.88598 385.222 10.8015L656.283 170.77C659.622 172.743 659.579 177.593 656.201 179.5L280.545 391.788C278.976 392.674 277.057 392.657 275.506 391.741Z" fill="#CC3D6C"/>
<path fill-rule="evenodd" clip-rule="evenodd" d="M8.96183 226.615L1.97656 226.55L2.05459 218.164L9.03986 218.229L8.96183 226.615Z" fill="#CC3D6C"/>
<path fill-rule="evenodd" clip-rule="evenodd" d="M659.15 175.415L647.974 175.309L648.065 165.526L659.242 165.632L659.15 175.415Z" fill="#CC3D6C"/>
<path fill-rule="evenodd" clip-rule="evenodd" d="M275.593 382.499L4.5317 222.529C1.19106 220.558 1.23658 215.708 4.61298 213.799L380.27 1.51098C381.837 0.626313 383.757 0.644202 385.308 1.55814L656.369 161.529C659.71 163.5 659.665 168.351 656.288 170.258L280.631 382.546C279.064 383.431 277.143 383.413 275.593 382.499Z" fill="#DE4371"/>
<path fill-rule="evenodd" clip-rule="evenodd" d="M635.326 204.876L281.137 403.045L282.457 405.406L636.646 207.237" fill="#B5C7CC"/>
<path fill-rule="evenodd" clip-rule="evenodd" d="M635.165 222.086L280.976 420.255L282.296 422.617L636.485 224.448" fill="#B5C7CC"/>
<path fill-rule="evenodd" clip-rule="evenodd" d="M635.004 239.296L280.815 437.465L282.135 439.827L636.324 241.656" fill="#B5C7CC"/>
<path fill-rule="evenodd" clip-rule="evenodd" d="M418.254 199.563L304.951 132.696C300.019 129.785 300.687 124.787 306.445 121.533L359.245 91.6953C365.001 88.4429 373.667 88.1648 378.599 91.0757L491.905 157.943C496.837 160.854 496.169 165.851 490.411 169.105L437.611 198.944C431.853 202.196 423.188 202.474 418.254 199.563Z" fill="#FFFFFE"/>
<path fill-rule="evenodd" clip-rule="evenodd" d="M465.401 166.589L363.456 106.427C361.928 105.524 362.138 103.962 363.921 102.953C365.705 101.947 368.415 101.859 369.943 102.762L471.887 162.924C473.415 163.826 473.207 165.389 471.422 166.396C469.638 167.404 466.929 167.492 465.401 166.589Z" fill="#E79D3A"/>
<path fill-rule="evenodd" clip-rule="evenodd" d="M448.11 176.362L346.166 116.198C344.638 115.297 344.848 113.734 346.631 112.726C348.415 111.717 351.125 111.631 352.653 112.532L454.597 172.696C456.125 173.597 455.915 175.16 454.132 176.168C452.348 177.176 449.639 177.263 448.11 176.362Z" fill="#E79D3A"/>
<path fill-rule="evenodd" clip-rule="evenodd" d="M430.82 186.132L328.876 125.97C327.348 125.067 327.556 123.504 329.341 122.496C331.124 121.489 333.834 121.401 335.361 122.304L437.306 182.466C438.833 183.369 438.625 184.932 436.841 185.938C435.057 186.947 432.348 187.034 430.82 186.132Z" fill="#E79D3A"/>
<path fill-rule="evenodd" clip-rule="evenodd" d="M221.833 159.213C220.059 170.775 217.969 182.591 212.603 193.105C207.801 202.513 201.586 211.13 196.763 220.536C193.022 227.833 190.306 235.112 191.792 243.385C193.534 253.092 196.862 262.173 197.912 272.104C199.107 283.403 216.953 283.527 215.745 272.104C214.633 261.589 212.273 251.807 209.647 241.625C208.956 238.948 208.808 238.765 209.33 236.412C210.328 231.909 213.097 227.677 215.343 223.733C219.994 215.571 225.432 207.788 229.398 199.251C234.615 188.02 237.158 176.14 239.029 163.955C240.752 152.724 223.571 147.883 221.833 159.213Z" fill="#EFA37E"/>
<path fill-rule="evenodd" clip-rule="evenodd" d="M220.458 158.081C213.199 178.788 203.447 198.174 195.365 218.522C192.975 224.537 197.982 231.517 203.668 233.151C210.405 235.086 215.934 230.782 218.292 224.844C226.37 204.51 236.124 185.117 243.385 164.404C248.457 149.931 225.495 143.709 220.458 158.081Z" fill="#8EB0CC"/>
<path fill-rule="evenodd" clip-rule="evenodd" d="M151.65 494.725C131.423 494.725 111.148 490.25 95.6657 481.307C64.8277 463.497 64.6717 434.709 95.3178 417.009C104.306 411.818 114.949 408.169 126.274 406.037C129.808 404.133 134.474 401.643 138.927 399.274C139.073 398.906 139.226 398.54 139.409 398.171C139.744 397.501 140.076 396.833 140.411 396.163L229.865 448.955C230.13 460.739 222.512 472.547 206.994 481.509C191.733 490.323 171.715 494.727 151.65 494.725Z" fill="#DAE6EE"/>
<path fill-rule="evenodd" clip-rule="evenodd" d="M229.865 448.955L140.411 396.163C141.097 394.785 141.783 393.408 142.469 392.03L229.277 443.957C229.631 445.618 229.826 447.286 229.865 448.955Z" fill="#315394"/>
<path fill-rule="evenodd" clip-rule="evenodd" d="M229.277 443.958L142.469 392.03C144.171 388.612 145.873 385.194 147.576 381.775L169.444 394.242C168.735 395.665 168.025 397.09 167.316 398.514C167.3 398.875 167.263 399.243 167.173 399.623C167.529 401.059 167.718 402.518 167.669 403.812C167.75 404.157 167.793 404.518 167.814 404.891C175.898 405.927 183.763 407.693 191.08 410.208C191.018 409.057 190.956 407.907 190.894 406.756L216.883 422.093C216.927 422.924 216.972 423.755 217.016 424.586C223.741 430.53 227.83 437.171 229.277 443.958Z" fill="#83315E"/>
<path fill-rule="evenodd" clip-rule="evenodd" d="M216.883 422.093L190.894 406.756C190.889 406.659 190.885 406.561 190.88 406.463L216.839 421.264C216.854 421.54 216.868 421.817 216.883 422.093Z" fill="#792D5C"/>
<path fill-rule="evenodd" clip-rule="evenodd" d="M216.839 421.263L190.88 406.463C190.688 402.879 190.496 399.295 190.304 395.709L216.283 410.893C216.468 414.35 216.654 417.806 216.839 421.263ZM216.109 407.658L190.13 392.476C189.886 387.937 189.644 383.4 189.4 378.863L215.381 394.047C215.625 398.584 215.867 403.121 216.109 407.658ZM169.444 394.242L147.576 381.775C148.996 378.926 150.415 376.075 151.834 373.226L173.58 385.937C172.201 388.705 170.823 391.472 169.444 394.242ZM215.207 390.812L189.228 375.628C188.838 368.017 189.067 360.517 190.28 353.224L214.17 366.944C214.127 371.319 214.401 375.744 214.64 380.219C214.83 383.749 215.018 387.28 215.207 390.812ZM174.789 383.509L153.042 370.8C154.737 367.396 156.433 363.991 158.128 360.587L179.876 373.296C178.18 376.7 176.485 380.105 174.789 383.509ZM181.085 370.87L159.338 358.159C162.269 352.274 165.2 346.388 168.132 340.503L189.964 353.041C187.004 358.984 184.044 364.926 181.085 370.87ZM214.258 363.875L169.34 338.077C169.955 336.843 170.569 335.608 171.185 334.374C171.725 333.289 172.276 332.214 172.842 331.152L215.134 356.11C214.649 358.68 214.381 361.268 214.258 363.875Z" fill="#90ACCC"/>
<path fill-rule="evenodd" clip-rule="evenodd" d="M215.381 394.047L189.4 378.863C189.348 377.89 189.296 376.918 189.244 375.944C189.239 375.84 189.233 375.734 189.228 375.628L215.207 390.812C215.265 391.889 215.322 392.969 215.381 394.047ZM179.876 373.296L158.128 360.587C158.531 359.777 158.934 358.969 159.338 358.159L181.085 370.87C180.682 371.678 180.279 372.488 179.876 373.296Z" fill="#7795B1"/>
<path fill-rule="evenodd" clip-rule="evenodd" d="M214.17 366.944L190.28 353.224C190.35 352.804 190.423 352.385 190.499 351.965C190.32 352.325 190.142 352.684 189.964 353.042L168.132 340.503C168.534 339.695 168.937 338.887 169.34 338.077L214.258 363.876C214.207 364.895 214.181 365.918 214.17 366.944Z" fill="#7795B1"/>
<path fill-rule="evenodd" clip-rule="evenodd" d="M216.283 410.893L190.304 395.709C190.245 394.633 190.189 393.553 190.13 392.476L216.109 407.659C216.167 408.737 216.226 409.815 216.283 410.893ZM173.58 385.937L151.834 373.227C152.237 372.418 152.638 371.609 153.042 370.8L174.789 383.509C174.386 384.319 173.983 385.127 173.58 385.937Z" fill="#7795B1"/>
<path fill-rule="evenodd" clip-rule="evenodd" d="M215.134 356.11L172.842 331.153C174.102 328.78 175.428 326.464 176.831 324.213L217.424 348.169C216.371 350.797 215.636 353.443 215.134 356.11Z" fill="#83315E"/>
<path fill-rule="evenodd" clip-rule="evenodd" d="M217.424 348.169L176.831 324.213C183.497 313.529 191.918 304.352 203.415 297.981C214.83 291.656 228.243 288.674 240.978 286.309C241.625 286.189 242.244 286.133 242.839 286.133C243.302 286.133 243.753 286.168 244.187 286.229C249.619 282.676 255.275 279.481 261.246 276.838C263.408 275.88 265.716 275.356 267.961 275.356C272.129 275.356 276.078 277.163 278.463 281.354C281.551 286.786 280.212 295.805 273.947 298.577C262.224 303.765 251.661 310.912 241.976 319.276C233.168 326.882 223.738 334.956 218.567 345.588C218.151 346.447 217.77 347.307 217.424 348.169Z" fill="#8E3561"/>
<path fill-rule="evenodd" clip-rule="evenodd" d="M237.149 271.25C224.31 276.932 212.874 285.099 202.166 294.109C192.253 302.45 182.054 311.662 175.243 322.795C166.29 337.43 164.252 353.635 165.148 370.356C166.419 394.081 167.69 417.806 168.96 441.531C169.823 457.647 194.996 457.748 194.127 441.531C192.933 419.231 191.738 396.93 190.543 374.631C189.906 362.727 189.038 351.175 194.472 340.001C199.642 329.369 209.072 321.294 217.881 313.688C227.565 305.323 238.128 298.178 249.85 292.99C256.047 290.246 257.548 281.151 254.365 275.766C250.587 269.374 243.413 268.478 237.149 271.25Z" fill="#E59472"/>
<path fill-rule="evenodd" clip-rule="evenodd" d="M114.443 403.871C133.237 383.729 144.71 362.033 165.123 343.681C168.631 340.528 172.019 337.832 176.516 336.256C177.774 335.815 180.048 335.287 179.765 335.327C179.858 335.313 177.606 334.735 180.185 335.55C186.195 337.45 192.312 339.328 198.489 340.588C219.692 344.916 240.331 341.348 258.297 329.006C271.565 319.891 258.993 298.062 245.595 307.267C229.016 318.655 212.729 319.006 194.064 313.404C189.132 311.924 183.927 309.93 178.691 310.181C167.663 310.709 157.602 316.988 149.503 323.962C128.389 342.144 115.371 366.001 96.6475 386.069C85.6047 397.905 103.363 415.746 114.443 403.871Z" fill="#EFA37E"/>
<path fill-rule="evenodd" clip-rule="evenodd" d="M100.12 419.746L99.3413 418.14C98.8991 417.224 99.286 416.113 100.2 415.669C101.115 415.227 102.227 415.614 102.669 416.528L103.446 418.135C103.89 419.05 103.503 420.163 102.588 420.605C101.672 421.047 100.562 420.662 100.12 419.746Z" fill="#4A4166"/>
<path fill-rule="evenodd" clip-rule="evenodd" d="M99.5475 416.172L104.54 409.441C105.146 408.625 106.308 408.452 107.124 409.057C107.941 409.664 108.114 410.827 107.508 411.643L102.516 418.375C101.91 419.192 100.747 419.364 99.9311 418.758C99.1134 418.153 98.9411 416.988 99.5475 416.172Z" fill="#3A3454"/>
<path fill-rule="evenodd" clip-rule="evenodd" d="M124.359 395.335C125.068 390.937 123.301 384.275 120.486 383.223L107.03 388.521L105.904 388.134C99.3525 389.954 68.6024 395.54 59.0649 398.675C54.2157 400.27 58.1903 406.382 58.1903 406.382C68.2415 417.198 83.732 420.533 83.732 420.533C91.244 420.821 91.4455 413.754 102.03 410.111C103.818 409.496 106.798 409.714 106.255 411.145L99.9312 418.757L103.088 420.281C103.088 420.281 113.161 410.163 120.325 403.642C123.298 400.936 124.634 397.834 124.359 395.335Z" fill="#40405B"/>
<path fill-rule="evenodd" clip-rule="evenodd" d="M119.53 381.203L111.197 381.649C111.197 381.649 83.2053 392.32 77.7513 394.556C71.4179 397.153 82.4266 417.896 114.666 398.89C134.042 390.601 119.53 381.203 119.53 381.203Z" fill="#EFA37E"/>
<path fill-rule="evenodd" clip-rule="evenodd" d="M219.435 254.365C176.285 281.738 149.95 306.764 151.587 318.517C151.587 318.517 173.082 306.596 189.946 316.393C206.616 326.079 202.997 334.397 198.738 338.864C197.397 340.271 206.136 349.581 208.079 349.639C228.074 350.244 289.967 342.935 291.191 305.204C292.23 273.223 287.859 269.401 287.859 269.401C287.859 269.401 242.891 285.005 219.435 254.365Z" fill="#AC3D67"/>
<path fill-rule="evenodd" clip-rule="evenodd" d="M301.776 159.71C292.144 148.995 274.659 143.943 260.727 143.312C256.679 143.128 256.689 149.421 260.727 149.605C273.027 150.163 288.815 154.692 297.326 164.161C300.04 167.18 304.477 162.717 301.776 159.71Z" fill="#AC3D67"/>
<path fill-rule="evenodd" clip-rule="evenodd" d="M231.98 164.422C231.98 164.422 215.522 187.28 216.423 201.693C216.995 210.865 222.972 221.483 223.764 224.454C230.244 248.773 225.491 255.749 225.957 262.401C225.957 262.401 229.886 285.4 287.129 267.17L312.448 200.092L231.98 164.422Z" fill="#CEE5ED"/>
<path fill-rule="evenodd" clip-rule="evenodd" d="M306.3 215.885C306.823 215.022 312.229 206.495 312.448 205.51C314.964 194.177 321.612 185.522 309.488 170.494C306.962 167.362 279.082 150.09 257.275 144.835C246.705 142.29 235.802 147.629 230.919 157.348C228.062 163.03 224.957 174.415 224.957 174.42C222.607 196.992 234.339 167.851 235.21 180.442C235.174 180.136 235.114 179.825 235.088 179.523C235.088 179.523 236.605 200.791 237.736 217.255C238.429 227.524 238.915 234.954 238.939 235.994V236.12L275.425 268.465L297.629 233.292L306.3 215.885Z" fill="#CEE5ED"/>
<path fill-rule="evenodd" clip-rule="evenodd" d="M258.668 144.595C258.668 144.595 238.427 163.23 254.191 178.173C269.954 193.117 299.971 163.475 299.971 163.475C285.692 153.345 271.814 146.227 258.668 144.595Z" fill="#EFA37E"/>
<path fill-rule="evenodd" clip-rule="evenodd" d="M312.448 205.51C309.975 206.541 303.114 215.749 297.725 220.52C287.259 229.787 272.085 235.143 258.702 231.11C239.053 225.189 219.435 213.913 219.435 213.913C219.435 213.913 226.467 242.123 222.529 258.099C220.703 265.507 221.786 264.181 221.786 264.181C221.797 271.363 233.708 270.078 233.708 270.078C258.479 279.369 287.129 267.17 287.129 267.17L306.225 220.27L312.448 205.51Z" fill="#A4BDD7"/>
<path fill-rule="evenodd" clip-rule="evenodd" d="M216.031 257.167C215.434 258.728 215.751 260.48 216.86 261.729C220.859 266.24 231.928 276.321 251.978 277.838C269.14 279.138 279.674 277.271 284.84 275.857C287.069 275.248 288.48 273.072 288.094 270.795L287.859 269.401C287.433 266.894 285.009 265.24 282.525 265.781C272.936 267.874 250.33 271.636 236.289 264.419C229.815 261.09 225.812 258.088 223.341 255.603C221.062 253.308 217.187 254.146 216.031 257.167Z" fill="#40405B"/>
<path fill-rule="evenodd" clip-rule="evenodd" d="M241.347 277.495L232.161 273.841C229.108 272.628 227.09 269.041 227.679 265.871C228.266 262.702 231.245 261.101 234.298 262.314L243.485 265.967C246.537 267.182 248.555 270.768 247.966 273.939C247.38 277.108 244.4 278.708 241.347 277.495Z" fill="#FFFFFE"/>
<path fill-rule="evenodd" clip-rule="evenodd" d="M239.607 274.253L234.287 272.137C232.518 271.434 231.349 269.358 231.691 267.522C232.03 265.686 233.757 264.757 235.524 265.461L240.844 267.577C242.613 268.279 243.782 270.358 243.441 272.194C243.101 274.03 241.376 274.957 239.607 274.253Z" fill="#40405B"/>
<path fill-rule="evenodd" clip-rule="evenodd" d="M251.491 147.088C249.904 160.116 239.248 172.81 254.88 181.006C271.508 189.726 289.059 175.817 301.174 165.607C304.274 162.994 299.804 158.562 296.725 161.156C286.518 169.757 269.743 183.486 256.046 174.407C250.205 170.536 253.217 164.752 254.745 159.125C255.82 155.169 257.286 151.173 257.783 147.088C258.271 143.076 251.975 143.112 251.491 147.088Z" fill="#AC3D67"/>
<path fill-rule="evenodd" clip-rule="evenodd" d="M191.398 466.551L189.816 465.723C188.916 465.253 188.565 464.129 189.034 463.229C189.506 462.328 190.628 461.976 191.53 462.448L193.11 463.274C194.01 463.746 194.363 464.868 193.892 465.769C193.42 466.67 192.299 467.022 191.398 466.551Z" fill="#4A4166"/>
<path fill-rule="evenodd" clip-rule="evenodd" d="M188.81 464.022V455.639C188.81 454.622 189.642 453.792 190.658 453.792C191.674 453.79 192.507 454.622 192.507 455.639L192.505 464.022C192.505 465.039 191.674 465.87 190.658 465.87C189.642 465.87 188.81 465.039 188.81 464.022Z" fill="#3A3454"/>
<path fill-rule="evenodd" clip-rule="evenodd" d="M196.326 432.497C194.276 428.543 188.888 424.246 186 425.079L178.351 437.355L177.215 437.714C173.039 443.081 151.668 465.897 145.876 474.101C142.932 478.271 149.765 480.809 149.765 480.809C164.28 483.506 178.707 476.952 178.707 476.952C184.91 472.704 180.863 466.908 187.194 457.675C188.264 456.115 190.787 454.513 191.203 455.987L190.659 465.869L194.102 465.211C194.102 465.211 196.163 451.08 198.032 441.573C198.809 437.628 198.036 434.342 196.326 432.497Z" fill="#40405B"/>
<path fill-rule="evenodd" clip-rule="evenodd" d="M184.029 424.026L177.603 429.352C177.603 429.352 161.479 454.606 158.431 459.654C154.89 465.513 176.086 475.61 190.658 441.13C201.282 422.926 184.029 424.026 184.029 424.026Z" fill="#E59472"/>
<path fill-rule="evenodd" clip-rule="evenodd" d="M219.038 107.874C216.107 116.147 215.329 126.111 220.71 133.044C221.698 134.317 222.86 135.441 223.967 136.613C226.863 139.679 229.387 143.092 231.471 146.759C231.83 147.39 232.193 148.049 232.778 148.476C234.126 149.467 236.122 148.821 237.297 147.631C238.471 146.44 239.11 144.835 240.024 143.435C242.745 139.266 299.661 172.432 302.463 168.32C306.261 162.747 292.258 99.7888 290.783 93.2075C288.904 84.8145 247.336 95.9379 240.518 90.6998C239.183 89.6737 237.705 88.8199 236.514 87.6295C234.786 85.9041 233.209 82.2434 230.343 83.481C228.044 84.4746 227.271 88.6329 226.471 90.6461C224.159 96.4599 221.131 101.968 219.038 107.874Z" fill="#3A271D"/>
<path fill-rule="evenodd" clip-rule="evenodd" d="M261.415 157.343L251.474 118.949L275.524 126.568L283.611 157.919C285.336 163.03 268.61 176.949 261.415 157.343Z" fill="#EFA37E"/>
<path fill-rule="evenodd" clip-rule="evenodd" d="M259.012 149.657L269.845 144.027C269.845 144.027 266.157 151.885 260.797 154.951L259.012 149.657Z" fill="#DE8266"/>
<path fill-rule="evenodd" clip-rule="evenodd" d="M260.28 149.615L252.806 149.865C241.295 150.249 231.561 141.142 231.175 129.625L229.906 91.5993C229.522 80.084 238.626 70.3461 250.138 69.9623L257.613 69.7119C269.124 69.3281 278.858 78.435 279.243 89.9519L280.513 127.978C280.896 139.493 271.793 149.231 260.28 149.615L252.806 121.68L260.84 130.389" fill="#EFA37E"/>
<path fill-rule="evenodd" clip-rule="evenodd" d="M265.721 101.067C257.037 90.3387 240.968 103.127 232.297 99.7806C222.89 96.1492 226.084 86.4781 232.468 78.6689C235.894 74.4765 240.248 70.9427 248.943 67.6545C273.292 58.45 297.718 68.7522 298.637 96.2989C298.637 96.2989 300.857 134.032 278.884 139.597L277.462 134.078C277.462 134.078 290.097 120.134 276.636 111.997C273.493 110.097 273.347 110.039 273.635 105.461C273.926 100.828 268.643 104.676 265.721 101.067Z" fill="#3A271D"/>
<path fill-rule="evenodd" clip-rule="evenodd" d="M284.73 128.793C281.376 131.583 277.538 130.619 276.159 126.643C274.779 122.665 276.379 117.18 279.733 114.391C283.086 111.6 286.924 112.563 288.304 116.541C289.683 120.518 288.083 126.004 284.73 128.793Z" fill="#EFA37E"/>
<path fill-rule="evenodd" clip-rule="evenodd" d="M226.394 121.592C226.394 121.592 226.762 108.933 257.037 92.3911C287.312 75.8474 258.407 91.6267 258.407 91.6267L228.384 84.834C228.384 84.834 216.515 98.304 226.394 121.592Z" fill="#3A271D"/>
<path fill-rule="evenodd" clip-rule="evenodd" d="M610.012 220.897L647.323 244.544L411.584 331.61L610.012 220.897Z" fill="#E79D3A"/>
<path fill-rule="evenodd" clip-rule="evenodd" d="M303.85 200.778C305.706 213.059 305.653 224.621 305.165 236.942C304.643 250.148 307.75 264.054 305.856 277.129C305.854 277.137 305.401 279.651 305.354 279.375C305.336 279.264 306.043 278.99 305.567 279.152C303.985 279.692 306.578 279.009 305.398 279.22C304.741 279.338 304.107 279.621 303.437 279.699C302.697 279.783 301.249 279.917 299.29 280.019C286.21 280.697 273.261 280.827 260.235 282.514C249.011 283.966 248.867 301.823 260.235 300.353C274.508 298.506 288.808 299.028 303.063 297.6C312.289 296.676 320.192 292.954 322.741 283.306C326.34 269.689 322.614 254.181 322.894 240.349C323.201 225.171 323.336 211.19 321.046 196.036C319.336 184.722 302.15 189.529 303.85 200.778Z" fill="#EFA37E"/>
<path fill-rule="evenodd" clip-rule="evenodd" d="M295.366 188.075C300.204 200.36 303.297 212.64 303.465 225.874C303.634 239.207 302.255 252.536 301.953 265.863C301.605 281.174 325.383 281.17 325.729 265.863C326.049 251.807 327.605 237.722 327.197 223.66C326.778 209.163 323.595 195.218 318.294 181.751C315.923 175.732 310.354 171.683 303.67 173.446C297.962 174.95 293.017 182.109 295.366 188.075Z" fill="#CEE5ED"/>
<path fill-rule="evenodd" clip-rule="evenodd" d="M210.226 289.1C204.645 289.999 199.344 286.168 198.445 280.585L194.916 258.675C194.017 253.092 197.849 247.787 203.429 246.888C209.012 245.988 214.313 249.821 215.212 255.404L218.739 277.313C219.64 282.897 215.808 288.2 210.226 289.1Z" fill="#EFA37E"/>
<path fill-rule="evenodd" clip-rule="evenodd" d="M266.641 303.46L266.627 301.464L264.058 302.458L263.507 301.189L199.234 264.066C198.46 263.619 197.094 263.676 196.2 264.191L168.529 280.174V279.73L163.412 281.785V283.906H163.446C163.511 284.112 163.672 284.303 163.933 284.454L230.818 323.085C231.592 323.532 232.957 323.475 233.851 322.96L265.9 304.448C266.389 304.167 266.638 303.804 266.638 303.46H266.641Z" fill="#A4BDD7"/>
<path fill-rule="evenodd" clip-rule="evenodd" d="M230.78 320.974L163.896 282.344C163.121 281.897 163.22 281.109 164.114 280.593L196.163 262.082C197.057 261.565 198.423 261.508 199.196 261.955L266.081 300.586C266.854 301.033 266.757 301.822 265.863 302.337L233.812 320.849C232.92 321.364 231.554 321.421 230.78 320.974Z" fill="#E0E9EE"/>
<path fill-rule="evenodd" clip-rule="evenodd" d="M235.35 296.093L219.162 286.743C218.975 286.636 219 286.446 219.216 286.321L226.972 281.84C227.188 281.715 227.519 281.702 227.706 281.809L243.893 291.159C244.081 291.268 244.057 291.458 243.841 291.583L236.085 296.063C235.867 296.187 235.537 296.202 235.35 296.093Z" fill="#A4BDD7"/>
<path fill-rule="evenodd" clip-rule="evenodd" d="M229.075 277.5C228.802 275.739 227.423 273.654 225.995 272.841L159.59 235.088C158.998 234.751 158.493 234.691 158.12 234.854L158.117 234.852L158.107 234.86L157.764 235.125L155.566 237.434L157.564 237.257L163.877 278.077C164.148 279.838 165.527 281.925 166.957 282.738L229.746 318.435L231.774 320.715L232.026 321.276C233.295 321.551 236.337 319.39 236.337 319.39L229.075 277.5Z" fill="#FFFFFE"/>
<path fill-rule="evenodd" clip-rule="evenodd" d="M231.005 322.955L164.602 285.202C163.171 284.39 161.792 282.304 161.519 280.543L155.139 239.271C154.867 237.509 155.805 236.74 157.234 237.553L223.639 275.304C225.068 276.118 226.446 278.204 226.72 279.965L233.1 321.237C233.372 322.999 232.434 323.768 231.005 322.955Z" fill="#3F3E5B"/>
<path fill-rule="evenodd" clip-rule="evenodd" d="M235.281 299.493C233.521 294.12 236.476 288.282 241.846 286.521L260.44 280.424C265.812 278.661 271.648 281.618 273.409 286.992C275.168 292.365 272.214 298.202 266.843 299.963L248.251 306.062C242.878 307.824 237.042 304.868 235.281 299.493Z" fill="#EFA37E"/>
<path fill-rule="evenodd" clip-rule="evenodd" d="M195.717 282.995C196.057 285.187 194.069 285.678 191.278 284.091C188.487 282.506 185.949 279.442 185.609 277.248C185.271 275.056 187.258 274.565 190.05 276.152C192.842 277.739 195.379 280.803 195.717 282.995Z" fill="#FFFFFE"/>
<path fill-rule="evenodd" clip-rule="evenodd" d="M264.429 99.7078C264.429 99.7078 288.766 131.58 286.593 152.437C284.796 169.676 266.071 180.65 262.735 206.701C262.041 212.123 269.049 214.985 272.403 210.67C276.619 205.245 282.151 199.311 288.799 194.764C305.05 183.647 308.007 171.812 306.472 163.145C304.939 154.479 298.173 91.2058 298.173 91.2058L260.84 87.4883L264.429 99.7078Z" fill="#3A271D"/>
</svg>
