<svg width="240" height="56" viewBox="0 0 240 56" fill="none" xmlns="http://www.w3.org/2000/svg">
<path d="M141.73 47.0695H148.464V1H141.73V47.0695Z" fill="#113355"/>
<path d="M102.1 16.847V22.9028H94.6859V36.2596C94.6859 39.8818 96.4404 41.2967 99.8928 41.2967C100.572 41.2967 101.308 41.2401 102.043 41.0703V46.7865C100.968 47.1827 99.723 47.4091 98.4213 47.4091C91.7995 47.4091 87.9509 43.9001 87.9509 37.3349V22.9028H82.4045V16.847H87.9509V7.50859H94.6859V16.847H102.1Z" fill="#113355"/>
<path fill-rule="evenodd" clip-rule="evenodd" d="M123.608 29.1284C125.475 29.1284 126.437 28.2795 126.437 26.5816C126.437 24.0914 124.287 22.0539 120.495 22.0539C117.042 22.0539 114.496 23.6386 112.967 26.8646L107.817 23.9216C110.194 18.7713 114.496 16.2244 120.665 16.2244C126.324 16.2244 130.116 18.2619 131.984 22.3935C132.663 23.9216 133.003 25.7327 133.003 27.8267V47.0695H126.381V42.938C124.513 46.0508 121.57 47.5789 117.495 47.5789C114.552 47.5789 112.118 46.7299 110.194 45.0886C108.27 43.4474 107.308 41.2967 107.308 38.6932V38.3537C107.308 31.3357 114.552 29.1284 119.872 29.1284H123.608ZM118.853 42.2022C123.438 42.2022 126.381 39.3724 126.381 34.8447V33.8825H119.872C118.457 33.8825 117.099 34.2787 115.854 35.0145C114.665 35.7502 114.043 36.769 114.043 38.0707C114.043 40.5609 115.967 42.2022 118.853 42.2022Z" fill="#113355"/>
<path d="M164.216 47.0695H157.481V1H164.216V28.7323H164.273L175.988 16.847H185.157L171.517 30.5434L185.893 47.0695H177.007L164.386 32.2978H164.216V47.0695Z" fill="#113355"/>
<path fill-rule="evenodd" clip-rule="evenodd" d="M216.443 33.9391C216.499 33.4298 216.556 32.7506 216.556 31.8451C216.556 27.1476 215.254 23.4122 212.651 20.5258C210.047 17.6394 206.425 16.2244 201.841 16.2244C197.483 16.2244 193.861 17.7526 190.974 20.8088C188.088 23.865 186.616 27.5437 186.616 31.9017C186.616 36.3728 188.144 40.1648 191.144 43.1644C194.2 46.164 197.992 47.6355 202.463 47.6355C207.897 47.6355 212.82 45.0321 215.367 40.3345L210.5 37.1085C208.859 40.2214 206.142 41.8061 202.35 41.8061C200.03 41.8061 197.992 41.0703 196.238 39.5988C194.483 38.0707 193.578 36.203 193.521 33.9391H216.443ZM201.841 21.9973C206.142 21.9973 209.481 24.6007 209.708 28.8455H193.861C194.483 24.7139 197.709 21.9973 201.841 21.9973Z" fill="#113355"/>
<path d="M238.359 16.564C239.094 16.564 239.604 16.6206 240 16.7338V23.6386C239.434 23.5254 238.811 23.4688 238.076 23.4688C232.925 23.4688 230.209 26.4684 230.209 31.7319V47.0695H223.474V16.847H230.039V21.6577C231.907 18.2619 234.68 16.564 238.359 16.564Z" fill="#113355"/>
<path d="M47.9841 31.2435C47.9841 31.8901 47.4605 32.4142 46.8147 32.4142C46.1688 32.4142 45.6452 31.8901 45.6452 31.2435C45.6452 30.597 46.1688 30.0729 46.8147 30.0729C47.4605 30.0729 47.9841 30.597 47.9841 31.2435Z" fill="#113355"/>
<path fill-rule="evenodd" clip-rule="evenodd" d="M38.996 31.2435C38.996 40.5536 46.5356 48.1008 55.8363 48.1008V14.3862C46.5356 14.3862 38.996 21.9335 38.996 31.2435ZM44.1416 31.2435C44.1416 32.7213 45.3384 33.9193 46.8147 33.9193C48.291 33.9193 49.4877 32.7213 49.4877 31.2435C49.4877 29.7657 48.291 28.5678 46.8147 28.5678C45.3384 28.5678 44.1416 29.7657 44.1416 31.2435Z" fill="#113355"/>
<path d="M15.7338 47.372C19.4126 47.372 22.4122 46.4665 24.7327 44.6554C27.0531 42.8443 28.6944 40.6937 29.5434 38.26L23.6573 35.6566C22.2424 39.3919 19.639 41.2596 15.847 41.2596C13.3002 41.2596 11.1495 40.3541 9.45161 38.543C7.75372 36.7319 6.90477 34.4114 6.90477 31.5816C6.90477 28.8084 7.75372 26.5445 9.45161 24.79C11.2061 23.0356 13.3002 22.13 15.7904 22.13C19.639 22.13 22.2424 23.9977 23.5441 27.6765L29.317 25.073C27.5059 19.6964 22.5254 16.0176 15.7338 16.0176C11.2627 16.0176 7.52733 17.5457 4.52772 20.6585C1.5281 23.7713 0 27.4501 0 31.6948C0 36.1659 1.5281 39.9013 4.52772 42.9009C7.52733 45.9005 11.2627 47.372 15.7338 47.372Z" fill="#113355"/>
<path fill-rule="evenodd" clip-rule="evenodd" d="M55.8363 14.3862C46.5356 14.3862 38.996 21.9335 38.996 31.2435C38.996 40.5536 46.5356 48.1008 55.8363 48.1008V54.6565C42.9187 54.6565 32.4469 44.1741 32.4469 31.2435C32.4469 18.3129 42.9187 7.83061 55.8363 7.83061V14.3862Z" fill="#33CC44"/>
<path fill-rule="evenodd" clip-rule="evenodd" d="M55.8363 7.83061C68.7538 7.83061 79.2256 18.3129 79.2256 31.2435H55.8363V7.83061Z" fill="#FFCC00"/>
<path fill-rule="evenodd" clip-rule="evenodd" d="M72.6766 31.2435C72.6766 40.5536 65.1369 48.1008 55.8363 48.1008V31.2435H72.6766Z" fill="#FF3366"/>
</svg>
