<svg width="240" height="56" xmlns="http://www.w3.org/2000/svg">

 <g>
  <title>background</title>
  <rect fill="none" id="canvas_background" height="402" width="582" y="-1" x="-1"/>
 </g>
 <g>
  <title>Layer 1</title>
  <path id="svg_1" fill="#ffffff" d="m141.73,47.0695l6.734,0l0,-46.0695l-6.734,0l0,46.0695z"/>
  <path id="svg_2" fill="#ffffff" d="m102.1,16.847l0,6.0558l-7.4141,0l0,13.3568c0,3.6222 1.7545,5.0371 5.2069,5.0371c0.6792,0 1.4152,-0.0566 2.1502,-0.2264l0,5.7162c-1.075,0.3962 -2.32,0.6226 -3.6217,0.6226c-6.6218,0 -10.4704,-3.509 -10.4704,-10.0742l0,-14.4321l-5.5464,0l0,-6.0558l5.5464,0l0,-9.33841l6.735,0l0,9.33841l7.4141,0z"/>
  <path id="svg_3" fill="#ffffff" d="m123.608,29.1284c1.867,0 2.829,-0.8489 2.829,-2.5468c0,-2.4902 -2.15,-4.5277 -5.942,-4.5277c-3.453,0 -5.999,1.5847 -7.528,4.8107l-5.15,-2.943c2.377,-5.1503 6.679,-7.6972 12.848,-7.6972c5.659,0 9.451,2.0375 11.319,6.1691c0.679,1.5281 1.019,3.3392 1.019,5.4332l0,19.2428l-6.622,0l0,-4.1315c-1.868,3.1128 -4.811,4.6409 -8.886,4.6409c-2.943,0 -5.377,-0.849 -7.301,-2.4903c-1.924,-1.6412 -2.886,-3.7919 -2.886,-6.3954l0,-0.3395c0,-7.018 7.244,-9.2253 12.564,-9.2253l3.736,0zm-4.755,13.0738c4.585,0 7.528,-2.8298 7.528,-7.3575l0,-0.9622l-6.509,0c-1.415,0 -2.773,0.3962 -4.018,1.132c-1.189,0.7357 -1.811,1.7545 -1.811,3.0562c0,2.4902 1.924,4.1315 4.81,4.1315z" clip-rule="evenodd" fill-rule="evenodd"/>
  <path id="svg_4" fill="#ffffff" d="m164.216,47.0695l-6.735,0l0,-46.0695l6.735,0l0,27.7323l0.057,0l11.715,-11.8853l9.169,0l-13.64,13.6964l14.376,16.5261l-8.886,0l-12.621,-14.7717l-0.17,0l0,14.7717z"/>
  <path id="svg_5" fill="#ffffff" d="m216.443,33.9391c0.056,-0.5093 0.113,-1.1885 0.113,-2.094c0,-4.6975 -1.302,-8.4329 -3.905,-11.3193c-2.604,-2.8864 -6.226,-4.3014 -10.81,-4.3014c-4.358,0 -7.98,1.5282 -10.867,4.5844c-2.886,3.0562 -4.358,6.7349 -4.358,11.0929c0,4.4711 1.528,8.2631 4.528,11.2627c3.056,2.9996 6.848,4.4711 11.319,4.4711c5.434,0 10.357,-2.6034 12.904,-7.301l-4.867,-3.226c-1.641,3.1129 -4.358,4.6976 -8.15,4.6976c-2.32,0 -4.358,-0.7358 -6.112,-2.2073c-1.755,-1.5281 -2.66,-3.3958 -2.717,-5.6597l22.922,0zm-14.602,-11.9418c4.301,0 7.64,2.6034 7.867,6.8482l-15.847,0c0.622,-4.1316 3.848,-6.8482 7.98,-6.8482z" clip-rule="evenodd" fill-rule="evenodd"/>
  <path id="svg_6" fill="#ffffff" d="m238.359,16.564c0.735,0 1.245,0.0566 1.641,0.1698l0,6.9048c-0.566,-0.1132 -1.189,-0.1698 -1.924,-0.1698c-5.151,0 -7.867,2.9996 -7.867,8.2631l0,15.3376l-6.735,0l0,-30.2225l6.565,0l0,4.8107c1.868,-3.3958 4.641,-5.0937 8.32,-5.0937z"/>
  <path id="svg_7" fill="#113355" d="m47.9841,31.2435c0,0.6466 -0.5236,1.1707 -1.1694,1.1707c-0.6459,0 -1.1695,-0.5241 -1.1695,-1.1707c0,-0.6465 0.5236,-1.1706 1.1695,-1.1706c0.6458,0 1.1694,0.5241 1.1694,1.1706z"/>
  <path id="svg_8" fill="#113355" d="m38.996,31.2435c0,9.3101 7.5396,16.8573 16.8403,16.8573l0,-33.7146c-9.3007,0 -16.8403,7.5473 -16.8403,16.8573zm5.1456,0c0,1.4778 1.1968,2.6758 2.6731,2.6758c1.4763,0 2.673,-1.198 2.673,-2.6758c0,-1.4778 -1.1967,-2.6757 -2.673,-2.6757c-1.4763,0 -2.6731,1.1979 -2.6731,2.6757z" clip-rule="evenodd" fill-rule="evenodd"/>
  <path id="svg_9" fill="#ffffff" d="m15.7338,47.372c3.6788,0 6.6784,-0.9055 8.9989,-2.7166c2.3204,-1.8111 3.9617,-3.9617 4.8107,-6.3954l-5.8861,-2.6034c-1.4149,3.7353 -4.0183,5.603 -7.8103,5.603c-2.5468,0 -4.6975,-0.9055 -6.39539,-2.7166c-1.69789,-1.8111 -2.54684,-4.1316 -2.54684,-6.9614c0,-2.7732 0.84895,-5.0371 2.54684,-6.7916c1.75449,-1.7544 3.84859,-2.66 6.33879,-2.66c3.8486,0 6.452,1.8677 7.7537,5.5465l5.7729,-2.6035c-1.8111,-5.3766 -6.7916,-9.0554 -13.5832,-9.0554c-4.4711,0 -8.20647,1.5281 -11.20608,4.6409c-2.99962,3.1128 -4.52772,6.7916 -4.52772,11.0363c0,4.4711 1.5281,8.2065 4.52772,11.2061c2.99961,2.9996 6.73498,4.4711 11.20608,4.4711z"/>
  <path id="svg_10" fill="#33CC44" d="m55.8363,14.3862c-9.3007,0 -16.8403,7.5473 -16.8403,16.8573c0,9.3101 7.5396,16.8573 16.8403,16.8573l0,6.5557c-12.9176,0 -23.3894,-10.4824 -23.3894,-23.413c0,-12.9306 10.4718,-23.41289 23.3894,-23.41289l0,6.55559z" clip-rule="evenodd" fill-rule="evenodd"/>
  <path id="svg_11" fill="#FFCC00" d="m55.8363,7.83061c12.9175,0 23.3893,10.48229 23.3893,23.41289l-23.3893,0l0,-23.41289z" clip-rule="evenodd" fill-rule="evenodd"/>
  <path id="svg_12" fill="#FF3366" d="m72.6766,31.2435c0,9.3101 -7.5397,16.8573 -16.8403,16.8573l0,-16.8573l16.8403,0z" clip-rule="evenodd" fill-rule="evenodd"/>
 </g>
</svg>