<svg width="555" height="583" viewBox="0 0 555 583" fill="none" xmlns="http://www.w3.org/2000/svg">
<g clip-path="url(#clip0)">
<path fill-rule="evenodd" clip-rule="evenodd" d="M144.838 452.049L52.0508 398.571V380.809L89.7124 359.103C95.0374 362.601 99.1764 366.672 101.361 371.15C101.875 372.204 102.794 373.151 104.136 373.924C106.341 375.196 109.358 375.806 112.682 375.806C116.564 375.806 120.862 374.974 124.771 373.386C117.894 372.134 111.486 370.157 105.958 367.501V349.739L144.258 327.665L179.159 347.78C180.16 346.386 181.001 344.949 181.665 343.478C182.158 342.387 183.08 341.41 184.454 340.619C186.628 339.365 189.609 338.763 192.902 338.763C198.042 338.763 203.939 340.23 208.71 342.981C214.822 346.502 217.28 351.088 215.419 354.457L215.953 368.986L237.045 381.143V398.905L199.858 420.337C196.314 417.492 193.55 414.344 191.901 410.965C191.386 409.911 190.468 408.964 189.126 408.191C186.921 406.92 183.904 406.308 180.579 406.308C176.699 406.308 172.401 407.141 168.493 408.728C173.468 409.634 178.2 410.917 182.527 412.564V430.326L144.838 452.049Z" fill="#CECECE"/>
<path fill-rule="evenodd" clip-rule="evenodd" d="M273.499 525.882L180.712 472.404V455.978L200.111 444.797C199.979 444.295 199.928 443.773 199.957 443.24V427.431C199.945 427.228 199.946 427.022 199.957 426.815C200.117 423.938 202.607 420.705 207.164 418.079C211.876 415.363 217.713 413.918 222.828 413.918C226.16 413.918 229.186 414.531 231.396 415.805C232.737 416.578 233.656 417.524 234.17 418.579C234.973 420.225 236.04 421.816 237.332 423.344L272.919 402.833L312.386 425.58V442.006C307.737 443.897 302.617 445.377 297.133 446.3C301.633 448.569 306.908 449.772 311.56 449.772C314.851 449.772 317.831 449.17 320.004 447.918C321.377 447.127 322.3 446.148 322.792 445.058C324.301 441.717 326.691 438.547 329.912 435.681L365.704 456.311V472.737L273.499 525.882Z" fill="#CECECE"/>
<path fill-rule="evenodd" clip-rule="evenodd" d="M385.788 438.717L350.884 418.601C349.883 419.995 349.042 421.432 348.378 422.903C347.885 423.994 346.963 424.971 345.59 425.763C343.416 427.016 340.434 427.619 337.141 427.619C332.002 427.619 326.105 426.151 321.333 423.401C316.18 420.431 313.624 416.704 314.066 413.589L314.184 400.422C313.96 399.493 313.965 398.591 314.208 397.742L314.211 397.465L292.999 385.238V370.04L315.785 356.907C314.661 357.033 313.552 357.096 312.474 357.096C309.151 357.096 306.133 356.489 303.929 355.219C302.588 354.445 301.669 353.499 301.155 352.444C300.432 350.965 299.491 349.53 298.37 348.145L262.123 369.036L224.702 347.469V333.267C229.617 331.242 235.061 329.668 240.914 328.739C241.657 328.621 242.358 328.455 243.031 328.258C242.582 327.959 242.11 327.666 241.613 327.379C236.841 324.629 230.944 323.162 225.805 323.162C222.512 323.162 219.531 323.765 217.357 325.018C215.983 325.809 215.061 326.786 214.568 327.878C213.03 331.282 210.578 334.51 207.263 337.418L169.336 315.558V301.356L261.544 248.212L299.442 270.054V284.257C298.598 284.683 297.731 285.091 296.85 285.489L280.174 293.413C284.478 295.411 289.383 296.469 293.741 296.469C297.026 296.468 299.999 295.868 302.169 294.617C303.543 293.825 304.465 292.848 304.958 291.757C306.997 287.24 310.651 283.037 315.789 279.476L354.33 301.69V315.892L334.695 327.209C335.19 328.053 335.413 328.975 335.372 329.938H335.373V343.775C335.376 343.894 335.377 344.013 335.373 344.134C335.292 346.077 334.139 348.187 332 350.166C334.673 352.589 336.788 355.205 338.143 357.979C338.657 359.034 339.576 359.98 340.917 360.754C343.127 362.028 346.151 362.64 349.484 362.64C354.596 362.64 360.436 361.195 365.147 358.48C365.234 358.431 365.312 358.381 365.398 358.332C364.983 358.238 364.552 358.155 364.113 358.087C358.194 357.18 352.582 355.745 347.516 353.817V338.618L385.207 316.896L477.99 370.374V385.572L440.331 407.279C435.009 403.781 430.87 399.709 428.682 395.231C428.165 394.177 427.248 393.23 425.908 392.457C423.705 391.185 420.679 390.573 417.355 390.573C412.652 390.573 407.329 391.798 402.837 394.109L409.798 396.511C414.956 397.734 419.793 399.38 424.089 401.443V416.642L385.788 438.717ZM364.834 343.026L365.806 343.275L365.853 343.25C365.516 343.166 365.179 343.093 364.834 343.026Z" fill="#CECECE"/>
<path fill-rule="evenodd" clip-rule="evenodd" d="M320.539 405.283C318.592 408.797 316.268 413.216 312.223 414.204C308.498 415.113 303.733 414.441 299.71 414.503C292.996 414.606 292.976 425.033 299.71 424.929C305.124 424.846 311.001 425.666 316.228 423.889C322.564 421.736 326.451 416.151 329.558 410.546C332.814 404.67 323.797 399.404 320.539 405.283Z" fill="#EFA37E"/>
<path fill-rule="evenodd" clip-rule="evenodd" d="M76.0691 330.642C84.1276 330.1 92.2112 329.126 99.4552 325.316C107.127 321.28 113.052 314.482 118.546 307.956C122.943 302.734 115.423 295.152 110.992 300.415C106.255 306.04 101.29 312.086 94.7682 315.724C89.0818 318.896 82.4532 319.547 76.0691 319.977C69.2453 320.436 69.1943 331.105 76.0691 330.642Z" fill="#EFA37E"/>
<path fill-rule="evenodd" clip-rule="evenodd" d="M496.082 122.691C485.366 129.807 479.557 141.722 473.929 152.86C466.153 168.248 458.008 183.251 446.312 196.087C441.374 201.506 449.424 209.594 454.386 204.151C465.988 191.415 474.587 176.814 482.325 161.519C487.334 151.618 492.209 138.939 501.851 132.538C507.942 128.494 502.228 118.613 496.082 122.691Z" fill="#EFA37E"/>
<path fill-rule="evenodd" clip-rule="evenodd" d="M489.866 117.24L474.65 143.459C472.055 151.924 490.916 158.321 493.675 151.596L506.108 125.155C507.848 120.846 506.03 115.921 501.906 113.765C497.611 111.517 492.304 113.05 489.866 117.24Z" fill="#3C3C57"/>
<path fill-rule="evenodd" clip-rule="evenodd" d="M477.488 141.471C481.917 144.925 487.153 146.668 492.79 146.239C495.196 146.056 495.22 142.281 492.79 142.466C488.212 142.814 483.806 141.65 480.161 138.804C478.264 137.326 475.567 139.978 477.488 141.471Z" fill="#FFFEFE"/>
<path fill-rule="evenodd" clip-rule="evenodd" d="M502.424 224.52C503.843 226.127 497.736 218.315 499.563 219.428C503.372 221.747 524.749 236.381 529.194 236.456C534.564 236.546 531.436 231.312 535.434 227.695C539.228 224.264 540.122 218.69 540.49 213.565C540.592 212.149 540.662 210.67 540.106 209.368C539.494 207.961 538.24 206.963 537.033 206.037C527.532 198.795 508.852 180.87 495.588 186.602C480.255 193.225 495.62 216.834 502.424 224.52Z" fill="#C5A584"/>
<path fill-rule="evenodd" clip-rule="evenodd" d="M504.815 367.928C493.26 367.928 481.674 365.377 472.832 360.279C455.217 350.127 455.131 333.719 472.636 323.63C481.353 318.606 492.79 316.097 504.242 316.097C515.805 316.097 527.383 318.647 536.226 323.745C553.84 333.897 553.926 350.306 536.422 360.395C527.705 365.418 516.267 367.928 504.815 367.928Z" fill="#DAE6EE"/>
<path fill-rule="evenodd" clip-rule="evenodd" d="M536.641 356.013C536.79 355.673 539.039 350.752 539.588 347.924C539.69 347.385 539.957 344.817 539.902 343.948C539.792 342.008 540.09 340.853 535.739 338.172C528.621 333.788 521.919 357.805 521.919 357.805L521.449 363.644C521.268 364.681 522.115 365.81 523.017 366.404L523.534 366.573C526.991 367.417 529.021 366.561 530.487 364.9C533.011 362.05 534.109 361.714 536.641 356.013Z" fill="#161E2C"/>
<path fill-rule="evenodd" clip-rule="evenodd" d="M536.484 354.37C536.633 354.023 543.171 339.651 536.813 337.085C531.208 334.824 528.386 340.363 526.113 346.263C525.447 348.003 523.824 351.733 523.165 352.962C522.695 353.855 522.068 356.78 521.919 357.805L521.927 362.416C521.778 363.436 523.134 362.536 524.075 363.118L524.866 359.028C526.685 360.156 528.182 365.266 529.695 363.569C532.298 360.658 533.952 360.201 536.484 354.37Z" fill="#7B4948"/>
<path fill-rule="evenodd" clip-rule="evenodd" d="M533.082 360.189C532.369 360.916 530.848 362.482 530.04 363.386C528.52 365.083 526.246 365.145 523.95 364.58C522.821 364.305 521.222 363.777 521.425 362.114L521.919 357.805C523.581 356.986 528.449 357.834 533.082 360.189Z" fill="#834E4A"/>
<path fill-rule="evenodd" clip-rule="evenodd" d="M524.49 212.852C518.948 229.803 518.525 248.347 519.231 266.01C519.913 283.019 522.045 299.9 524.083 316.785C524.773 322.515 525.659 328.342 525.596 334.128C525.478 344.115 541.023 344.122 541.133 334.128C541.211 327.385 540.09 320.578 539.275 313.903C538.021 303.638 536.766 293.374 535.873 283.07C534.007 261.346 532.604 238 539.479 216.977C542.591 207.462 527.587 203.385 524.49 212.852Z" fill="#C5A584"/>
<path fill-rule="evenodd" clip-rule="evenodd" d="M490.524 209.351C486.973 222.202 485.335 235.536 483.979 248.769C483.14 256.946 481.799 265.197 482.615 273.405C484.151 288.886 487.028 304.612 486.91 320.197C486.832 330.183 502.369 330.193 502.447 320.197C502.565 304.814 499.759 289.279 498.222 274.002C497.454 266.417 498.512 258.995 499.257 251.416C500.511 238.652 502.087 225.866 505.512 213.476C508.178 203.837 493.182 199.724 490.524 209.351Z" fill="#C5A584"/>
<path fill-rule="evenodd" clip-rule="evenodd" d="M527.226 334.265C530.558 337.093 537.385 336.604 539.902 332.932C539.964 334.937 540.003 336.94 539.98 338.941C539.894 347.096 527.179 347.295 527.265 339.11C527.289 337.496 527.265 335.881 527.226 334.265Z" fill="#E0E9EE"/>
<path fill-rule="evenodd" clip-rule="evenodd" d="M543.053 332.022L543.194 337.643C543.202 337.884 543.132 338.117 542.998 338.318C542.214 339.506 539.071 343.51 532.941 342.741C527.563 342.067 524.616 340.533 523.479 339.804C523.119 339.578 522.923 339.185 522.938 338.766L523.181 333.024C523.213 332.168 524.13 331.624 524.89 332.023C527.689 333.489 533.834 335.569 541.25 331.06C542.026 330.585 543.03 331.11 543.053 332.022Z" fill="#DEBD9D"/>
<path fill-rule="evenodd" clip-rule="evenodd" d="M487.506 340.962C487.851 340.811 491.269 338.08 491.591 337.939C492.084 337.723 496.96 335.315 497.729 334.893C499.359 334.002 503.318 333.417 501.303 328.196C498.356 320.557 477.998 332.627 477.998 332.627L471.178 337.89C470.355 338.531 470.057 339.502 470.378 340.507C470.982 342.361 473.451 343.731 475.732 343.46C479.644 342.996 481.69 343.485 487.506 340.962Z" fill="#161E2C"/>
<path fill-rule="evenodd" clip-rule="evenodd" d="M487.177 338.995C487.529 338.845 490.939 336.113 491.261 335.972C491.762 335.756 497.665 333.403 498.433 332.98C500.056 332.091 503.897 331.002 501.883 325.781C498.935 318.141 477.668 330.661 477.668 330.661L470.856 335.924C470.025 336.564 469.727 337.536 470.049 338.54C470.652 340.393 473.121 341.764 475.403 341.494C479.314 341.029 481.36 341.519 487.177 338.995Z" fill="#7B4948"/>
<path fill-rule="evenodd" clip-rule="evenodd" d="M479.306 341.262C478.287 341.341 476.382 341.37 475.175 341.514C472.894 341.784 470.652 340.393 470.049 338.539C469.727 337.535 470.025 336.563 470.856 335.923L474.18 333.354C476.892 333.96 478.601 336.79 479.306 341.262Z" fill="#834E4A"/>
<path fill-rule="evenodd" clip-rule="evenodd" d="M488.87 318.537C492.162 321.089 498.99 320.736 501.561 317.503C501.6 319.284 501.608 321.064 501.561 322.841C501.365 330.082 488.651 330.11 488.846 322.841C488.886 321.408 488.886 319.973 488.87 318.537Z" fill="#E0E9EE"/>
<path fill-rule="evenodd" clip-rule="evenodd" d="M504.893 316.231L504.752 321.851C504.744 322.092 504.673 322.321 504.524 322.516C503.686 323.662 500.346 327.506 494.255 326.435C488.917 325.496 486.056 323.819 484.951 323.035C484.606 322.792 484.433 322.389 484.465 321.971L484.99 316.249C485.068 315.395 486.009 314.897 486.746 315.334C489.474 316.936 495.51 319.317 503.137 315.181C503.937 314.745 504.916 315.319 504.893 316.231Z" fill="#DEBD9D"/>
<path fill-rule="evenodd" clip-rule="evenodd" d="M489.552 194.987C490.893 196.728 492.609 147.908 489.952 117.019L540.976 141.254C540.717 164.531 537.77 182.9 540.56 211.265L489.552 194.987Z" fill="#514E70"/>
<path fill-rule="evenodd" clip-rule="evenodd" d="M531.836 125.231L505.27 116.694L510.106 103.7C518.259 104.106 523.809 107.094 530.339 112.21L531.836 125.231Z" fill="#3C3C57"/>
<path fill-rule="evenodd" clip-rule="evenodd" d="M492.766 111.124C489.27 115.035 489.474 117.615 489.239 123.265C489.011 128.791 492.421 133.82 497.642 135.676L533.686 148.486C545.672 152.748 555.901 138.094 547.286 128.74C546.675 128.075 545.985 127.471 545.217 126.946C539.675 123.165 531.091 117.136 524.35 112.377C514.441 105.388 500.833 102.089 492.766 111.124Z" fill="#514E70"/>
<path fill-rule="evenodd" clip-rule="evenodd" d="M512.991 119.03C512.991 119.03 514.896 119.839 516.651 119.579L522.178 130.594L521.833 130.919C520.751 131.93 518.917 131.687 518.329 130.457L512.991 119.03Z" fill="#2F2E42"/>
<path fill-rule="evenodd" clip-rule="evenodd" d="M519.34 121.577C519.34 121.577 517.467 121.29 516.307 120.258L505.991 126.053L506.061 126.467C506.304 127.753 507.809 128.44 508.93 127.778L519.34 121.577Z" fill="#2F2E42"/>
<path fill-rule="evenodd" clip-rule="evenodd" d="M515.005 129.551C514.95 130.31 514.394 130.578 513.759 130.152C513.124 129.724 512.654 128.764 512.708 128.006C512.755 127.247 513.312 126.979 513.947 127.406C514.582 127.833 515.06 128.793 515.005 129.551Z" fill="#2F2E42"/>
<path fill-rule="evenodd" clip-rule="evenodd" d="M514.637 134.961C514.582 135.72 514.026 135.988 513.391 135.561C512.756 135.134 512.278 134.173 512.332 133.416C512.387 132.657 512.944 132.389 513.579 132.815C514.214 133.243 514.684 134.203 514.637 134.961Z" fill="#2F2E42"/>
<path fill-rule="evenodd" clip-rule="evenodd" d="M514.261 140.371C514.206 141.128 513.649 141.398 513.014 140.97C512.379 140.544 511.909 139.583 511.956 138.825C512.011 138.067 512.567 137.799 513.202 138.225C513.837 138.652 514.315 139.613 514.261 140.371Z" fill="#2F2E42"/>
<path fill-rule="evenodd" clip-rule="evenodd" d="M518.094 119.968C518.094 119.968 511.438 119.485 510.992 107.835L506.602 106.914C505.951 107.356 504.697 106.942 503.835 110.768C503.317 113.046 503.317 115.407 503.725 117.706L504.916 124.41C505.183 125.914 506.955 126.712 508.256 125.919L518.094 119.968Z" fill="#6A678D"/>
<path fill-rule="evenodd" clip-rule="evenodd" d="M518.266 120.009C518.266 120.009 516.393 119.722 515.233 118.689L504.917 124.484L504.987 124.898C505.222 126.184 506.727 126.872 507.856 126.209L518.266 120.009Z" fill="#FFFEFE"/>
<path fill-rule="evenodd" clip-rule="evenodd" d="M514.66 117.83L510.286 94.4604L524.381 100.006L527.939 119.087C528.763 122.214 518.164 129.851 514.66 117.83Z" fill="#EFA37E"/>
<path fill-rule="evenodd" clip-rule="evenodd" d="M514.715 112.235L510.224 112.137C503.302 111.986 497.768 106.213 497.917 99.3074L498.418 76.507C498.567 69.601 504.352 64.0746 511.274 64.2257L515.758 64.3235C522.68 64.4745 528.214 70.2482 528.065 77.1534L527.563 99.9546C527.415 106.86 521.629 112.386 514.715 112.235Z" fill="#EFA37E"/>
<path fill-rule="evenodd" clip-rule="evenodd" d="M516.377 82.3215C511.564 84.2677 505.316 84.1902 500.229 81.9005C494.71 79.4159 491.19 72.5451 495.847 68.6762C498.363 66.5852 504.869 64.2915 510.082 62.5073C524.874 57.4458 539.847 65.0772 539.486 81.5945C539.486 81.5945 539.565 104.252 526.207 106.855L525.533 103.505C525.533 103.505 531.114 98.8928 525.455 94.2961C523.738 92.9063 522.186 89.6642 522.515 86.9338C522.836 84.1699 518.964 81.2776 516.377 82.3215Z" fill="#3A271D"/>
<path fill-rule="evenodd" clip-rule="evenodd" d="M529.311 100.589C527.367 102.339 525.039 101.853 524.114 99.5025C523.197 97.1525 524.028 93.8298 525.972 92.08C527.924 90.3302 530.244 90.817 531.169 93.167C532.094 95.517 531.255 98.8397 529.311 100.589Z" fill="#EFA37E"/>
<path fill-rule="evenodd" clip-rule="evenodd" d="M513.837 113.923C514.088 114.503 520.821 111.733 520.563 111.001C520.563 111.001 517.882 115.605 514.542 117.218L513.837 113.923Z" fill="#DE8266"/>
<path fill-rule="evenodd" clip-rule="evenodd" d="M514.707 119.196C514.707 119.196 522.107 122.322 530.338 112.21L534.853 118.67C535.222 119.638 535.269 119.753 534.453 120.529L523.745 130.63C522.499 131.816 520.343 131.523 519.685 130.076L514.707 119.196Z" fill="#6A678D"/>
<path fill-rule="evenodd" clip-rule="evenodd" d="M514.52 119.135C514.52 119.135 516.424 119.944 518.18 119.684L523.707 130.699L523.354 131.024C522.28 132.034 520.438 131.792 519.858 130.562L514.52 119.135Z" fill="#FFFEFE"/>
<path fill-rule="evenodd" clip-rule="evenodd" d="M523.542 216.329C510.937 211.74 498.928 206.714 491.873 198.076C488.408 196.079 488.847 192.558 492.845 190.252C496.843 187.946 502.957 187.693 506.422 189.691L538.091 207.944C541.556 209.941 541.117 213.461 537.111 215.767C533.113 218.074 527.007 218.326 523.542 216.329Z" fill="#514E70"/>
<path fill-rule="evenodd" clip-rule="evenodd" d="M510.6 211.156C514.708 213.027 519.082 214.707 523.542 216.328C527.007 218.326 533.114 218.073 537.112 215.767C539.361 214.473 540.482 212.796 540.427 211.221L540.561 211.265C543.665 186.339 549.771 156.311 550.03 133.034L539.197 140.41C538.217 167.431 533.851 210.109 510.6 211.156Z" fill="#40405B"/>
<path fill-rule="evenodd" clip-rule="evenodd" d="M538.616 148.938C535.206 160.961 533.482 173.406 529.641 185.313C524.522 201.147 515.272 214.992 504.376 227.451C499.163 233.418 507.88 242.189 513.124 236.186C525.055 222.539 535.136 207.568 540.999 190.323C545.225 177.893 546.973 164.828 550.547 152.222C552.719 144.56 540.78 141.29 538.616 148.938Z" fill="#EFA37E"/>
<path fill-rule="evenodd" clip-rule="evenodd" d="M554.718 143.281L550.626 175.497C547.302 184.641 526.756 180.266 528.802 172.627L535.45 141.72C536.774 136.837 541.588 133.319 546.581 133.582C551.778 133.856 555.368 138.133 554.718 143.281Z" fill="#514E70"/>
<path fill-rule="evenodd" clip-rule="evenodd" d="M547.875 168.398C542.834 169.016 538.154 168.031 534.047 164.964C531.922 163.377 529.868 166.949 531.969 168.519C536.563 171.95 542.223 173.208 547.875 172.516C550.477 172.197 550.508 168.076 547.875 168.398Z" fill="#FFFEFE"/>
<path fill-rule="evenodd" clip-rule="evenodd" d="M9.62158 254.462V276.454L124.51 342.67L171.178 315.773V293.781L83.8709 284.081L9.62158 254.462Z" fill="#18AC88"/>
<path fill-rule="evenodd" clip-rule="evenodd" d="M238.102 107.189C227.333 96.9004 216.267 86.6404 206.495 75.3897C202.251 70.5027 195.169 77.6239 199.389 82.4835C209.161 93.7342 220.227 103.994 230.996 114.283C235.669 118.748 242.785 111.665 238.102 107.189Z" fill="#EFA37E"/>
<path fill-rule="evenodd" clip-rule="evenodd" d="M176.704 53.0894C186.006 66.3959 194.314 80.0937 205.6 91.8867C211.569 98.1228 221.035 88.6548 215.075 82.428C204.581 71.4637 196.926 58.7152 188.273 46.3376C183.374 39.3291 171.753 46.0073 176.704 53.0894Z" fill="#8EB0CC"/>
<path fill-rule="evenodd" clip-rule="evenodd" d="M154.606 6.37402C154.606 6.37402 133.623 12.8089 136.416 32.6419C139.208 52.4741 132.92 60.2503 132.92 60.2503C132.92 60.2503 135.474 64.8806 143.607 54.6793C151.74 44.478 144.843 30.1526 154.444 21.6103C164.045 13.0672 154.606 6.37402 154.606 6.37402Z" fill="#834C4B"/>
<path fill-rule="evenodd" clip-rule="evenodd" d="M136.767 267.319C153.159 276.767 179.819 276.718 196.314 267.212C212.809 257.704 212.892 242.339 196.5 232.891C180.108 223.444 153.449 223.492 136.954 232.999C120.459 242.506 120.375 257.871 136.767 267.319Z" fill="#348D54"/>
<path fill-rule="evenodd" clip-rule="evenodd" d="M154.391 52.6981C159.184 47.9566 167.822 46.0722 174.317 46.1638C176.473 46.1943 176.474 42.8497 174.317 42.8199C166.881 42.7151 157.463 44.9524 152.023 50.334C150.49 51.8505 152.858 54.2154 154.391 52.6981Z" fill="#AC3D67"/>
<path fill-rule="evenodd" clip-rule="evenodd" d="M171.507 251.892L172.349 251.453C172.829 251.203 173.016 250.606 172.765 250.127C172.514 249.648 171.917 249.461 171.437 249.712L170.596 250.152C170.116 250.401 169.928 250.998 170.179 251.476C170.43 251.955 171.027 252.142 171.507 251.892Z" fill="#4A4166"/>
<path fill-rule="evenodd" clip-rule="evenodd" d="M172.886 250.548V246.094C172.886 245.554 172.443 245.112 171.902 245.112C171.36 245.112 170.918 245.554 170.918 246.094V250.548C170.918 251.088 171.36 251.53 171.902 251.53C172.443 251.53 172.886 251.088 172.886 250.548Z" fill="#3A3454"/>
<path fill-rule="evenodd" clip-rule="evenodd" d="M167.975 238.622C168.971 243.673 170.068 251.18 170.068 251.18L171.902 251.53L171.612 246.279C171.833 245.497 173.176 246.348 173.745 247.176C177.117 252.082 174.962 255.161 178.265 257.418C178.265 257.418 185.946 260.9 193.674 259.468C193.674 259.468 197.311 258.12 195.744 255.903C192.66 251.545 181.283 239.423 179.059 236.572L178.454 236.38L174.382 229.858C172.844 229.416 169.976 231.699 168.884 233.799C167.974 234.779 167.562 236.526 167.975 238.622Z" fill="#3C3C57"/>
<path fill-rule="evenodd" clip-rule="evenodd" d="M175.431 229.299L178.853 232.129C178.853 232.129 187.437 245.546 189.061 248.227C190.944 251.341 179.66 256.705 171.902 238.386C166.245 228.713 175.431 229.299 175.431 229.299Z" fill="#E59472"/>
<path fill-rule="evenodd" clip-rule="evenodd" d="M178.199 124.365C178.533 147.264 178.308 170.225 176.23 193.048C174.983 206.748 173.052 218.629 170.694 232.519C170.089 236.076 171.637 239.721 175.373 240.746C178.589 241.628 183.006 239.656 183.614 236.075C185.992 222.066 188.233 208.051 189.551 193.896C191.704 170.796 191.936 147.547 191.598 124.365C191.472 115.765 178.073 115.74 178.199 124.365Z" fill="#E59472"/>
<path fill-rule="evenodd" clip-rule="evenodd" d="M160.678 134.769C159.7 153.219 162.818 171.344 163.066 189.734C163.153 196.128 162.731 202.71 160.489 208.064C157.713 214.692 152.501 219.117 146.209 222.619C138.677 226.811 145.426 238.369 152.972 234.168C160.552 229.949 167.445 224.066 171.397 216.215C174.988 209.08 176.27 201.201 176.453 193.278C176.903 173.721 173.037 154.389 174.077 134.769C174.533 126.166 161.133 126.191 160.678 134.769Z" fill="#EFA37E"/>
<path fill-rule="evenodd" clip-rule="evenodd" d="M147.618 132.559C148.977 151.354 161.021 153.25 173.176 146.245C185.331 139.239 192.091 123.296 192.091 109.285C192.091 109.285 185.33 88.5028 173.176 95.5082C161.021 102.514 146.041 110.733 147.618 132.559Z" fill="#AC3D67"/>
<path fill-rule="evenodd" clip-rule="evenodd" d="M189.048 54.8979C189.048 54.8979 197.097 67.526 196.177 75.1425C195.593 79.9904 192.091 85.4401 191.579 86.9919C187.391 99.6919 189.704 103.538 189.253 107.053C189.253 107.053 186.461 119.131 156.592 107.714L144.05 70.9222L189.048 54.8979Z" fill="#CEE5ED"/>
<path fill-rule="evenodd" clip-rule="evenodd" d="M147.876 82.2536C146.778 81.5806 142.524 68.6129 142.524 68.6129C141.764 62.0544 140.516 66.9798 147.664 55.7517C148.814 53.948 164.45 45.8572 176.202 43.7372C181.899 42.7097 187.53 45.8752 189.829 51.1785C191.173 54.2798 192.475 60.4134 192.475 60.4157C193.034 72.4608 187.69 56.6462 186.841 63.2963C186.87 63.1359 186.911 62.9723 186.935 62.8127C186.935 62.8127 185.477 74.0478 184.373 82.7458C183.69 88.1728 183.205 92.0981 183.16 92.649L183.156 92.7163L162.774 108.759L152.048 89.4233L147.876 82.2536Z" fill="#CEE5ED"/>
<path fill-rule="evenodd" clip-rule="evenodd" d="M175.469 43.5664C175.469 43.5664 185.658 54.069 176.822 61.5134C167.986 68.9586 152.937 52.32 152.937 52.32C160.838 47.3821 168.432 44.0312 175.469 43.5664Z" fill="#EFA37E"/>
<path fill-rule="evenodd" clip-rule="evenodd" d="M192.091 112.913L196.177 177.875C196.174 178.759 195.924 179.617 195.443 180.389C192.437 185.212 186.894 201.593 156.592 194.499C153.1 193.682 151.777 193.328 151.935 190.289L147.876 134.951L165.928 134.715L192.091 112.913Z" fill="#AC3D67"/>
<path fill-rule="evenodd" clip-rule="evenodd" d="M134.359 234.414L135.257 234.722C135.769 234.899 136.332 234.624 136.507 234.113C136.684 233.602 136.408 233.041 135.897 232.865L134.998 232.556C134.486 232.381 133.924 232.655 133.748 233.166C133.572 233.677 133.847 234.239 134.359 234.414Z" fill="#4A4166"/>
<path fill-rule="evenodd" clip-rule="evenodd" d="M136.284 234.489L139.524 231.428C139.916 231.056 139.934 230.432 139.561 230.04C139.19 229.647 138.563 229.63 138.171 230.001L134.931 233.063C134.538 233.434 134.521 234.059 134.892 234.451C135.265 234.844 135.89 234.861 136.284 234.489Z" fill="#3A3454"/>
<path fill-rule="evenodd" clip-rule="evenodd" d="M141.584 222.731C138.594 226.925 133.887 232.881 133.887 232.881L134.892 234.451L138.514 230.631C139.235 230.253 139.539 231.813 139.328 232.795C138.076 238.612 134.355 239.166 134.984 243.112C134.984 243.112 137.731 251.075 144.086 255.692C144.086 255.692 147.568 257.402 148.102 254.742C149.153 249.511 150.149 232.929 150.696 229.356L150.419 228.787L152.364 221.35C151.628 219.931 147.996 219.421 145.717 220.075C144.379 220.088 142.824 220.989 141.584 222.731Z" fill="#3C3C57"/>
<path fill-rule="evenodd" clip-rule="evenodd" d="M153.492 221.727L153.785 226.153C153.785 226.153 149.926 241.6 149.091 244.62C148.122 248.127 136.461 243.633 144.455 225.415C147.602 214.665 153.492 221.727 153.492 221.727Z" fill="#EFA37E"/>
<path fill-rule="evenodd" clip-rule="evenodd" d="M144.098 73.2393C145.094 75.5047 151.892 80.1601 153.6 82.4914C157.992 88.488 165.568 91.1855 172.804 89.4553C183.43 86.9143 194.203 81.5327 194.203 81.5327C194.203 81.5327 189.601 96.2807 191.207 104.875C191.95 108.86 191.416 108.124 191.416 108.124C191.189 111.932 184.898 110.887 184.898 110.887C171.447 115.06 156.592 107.714 156.592 107.714L147.876 82.2535L144.098 73.2393Z" fill="#A4BDD7"/>
<path fill-rule="evenodd" clip-rule="evenodd" d="M192.961 107.097C193.122 107.97 192.785 108.854 192.084 109.4C189.553 111.368 182.78 115.561 172.137 114.41C163.026 113.425 157.693 111.43 155.126 110.19C154.019 109.656 153.491 108.382 153.914 107.23L154.173 106.524C154.639 105.256 156.068 104.627 157.315 105.151C162.133 107.174 173.601 111.33 181.652 108.921C185.365 107.809 187.751 106.63 189.285 105.571C190.702 104.593 192.649 105.406 192.961 107.097Z" fill="#40405B"/>
<path fill-rule="evenodd" clip-rule="evenodd" d="M177.736 115.261L182.899 114.243C184.615 113.905 186.019 112.227 186.019 110.514C186.019 108.801 184.615 107.676 182.899 108.014L177.736 109.032C176.02 109.37 174.616 111.049 174.616 112.762C174.616 114.474 176.02 115.599 177.736 115.261Z" fill="#FFFFFE"/>
<path fill-rule="evenodd" clip-rule="evenodd" d="M175.86 45.0118C175.979 47.062 176.628 49.1241 177.055 51.1227C177.734 54.3038 179.278 57.4786 175.956 59.4537C168.38 63.9581 159.815 55.9784 154.668 51.1188C153.101 49.6405 150.729 52.0007 152.299 53.4836C158.485 59.3246 167.496 67.2323 176.641 62.8656C184.947 58.8989 179.605 51.8567 179.21 45.0118C179.087 42.8723 175.736 42.8582 175.86 45.0118Z" fill="#AC3D67"/>
<path fill-rule="evenodd" clip-rule="evenodd" d="M171.298 47.0363L174.802 28.5493L162.453 32.3932L159.529 46.8C158.321 51.1126 168.391 56.4942 171.298 47.0363Z" fill="#EFA37E"/>
<path fill-rule="evenodd" clip-rule="evenodd" d="M180.394 10.4972C181.317 15.1518 184.424 18.8768 185.573 23.421C186.364 26.5505 184.745 28.0224 183.57 30.6244C182.787 32.3578 182.584 34.1349 182.672 36.0185C182.772 38.1619 186.122 38.1737 186.022 36.0185C185.796 31.1753 189.948 28.6829 189.04 23.6323C188.141 18.6279 184.614 14.5978 183.624 9.60824C183.206 7.49926 179.977 8.39215 180.394 10.4972Z" fill="#834C4B"/>
<path fill-rule="evenodd" clip-rule="evenodd" d="M169.758 45.1971L173.739 45.2272C179.872 45.2738 184.928 40.303 184.974 34.1811L185.129 13.9679C185.176 7.84599 180.197 2.79854 174.065 2.75237L170.083 2.72152C163.951 2.67489 158.895 7.64565 158.848 13.7675L158.693 33.9808C158.646 40.1027 163.625 45.1502 169.758 45.1971Z" fill="#EFA37E"/>
<path fill-rule="evenodd" clip-rule="evenodd" d="M166.196 19.4866C170.672 13.6699 179.4 20.2418 183.969 18.3456C188.926 16.2883 187.093 11.1955 183.589 7.13561C181.707 4.95543 179.342 3.13835 174.669 1.51064C161.584 -3.04536 148.724 2.76116 148.613 17.4042C148.613 17.4042 147.947 37.4759 159.718 40.1311L160.401 37.1801C160.401 37.1801 156.032 31.3117 163.086 26.805C164.733 25.7533 163.355 25.0975 163.139 22.67C162.921 20.2136 164.691 21.443 166.196 19.4866Z" fill="#834C4B"/>
<path fill-rule="evenodd" clip-rule="evenodd" d="M156.46 34.4727C158.283 35.9079 160.312 35.3445 160.992 33.2128C161.672 31.0819 160.745 28.1904 158.922 26.7544C157.099 25.3185 155.07 25.8827 154.389 28.0143C153.71 30.1452 154.636 33.0367 156.46 34.4727Z" fill="#EFA37E"/>
<path fill-rule="evenodd" clip-rule="evenodd" d="M162.261 16.9794C162.313 22.3571 162.182 29.1763 159.354 33.9224C157.96 36.2607 155.661 37.9721 154.696 40.5866C153.584 43.5995 155.226 45.8571 155.569 48.8269C155.813 50.9406 159.165 50.9648 158.919 48.8269C158.763 47.4778 158.314 46.3509 158.019 45.0417C157.446 42.5015 158.167 40.8136 159.737 38.8611C161.283 36.94 162.644 35.2246 163.481 32.8746C165.251 27.9054 165.662 22.2178 165.611 16.9794C165.589 14.8282 162.24 14.8235 162.261 16.9794Z" fill="#834C4B"/>
<path fill-rule="evenodd" clip-rule="evenodd" d="M172.132 44.9499C170.587 44.9719 166.891 43.8309 165.428 42.751C165.428 42.751 167.881 46.7334 171.264 47.7882L172.132 44.9499Z" fill="#DE8266"/>
<path fill-rule="evenodd" clip-rule="evenodd" d="M153.714 107.095C158.685 120.721 163.579 134.773 170.371 147.616C173.391 153.328 182.068 148.264 179.048 142.553C172.656 130.465 168.082 117.251 163.404 104.428C161.208 98.4099 151.493 101.009 153.714 107.095Z" fill="#EFA37E"/>
<path fill-rule="evenodd" clip-rule="evenodd" d="M163.261 98.0118C162.855 97.3513 162.51 96.651 162.171 95.9553C161.994 95.5906 161.014 93.2954 161.534 94.5811C161.014 93.2938 160.536 91.9893 160.097 90.6723C157.397 82.5815 156.139 74.173 155.717 65.6761C155.29 57.1087 141.889 57.0578 142.318 65.6761C142.956 78.5067 144.779 93.5051 151.691 104.763C156.19 112.091 167.783 105.379 163.261 98.0118Z" fill="#CEE5ED"/>
<path fill-rule="evenodd" clip-rule="evenodd" d="M223.397 195.596V213.18L360.429 209.051V191.473L324.92 178.906L383.899 174.083V156.498L223.397 195.596Z" fill="#E79D3A"/>
<path fill-rule="evenodd" clip-rule="evenodd" d="M154.843 173.67V156.084L315.939 117.328V134.912L201.847 189.127L154.843 173.67Z" fill="#E79D3A"/>
<path fill-rule="evenodd" clip-rule="evenodd" d="M356.383 202.668C354.675 201.681 352.566 201.016 350.218 200.656C347.052 200.17 343.96 199.559 340.958 198.834L383.898 174.083L336.18 146.577C329.819 150.986 325.294 156.191 322.769 161.783C322.159 163.135 321.017 164.344 319.317 165.325C312.424 169.297 298.977 167.988 289.283 162.401C279.587 156.813 277.316 149.063 284.208 145.09C285.859 144.138 287.886 143.49 290.147 143.131C299.75 141.607 308.465 138.685 315.939 134.912L269.014 107.866L154.843 173.669L201.804 200.735C205.908 197.135 208.946 193.138 210.849 188.923C211.459 187.572 212.601 186.361 214.302 185.382C221.195 181.409 234.641 182.718 244.336 188.305C254.031 193.894 256.302 201.644 249.41 205.616C247.759 206.568 245.732 207.216 243.472 207.575C236.224 208.725 229.483 210.674 223.397 213.18L269.731 239.886L314.612 214.018C315.999 215.734 317.166 217.509 318.059 219.341C318.697 220.647 319.834 221.819 321.495 222.777C328.431 226.774 341.864 225.513 351.5 219.96C361.134 214.407 363.321 206.666 356.383 202.668Z" fill="#E79D3A"/>
<path fill-rule="evenodd" clip-rule="evenodd" d="M356.383 185.083C354.675 184.097 352.566 183.431 350.218 183.071C347.052 182.585 343.96 181.974 340.958 181.248L383.898 156.498L336.18 128.993C329.819 133.402 325.294 138.606 322.769 144.198C322.159 145.549 321.017 146.76 319.317 147.74C312.424 151.713 298.977 150.403 289.283 144.816C279.587 139.228 277.316 131.477 284.208 127.505C285.859 126.554 287.886 125.906 290.147 125.546C299.75 124.022 308.465 121.1 315.939 117.327L269.014 90.2808L154.843 156.084L201.804 183.151C205.908 179.549 208.946 175.554 210.849 171.338C211.459 169.987 212.601 168.777 214.302 167.796C221.195 163.824 234.641 165.133 244.336 170.721C254.031 176.308 256.302 184.058 249.41 188.031C247.759 188.983 245.732 189.631 243.472 189.99C236.224 191.141 229.483 193.088 223.397 195.596L269.731 222.301L314.612 196.433C315.999 198.148 317.166 199.924 318.059 201.757C318.697 203.062 319.834 204.234 321.495 205.191C328.431 209.189 341.864 207.929 351.5 202.376C361.134 196.823 363.321 189.081 356.383 185.083Z" fill="#FFC700"/>
<path fill-rule="evenodd" clip-rule="evenodd" d="M76.3687 237.984V215.992L211.902 221.833L212.563 239.823L238.68 254.876V276.868L119.93 246.43L76.3687 237.984Z" fill="#18AC88"/>
<path fill-rule="evenodd" clip-rule="evenodd" d="M179.348 288.366C181.009 289.323 182.147 290.495 182.783 291.8C184.825 295.985 188.248 299.882 192.635 303.406L238.681 276.868L193.517 250.838C196.485 250.049 199.559 249.388 202.732 248.884C204.993 248.524 207.02 247.877 208.671 246.925C215.563 242.953 213.292 235.202 203.596 229.615C193.902 224.027 180.455 222.718 173.562 226.691C171.862 227.671 170.72 228.881 170.11 230.232C169.288 232.053 168.246 233.832 167.006 235.558L123.792 210.651L76.369 237.984C84.0574 241.679 93.1162 244.318 102.836 245.809C105.183 246.169 107.291 246.835 109.002 247.821C115.938 251.819 113.751 259.561 104.116 265.114C94.4817 270.667 81.0488 271.927 74.1129 267.929C72.4518 266.972 71.3144 265.8 70.6779 264.495C67.9726 258.95 62.8475 253.909 56.2541 249.578L9.62158 276.454L124.51 342.671L171.178 315.774C164.904 313.385 157.952 311.61 150.625 310.486C148.278 310.126 146.17 309.461 144.459 308.474C137.523 304.477 139.71 296.734 149.344 291.181C158.979 285.629 172.412 284.368 179.348 288.366Z" fill="#18AC88"/>
<path fill-rule="evenodd" clip-rule="evenodd" d="M179.348 266.373C181.009 267.331 182.147 268.504 182.783 269.809C184.825 273.993 188.248 277.89 192.635 281.414L238.681 254.875L193.517 228.845C196.485 228.057 199.559 227.395 202.732 226.891C204.993 226.532 207.02 225.884 208.671 224.933C215.563 220.961 213.292 213.21 203.596 207.623C193.902 202.035 180.455 200.725 173.562 204.698C171.862 205.679 170.72 206.889 170.11 208.239C169.288 210.061 168.246 211.84 167.006 213.565L123.792 188.659L76.369 215.992C84.0574 219.687 93.1162 222.327 102.836 223.817C105.183 224.177 107.291 224.843 109.002 225.829C115.938 229.827 113.75 237.569 104.116 243.122C94.4817 248.675 81.0488 249.935 74.1129 245.937C72.4518 244.98 71.3144 243.808 70.6779 242.503C67.9726 236.958 62.8475 231.917 56.2541 227.586L9.62158 254.462L124.51 320.679L171.178 293.782C164.904 291.393 157.952 289.618 150.625 288.494C148.278 288.134 146.17 287.469 144.459 286.482C137.523 282.485 139.71 274.742 149.344 269.19C158.979 263.637 172.412 262.376 179.348 266.373Z" fill="#11BB99"/>
<path fill-rule="evenodd" clip-rule="evenodd" d="M192.759 311.426V331.763L209.323 342.75L168.929 347.535V367.873L397.985 368.286V347.948L300.255 351.032L293.461 335.244L331.967 330.234V309.896L260.537 319.73L192.759 311.426Z" fill="#4295C5"/>
<path fill-rule="evenodd" clip-rule="evenodd" d="M353.663 342.742C349.68 346.29 346.719 350.215 344.852 354.352C344.242 355.703 343.1 356.913 341.399 357.894C334.506 361.866 321.059 360.557 311.364 354.969C301.67 349.381 299.398 341.631 306.291 337.658C307.942 336.707 309.968 336.059 312.229 335.7C319.343 334.57 325.969 332.675 331.967 330.234L283.1 302.07L239.036 327.466C237.436 325.574 236.115 323.604 235.121 321.566C234.483 320.261 233.346 319.088 231.685 318.131C224.749 314.133 211.316 315.394 201.682 320.947C192.048 326.5 189.86 334.242 196.796 338.24C198.508 339.226 200.614 339.892 202.962 340.252C206.491 340.792 209.932 341.487 213.254 342.326L168.929 367.873L283.817 434.09L397.985 368.287L353.663 342.742Z" fill="#4295C5"/>
<path fill-rule="evenodd" clip-rule="evenodd" d="M353.663 322.404C349.68 325.952 346.719 329.878 344.852 334.014C344.242 335.365 343.1 336.575 341.399 337.555C334.506 341.528 321.059 340.219 311.364 334.631C301.67 329.043 299.398 321.293 306.291 317.32C307.942 316.369 309.968 315.72 312.229 315.362C319.343 314.232 325.969 312.337 331.967 309.897L283.1 281.732L239.036 307.128C237.436 305.236 236.115 303.266 235.121 301.228C234.483 299.922 233.346 298.75 231.685 297.793C224.749 293.795 211.316 295.056 201.682 300.609C192.048 306.162 189.86 313.904 196.796 317.901C198.508 318.888 200.614 319.553 202.962 319.913C206.491 320.455 209.932 321.149 213.254 321.988L168.929 347.535L283.817 413.751L397.985 347.948L353.663 322.404Z" fill="#6AB8DB"/>
<path fill-rule="evenodd" clip-rule="evenodd" d="M375.463 221.041V202.223L472.737 226.979L537.017 241.542V260.36L434.852 235.785L375.463 221.041Z" fill="#C23961"/>
<path fill-rule="evenodd" clip-rule="evenodd" d="M307.961 259.946V241.128L396.174 254.436L470.276 280.012V298.83L422.85 326.163L386.376 281.042L334.032 296.678L334.248 272.651L307.961 259.946Z" fill="#C23961"/>
<path fill-rule="evenodd" clip-rule="evenodd" d="M472.526 268.884C474.188 269.842 475.325 271.014 475.967 272.32C478.672 277.863 483.791 282.905 490.391 287.237L537.017 260.359L422.129 194.143L375.464 221.041C381.735 223.428 388.688 225.205 396.018 226.328C398.361 226.688 400.47 227.354 402.179 228.34C409.116 232.338 406.929 240.08 397.295 245.633C387.661 251.185 374.233 252.446 367.295 248.448C365.634 247.491 364.497 246.319 363.862 245.014C361.816 240.829 358.39 236.931 354.008 233.408L307.961 259.946L353.123 285.976C350.156 286.766 347.083 287.426 343.909 287.93C341.649 288.289 339.622 288.937 337.971 289.889C331.079 293.862 333.35 301.611 343.045 307.2C352.738 312.787 366.19 314.096 373.081 310.123C374.782 309.143 375.918 307.933 376.53 306.582C377.353 304.76 378.395 302.982 379.634 301.256L422.85 326.162L470.276 298.829C462.586 295.136 453.524 292.496 443.804 291.005C441.46 290.645 439.351 289.98 437.643 288.993C430.705 284.996 432.892 277.253 442.526 271.7C452.16 266.148 465.596 264.887 472.526 268.884Z" fill="#C83B64"/>
<path fill-rule="evenodd" clip-rule="evenodd" d="M472.526 250.067C474.188 251.024 475.325 252.196 475.967 253.501C478.672 259.046 483.791 264.087 490.391 268.418L537.017 241.541L422.129 175.325L375.464 202.222C381.735 204.611 388.688 206.386 396.018 207.509C398.361 207.87 400.47 208.535 402.179 209.522C409.116 213.519 406.929 221.262 397.295 226.814C387.661 232.367 374.233 233.628 367.295 229.63C365.634 228.672 364.497 227.5 363.862 226.195C361.816 222.011 358.39 218.113 354.008 214.59L307.961 241.128L353.123 267.158C350.156 267.947 347.083 268.608 343.909 269.112C341.649 269.471 339.622 270.119 337.971 271.07C331.079 275.043 333.35 282.794 343.045 288.381C352.738 293.968 366.19 295.278 373.081 291.305C374.782 290.325 375.918 289.115 376.53 287.764C377.353 285.943 378.395 284.164 379.634 282.438L422.85 307.345L470.276 280.012C462.586 276.317 453.524 273.677 443.804 272.187C441.46 271.827 439.351 271.161 437.643 270.175C430.705 266.177 432.892 258.435 442.526 252.882C452.16 247.329 465.596 246.069 472.526 250.067Z" fill="#EE3362"/>
<path fill-rule="evenodd" clip-rule="evenodd" d="M45.081 513.698C33.5773 513.698 22.0509 511.158 13.2461 506.084C-4.28969 495.977 -4.37827 479.642 13.0486 469.598C21.7255 464.597 33.1101 462.099 44.5182 462.099C56.0211 462.099 67.5483 464.638 76.3523 469.713C93.8889 479.819 93.9767 496.154 76.5506 506.198C67.8736 511.199 56.4891 513.698 45.081 513.698Z" fill="#DAE6EE"/>
<path fill-rule="evenodd" clip-rule="evenodd" d="M34.6525 479.915C34.3272 480.199 29.4764 482.63 29.1715 482.895C28.7035 483.302 27.3105 484.421 26.4694 485.027C24.6985 486.303 20.9546 491.152 14.8473 487.737C5.91163 482.742 27.2376 468.523 27.2376 468.523L36.6718 463.613C37.8202 463.015 39.2054 463.015 40.4039 463.613C42.6145 464.716 43.498 467.447 42.2978 469.52C40.2385 473.077 40.1225 475.152 34.6525 479.915Z" fill="#161E2C"/>
<path fill-rule="evenodd" clip-rule="evenodd" d="M33.6466 477.248C33.3205 477.532 28.4705 479.963 28.1648 480.228C27.6976 480.634 26.3046 481.754 25.4635 482.36C23.6927 483.636 19.948 488.485 13.8414 485.071C4.90577 480.075 26.2317 465.856 26.2317 465.856L35.6659 460.946C36.8143 460.348 38.1995 460.348 39.3973 460.945C41.6087 462.049 42.4913 464.78 41.2912 466.853C39.2327 470.409 39.1167 472.484 33.6466 477.248Z" fill="#834E4A"/>
<path fill-rule="evenodd" clip-rule="evenodd" d="M50.3564 225.295C49.5976 225.295 48.631 225.038 47.4003 224.392C41.4106 221.25 41.5963 213.672 41.5963 213.672C41.5963 213.672 41.692 213.661 41.8762 213.661C42.9658 213.661 47.1487 214.052 53.0467 219.439L53.0538 219.515L53.1251 221.458C53.1251 221.458 53.2921 225.295 50.3564 225.295Z" fill="#FFFFFE"/>
<path fill-rule="evenodd" clip-rule="evenodd" d="M41.9038 213.956C41.9038 213.956 46.3485 213.722 53.0211 219.519L53.0759 221.265C53.0759 221.265 53.2805 226.53 47.4687 223.514C41.6561 220.497 41.9038 213.956 41.9038 213.956ZM47.3613 224.569C55.1736 228.623 54.8969 221.534 54.8969 221.534L54.9604 221.564L54.7284 219.151C46.0138 211.676 40.4732 212.034 40.4732 212.034C40.4732 212.034 39.5498 220.514 47.3613 224.569Z" fill="#442F44"/>
<path fill-rule="evenodd" clip-rule="evenodd" d="M57.8191 222.89L53.1745 220.775L52.9229 218.15L57.5674 220.266L57.8191 222.89Z" fill="#442F44"/>
<path fill-rule="evenodd" clip-rule="evenodd" d="M40.8495 214.049L40.0272 213.674C39.5788 213.47 39.1704 212.845 39.1163 212.28C39.0622 211.713 39.3821 211.42 39.8304 211.625L40.6528 211.999C41.1019 212.204 41.5096 212.828 41.5636 213.394C41.6185 213.961 41.2987 214.253 40.8495 214.049Z" fill="#442F44"/>
<path fill-rule="evenodd" clip-rule="evenodd" d="M70.8868 227.731L70.0645 227.357C69.6153 227.151 69.2077 226.527 69.1536 225.961C69.0987 225.395 69.4185 225.102 69.8669 225.306L70.69 225.681C71.1384 225.885 71.5468 226.511 71.6009 227.076C71.655 227.642 71.3352 227.936 70.8868 227.731Z" fill="#442F44"/>
<path fill-rule="evenodd" clip-rule="evenodd" d="M66.6429 232.673C66.1553 232.673 65.5791 232.557 64.8979 232.295C59.1637 230.084 58.2606 223.891 58.2606 223.891L57.9463 221.824C58.1313 221.815 58.3147 221.811 58.4974 221.811C64.3241 221.811 68.9585 226.303 68.9585 226.303C68.9585 226.303 70.259 232.674 66.6429 232.673Z" fill="#FFFFFE"/>
<path fill-rule="evenodd" clip-rule="evenodd" d="M64.8933 231.451C59.1552 229.205 58.3219 223.654 58.3219 223.654L58.0311 221.801C64.1502 221.831 69.0479 226.319 69.0479 226.319C69.0479 226.319 70.6314 233.696 64.8933 231.451ZM70.2238 225.585C70.2238 225.585 64.1047 219.917 56.0933 219.773L56.3253 222.185L56.388 222.213C56.388 222.213 57.509 229.687 65.2217 232.703C72.9345 235.721 70.2238 225.585 70.2238 225.585Z" fill="#442F44"/>
<path fill-rule="evenodd" clip-rule="evenodd" d="M59.3925 224.988C59.1996 224.757 59.1393 224.465 59.2584 224.333L60.6459 222.807C60.7651 222.677 61.0183 222.757 61.2111 222.988C61.4047 223.219 61.4651 223.512 61.3459 223.643L59.9584 225.169C59.8393 225.3 59.5861 225.219 59.3925 224.988Z" fill="#FFFEFE"/>
<path fill-rule="evenodd" clip-rule="evenodd" d="M42.7858 217.097C42.5922 216.866 42.5318 216.573 42.651 216.442L44.0385 214.916C44.1576 214.785 44.4108 214.866 44.6044 215.097C44.7973 215.328 44.8576 215.621 44.7385 215.752L43.351 217.278C43.2318 217.409 42.9786 217.328 42.7858 217.097Z" fill="#FFFEFE"/>
<path fill-rule="evenodd" clip-rule="evenodd" d="M67.9309 500.242C67.5546 500.455 62.3151 501.867 61.9631 502.066C61.423 502.371 59.8332 503.189 58.8878 503.614C56.8975 504.511 52.2561 508.512 46.9577 503.946C39.2057 497.265 62.9516 487.599 62.9516 487.599L73.1799 484.674C74.4247 484.318 75.7824 484.594 76.836 485.419C78.7808 486.942 79.0983 489.795 77.5062 491.586C74.7759 494.66 74.246 496.668 67.9309 500.242Z" fill="#161E2C"/>
<path fill-rule="evenodd" clip-rule="evenodd" d="M67.48 497.427C67.1037 497.641 61.8633 499.052 61.5114 499.251C60.972 499.556 59.3823 500.374 58.4369 500.8C56.4458 501.696 51.8044 505.698 46.5068 501.132C38.754 494.45 62.5006 484.784 62.5006 484.784L72.7282 481.859C73.9738 481.503 75.3307 481.78 76.3843 482.605C78.3299 484.128 78.6466 486.98 77.0553 488.771C74.3242 491.844 73.7943 493.854 67.48 497.427Z" fill="#834E4A"/>
<path fill-rule="evenodd" clip-rule="evenodd" d="M41.0283 374.108C48.1414 394.863 48.7889 417.225 48.1242 438.954C47.6264 455.217 45.038 471.633 45.4628 487.898C45.7403 498.544 62.3457 498.586 62.0666 487.898C61.8941 481.285 62.5832 474.632 63.0629 468.044C63.7967 457.981 64.481 447.914 64.7608 437.827C65.3927 415.105 64.4716 391.388 57.0394 369.702C53.6005 359.666 37.5564 363.976 41.0283 374.108Z" fill="#C5A584"/>
<path fill-rule="evenodd" clip-rule="evenodd" d="M7.62907 355.432C10.4417 365.594 12.0989 376.035 13.3068 386.497C14.3541 395.563 16.0089 405.138 15.911 414.27C15.86 419.07 14.9914 423.957 14.4576 428.719C13.629 436.108 12.784 443.496 12.0346 450.895C11.3596 457.553 10.5381 464.297 10.5922 471C10.6777 481.661 27.2822 481.687 27.196 471C27.0886 457.619 29.3391 444.041 30.8309 430.772C31.4188 425.54 32.2592 420.25 32.4755 414.984C32.8236 406.539 31.1335 397.567 30.2124 389.171C28.8061 376.354 27.0862 363.475 23.6402 351.026C20.7986 340.757 4.7749 345.117 7.62907 355.432Z" fill="#C5A584"/>
<path fill-rule="evenodd" clip-rule="evenodd" d="M60.1021 486.773C56.5808 489.841 49.2851 489.416 46.5453 485.528C46.5007 487.671 46.492 489.811 46.5438 491.948C46.7539 500.659 60.3373 500.692 60.1264 491.948C60.0848 490.225 60.0809 488.5 60.1021 486.773Z" fill="#E0E9EE"/>
<path fill-rule="evenodd" clip-rule="evenodd" d="M21.2349 377.345C22.7674 379.061 16.1803 370.716 18.151 371.905C22.2578 374.382 45.3084 390.017 50.1058 390.096C55.9004 390.192 52.5226 384.6 56.8356 380.737C60.9276 377.071 61.891 371.116 62.2908 365.641C62.4013 364.128 62.4765 362.548 61.8714 361.157C61.2168 359.654 59.8646 358.588 58.5555 357.599C48.3154 349.862 28.1724 330.711 13.8662 336.835C-2.66542 343.911 13.8976 369.133 21.2349 377.345Z" fill="#C5A584"/>
<path fill-rule="evenodd" clip-rule="evenodd" d="M9.21827 254.876C6.18694 258.779 6.54596 261.19 6.69099 266.518C6.83366 271.727 10.3698 276.234 15.3954 277.641L66.7243 292.011C66.7243 292.011 69.6741 272.299 59.5492 266.365C54.0957 263.168 45.635 258.054 38.9892 254.016C29.2281 248.085 16.2216 245.862 9.21827 254.876Z" fill="#F9CE3C"/>
<path fill-rule="evenodd" clip-rule="evenodd" d="M32.6234 254.21L36.9654 234.893L48.7678 242.822L45.2136 260.408C44.8671 263.264 31.7705 260.771 32.6234 254.21Z" fill="#EFA37E"/>
<path fill-rule="evenodd" clip-rule="evenodd" d="M39.7877 206.731C39.7877 206.731 27.9571 198.505 27.8419 218.498C27.7627 232.404 36.2233 244.457 47.6525 249.884C54.7688 253.263 63.47 248.934 63.8596 242.009C65.5552 231.909 65.5795 222.466 62.2605 214.337C62.7308 205.988 56.9762 208.958 47.0309 208.419L39.7877 206.731Z" fill="#EFA37E"/>
<path fill-rule="evenodd" clip-rule="evenodd" d="M33.0215 245.532C33.0215 245.532 19.337 240.459 20.6374 221.239C22.0445 200.44 41.2054 202.231 51.8562 201.212C56.5729 200.76 59.8512 200.083 64.6808 204.382C69.0737 208.292 64.9638 217.08 58.6659 217.647C56.1684 217.872 57.3113 224.589 56.8073 226.893C55.9097 230.991 53.3534 232.994 52.4073 236.967C51.5128 240.726 45.9605 246.617 42.3514 247.033C35.9235 247.775 33.0215 245.532 33.0215 245.532Z" fill="#834C4B"/>
<path fill-rule="evenodd" clip-rule="evenodd" d="M6.5109 347.498C3.24204 346.237 4.02437 290.172 6.96164 259.208L64.7404 286.651C64.4496 313.01 61.1141 333.811 64.2771 365.932L6.5109 347.498Z" fill="#F9CE3C"/>
<path fill-rule="evenodd" clip-rule="evenodd" d="M44.9994 371.666C30.7254 366.469 17.1279 360.778 9.13683 350.996C5.21342 348.735 5.71041 344.748 10.2406 342.137C14.7715 339.526 21.6894 339.239 25.6128 341.501L61.4754 362.17C65.3988 364.432 64.9026 368.418 60.3716 371.029C55.8407 373.641 48.9236 373.927 44.9994 371.666Z" fill="#F9CE3C"/>
<path fill-rule="evenodd" clip-rule="evenodd" d="M64.7403 286.651L55.2183 282.128C54.8279 307.823 51.6743 328.462 54.7801 360.006L54.6225 359.956C54.6891 361.74 53.4176 363.639 50.8755 365.105C46.3445 367.716 39.4266 368.002 35.5032 365.741C28.6504 363.245 21.9606 360.631 15.9653 357.51C23.8474 363.539 34.2286 367.744 44.9994 371.666C48.9236 373.927 55.8407 373.641 60.3716 371.029C62.9146 369.564 64.1853 367.665 64.1186 365.881L64.277 365.932C61.114 333.81 64.4494 313.01 64.7403 286.651Z" fill="#E79D3A"/>
<path fill-rule="evenodd" clip-rule="evenodd" d="M42.9819 484.169L43.1316 490.173C43.1379 490.431 43.2194 490.676 43.3722 490.883C44.2761 492.109 47.842 496.216 54.3445 495.071C60.0465 494.067 63.1077 492.275 64.2866 491.438C64.6519 491.178 64.844 490.748 64.8032 490.302L64.242 484.189C64.1581 483.276 63.1563 482.745 62.3653 483.21C59.4578 484.923 53.0087 487.466 44.8585 483.048C44.0009 482.582 42.9576 483.195 42.9819 484.169Z" fill="#DEBD9D"/>
<path fill-rule="evenodd" clip-rule="evenodd" d="M25.6775 468.998C22.1562 472.066 14.8604 471.641 12.1207 467.753C12.076 469.896 12.0682 472.036 12.1192 474.174C12.3292 482.883 25.9126 482.916 25.7018 474.174C25.6602 472.45 25.6563 470.724 25.6775 468.998Z" fill="#E0E9EE"/>
<path fill-rule="evenodd" clip-rule="evenodd" d="M8.55706 466.394L8.70678 472.398C8.71305 472.656 8.79458 472.9 8.94744 473.108C9.85127 474.333 13.4172 478.44 19.9197 477.296C25.6217 476.292 28.6829 474.5 29.8618 473.662C30.2271 473.403 30.4192 472.972 30.3784 472.526L29.8172 466.414C29.7333 465.501 28.7315 464.969 27.9413 465.435C25.033 467.147 18.5839 469.69 10.4337 465.272C9.57613 464.807 8.53276 465.419 8.55706 466.394Z" fill="#DEBD9D"/>
<path fill-rule="evenodd" clip-rule="evenodd" d="M70.5726 228.366L52.916 230.055C52.2881 230.115 51.7253 229.651 51.6649 229.024C51.6046 228.397 52.0694 227.835 52.6973 227.775L70.3538 226.086C70.9817 226.026 71.5446 226.489 71.6049 227.117C71.6653 227.744 71.2005 228.306 70.5726 228.366Z" fill="#442F44"/>
<path fill-rule="evenodd" clip-rule="evenodd" d="M52.8674 262.383C39.6124 260.393 30.6595 268.712 27.4941 249.653C29.428 248.456 31.9224 249.036 33.2174 250.905C35.4923 254.185 40.3313 256.259 45.6767 255.605C47.2766 255.408 48.8483 256.145 49.72 257.498L52.8674 262.383Z" fill="#FBDB73"/>
<path fill-rule="evenodd" clip-rule="evenodd" d="M49.6808 279.495C52.9121 306.768 61.5255 324.115 73.4596 332.937C79.7355 336.406 85.6061 326.519 83.2074 320.55C71.3235 310.002 67.1516 293.552 66.0212 274.773C64.4675 270.962 60.0518 268.901 55.8086 270.007C51.3858 271.159 48.6837 275.343 49.6808 279.495Z" fill="#F9CE3C"/>
<path fill-rule="evenodd" clip-rule="evenodd" d="M45.6258 238.69C44.9665 239.172 43.5038 253.08 55.2207 250.829C66.9368 248.578 64.5726 236.878 64.5726 236.878C64.5726 236.878 55.2732 239.291 52.6973 227.775C50.1207 216.259 45.6258 238.69 45.6258 238.69Z" fill="#9D6260"/>
<path fill-rule="evenodd" clip-rule="evenodd" d="M55.612 232.94C55.8942 236.23 54.2096 239.06 51.8485 239.263C51.5906 239.285 51.335 239.275 51.0842 239.234C49.0413 238.908 47.3144 236.602 47.0628 233.673C46.7798 230.383 48.4644 227.552 50.8255 227.35C53.1858 227.148 55.329 229.651 55.612 232.94Z" fill="#EFA37E"/>
<path fill-rule="evenodd" clip-rule="evenodd" d="M352.033 582.841C340.971 582.841 329.883 580.399 321.416 575.518C304.548 565.796 304.464 550.084 321.225 540.424C329.57 535.613 340.522 533.211 351.492 533.211C362.561 533.211 373.645 535.653 382.111 540.534C398.981 550.255 399.067 565.967 382.307 575.628C373.959 580.438 363.008 582.841 352.033 582.841Z" fill="#DAE6EE"/>
<path fill-rule="evenodd" clip-rule="evenodd" d="M352.574 431.23C355.365 469.017 354.855 506.772 355.043 544.62C355.09 553.564 369.02 553.582 368.973 544.62C368.785 506.772 369.287 469.017 366.504 431.23C365.845 422.36 351.915 422.289 352.574 431.23Z" fill="#E59472"/>
<path fill-rule="evenodd" clip-rule="evenodd" d="M364.474 552.268L362.255 559.075C361.487 560.218 358.963 562.153 357.709 561.584C352.511 559.23 338.593 554.215 340.951 548.096C343.918 540.398 363.58 549.473 363.58 549.473L364.474 552.268Z" fill="#3C3C57"/>
<path fill-rule="evenodd" clip-rule="evenodd" d="M359.401 545.456C359.401 545.456 351.563 544.402 347.938 547.037C346.513 548.073 347.83 549.674 350.404 550.885C355.474 553.271 361.322 552.586 364.121 548.696L365.924 547.617L359.401 545.456Z" fill="#E59472"/>
<path fill-rule="evenodd" clip-rule="evenodd" d="M371.176 546.714L369.279 562.798C369.224 563.317 368.941 563.787 368.518 564.093C367.319 564.964 365.633 564.16 365.555 562.68L364.842 549.285C364.81 548.766 364.999 548.26 365.359 547.887L367.969 545.196C369.208 543.91 371.379 544.936 371.176 546.714Z" fill="#3C3C57"/>
<path fill-rule="evenodd" clip-rule="evenodd" d="M369.31 542.758C369.31 542.758 374.021 546.164 369.78 556.168C369.717 556.302 369.694 556.696 369.6 556.575C365.445 551.061 362.255 556.576 362.255 556.576L350.549 551.616C350.549 551.616 358.241 553.571 364.473 547.127C366.127 545.418 369.31 542.758 369.31 542.758Z" fill="#3C3C57"/>
<path fill-rule="evenodd" clip-rule="evenodd" d="M348.228 561.536L346.003 568.342C345.24 569.486 342.711 571.421 341.458 570.852C336.264 568.498 322.345 563.483 324.704 557.364C327.67 549.667 347.331 558.741 347.331 558.741L348.228 561.536Z" fill="#3C3C57"/>
<path fill-rule="evenodd" clip-rule="evenodd" d="M343.151 554.724C343.151 554.724 335.317 553.67 331.69 556.306C330.265 557.341 331.582 558.942 334.156 560.154C339.226 562.54 345.074 561.854 347.875 557.965L349.678 556.886L343.151 554.724Z" fill="#EFA37E"/>
<path fill-rule="evenodd" clip-rule="evenodd" d="M331.611 441.482C331.259 465.571 331.501 489.73 333.736 513.735C335.107 528.454 337.436 543.024 339.909 557.589C340.538 561.293 345.111 563.367 348.475 562.444C352.401 561.366 353.969 557.608 353.334 553.893C350.876 539.391 348.878 527.087 347.584 512.882C345.423 489.157 345.189 465.286 345.537 441.482C345.668 432.532 331.741 432.529 331.611 441.482Z" fill="#EFA37E"/>
<path fill-rule="evenodd" clip-rule="evenodd" d="M335.547 451.982C345.565 470.971 354.165 461.816 365.9 453.169C377.635 444.522 378.811 427.433 372.579 413.152C372.579 413.152 355.074 392.807 343.338 401.454C331.601 410.101 323.914 429.932 335.547 451.982Z" fill="#AC3D67"/>
<path fill-rule="evenodd" clip-rule="evenodd" d="M378.082 370.653C378.082 370.653 370.556 409.519 369.71 412.992C369.71 412.992 365.508 424.928 335.692 413.645L327.452 376.784L378.082 370.653Z" fill="#CEE5ED"/>
<path fill-rule="evenodd" clip-rule="evenodd" d="M330.226 385.856C329.084 385.157 328.801 383.288 328.801 383.288C328.011 376.471 324.256 373.374 331.687 361.704C332.881 359.829 349.132 351.42 361.346 349.217C367.272 348.148 373.12 351.438 375.511 356.951C376.906 360.174 378.262 366.549 378.262 366.552C378.842 379.071 374.06 370.414 373.182 377.327C373.206 377.159 375.189 376.551 375.213 376.385C375.213 376.385 370.988 380.72 369.843 389.761C369.13 395.401 368.628 399.482 368.581 400.054L368.573 400.124L347.391 416.797L330.226 385.856Z" fill="#CEE5ED"/>
<path fill-rule="evenodd" clip-rule="evenodd" d="M373.143 432.269C373.143 432.269 371.826 491.218 371.324 492.021C368.197 497.033 366.66 507.199 335.162 499.825C331.533 498.976 330.128 495.037 330.291 491.879L329.778 431.229L344.866 437.688L373.143 432.269Z" fill="#AC3D67"/>
<path fill-rule="evenodd" clip-rule="evenodd" d="M372.963 412.753C373.128 413.66 372.783 414.579 372.054 415.146C369.42 417.192 362.381 421.55 351.32 420.354C341.851 419.331 336.308 417.256 333.639 415.968C332.488 415.413 331.94 414.089 332.379 412.891L332.649 412.159C333.133 410.839 334.618 410.186 335.915 410.731C340.921 412.833 352.841 417.153 361.213 414.649C365.069 413.494 367.547 412.267 369.146 411.167C370.619 410.151 372.642 410.996 372.963 412.753Z" fill="#40405B"/>
<path fill-rule="evenodd" clip-rule="evenodd" d="M358.453 352.655L354.204 333.771L342.669 341.522L345.979 356.256C346.317 359.048 359.284 359.07 358.453 352.655Z" fill="#EFA37E"/>
<path fill-rule="evenodd" clip-rule="evenodd" d="M350.652 301.742C350.652 301.742 360.185 296.865 362.074 314.642C363.391 327.008 356.234 338.575 345.601 344.543C338.98 348.259 330.133 345.275 329.139 339.153C326.591 330.334 325.728 321.935 328.233 314.372C327.034 306.989 332.895 309.059 342.519 307.588L350.652 301.742Z" fill="#EFA37E"/>
<path fill-rule="evenodd" clip-rule="evenodd" d="M359.77 342.868C359.77 342.868 372.618 336.657 369.553 318.073C366.237 297.963 353.178 301.335 342.716 301.335C338.084 301.335 329.949 305.265 327.93 309.703C325.549 314.932 326.026 318.153 332.208 318.118C334.66 318.105 334.175 324.748 334.881 326.944C336.136 330.849 338.812 332.56 340.104 336.337C341.326 339.913 347.28 345.129 350.83 345.198C357.152 345.322 359.77 342.868 359.77 342.868Z" fill="#3A271D"/>
<path fill-rule="evenodd" clip-rule="evenodd" d="M336.609 332.718C336.641 335.945 338.545 338.543 340.861 338.521C341.115 338.518 341.362 338.484 341.603 338.422C343.56 337.913 345.026 335.509 344.997 332.634C344.965 329.406 343.061 326.809 340.745 326.832C338.428 326.854 336.577 329.49 336.609 332.718Z" fill="#EFA37E"/>
<path fill-rule="evenodd" clip-rule="evenodd" d="M359.065 349.486C356.587 357.866 347.957 355.81 341.35 355.14C339.123 354.915 339.139 358.392 341.35 358.617C345.773 359.064 350.822 360.309 355.114 358.658C358.806 357.235 361.314 354.139 362.42 350.41C363.055 348.26 359.692 347.342 359.065 349.486Z" fill="#AC3D67"/>
<path fill-rule="evenodd" clip-rule="evenodd" d="M354.925 555.982L353.036 572.067C352.973 572.585 352.699 573.055 352.276 573.362C351.073 574.233 349.382 573.428 349.303 571.948L348.591 558.553C348.564 558.035 348.754 557.528 349.115 557.155L351.719 554.465C352.966 553.178 355.137 554.205 354.925 555.982Z" fill="#3C3C57"/>
<path fill-rule="evenodd" clip-rule="evenodd" d="M353.06 552.026C353.06 552.026 357.771 555.432 353.53 565.436C353.475 565.57 353.444 565.963 353.358 565.843C349.195 560.329 346.003 565.844 346.003 565.844L334.301 560.884C334.301 560.884 341.99 562.839 348.228 556.395C349.882 554.686 353.06 552.026 353.06 552.026Z" fill="#3C3C57"/>
<path fill-rule="evenodd" clip-rule="evenodd" d="M326.665 369.715C326.511 373.587 326.412 377.463 326.232 381.334C326.121 383.715 325.867 387.202 325.624 388.575C324.546 394.68 322.041 400.3 319.402 405.868C317.794 409.259 318.457 413.368 321.899 415.379C324.929 417.147 329.811 416.293 331.427 412.885C334.552 406.292 337.784 399.51 339.053 392.271C340.356 384.837 340.292 377.231 340.591 369.715C340.948 360.768 327.02 360.783 326.665 369.715Z" fill="#CEE5ED"/>
<path fill-rule="evenodd" clip-rule="evenodd" d="M383.161 315.968C383.161 322.769 377.643 328.283 370.831 328.283C364.011 328.283 358.492 322.769 358.492 315.968C358.492 309.166 364.011 303.653 370.831 303.653C377.643 303.653 383.161 309.166 383.161 315.968Z" fill="#3A271D"/>
</g>
<defs>
<clipPath id="clip0">
<path d="M0 0H555V583H0V0Z" fill="white"/>
</clipPath>
</defs>
</svg>
