<svg width="1808" height="1320" viewBox="0 0 1808 1320" fill="none" xmlns="http://www.w3.org/2000/svg">
<path d="M951.5 189.902C968.949 189.902 983.093 175.755 983.093 158.304C983.093 140.852 968.949 126.706 951.5 126.706C934.052 126.706 919.908 140.852 919.908 158.304C919.908 175.755 934.052 189.902 951.5 189.902Z" fill="#11BB99" fill-opacity="0.24"/>
<path d="M95.7107 530.046C113.159 530.046 127.303 515.899 127.303 498.448C127.303 480.997 113.159 466.85 95.7107 466.85C78.2625 466.85 64.1179 480.997 64.1179 498.448C64.1179 515.899 78.2625 530.046 95.7107 530.046Z" fill="#11BB99" fill-opacity="0.24"/>
<path d="M709.912 356.258C757.301 242.877 795.398 139.719 826.062 136.931C852.079 135.072 840 214.067 864.159 217.784C888.318 221.502 984.955 92.3215 1021.19 97.8977C1057.43 103.474 1094.6 408.302 1112.26 410.161C1130.84 412.019 1134.56 258.676 1157.79 259.605C1181.02 260.535 1187.52 410.161 1187.52 410.161" stroke="#5555FF" stroke-width="3" stroke-miterlimit="10"/>
<path d="M50.1799 583.948C50.1799 583.948 113.366 442.686 229.515 458.485C345.665 474.284 362.391 692.683 510.134 654.579C564.027 640.639 612.346 567.22 655.089 480.79" stroke="#5555FF" stroke-width="3" stroke-miterlimit="10"/>
<path d="M744.293 770.751C716.417 860.899 576.108 923.165 485.046 891.567C469.25 885.991 454.383 877.627 441.374 865.545C434.87 859.04 428.365 851.605 423.719 844.17C403.277 810.714 432.082 770.751 448.808 710.343C467.392 645.289 433.011 590.457 480.4 559.788C489.692 554.212 498.984 549.565 509.206 545.848C538.94 535.625 570.533 537.484 600.267 547.706C692.258 578.375 771.24 685.251 744.293 770.751Z" fill="#11BB99" fill-opacity="0.24"/>
<path d="M421.86 790.268C421.86 790.268 505.488 731.719 519.426 738.224C533.364 743.8 494.337 877.627 494.337 877.627" stroke="white" stroke-width="2" stroke-miterlimit="10"/>
<path d="M515.703 543.989C515.703 543.989 472.031 656.441 501.765 685.251C531.499 714.061 629.995 603.468 629.995 603.468C629.995 603.468 600.26 648.077 603.977 671.311C607.694 694.545 717.339 639.713 717.339 639.713" stroke="white" stroke-width="2" stroke-miterlimit="10"/>
<path d="M583.538 769.819C595.341 769.819 604.909 756.92 604.909 741.009C604.909 725.097 595.341 712.199 583.538 712.199C571.734 712.199 562.166 725.097 562.166 741.009C562.166 756.92 571.734 769.819 583.538 769.819Z" fill="white"/>
<path d="M63.1856 825.581C98.082 825.581 126.371 797.287 126.371 762.385C126.371 727.483 98.082 699.189 63.1856 699.189C28.2891 699.189 0 727.483 0 762.385C0 797.287 28.2891 825.581 63.1856 825.581Z" fill="#FFCC00"/>
<path d="M1640.04 733.576C1612.16 733.576 1588.93 710.342 1588.93 682.462C1588.93 654.581 1612.16 631.347 1640.04 631.347C1667.91 632.277 1690.21 654.581 1690.21 683.391C1690.21 711.272 1667.91 733.576 1640.04 733.576Z" fill="white"/>
<path d="M1640.04 634.135C1666.98 634.135 1689.28 656.439 1689.28 683.391C1689.28 710.342 1666.98 732.646 1640.04 732.646C1613.09 732.646 1590.79 710.342 1590.79 683.391C1590.79 655.51 1613.09 634.135 1640.04 634.135ZM1640.04 630.417C1611.23 630.417 1587.07 653.651 1587.07 683.391C1587.07 712.201 1610.3 736.364 1640.04 736.364C1668.84 736.364 1693 713.13 1693 683.391C1693 653.651 1669.77 630.417 1640.04 630.417Z" fill="#113355"/>
<path d="M1514.59 597.891C1514.59 638.783 1498.8 678.745 1471.85 709.414C1463.49 718.707 1454.19 727.071 1443.97 734.506C1368.71 787.479 1263.71 768.892 1210.74 693.615C1192.16 666.663 1181.94 635.995 1181.01 603.467C1181.01 601.608 1181.01 599.75 1181.01 596.962C1182.87 504.956 1259.06 431.537 1351.05 433.395C1441.19 434.325 1513.66 507.744 1514.59 597.891Z" fill="#FFCC00"/>
<path d="M1181.01 602.536C1181.01 600.677 1181.01 598.818 1181.01 596.03C1181.01 583.019 1182.87 570.938 1185.66 557.927C1195.88 552.351 1204.24 550.492 1207.96 554.209C1213.53 561.644 1201.45 583.019 1181.01 602.536Z" fill="white"/>
<path d="M1347.17 612.251C1352.88 597.952 1340.52 579.565 1319.55 571.182C1298.58 562.799 1276.95 567.594 1271.24 581.893C1265.52 596.191 1277.89 614.579 1298.85 622.962C1319.82 631.345 1341.45 626.549 1347.17 612.251Z" fill="white"/>
<path d="M1437 506.555C1443.88 500.385 1443.9 489.19 1437.04 481.549C1430.19 473.909 1419.06 472.716 1412.18 478.886C1405.31 485.056 1405.29 496.251 1412.14 503.891C1419 511.532 1430.13 512.724 1437 506.555Z" fill="white"/>
<path d="M1507.16 647.145C1478.35 603.465 1431.89 541.198 1403.09 551.421C1360.35 567.22 1377.07 723.352 1364.06 725.21C1351.05 727.069 1331.54 688.966 1317.6 692.683C1302.73 697.33 1289.73 731.716 1283.22 752.162" stroke="white" stroke-width="2" stroke-miterlimit="10"/>
<path d="M1218.18 491.943C1241.41 515.177 1265.57 535.623 1274.86 530.976C1288.8 523.541 1281.36 474.286 1281.36 474.286C1281.36 474.286 1321.32 546.775 1348.27 539.34C1365.92 533.764 1346.41 461.275 1337.11 430.606" stroke="white" stroke-width="2" stroke-linejoin="round"/>
<path d="M485.968 429.678L337.296 373.916L290.836 356.259L177.474 314.438L412.561 135.072L446.013 110.909L449.729 145.295L485.968 429.678Z" fill="#FFCC00"/>
<path d="M1286.94 861.826L1633.53 863.684L1484.86 1130.41L1286.94 861.826Z" fill="#11BB99" fill-opacity="0.24"/>
<path d="M1560.13 862.756C1560.13 862.756 1498.8 893.425 1497.87 916.658C1496.01 940.822 1546.19 951.045 1546.19 951.045C1546.19 951.045 1499.73 956.621 1493.23 999.371C1487.65 1038.4 1512.74 1080.22 1512.74 1080.22" stroke="white" stroke-width="2" stroke-miterlimit="10"/>
<path d="M290.841 958.478L229.514 1223.34L506.416 1158.29L290.841 958.478Z" fill="#FFCC00"/>
<path d="M379.112 1128.55C379.112 1128.55 518.492 1300.48 578.89 1298.62C603.978 1297.69 565.881 1234.5 578.89 1230.78C591.899 1227.06 630.925 1290.26 678.314 1267.02C751.721 1230.78 669.951 1005.87 825.128 932.456C980.304 859.037 1048.14 990.076 1137.34 995.652C1226.54 1001.23 1419.82 795.841 1493.22 806.993C1566.63 818.145 1335.26 1126.69 1380.79 1186.17C1406.81 1220.56 1467.2 1164.79 1490.43 1174.09C1513.66 1182.45 1477.43 1222.41 1497.87 1228.92C1518.31 1235.43 1665.12 1150.85 1665.12 1150.85" stroke="#5555FF" stroke-width="3" stroke-miterlimit="10"/>
<path d="M859.51 309.79C859.51 309.79 812.121 330.236 800.97 363.693C789.82 397.149 826.059 434.323 826.059 434.323L939.421 410.16L859.51 309.79Z" fill="#113355"/>
<path d="M968.229 621.124C1009.11 556.999 990.53 472.428 927.344 431.536C863.23 390.644 778.672 409.232 737.788 472.428L968.229 621.124Z" fill="#FF3366"/>
<path d="M910.613 449.193L933.843 362.763C933.843 362.763 964.507 354.399 964.507 333.953C964.507 313.507 941.277 317.225 941.277 317.225C941.277 317.225 937.56 287.485 908.755 279.121C879.95 270.757 855.791 300.496 853.003 324.66C848.357 359.975 859.507 380.421 895.746 380.421L880.879 426.889" fill="#FFCC00"/>
<path d="M873.448 328.377L864.156 342.317" stroke="#113355" stroke-width="3" stroke-miterlimit="10"/>
<path d="M917.117 425.959C888.312 409.23 929.196 309.789 929.196 309.789C893.887 320.942 860.436 304.213 860.436 304.213C860.436 304.213 880.878 256.816 932.913 275.403C984.948 293.99 988.665 330.235 988.665 330.235C988.665 330.235 1042.56 357.187 1033.27 403.654C1023.05 450.122 967.294 469.638 967.294 469.638C967.294 469.638 940.347 438.97 917.117 425.959Z" fill="#113355"/>
<path d="M426.313 243.398C431.39 231.613 428.246 218.931 419.291 215.072C410.336 211.214 398.961 217.639 393.885 229.423C388.808 241.208 391.952 253.889 400.907 257.748C409.862 261.607 421.236 255.182 426.313 243.398Z" fill="#FF3366"/>
<path d="M1244.2 1104.39L1247.92 1194.54L1200.53 1314.42L1195.88 1224.27L1244.2 1104.39Z" fill="#2288EE"/>
<path d="M1157.78 1320L826.988 1187.1L822.342 1096.95L1154.07 1229.85L1157.78 1320Z" fill="#FFCC00"/>
<path d="M871.584 979.636L825.146 1096.18L1153.14 1226.92L1199.57 1110.37L871.584 979.636Z" fill="white"/>
<path d="M872.519 981.711L1197.74 1110.89L1152.21 1224.27L826.988 1095.09L872.519 981.711ZM870.66 977.064L822.342 1096.95L1154.07 1228.92L1201.46 1109.03L870.66 977.064Z" fill="#113355"/>
<path d="M1251.63 214.995L1274.86 172.245L1414.24 136.93L1391.01 179.68L1251.63 214.995Z" fill="#FFCC00"/>
<path d="M1468.14 335.814L1492.3 293.063L1456.99 153.66L1432.83 196.41L1468.14 335.814Z" fill="#2288EE"/>
<path d="M1431.06 198.21L1295.03 232.605L1329.42 368.658L1465.45 334.262L1431.06 198.21Z" fill="white"/>
<path d="M1430.04 200.125L1463.49 333.022L1330.62 366.479L1297.16 233.581L1430.04 200.125ZM1432.83 196.407L1293.45 231.723L1328.76 371.126L1468.14 335.81L1432.83 196.407Z" fill="#113355"/>
<path d="M1286.94 861.826L1406.81 862.755L1371.5 976.136L1286.94 861.826Z" fill="#11BB99" fill-opacity="0.24"/>
<path d="M1471.85 709.413C1463.49 718.707 1454.2 727.071 1443.97 734.506C1442.12 728.93 1440.26 723.354 1438.4 716.848C1429.11 685.25 1429.11 656.44 1438.4 653.652C1447.69 650.864 1462.56 675.027 1471.85 706.625C1471.85 707.555 1471.85 708.484 1471.85 709.413Z" fill="white"/>
<path d="M140.731 660.32L18.5747 948.708L140.927 1000.55L263.083 712.163L140.731 660.32Z" fill="white"/>
<path d="M142.166 662.015L261.103 712.2L140.307 997.512L21.3699 947.327L142.166 662.015ZM140.307 657.368L16.7239 949.185L142.166 1002.16L265.749 710.341L140.307 657.368Z" fill="#113355"/>
<path d="M265.9 710.309C271.306 697.549 247.723 675.355 213.228 660.738C178.733 646.122 146.387 644.618 140.982 657.378C135.577 670.139 159.159 692.332 193.654 706.949C228.149 721.565 260.495 723.07 265.9 710.309Z" fill="#2288EE"/>
<path d="M142.246 1002.12C147.651 989.356 124.069 967.162 89.5738 952.546C55.0785 937.929 22.7327 936.425 17.3275 949.185C11.9223 961.946 35.5045 984.14 69.9999 998.756C104.495 1013.37 136.841 1014.88 142.246 1002.12Z" fill="#11BB99" fill-opacity="0.24"/>
<path d="M993.318 469.641C993.318 469.641 1010.97 471.499 1019.34 491.016C1027.7 511.462 1031.42 589.527 1063.94 621.125C1096.46 652.723 1172.65 659.229 1195.88 640.642C1220.04 621.125 1222.83 600.68 1246.06 598.821C1269.29 596.962 1276.72 611.832 1274.87 615.549C1273.01 619.267 1250.71 618.337 1247.92 623.913" stroke="#113355" stroke-width="3" stroke-miterlimit="10"/>
<path d="M957.075 655.512C957.075 655.512 1050.92 857.182 1285.08 687.11" stroke="#113355" stroke-width="3" stroke-miterlimit="10"/>
<path d="M492.476 295.85C492.476 295.85 530.573 421.312 560.308 435.253C590.042 449.193 723.847 474.286 723.847 474.286" stroke="#113355" stroke-width="3" stroke-miterlimit="10"/>
<path d="M551.014 257.746C551.014 257.746 602.12 357.186 636.5 366.48C670.881 375.774 727.562 370.197 780.526 391.573" stroke="#113355" stroke-width="3" stroke-miterlimit="10"/>
<path d="M469.249 249.381C469.249 249.381 410.71 244.735 408.852 238.229C406.993 231.724 488.763 225.218 488.763 225.218" stroke="#113355" stroke-width="3" stroke-miterlimit="10"/>
<path d="M502.699 242.875C502.699 242.875 485.045 254.957 484.115 249.38C483.186 243.804 491.549 220.57 508.275 219.641C525 219.641 556.593 233.581 547.301 247.522C538.009 261.462 518.496 247.522 518.496 247.522" stroke="#113355" stroke-width="3" stroke-miterlimit="10"/>
<path d="M448.802 247.521C448.802 247.521 448.802 265.179 462.74 267.038C477.607 269.826 498.979 272.614 499.908 265.179C500.837 257.744 480.395 259.603 478.536 251.239" stroke="#113355" stroke-width="3" stroke-miterlimit="10"/>
<path d="M487.828 269.827C487.828 269.827 502.696 278.191 498.979 282.838C496.191 285.626 462.74 267.039 462.74 267.039" stroke="#113355" stroke-width="3" stroke-miterlimit="10"/>
<path d="M1266.5 591.383C1266.5 591.383 1310.17 583.948 1316.67 596.959C1319.46 601.606 1273.93 613.687 1273.93 613.687" stroke="#113355" stroke-width="3" stroke-miterlimit="10"/>
<path d="M1295.31 622.984C1295.31 622.984 1299.02 663.876 1273.94 662.947C1267.43 662.947 1284.16 634.137 1273.94 631.349" stroke="#113355" stroke-width="3" stroke-miterlimit="10"/>
<path d="M1295.31 649.004C1295.31 649.004 1305.53 676.885 1291.59 681.532C1288.8 682.461 1288.8 664.803 1284.16 662.015" stroke="#113355" stroke-width="3" stroke-miterlimit="10"/>
<path d="M860.44 325.588C862.493 325.588 864.157 322.675 864.157 319.082C864.157 315.489 862.493 312.577 860.44 312.577C858.388 312.577 856.724 315.489 856.724 319.082C856.724 322.675 858.388 325.588 860.44 325.588Z" fill="#113355"/>
<path d="M888.547 324.747C888.562 321.154 886.909 318.234 884.856 318.226C882.804 318.218 881.128 321.124 881.114 324.717C881.099 328.31 882.751 331.229 884.804 331.237C886.857 331.245 888.533 328.339 888.547 324.747Z" fill="#113355"/>
<path d="M466.457 269.83C466.457 269.83 380.97 277.264 379.112 295.851C377.254 314.439 431.147 323.732 432.076 327.45C432.076 331.167 371.678 342.319 373.537 358.118C375.395 373.917 483.182 404.586 483.182 404.586" stroke="#FF3366" stroke-width="2" stroke-miterlimit="10"/>
<path d="M364.245 172.245C364.245 172.245 434.864 150.87 436.722 162.951C438.581 177.821 289.909 237.3 289.909 246.593C289.909 256.816 341.944 250.311 343.802 256.816C344.731 264.251 216.502 328.376 216.502 328.376" stroke="#FF3366" stroke-width="2" stroke-miterlimit="10"/>
<path d="M337.298 373.914L290.838 356.257C300.13 329.305 313.139 310.718 325.218 312.577C337.298 315.365 341.944 341.387 337.298 373.914Z" fill="#FF3366"/>
<path d="M751.72 659.226C631.853 676.884 464.597 807.923 472.96 888.777C481.323 969.63 675.525 1106.25 675.525 1106.25C675.525 1106.25 643.003 1150.85 650.437 1185.24L797.25 1047.7L664.375 917.587L803.755 827.439L926.409 871.119L886.454 1150.85L1058.36 1227.06C1058.36 1227.06 1046.28 1175.02 1013.75 1155.5C1013.75 1155.5 1138.27 831.157 1092.74 754.02C1046.28 676.884 868.799 641.569 751.72 659.226Z" fill="#113355"/>
<path d="M623.49 873.91L744.286 992.867" stroke="white" stroke-width="3" stroke-miterlimit="10"/>
<path d="M928.272 842.308L921.768 886.917" stroke="white" stroke-width="3" stroke-miterlimit="10"/>
<path d="M1325.97 914.798C1325.97 914.798 1378.93 885.988 1402.16 910.151C1427.25 935.244 1386.37 996.581 1386.37 996.581" stroke="white" stroke-width="2" stroke-miterlimit="10"/>
</svg>
