<svg width="2177" height="1265" viewBox="0 0 2177 1265" fill="none" xmlns="http://www.w3.org/2000/svg">
<path d="M1945.51 59.2538C1938.62 59.2538 1933.11 53.7418 1933.11 46.8519C1933.11 44.0959 1934.48 39.9619 1937.24 38.5839C1940 35.8279 1942.75 34.4499 1945.51 34.4499C1952.4 34.4499 1957.91 39.9619 1957.91 46.8519C1957.91 53.7418 1952.4 59.2538 1945.51 59.2538Z" fill="white"/>
<path d="M1945.51 35.8279C1951.02 35.8279 1956.53 39.9619 1956.53 46.8519C1956.53 52.3639 1952.4 57.8758 1945.51 57.8758C1940 57.8758 1934.49 53.7418 1934.49 46.8519C1934.49 41.3399 1940 35.8279 1945.51 35.8279ZM1945.51 33.0719C1937.24 33.0719 1931.73 39.9619 1931.73 46.8519C1931.73 55.1198 1938.62 60.6318 1945.51 60.6318C1953.78 60.6318 1959.29 53.7418 1959.29 46.8519C1959.29 38.5839 1953.78 33.0719 1945.51 33.0719Z" fill="#113355"/>
<path d="M2079.16 1205.75C2072.27 1205.75 2066.76 1200.23 2066.76 1193.34C2066.76 1186.45 2072.27 1180.94 2079.16 1180.94C2086.05 1180.94 2091.56 1186.45 2091.56 1193.34C2091.56 1196.1 2090.18 1200.23 2087.43 1201.61C2086.05 1204.37 2083.29 1205.75 2079.16 1205.75Z" fill="white"/>
<path d="M2079.17 1182.32C2084.68 1182.32 2090.19 1186.45 2090.19 1193.34C2090.19 1198.86 2086.05 1204.37 2079.17 1204.37C2073.65 1204.37 2068.14 1200.23 2068.14 1193.34C2068.14 1190.59 2069.52 1187.83 2070.9 1185.08C2073.65 1183.7 2076.41 1182.32 2079.17 1182.32ZM2079.17 1179.56C2070.9 1179.56 2065.39 1186.45 2065.39 1193.34C2065.39 1201.61 2072.28 1207.12 2079.17 1207.12C2087.43 1207.12 2092.94 1200.23 2092.94 1193.34C2092.94 1185.08 2087.43 1179.56 2079.17 1179.56Z" fill="#113355"/>
<path d="M1253.84 1103.77C1246.95 1103.77 1241.44 1098.26 1241.44 1091.37C1241.44 1084.48 1246.95 1078.97 1253.84 1078.97C1260.73 1078.97 1266.24 1084.48 1266.24 1091.37C1266.24 1094.13 1264.86 1098.26 1262.1 1099.64C1260.73 1102.4 1256.59 1103.77 1253.84 1103.77Z" fill="white"/>
<path d="M1253.84 1080.35C1259.35 1080.35 1264.86 1084.48 1264.86 1091.37C1264.86 1094.13 1263.49 1096.88 1262.11 1099.64C1260.73 1101.02 1257.98 1102.4 1255.22 1102.4C1249.71 1102.4 1244.2 1098.26 1244.2 1091.37C1242.82 1085.86 1246.95 1080.35 1253.84 1080.35ZM1253.84 1077.59C1245.57 1077.59 1240.06 1084.48 1240.06 1091.37C1240.06 1099.64 1246.95 1105.15 1253.84 1105.15C1262.11 1105.15 1267.62 1098.26 1267.62 1091.37C1267.62 1083.1 1260.73 1077.59 1253.84 1077.59Z" fill="#113355"/>
<path d="M157.07 350.011C155.692 350.011 154.314 350.011 152.936 350.011C146.047 347.255 143.291 340.365 144.669 334.853C146.047 329.341 151.558 326.585 157.07 326.585C158.448 326.585 159.826 326.585 161.203 326.585C168.093 329.341 170.848 336.231 169.47 341.743C166.715 345.877 161.203 350.011 157.07 350.011Z" fill="white"/>
<path d="M157.069 326.585C158.447 326.585 159.825 326.585 159.825 326.585C165.336 327.963 168.092 334.853 166.714 340.365C165.336 344.499 161.203 347.255 157.069 347.255C155.692 347.255 154.314 347.255 154.314 347.255C148.802 345.877 146.047 338.987 147.424 333.475C147.424 329.341 151.558 326.585 157.069 326.585ZM157.069 323.829C151.558 323.829 146.047 327.963 143.291 333.475C140.535 340.365 144.669 348.633 151.558 351.389C152.936 351.389 154.314 352.767 155.692 352.767C161.203 352.767 166.714 348.633 169.47 343.121C172.226 336.231 168.092 327.963 161.203 325.207C159.825 323.829 158.447 323.829 157.069 323.829Z" fill="#113355"/>
<path d="M811.792 1233.12L794.859 1244.97L806.71 1261.91L823.643 1250.06L811.792 1233.12Z" fill="white"/>
<path d="M811.553 1236.06L821.197 1249.84L807.419 1259.49L797.774 1245.71L811.553 1236.06ZM811.553 1231.93L792.263 1245.71L806.041 1265L825.331 1251.22L811.553 1231.93Z" fill="#113355"/>
<path d="M1680.51 337.269L1663.58 349.121L1675.43 366.056L1692.36 354.204L1680.51 337.269Z" fill="white"/>
<path d="M1679.6 338.987L1689.24 352.767L1675.46 362.413L1665.82 348.633L1679.6 338.987ZM1679.6 334.853L1660.31 348.633L1674.09 367.925L1693.38 354.145L1679.6 334.853Z" fill="#113355"/>
<path d="M325.685 880.699L308.752 892.551L320.603 909.486L337.536 897.634L325.685 880.699Z" fill="white"/>
<path d="M325.17 883.295L334.815 897.075L321.036 906.721L311.391 892.941L325.17 883.295ZM326.548 879.161L307.258 892.941L321.036 912.233L340.326 898.453L326.548 879.161Z" fill="#113355"/>
<path d="M925.867 2.65799L909.972 15.8702L923.182 31.7675L939.078 18.5552L925.867 2.65799Z" fill="white"/>
<path d="M925.906 4.13399L936.929 16.5359L923.15 27.5599L912.128 15.158L925.906 4.13399ZM925.906 0L907.994 15.158L923.15 33.0719L941.062 17.9139L925.906 0Z" fill="#113355"/>
<path d="M720.612 315.561L761.948 304.537" stroke="#113355" stroke-width="3" stroke-miterlimit="10"/>
<path d="M158.448 1222.28L125.379 1249.84" stroke="#113355" stroke-width="3" stroke-miterlimit="10"/>
<path d="M1446.74 62.0098L1475.68 93.7037" stroke="#113355" stroke-width="3" stroke-miterlimit="10"/>
<path d="M1889.03 825.419L1906.94 864.003" stroke="#113355" stroke-width="3" stroke-miterlimit="10"/>
<path d="M2098.46 260.441L2059.88 276.977" stroke="#113355" stroke-width="3" stroke-miterlimit="10"/>
<path d="M1698.88 1256.73L1708.53 1214.01" stroke="#113355" stroke-width="3" stroke-miterlimit="10"/>
<path d="M304.505 66.1438L282.459 33.0719" stroke="#113355" stroke-width="3" stroke-miterlimit="10"/>
<path d="M1211.13 369.303C1212.51 428.557 1165.66 479.543 1106.41 480.921C1047.17 482.299 996.186 435.447 994.809 376.193" fill="#2288EE"/>
<path d="M1580.4 978.377L1467.41 1072.08L1099.53 679.352L730.265 1073.46L618.659 978.377L987.922 576.002C1015.48 545.686 1055.44 527.772 1096.77 527.772C1139.49 527.772 1180.82 544.308 1209.76 576.002L1580.4 978.377Z" fill="#2288EE"/>
<path d="M786.75 1015.58C789.506 1003.18 792.262 990.779 790.884 976.999C788.128 963.219 782.617 949.439 777.105 935.659C771.594 920.501 766.083 906.721 770.216 890.185C772.972 876.405 779.861 862.625 790.884 852.979C796.395 848.845 801.907 844.711 808.796 844.711C815.685 844.711 823.952 846.089 830.842 846.089C841.864 844.711 847.376 835.065 850.131 825.419C852.887 813.017 854.265 801.993 863.91 792.347C874.933 779.945 891.467 786.835 898.356 800.615C912.135 825.419 906.623 855.735 909.379 881.917C909.379 883.295 912.135 884.673 912.135 881.917C913.512 869.515 913.512 857.113 913.512 844.711C913.512 832.309 910.757 818.529 906.623 806.127C902.49 793.725 894.223 781.323 879.066 779.945C866.666 778.567 858.398 786.835 851.509 796.481C844.62 807.505 844.62 819.907 839.109 832.309C830.842 848.845 811.552 836.443 797.773 841.955C785.373 846.089 775.728 857.113 770.216 869.515C763.327 883.295 759.193 898.453 761.949 912.233C764.705 930.147 774.35 946.683 779.861 964.597C785.373 982.511 785.373 999.047 781.239 1016.96C782.617 1015.58 785.373 1016.96 786.75 1015.58Z" fill="white"/>
<path d="M815.692 983.889C815.692 964.597 817.069 943.927 823.959 924.635C826.714 914.989 834.982 901.209 847.382 908.099C851.516 910.855 854.271 916.367 855.649 920.501C857.027 924.635 859.783 928.769 861.161 932.903C862.538 935.659 865.294 934.281 863.916 931.525C862.539 921.879 859.783 908.099 851.516 902.587C840.493 894.319 828.092 899.831 822.581 912.233C817.07 921.879 815.692 934.281 814.314 945.305C812.936 957.707 811.558 970.109 812.936 982.511C811.558 986.645 815.692 986.645 815.692 983.889Z" fill="white"/>
<path d="M695.815 894.319C705.46 899.831 710.971 908.099 716.483 919.123C721.994 930.147 726.128 941.171 726.128 953.573C726.128 976.999 713.727 999.047 698.571 1015.58C697.193 1016.96 699.949 1019.72 701.326 1018.34C719.238 1000.42 733.017 976.999 731.639 952.195C730.261 930.147 717.861 903.965 698.571 892.941C695.815 891.563 694.437 894.319 695.815 894.319Z" fill="white"/>
<path d="M832.218 746.874C845.996 748.252 859.775 744.118 870.797 737.228C879.065 733.094 887.332 727.582 896.977 723.448C906.621 719.314 916.266 717.936 927.289 716.558C942.446 715.18 956.224 719.314 967.247 728.96C971.38 731.716 974.136 734.472 976.892 738.606C978.27 739.984 979.647 742.74 981.025 742.74C982.403 742.74 983.781 742.74 983.781 741.362C985.159 739.984 983.781 737.228 982.403 735.85C981.025 733.094 976.892 735.85 978.27 738.606C986.537 755.142 979.647 773.056 975.514 789.591C975.514 790.969 978.27 792.347 978.27 790.97C986.537 774.434 990.67 753.764 982.403 735.85C981.025 737.228 979.647 737.228 978.27 738.606C979.647 741.362 978.27 739.984 979.647 738.606C981.025 738.606 981.025 737.228 982.403 737.228C983.781 737.228 982.403 737.228 981.025 735.85C979.647 734.472 978.27 733.094 978.27 731.716C974.136 727.582 971.38 724.826 967.247 722.07C954.846 713.802 942.446 709.668 927.289 709.668C907.999 711.046 891.465 717.936 873.553 727.582C865.286 733.094 855.641 737.228 845.996 739.984C840.485 741.362 834.973 742.74 830.84 742.74C830.84 745.496 830.84 746.874 832.218 746.874Z" fill="white"/>
<path d="M885.954 687.62C901.11 693.132 917.645 690.376 931.423 683.486C947.957 675.218 964.492 664.194 976.892 650.414C990.671 636.634 1000.32 620.098 1009.96 603.562C1019.61 585.648 1027.87 567.734 1033.38 548.442C1033.38 547.064 1032.01 545.686 1030.63 547.064C1022.36 563.6 1015.47 580.136 1007.2 596.672C998.938 613.208 989.293 629.744 975.514 643.524C963.114 657.304 947.957 668.328 932.801 676.596C924.534 680.73 914.889 684.864 905.244 684.864C899.733 684.864 892.843 684.864 887.332 683.486C885.954 684.864 885.954 687.62 885.954 687.62Z" fill="white"/>
<path d="M1233.17 602.184C1218.02 622.854 1204.24 651.792 1216.64 676.596C1220.77 686.242 1229.04 695.888 1240.06 701.4C1252.46 706.912 1266.24 706.912 1278.64 709.668C1304.82 716.558 1311.71 745.496 1311.71 768.922C1311.71 781.323 1310.33 793.725 1314.47 806.127C1318.6 817.151 1326.87 824.041 1337.89 826.797C1366.83 833.687 1394.38 817.151 1412.29 795.103C1413.67 793.725 1412.3 792.347 1410.92 793.725C1393.01 810.261 1369.58 826.797 1343.4 822.663C1329.62 819.907 1321.36 811.639 1318.6 799.237C1315.85 788.213 1318.6 775.812 1318.6 763.41C1318.6 744.118 1311.71 723.448 1296.56 712.424C1286.91 705.534 1274.51 704.156 1262.11 702.778C1249.71 701.4 1238.69 697.266 1230.42 687.62C1207 662.816 1220.77 628.366 1237.31 603.562C1235.93 602.184 1234.55 600.806 1233.17 602.184Z" fill="white"/>
<path d="M1346.16 724.826C1342.03 733.094 1342.03 744.118 1342.03 752.386C1342.03 759.276 1339.27 768.922 1343.41 775.812C1351.67 789.591 1370.96 762.032 1375.1 755.142C1376.47 753.764 1373.72 752.386 1372.34 753.764C1368.21 757.898 1364.07 763.41 1358.56 767.544C1357.18 768.922 1354.43 773.056 1351.67 773.056C1350.29 773.056 1347.54 773.056 1346.16 773.056C1346.16 771.678 1346.16 771.678 1344.78 770.3C1344.78 768.922 1344.78 767.544 1344.78 766.166C1344.78 759.276 1344.78 753.764 1344.78 746.874C1344.78 739.984 1347.54 733.094 1346.16 726.204C1347.54 724.826 1347.54 723.448 1346.16 724.826Z" fill="white"/>
<path d="M1303.44 898.453C1318.6 888.807 1333.75 879.161 1350.29 873.649C1365.44 868.137 1384.73 865.381 1395.76 879.161C1401.27 884.673 1404.02 892.941 1409.53 899.831C1413.67 905.343 1417.8 909.477 1423.31 913.611C1434.34 920.501 1449.49 923.257 1461.89 921.879C1479.8 920.501 1496.34 913.611 1510.12 902.587C1512.87 901.209 1510.12 897.075 1507.36 898.453C1492.2 906.721 1477.05 913.611 1460.51 914.989C1445.36 916.367 1430.2 912.233 1419.18 902.587C1408.16 892.941 1405.4 876.405 1391.62 868.137C1379.22 859.869 1362.69 862.625 1348.91 868.137C1333.75 873.649 1314.46 883.295 1303.44 898.453C1303.44 897.075 1303.44 898.453 1303.44 898.453Z" fill="white"/>
<path d="M1359.94 956.329C1373.72 946.683 1393.01 945.305 1408.17 954.951C1420.57 963.219 1427.46 979.755 1443.99 979.755C1459.15 979.755 1471.55 965.975 1486.7 965.975C1512.88 967.353 1492.22 999.047 1482.57 1008.69C1468.79 1022.47 1452.26 1032.12 1437.1 1043.14C1435.72 1044.52 1437.1 1045.9 1438.48 1045.9C1455.01 1039.01 1471.55 1027.98 1483.95 1014.2C1489.46 1008.69 1494.97 1000.42 1499.1 993.535C1503.24 986.645 1505.99 975.621 1500.48 968.731C1489.46 953.573 1468.79 964.597 1456.39 970.109C1448.12 974.243 1438.48 976.999 1430.21 970.109C1421.94 964.597 1417.81 956.329 1409.54 950.817C1394.39 941.171 1370.96 941.171 1359.94 956.329C1357.19 956.329 1358.56 957.707 1359.94 956.329Z" fill="white"/>
<path d="M1539.1 1041.7C1569.78 1015.5 1588.23 986.762 1580.32 977.502C1572.42 968.241 1541.14 981.969 1510.47 1008.16C1479.8 1034.36 1461.35 1063.1 1469.25 1072.36C1477.16 1081.62 1508.43 1067.89 1539.1 1041.7Z" fill="#113355"/>
<path d="M1525.28 1008.69L1592.79 1091.37L1736.09 938.415L1587.28 1019.72L1559.73 986.645" fill="#FFCC00"/>
<path d="M1599.68 1029.36L1614.83 990.779" stroke="white" stroke-width="4" stroke-miterlimit="10"/>
<path d="M1618.97 1021.09L1634.13 982.511" stroke="white" stroke-width="4" stroke-miterlimit="10"/>
<path d="M1639.64 1011.45L1654.8 972.865" stroke="white" stroke-width="4" stroke-miterlimit="10"/>
<path d="M729.503 1073.18C737.41 1063.92 718.955 1035.18 688.283 1008.99C657.611 982.793 626.337 969.065 618.431 978.326C610.524 987.586 628.979 1016.33 659.651 1042.52C690.322 1068.72 721.596 1082.44 729.503 1073.18Z" fill="#113355"/>
<path d="M673.763 1008.69L604.871 1091.37L462.952 938.415L611.76 1019.72L637.939 986.645" fill="#FFCC00"/>
<path d="M599.369 1029.36L584.213 990.779" stroke="white" stroke-width="4" stroke-miterlimit="10"/>
<path d="M577.316 1021.09L562.159 982.511" stroke="white" stroke-width="4" stroke-miterlimit="10"/>
<path d="M553.89 1004.56L538.733 965.975" stroke="white" stroke-width="4" stroke-miterlimit="10"/>
<path d="M1164.28 296.269C1165.66 326.585 1140.86 351.389 1111.93 351.389C1085.75 351.389 1063.7 333.475 1058.19 308.671C1056.81 305.915 1056.81 301.781 1056.81 299.025C1055.43 268.709 1080.24 243.905 1109.17 243.905C1124.33 243.905 1138.11 249.417 1149.13 260.441C1157.4 270.087 1164.28 282.489 1164.28 296.269Z" fill="#FFCC00"/>
<path d="M1149.13 260.441C1135.35 289.379 1106.42 310.049 1071.97 310.049C1067.84 310.049 1062.32 310.049 1058.19 308.671C1056.81 305.915 1056.81 301.781 1056.81 299.025C1055.43 268.709 1080.24 243.905 1109.17 243.905C1124.33 243.905 1138.11 250.795 1149.13 260.441Z" fill="#113355"/>
<path d="M1107.79 243.905C1119.21 243.905 1128.46 234.651 1128.46 223.235C1128.46 211.82 1119.21 202.565 1107.79 202.565C1096.38 202.565 1087.13 211.82 1087.13 223.235C1087.13 234.651 1096.38 243.905 1107.79 243.905Z" fill="#113355"/>
<path d="M1080.24 210.833C1112.2 210.833 1138.11 184.921 1138.11 152.958C1138.11 120.994 1112.2 95.0817 1080.24 95.0817C1048.28 95.0817 1022.37 120.994 1022.37 152.958C1022.37 184.921 1048.28 210.833 1080.24 210.833Z" fill="#113355"/>
<path d="M1126.63 329.267C1129.66 328.958 1131.74 325.025 1131.28 320.482C1130.82 315.939 1127.99 312.507 1124.96 312.815C1121.93 313.123 1119.85 317.056 1120.31 321.599C1120.77 326.142 1123.6 329.575 1126.63 329.267Z" fill="#113355"/>
<path d="M1108.63 330.67C1111.66 330.362 1113.74 326.429 1113.27 321.886C1112.81 317.343 1109.98 313.91 1106.95 314.219C1103.93 314.527 1101.85 318.46 1102.31 323.003C1102.77 327.546 1105.6 330.979 1108.63 330.67Z" fill="#113355"/>
<path d="M1127.07 347.255C1127.07 347.255 1117.43 345.877 1117.43 337.609" stroke="#113355" stroke-width="4" stroke-miterlimit="10"/>
<path d="M1107.78 979.755C906.618 979.755 885.95 799.238 969.999 723.448C1026.49 672.462 1089.87 665.572 1018.22 591.16C947.953 518.126 985.155 405.131 1107.78 405.131C1230.41 405.131 1266.24 518.126 1197.34 591.16C1125.7 665.572 1190.45 672.462 1245.57 723.448C1329.62 800.616 1295.17 979.755 1107.78 979.755Z" fill="#FF3366"/>
<path d="M953.474 917.745C956.229 910.855 963.119 905.343 971.386 905.343C982.408 905.343 990.676 913.611 992.053 924.635C992.053 932.903 987.92 939.793 981.031 942.549" stroke="white" stroke-width="3" stroke-miterlimit="10"/>
<path d="M1059.57 898.453C1067.83 898.453 1076.1 905.343 1076.1 914.989C1076.1 919.123 1074.72 923.257 1071.97 926.013C1069.21 928.769 1065.08 931.525 1060.94 931.525C1052.68 931.525 1044.41 924.635 1044.41 914.989C1044.41 910.855 1045.79 906.721 1048.54 903.965C1051.3 901.209 1055.43 898.453 1059.57 898.453ZM1059.57 894.319C1048.54 894.319 1040.28 903.965 1040.28 914.989C1040.28 926.013 1049.92 934.281 1059.57 934.281C1070.59 934.281 1078.86 924.635 1078.86 913.611C1080.23 903.965 1070.59 894.319 1059.57 894.319Z" fill="white"/>
<path d="M1102.27 629.744C1110.54 629.744 1118.81 636.634 1118.81 646.28C1118.81 655.926 1111.92 662.816 1102.27 662.816C1094.01 662.816 1085.74 655.926 1085.74 646.28C1085.74 638.012 1094.01 629.744 1102.27 629.744ZM1102.27 626.988C1091.25 626.988 1082.98 636.634 1082.98 647.658C1082.98 658.682 1092.63 666.95 1102.27 666.95C1113.3 666.95 1121.56 657.304 1121.56 646.28C1122.94 635.256 1113.3 626.988 1102.27 626.988Z" fill="white"/>
<path d="M1142.24 427.179C1150.5 427.179 1158.77 434.069 1158.77 443.715C1158.77 453.361 1151.88 460.251 1142.24 460.251C1133.97 460.251 1125.7 453.361 1125.7 443.715C1125.7 434.069 1133.97 427.179 1142.24 427.179ZM1142.24 423.045C1131.21 423.045 1122.95 432.691 1122.95 443.715C1122.95 454.739 1132.59 463.007 1142.24 463.007C1153.26 463.007 1161.53 453.361 1161.53 442.337C1162.9 432.691 1153.26 423.045 1142.24 423.045Z" fill="white"/>
<path d="M1020.99 847.467C1029.26 847.467 1037.52 854.357 1037.52 864.003C1037.52 868.137 1036.14 872.271 1033.39 875.027C1030.63 877.783 1026.5 880.539 1022.37 880.539C1014.1 880.539 1005.83 873.649 1005.83 864.003C1005.83 859.869 1007.21 855.735 1009.97 852.979C1012.72 848.845 1016.85 847.467 1020.99 847.467ZM1020.99 844.711C1009.97 844.711 1001.7 854.357 1001.7 865.381C1001.7 876.405 1011.34 884.673 1020.99 884.673C1032.01 884.673 1040.28 875.027 1040.28 864.003C1040.28 852.979 1032.01 844.711 1020.99 844.711Z" fill="white"/>
<path d="M923.158 828.175C934.181 826.797 943.826 835.065 943.826 846.089C945.204 857.113 936.937 866.759 925.914 866.759" stroke="white" stroke-width="3" stroke-miterlimit="10"/>
<path d="M971.385 722.07C979.652 728.96 981.03 741.362 974.141 749.63C967.252 757.898 954.851 759.276 946.584 752.386" stroke="white" stroke-width="3" stroke-miterlimit="10"/>
<path d="M1099.53 808.883C1107.8 808.883 1116.06 815.773 1116.06 825.419C1116.06 835.065 1109.17 841.955 1099.53 841.955C1091.26 841.955 1082.99 835.065 1082.99 825.419C1082.99 815.773 1089.88 808.883 1099.53 808.883ZM1099.53 804.749C1088.51 804.749 1080.24 814.395 1080.24 825.419C1080.24 836.443 1089.88 844.711 1099.53 844.711C1110.55 844.711 1118.82 835.065 1118.82 824.041C1118.82 813.017 1110.55 804.749 1099.53 804.749Z" fill="white"/>
<path d="M1149.13 894.319C1157.39 894.319 1165.66 901.209 1165.66 910.855C1165.66 914.989 1164.28 919.123 1161.53 921.879C1158.77 924.635 1154.64 927.391 1150.5 927.391C1142.24 927.391 1133.97 920.501 1133.97 910.855C1133.97 906.721 1135.35 902.587 1138.1 899.831C1139.48 895.697 1143.61 894.319 1149.13 894.319ZM1149.13 891.563C1149.13 891.563 1147.75 891.563 1149.13 891.563C1138.1 891.563 1129.84 901.209 1129.84 912.233C1129.84 923.257 1139.48 931.525 1149.13 931.525C1160.15 931.525 1168.42 921.879 1168.42 910.855C1168.42 899.831 1158.77 891.563 1149.13 891.563Z" fill="white"/>
<path d="M1211.13 840.577C1219.4 840.577 1227.66 847.467 1227.66 857.113C1227.66 861.247 1226.29 865.381 1223.53 868.137C1220.77 870.893 1216.64 873.649 1212.51 873.649C1204.24 873.649 1195.97 866.759 1195.97 857.113C1195.97 852.979 1197.35 848.845 1200.11 846.089C1201.48 843.333 1205.62 840.577 1211.13 840.577ZM1211.13 837.821C1209.75 837.821 1209.75 837.821 1211.13 837.821C1200.11 837.821 1191.84 847.467 1191.84 858.491C1191.84 869.515 1201.48 877.783 1211.13 877.783C1222.15 877.783 1230.42 868.137 1230.42 857.113C1230.42 846.089 1220.77 837.821 1211.13 837.821Z" fill="white"/>
<path d="M1257.98 917.745C1255.22 914.989 1253.84 910.855 1253.84 906.721C1253.84 895.697 1262.11 887.429 1273.13 886.051C1274.51 886.051 1275.89 886.051 1275.89 886.051" stroke="white" stroke-width="3" stroke-miterlimit="10"/>
<path d="M1107.79 981.133C1107.79 970.109 1116.06 961.841 1127.08 960.463C1138.11 960.463 1146.37 968.731 1147.75 979.755" stroke="white" stroke-width="3" stroke-miterlimit="10"/>
<path d="M979.652 788.213C987.919 788.213 996.186 795.103 996.186 804.749C996.186 808.883 994.809 813.017 992.053 815.773C989.297 818.529 985.164 821.285 981.03 821.285C972.763 821.285 964.496 814.395 964.496 804.749C964.496 800.615 965.874 796.481 968.629 793.725C970.007 790.969 974.141 788.213 979.652 788.213ZM979.652 785.457C968.629 785.457 960.362 795.103 960.362 806.127C960.362 817.151 970.007 825.419 979.652 825.419C990.675 825.419 998.942 815.773 998.942 804.749C998.942 793.725 990.675 785.457 979.652 785.457Z" fill="white"/>
<path d="M1153.26 759.276C1161.52 759.276 1169.79 766.166 1169.79 775.812C1169.79 785.457 1162.9 792.347 1153.26 792.347C1144.99 792.347 1136.72 785.457 1136.72 775.812C1136.72 767.544 1144.99 759.276 1153.26 759.276ZM1153.26 756.52C1142.23 756.52 1133.97 766.166 1133.97 777.19C1133.97 788.214 1143.61 796.481 1153.26 796.481C1164.28 796.481 1172.55 786.835 1172.55 775.812C1173.92 764.788 1164.28 756.52 1153.26 756.52Z" fill="white"/>
<path d="M1049.92 720.692C1058.18 720.692 1066.45 727.582 1066.45 737.228C1066.45 741.362 1065.07 745.496 1062.32 748.252C1059.56 751.008 1055.43 753.764 1051.3 753.764C1043.03 753.764 1034.76 746.874 1034.76 737.228C1033.38 727.582 1041.65 720.692 1049.92 720.692ZM1049.92 716.558C1038.89 716.558 1030.63 726.204 1030.63 737.228C1030.63 748.252 1040.27 756.52 1049.92 756.52C1060.94 756.52 1069.21 746.874 1069.21 735.85C1070.59 724.826 1060.94 716.558 1049.92 716.558Z" fill="white"/>
<path d="M1133.97 693.132C1142.24 693.132 1150.51 700.022 1150.51 709.668C1150.51 719.314 1143.62 726.204 1133.97 726.204C1125.71 726.204 1117.44 719.314 1117.44 709.668C1117.44 705.534 1118.82 701.4 1121.57 698.644C1124.33 694.51 1128.46 693.132 1133.97 693.132ZM1133.97 688.998C1132.6 688.998 1132.6 688.998 1133.97 688.998C1122.95 688.998 1114.68 698.644 1114.68 709.668C1114.68 720.692 1124.33 728.96 1133.97 728.96C1145 728.96 1153.26 719.314 1153.26 708.29C1153.26 698.644 1143.62 688.998 1133.97 688.998Z" fill="white"/>
<path d="M1030.64 531.906C1038.9 531.906 1047.17 538.796 1047.17 548.442C1047.17 552.576 1045.79 556.71 1043.04 559.466C1040.28 562.222 1036.15 564.978 1032.01 564.978C1023.75 564.978 1015.48 558.088 1015.48 548.442C1014.1 540.174 1020.99 531.906 1030.64 531.906ZM1030.64 529.15C1019.61 529.15 1011.35 538.796 1011.35 549.82C1011.35 560.844 1020.99 569.112 1030.64 569.112C1041.66 569.112 1049.93 559.466 1049.93 548.442C1049.93 537.418 1041.66 529.15 1030.64 529.15Z" fill="white"/>
<path d="M990.67 467.141C1001.69 469.897 1007.2 480.92 1005.83 490.566C1003.07 501.59 992.048 507.102 982.403 505.724" stroke="white" stroke-width="3" stroke-miterlimit="10"/>
<path d="M1088.49 475.409C1096.76 475.409 1105.03 482.299 1105.03 491.945C1105.03 496.079 1103.65 500.213 1100.9 502.968C1098.14 505.724 1094.01 508.481 1089.87 508.481C1081.61 508.481 1073.34 501.591 1073.34 491.945C1071.96 482.299 1078.85 475.409 1088.49 475.409ZM1088.49 471.275C1077.47 471.275 1069.21 480.921 1069.21 491.945C1069.21 502.969 1078.85 511.236 1088.49 511.236C1099.52 511.236 1107.78 501.59 1107.78 490.567C1107.78 480.921 1099.52 471.275 1088.49 471.275Z" fill="white"/>
<path d="M1128.46 551.198C1136.72 551.198 1144.99 558.088 1144.99 567.734C1144.99 577.38 1138.1 584.27 1128.46 584.27C1120.19 584.27 1111.92 577.38 1111.92 567.734C1111.92 559.466 1118.81 551.198 1128.46 551.198ZM1128.46 548.442C1117.44 548.442 1109.17 558.088 1109.17 569.112C1109.17 580.136 1118.81 588.404 1128.46 588.404C1139.48 588.404 1147.75 578.758 1147.75 567.734C1147.75 556.71 1139.48 548.442 1128.46 548.442Z" fill="white"/>
<path d="M1288.29 807.505C1277.27 810.261 1267.62 803.371 1264.87 793.725C1262.11 782.701 1269 773.056 1278.65 770.3" stroke="white" stroke-width="3" stroke-miterlimit="10"/>
<path d="M1202.87 728.96C1211.13 728.96 1219.4 735.85 1219.4 745.496C1219.4 755.142 1212.51 762.032 1202.87 762.032C1194.6 762.032 1186.33 755.142 1186.33 745.496C1186.33 735.85 1194.6 728.96 1202.87 728.96ZM1202.87 726.204C1191.84 726.204 1183.58 735.85 1183.58 746.874C1183.58 757.898 1193.22 766.166 1202.87 766.166C1213.89 766.166 1222.16 756.52 1222.16 745.496C1223.53 734.472 1213.89 726.204 1202.87 726.204Z" fill="white"/>
<path d="M1056.81 413.399C1062.32 423.045 1058.19 435.447 1048.55 439.581C1038.9 445.093 1026.5 440.959 1022.37 431.313" stroke="white" stroke-width="3" stroke-miterlimit="10"/>
<path d="M1231.8 494.701C1220.78 494.701 1212.51 486.433 1211.13 475.409C1211.13 468.519 1213.89 463.007 1219.4 458.873" stroke="white" stroke-width="3" stroke-miterlimit="10"/>
<path d="M1157.39 491.944C1165.65 491.944 1173.92 498.834 1173.92 508.48C1173.92 518.126 1167.03 525.016 1157.39 525.016C1149.12 525.016 1140.85 518.126 1140.85 508.48C1140.85 500.212 1149.12 491.944 1157.39 491.944ZM1157.39 489.188C1146.36 489.188 1138.1 498.834 1138.1 509.858C1138.1 520.882 1147.74 529.15 1157.39 529.15C1168.41 529.15 1176.68 519.504 1176.68 508.48C1178.06 497.456 1168.41 489.188 1157.39 489.188Z" fill="white"/>
<path d="M1207 578.758C1197.36 577.38 1190.47 569.112 1190.47 559.466C1190.47 548.442 1198.73 540.174 1209.76 538.796C1215.27 538.796 1220.78 541.552 1224.91 545.686" stroke="white" stroke-width="3" stroke-miterlimit="10"/>
<path d="M987.922 391.351C953.475 414.777 850.137 526.394 859.782 566.356C870.805 610.452 1019.61 677.974 1033.39 680.73C1048.55 684.864 1071.97 646.28 1070.59 638.012C1069.21 629.744 1043.04 649.036 1043.04 649.036C1043.04 649.036 1067.84 606.318 1066.46 598.05C1065.08 589.782 1037.52 629.744 1037.52 629.744C1037.52 629.744 1045.79 587.026 1043.04 581.514C1040.28 574.624 1023.75 620.098 1023.75 620.098L943.831 555.332L971.388 527.772" stroke="#113355" stroke-width="4" stroke-miterlimit="10" stroke-linejoin="bevel"/>
<path d="M1211.13 384.461C1246.96 412.021 1355.81 536.04 1343.41 576.002C1331.01 620.098 1194.6 675.218 1182.2 679.352C1167.04 683.486 1135.35 661.438 1136.73 653.17C1138.11 644.902 1168.42 654.548 1168.42 654.548C1168.42 654.548 1133.97 617.342 1135.35 609.074C1136.73 600.806 1169.8 633.878 1169.8 633.878C1169.8 633.878 1158.78 593.916 1162.91 587.026C1167.04 580.136 1183.58 615.964 1183.58 615.964L1260.74 562.222L1237.31 537.418" stroke="#113355" stroke-width="4" stroke-miterlimit="10" stroke-linejoin="bevel"/>
<path d="M1641.01 785.457C1732.33 785.457 1806.35 711.424 1806.35 620.098C1806.35 528.772 1732.33 454.739 1641.01 454.739C1549.7 454.739 1475.67 528.772 1475.67 620.098C1475.67 711.424 1549.7 785.457 1641.01 785.457Z" fill="#FFCC00"/>
<path d="M535.988 785.457C627.304 785.457 701.33 711.424 701.33 620.098C701.33 528.772 627.304 454.739 535.988 454.739C444.673 454.739 370.646 528.772 370.646 620.098C370.646 711.424 444.673 785.457 535.988 785.457Z" fill="#11BB99"/>
<path d="M2176.99 790.97C2083.3 790.97 2006.14 715.18 2006.14 620.098C2006.14 525.016 2081.92 449.227 2176.99 449.227" fill="white"/>
<path d="M2176.99 790.97C2083.3 790.97 2006.14 715.18 2006.14 620.098C2006.14 525.016 2081.92 449.227 2176.99 449.227" stroke="#113355" stroke-width="3" stroke-miterlimit="10"/>
<path d="M0 450.605C93.6937 450.605 170.853 526.394 170.853 621.476C170.853 716.558 93.6937 790.97 0 790.97" fill="#2288EE"/>
<path d="M396.816 530.528C414.728 526.394 434.018 526.394 451.93 529.15C468.464 531.906 483.62 536.04 500.154 538.796C530.467 542.93 559.402 538.796 584.203 519.504C597.981 508.48 610.382 494.7 621.405 480.921C622.783 479.543 621.405 479.542 620.027 479.542C604.871 493.322 592.47 509.858 575.936 520.882C558.024 533.284 538.734 537.418 518.066 537.418C497.398 537.418 476.731 531.906 457.441 527.772C438.151 523.638 417.483 523.638 396.816 530.528C395.438 529.15 395.438 530.528 396.816 530.528Z" fill="white"/>
<path d="M372.017 643.524C389.929 629.744 411.974 620.098 434.02 617.342C458.821 614.586 482.245 620.098 505.668 624.232C526.336 628.366 548.381 631.122 569.049 625.61C589.717 621.476 606.251 609.074 620.029 593.916C639.319 574.624 658.609 553.954 676.521 533.284C677.899 531.906 676.521 531.906 675.143 531.906C657.231 549.82 640.697 569.112 622.785 587.026C607.629 603.562 591.095 617.342 569.049 622.854C523.58 633.878 478.111 607.696 432.642 614.586C410.597 618.72 388.551 626.988 372.017 643.524C370.639 642.146 370.639 643.524 372.017 643.524Z" fill="white"/>
<path d="M406.459 727.582C424.371 715.18 445.039 705.534 467.084 702.778C490.508 700.022 513.931 705.534 537.355 709.668C556.644 713.802 577.312 716.558 597.98 712.424C617.27 708.29 633.804 698.644 648.96 684.864C657.227 676.596 665.495 668.328 673.762 658.682C683.407 647.658 693.051 638.012 702.696 626.988C704.074 625.61 702.696 625.61 701.319 625.61C684.784 642.146 669.628 660.06 653.094 676.596C637.938 691.754 621.403 704.156 599.358 708.29C555.267 716.558 512.553 693.132 467.084 698.644C445.039 704.156 422.993 713.802 406.459 727.582C405.081 727.582 406.459 728.96 406.459 727.582Z" fill="white"/>
<path d="M473.982 774.434C462.96 759.276 454.693 741.362 450.559 723.448C445.048 702.778 447.803 682.108 451.937 661.438C458.826 626.988 468.471 587.026 449.181 553.954C439.536 537.418 425.758 523.638 410.601 511.236C409.224 509.858 409.224 511.236 409.224 512.614C421.624 525.016 434.025 537.418 443.67 552.576C454.693 569.112 457.448 589.782 457.448 609.074C456.07 628.366 451.937 647.658 447.803 666.95C445.048 684.864 443.67 704.156 447.803 722.07C451.937 741.362 461.582 759.276 473.982 774.434C473.982 775.812 475.36 774.434 473.982 774.434Z" fill="white"/>
<path d="M591.101 777.19C552.522 753.764 534.61 706.912 538.743 664.194C541.499 639.39 549.766 614.586 551.144 589.782C552.522 566.356 548.388 544.308 534.61 525.016C527.72 515.37 519.453 507.102 509.808 498.834C498.786 487.81 487.763 476.787 475.362 467.141C473.984 465.763 473.984 467.141 473.984 468.519C491.896 486.432 512.564 501.59 527.72 522.26C544.255 542.93 549.766 567.734 547.01 593.916C545.632 618.72 535.987 643.524 534.61 668.328C533.232 690.376 537.365 712.424 547.01 733.094C556.655 751.008 571.812 767.544 591.101 777.19C591.101 778.568 591.101 777.19 591.101 777.19Z" fill="white"/>
<path d="M659.989 730.338C632.432 701.4 620.032 661.438 625.543 622.854C631.054 585.648 644.833 547.064 629.677 509.858C622.787 491.945 609.009 476.787 593.852 464.385C592.475 463.007 592.475 464.385 592.475 465.763C604.875 479.543 618.654 491.945 625.543 508.48C633.81 527.772 633.81 548.442 632.432 567.734C629.677 588.404 624.165 607.696 621.409 626.988C620.032 646.28 621.409 664.194 626.921 682.108C635.188 700.022 644.833 717.936 659.989 730.338C659.989 731.716 659.989 730.338 659.989 730.338Z" fill="white"/>
<path d="M1505.99 716.558C1505.99 716.558 1579.01 580.136 1625.86 595.294C1672.7 609.074 1660.3 731.716 1660.3 731.716C1660.3 731.716 1711.28 655.926 1734.71 664.194C1758.13 671.084 1745.73 751.008 1745.73 751.008" stroke="white" stroke-width="4" stroke-miterlimit="10"/>
<path d="M1672.71 457.495C1672.71 457.495 1654.8 562.222 1693.38 585.648C1731.96 609.074 1799.47 570.49 1799.47 570.49" stroke="white" stroke-width="4" stroke-miterlimit="10"/>
<path d="M1621.72 456.117C1621.72 456.117 1623.1 566.356 1478.43 585.648" stroke="white" stroke-width="4" stroke-miterlimit="10"/>
<path d="M1558.34 763.41C1558.34 763.41 1641.01 567.734 1621.72 785.457" stroke="white" stroke-width="4" stroke-miterlimit="10"/>
<path d="M1727.82 479.542C1727.82 479.542 1709.91 576.002 1774.67 518.126" stroke="white" stroke-width="4" stroke-miterlimit="10"/>
</svg>
