<svg width="1694" height="1191" viewBox="0 0 1694 1191" fill="none" xmlns="http://www.w3.org/2000/svg">
<path d="M1015.97 438.787C936.266 495.096 994.716 549.281 963.897 592.841C900.133 683.149 937.328 847.828 1003.22 860.577C1105.24 880.763 1252.96 856.327 1313.54 848.89C1375.18 841.453 1482.51 705.46 1492.08 613.027C1500.58 520.595 1366.67 418.6 1240.21 399.476C1115.87 381.415 1070.17 400.539 1015.97 438.787Z" fill="#5555FF" fill-opacity="0.24"/>
<path d="M648.261 568.404C539.862 534.406 502.667 607.714 437.84 610.902C301.81 616.214 239.108 760.706 262.488 831.89C298.621 941.322 433.589 869.076 477.161 921.135C520.733 973.195 592.999 1033.75 699.273 976.382C805.546 919.01 816.174 818.078 805.546 789.392C757.723 656.587 720.527 591.778 648.261 568.404Z" fill="#5555FF" fill-opacity="0.24"/>
<path d="M330.507 512.095C330.507 512.095 333.695 803.205 197.665 804.267" stroke="#113355" stroke-width="3" stroke-linejoin="bevel"/>
<path d="M1123.3 708.648C1087.17 738.397 1103.11 797.894 1070.17 818.08C1035.1 838.266 985.148 875.452 1002.15 910.513C1020.22 946.636 1098.86 929.637 1165.81 976.384C1204.07 1002.95 1280.59 1011.44 1323.1 950.886C1423 810.643 1359.23 758.583 1298.66 726.71C1214.7 683.15 1161.56 677.837 1123.3 708.648Z" fill="#11BB99" fill-opacity="0.24"/>
<path d="M624.883 135.992C579.186 173.178 600.44 248.611 557.931 273.048C513.296 298.546 452.72 329.357 472.912 389.916C493.104 450.476 571.746 404.791 657.828 464.288C705.651 497.223 824.677 516.347 877.814 440.914C1004.28 264.548 922.449 197.614 846.995 158.304C740.721 103.056 672.706 96.6818 624.883 135.992Z" fill="#5555FF" fill-opacity="0.24"/>
<path d="M153.033 535.472C110.523 581.157 191.291 628.967 177.475 659.778C149.844 723.524 225.299 752.21 268.871 750.085C335.823 746.898 337.949 686.339 375.144 672.527C412.34 658.715 454.849 621.53 447.41 565.22C439.971 508.911 408.089 483.412 326.258 491.911C244.428 500.411 181.726 504.661 153.033 535.472Z" fill="#11BB99" fill-opacity="0.24"/>
<path d="M831.059 903.078L787.487 1057.13L664.21 938.138L831.059 903.078Z" fill="#FFCC00"/>
<path d="M1003.22 486.596C1038.29 492.971 1045.73 531.219 1035.1 554.593C1012.78 607.715 892.692 653.4 892.692 653.4L883.127 843.578L726.905 823.391C726.905 823.391 749.223 792.58 797.046 796.83C797.046 796.83 772.603 616.215 817.238 579.029C861.873 540.781 958.582 479.159 1003.22 486.596Z" fill="#FF3366"/>
<path d="M732.223 181.676C732.223 145.553 699.278 130.679 670.584 145.553C635.514 163.615 576.001 252.86 576.001 252.86L407.026 220.987L396.398 361.229C396.398 361.229 434.657 349.543 436.782 307.045C436.782 307.045 578.126 353.792 622.761 333.606C669.521 312.357 733.286 217.799 732.223 181.676Z" fill="#FF3366"/>
<path d="M546.247 502.534L635.516 543.969C658.896 555.656 686.527 535.47 682.277 508.909L670.586 421.788C668.461 403.727 651.457 390.977 633.391 393.102C629.14 394.165 624.889 395.227 620.638 397.352L543.058 443.037C520.741 456.849 521.804 490.847 546.247 502.534Z" fill="#2288EE"/>
<path d="M896.941 460.034L926.697 406.912C926.697 406.912 957.517 412.224 966.019 392.038C974.52 371.851 952.203 367.601 952.203 367.601C952.203 367.601 960.705 338.916 937.325 319.792C913.944 300.668 881 318.729 869.31 338.915C851.243 369.726 855.494 393.1 888.439 406.912L865.059 440.91" fill="#FFCC00"/>
<path d="M962.837 375.04C962.837 375.04 988.343 354.854 964.963 319.793C941.583 284.733 926.704 291.107 920.328 274.108C915.014 257.109 870.379 281.545 898.011 318.731C925.642 355.916 926.704 352.729 926.704 352.729C926.704 352.729 912.889 367.603 921.391 375.04C930.955 382.477 949.022 370.791 949.022 370.791" fill="#113355"/>
<path d="M883.131 344.231L869.315 353.793" stroke="#113355" stroke-width="4" stroke-miterlimit="10"/>
<path d="M885.259 328.294L871.443 329.356" stroke="#113355" stroke-width="4" stroke-miterlimit="10"/>
<path d="M908.636 350.605L901.197 338.918" stroke="#113355" stroke-width="4" stroke-miterlimit="10"/>
<path d="M893.757 353.792C896.692 353.792 899.071 351.414 899.071 348.48C899.071 345.546 896.692 343.167 893.757 343.167C890.822 343.167 888.443 345.546 888.443 348.48C888.443 351.414 890.822 353.792 893.757 353.792Z" fill="#113355"/>
<path d="M875.689 343.167C878.623 343.167 881.002 340.789 881.002 337.855C881.002 334.921 878.623 332.543 875.689 332.543C872.754 332.543 870.375 334.921 870.375 337.855C870.375 340.789 872.754 343.167 875.689 343.167Z" fill="#113355"/>
<path d="M591.936 732.022C591.936 732.022 666.327 768.145 704.586 760.708C742.844 753.271 788.542 705.461 792.792 689.525C797.043 673.588 825.737 706.524 834.239 695.899C836.365 692.712 798.106 672.525 798.106 672.525C798.106 672.525 835.302 688.462 836.365 681.025C836.365 673.588 799.169 655.526 799.169 655.526C799.169 655.526 835.302 671.463 838.49 664.026C841.678 657.651 791.73 635.34 791.73 635.34L704.586 691.649L610.002 664.026" stroke="#113355" stroke-width="3" stroke-linejoin="bevel"/>
<path d="M1213.42 254.205L1122.47 352.464L1330.75 545.134L1421.69 446.875L1213.42 254.205Z" fill="#2288EE"/>
<path d="M1190.71 324.323C1215.83 297.19 1226.06 265.824 1213.56 254.267C1201.07 242.709 1170.58 255.336 1145.47 282.47C1120.35 309.603 1110.12 340.968 1122.62 352.526C1135.11 364.083 1165.6 351.457 1190.71 324.323Z" fill="#11BB99" fill-opacity="0.24"/>
<path d="M1342.23 548.219C1337.98 548.219 1333.73 547.157 1330.54 543.969C1325.23 538.657 1324.17 529.095 1328.42 516.346C1332.67 503.596 1341.17 488.722 1353.92 475.973C1371.99 456.849 1393.24 444.1 1408.12 444.1C1412.37 444.1 1416.62 445.162 1419.81 448.349C1431.5 458.974 1420.87 489.785 1396.43 516.346C1379.43 535.47 1358.17 548.219 1342.23 548.219Z" fill="white"/>
<path d="M1409.19 443.036V446.223C1413.44 446.223 1416.63 447.286 1419.81 449.411C1430.44 460.035 1419.81 489.784 1396.43 515.282C1387.93 524.844 1378.37 532.281 1367.74 538.656C1358.18 543.968 1349.67 547.156 1343.3 547.156C1339.05 547.156 1335.86 546.093 1332.67 543.968C1327.36 539.719 1327.36 530.157 1330.55 517.407C1334.8 504.658 1343.3 490.846 1356.05 478.097C1364.55 468.535 1374.12 461.098 1384.74 454.723C1394.31 449.411 1402.81 446.223 1409.19 446.223V443.036ZM1409.19 443.036C1394.31 443.036 1371.99 455.785 1353.93 475.972C1328.42 502.533 1318.86 534.406 1330.55 546.093C1333.73 549.281 1337.98 550.343 1342.24 550.343C1357.11 550.343 1379.43 537.594 1397.5 517.407C1423 490.846 1432.57 458.973 1420.88 447.286C1418.75 444.099 1414.5 443.036 1409.19 443.036Z" fill="#113355"/>
<path d="M550.495 910.512L444.222 1034.82" stroke="#2288EE" stroke-width="26" stroke-miterlimit="10"/>
<path d="M962.834 138.118L1081.86 227.363" stroke="#FF3366" stroke-width="26" stroke-miterlimit="10"/>
<path d="M331.565 158.303L480.348 137.054" stroke="#2288EE" stroke-width="26" stroke-miterlimit="10"/>
<path d="M741.787 353.791L799.175 214.611" stroke="#11BB99" stroke-opacity="0.24" stroke-width="26" stroke-miterlimit="10"/>
<path d="M1307.16 225.236L1394.31 120.054" stroke="#FFCC00" stroke-width="26" stroke-miterlimit="10"/>
<path d="M1449.57 643.837L1593.03 710.771" stroke="#FF3366" stroke-width="26" stroke-miterlimit="10"/>
<path d="M96.7051 849.955L217.857 968.949" stroke="#FFCC00" stroke-width="26" stroke-miterlimit="10"/>
<path d="M1492.07 282.606L1579.22 413.287" stroke="#11BB99" stroke-opacity="0.24" stroke-width="26" stroke-miterlimit="10"/>
<path d="M907.57 976.385L1073.36 1070.94" stroke="#11BB99" stroke-opacity="0.24" stroke-width="26" stroke-miterlimit="10"/>
<path d="M1306.09 625.776C1306.09 625.776 1329.47 523.782 1254.02 540.781C1204.07 552.468 1164.75 618.339 1161.56 613.027C1158.37 605.59 1174.31 583.278 1174.31 583.278C1174.31 583.278 1145.62 614.089 1141.37 608.777C1137.12 604.527 1162.62 574.779 1162.62 574.779C1162.62 574.779 1136.06 597.09 1131.81 593.903C1125.43 588.591 1158.37 559.905 1158.37 559.905C1158.37 559.905 1132.87 558.842 1123.3 553.53C1113.74 548.218 1166.88 545.03 1166.88 545.03C1166.88 545.03 1179.63 500.408 1213.64 455.785C1240.2 420.724 1267.84 395.226 1325.22 398.413C1434.68 403.725 1433.62 275.17 1306.09 296.418" stroke="#113355" stroke-width="3" stroke-linejoin="bevel"/>
<path d="M270.991 466.413C270.991 466.413 234.858 541.846 182.784 516.348C141.338 496.161 153.028 418.603 213.604 392.042C330.505 341.044 326.254 491.912 326.254 491.912" stroke="#113355" stroke-width="3" stroke-linejoin="bevel"/>
<path d="M1205.14 802.146C1205.14 802.146 1334.79 922.202 1275.28 1042.26" stroke="#113355" stroke-width="3" stroke-linejoin="bevel"/>
<path d="M520.74 166.801C520.74 166.801 607.885 56.3072 681.213 73.3063" stroke="#113355" stroke-width="3" stroke-linejoin="bevel"/>
<path d="M116.901 314.479L262.496 432.411" stroke="#FFCC00" stroke-width="26" stroke-miterlimit="10"/>
<path d="M1495.26 831.892L1515.45 1018.88" stroke="#2288EE" stroke-width="26" stroke-miterlimit="10"/>
<path d="M471.847 771.332C499.433 771.332 521.796 748.975 521.796 721.397C521.796 693.819 499.433 671.462 471.847 671.462C444.261 671.462 421.898 693.819 421.898 721.397C421.898 748.975 444.261 771.332 471.847 771.332Z" fill="#FF3366"/>
</svg>
