<svg width="1969" height="1005" viewBox="0 0 1969 1005" fill="none" xmlns="http://www.w3.org/2000/svg">
<path d="M161.791 614.557L151.046 645.583L103.288 775.654L91.3481 810.26L10.1592 780.427V558.471L50.7536 573.984L161.791 614.557Z" fill="#FF3366"/>
<path d="M103.291 775.654C86.5754 743.435 65.0842 687.349 91.3512 657.516C102.097 645.583 123.588 643.196 149.855 646.776" stroke="white" stroke-width="5" stroke-miterlimit="10"/>
<path d="M50.7536 573.984C49.5597 621.717 43.5899 725.535 10.1592 735.082" stroke="white" stroke-width="5" stroke-miterlimit="10"/>
<path d="M1622 584.724V797.134L1499.02 818.613L1463.2 612.17L1622 584.724Z" fill="#FFCC00"/>
<path d="M1321.12 610.977C1304.41 613.364 1287.69 597.85 1287.69 597.85C1287.69 597.85 1299.63 578.757 1316.35 576.371C1333.06 573.984 1349.78 589.497 1349.78 589.497C1349.78 589.497 1337.84 608.59 1321.12 610.977Z" fill="#FFCC00"/>
<path d="M552.212 690.929C494.902 742.241 406.55 737.468 355.209 680.189C303.869 622.91 308.645 534.605 365.955 483.292L552.212 690.929Z" fill="#FFCC00"/>
<path d="M753.991 819.807C755.185 818.613 706.232 590.69 706.232 590.69L930.696 661.096L753.991 819.807Z" fill="#2288EE"/>
<path d="M711.011 613.363C725.338 613.363 739.666 614.557 752.799 620.523C764.739 625.296 776.678 632.456 788.618 638.423C811.303 649.163 838.764 653.936 861.449 640.81C862.643 640.81 861.449 639.616 861.449 639.616C855.479 642.003 849.509 644.39 842.346 645.583C835.182 646.776 829.212 646.776 822.048 646.776C807.721 645.583 795.781 639.616 782.648 633.65C771.902 627.683 761.157 621.717 749.217 618.137C737.278 613.363 724.144 610.977 711.011 613.363C709.817 612.17 709.817 613.363 711.011 613.363Z" fill="white"/>
<path d="M725.341 681.382C739.668 683.769 752.802 688.542 765.935 695.702C777.875 701.669 788.62 707.635 801.754 712.409C814.887 715.989 828.021 718.375 841.154 714.795C853.094 711.215 865.033 705.249 875.779 698.089C891.3 688.542 906.822 680.189 921.149 670.643C922.343 670.643 921.149 669.449 919.955 669.449C906.822 676.609 893.688 684.962 880.555 692.122C868.615 699.282 857.87 706.442 844.736 711.215C816.081 720.762 789.814 707.635 764.741 694.509C752.802 687.349 739.668 682.576 725.341 681.382C724.147 680.189 724.147 681.382 725.341 681.382Z" fill="white"/>
<path d="M739.661 751.788C750.407 755.368 761.152 758.948 771.898 764.914C781.45 769.687 791.001 775.654 801.747 779.234C802.941 779.234 802.941 778.041 801.747 778.041C791.001 773.267 781.45 768.494 770.704 762.528C761.152 756.561 750.407 751.788 739.661 751.788C739.661 750.594 739.661 750.594 739.661 751.788Z" fill="white"/>
<path d="M732.504 714.795C743.249 696.896 752.801 676.609 752.801 655.13C752.801 634.843 742.055 614.557 730.116 597.851C730.116 596.657 728.922 597.851 728.922 599.044C733.698 607.397 738.473 615.75 743.249 625.297C748.025 634.843 750.413 644.39 750.413 655.13C751.607 676.609 740.861 694.509 732.504 714.795C731.31 714.795 732.504 714.795 732.504 714.795Z" fill="white"/>
<path d="M788.613 788.78C786.225 773.267 786.225 756.561 791.001 741.048C795.777 727.921 802.941 714.795 808.911 701.669C814.88 689.735 819.656 676.609 820.85 662.289C822.044 647.969 818.462 634.843 811.299 622.91C811.299 621.717 810.105 622.91 810.105 624.103C812.492 631.263 816.074 637.23 817.268 644.389C819.656 652.743 819.656 661.096 818.462 668.256C816.074 682.576 810.105 696.895 802.941 710.022C796.971 721.955 789.807 733.888 787.419 748.208C783.838 761.334 783.838 775.654 788.613 788.78C787.419 789.974 788.613 789.974 788.613 788.78Z" fill="white"/>
<path d="M865.035 720.762C871.005 708.829 878.169 696.895 882.944 684.962C887.72 673.029 891.302 659.903 890.108 647.97C890.108 646.776 888.914 647.97 888.914 647.97C887.72 661.096 886.526 673.029 881.75 686.156C875.781 696.895 868.617 707.635 865.035 720.762C863.841 720.762 863.841 720.762 865.035 720.762Z" fill="white"/>
<path d="M881.744 826.967C881.744 826.967 881.744 825.773 881.744 826.967C880.55 825.773 880.55 826.967 881.744 826.967Z" fill="white"/>
<path d="M1303.21 560.858C1303.21 560.858 1293.66 601.43 1260.23 626.49" stroke="#113355" stroke-width="4" stroke-miterlimit="10"/>
<path d="M1119.34 729.115C1064.42 655.13 1127.7 542.958 1202.92 546.538C1267.39 548.925 1266.2 621.717 1266.2 621.717C1266.2 621.717 1336.64 642.003 1321.12 705.249C1304.41 776.847 1177.85 807.874 1119.34 729.115Z" fill="#FF3366"/>
<path d="M833.987 174.224C833.987 174.224 871 230.31 890.103 235.083C913.982 239.856 976.068 184.964 976.068 184.964C976.068 184.964 1017.86 200.477 1021.44 196.897C1025.02 193.317 991.589 176.61 991.589 176.61C991.589 176.61 1038.15 193.317 1039.35 188.544C1040.54 183.77 1002.33 165.871 1002.33 165.871C1002.33 165.871 1039.35 178.997 1041.74 176.61C1045.32 171.837 999.947 146.778 999.947 146.778C965.322 137.231 903.237 182.577 903.237 182.577C903.237 182.577 876.97 127.685 844.733 110.978" stroke="#113355" stroke-width="3" stroke-miterlimit="10"/>
<path d="M968.912 157.518C974.882 168.257 986.821 169.451 986.821 169.451L983.24 150.358" stroke="#113355" stroke-width="3" stroke-miterlimit="10"/>
<path d="M576.097 359.188L499.684 336.515L474.611 486.872L533.115 378.281L584.455 392.6" fill="#2288EE"/>
<path d="M516.399 379.474L528.339 406.92" stroke="white" stroke-width="4" stroke-miterlimit="10"/>
<path d="M510.431 393.794L522.37 421.24" stroke="white" stroke-width="4" stroke-miterlimit="10"/>
<path d="M524.76 397.373L535.505 427.206" stroke="white" stroke-width="4" stroke-miterlimit="10"/>
<path d="M833.996 45.3458C835.19 62.0522 822.057 76.372 805.342 77.5653C791.014 78.7586 777.881 68.0188 774.299 54.8923C774.299 52.5057 773.105 51.3124 773.105 48.9258C771.911 32.2194 785.044 17.8996 801.76 16.7063C810.117 16.7063 818.475 19.0929 824.445 25.0595C830.415 29.8328 832.802 36.9926 833.996 45.3458Z" fill="#FFCC00"/>
<path d="M829.212 11.9331C829.212 19.093 824.436 25.0596 817.272 25.0596C811.302 25.0596 805.333 21.4797 804.139 15.5131C804.139 14.3198 804.139 14.3198 804.139 13.1265C804.139 5.96657 808.914 0 816.078 0C819.66 0 823.242 1.19331 825.63 3.57994C828.018 5.96657 829.212 8.3532 829.212 11.9331Z" fill="#113355"/>
<path d="M807.72 9.5466C807.72 14.3199 804.138 17.8998 800.556 17.8998C796.974 17.8998 793.392 15.5132 792.198 11.9332V10.7399C792.198 5.96666 795.78 2.38672 799.362 2.38672C801.75 2.38672 804.138 3.58003 805.332 4.77335C807.72 5.96666 807.72 7.15998 807.72 9.5466Z" fill="#113355"/>
<path d="M825.639 59.6656C825.639 59.6656 819.669 58.4723 819.669 52.5057" stroke="#113355" stroke-width="4" stroke-miterlimit="10"/>
<path d="M824.767 53.6808C826.742 53.5711 828.225 51.3483 828.078 48.716C827.932 46.0838 826.212 44.0389 824.237 44.1486C822.261 44.2583 820.779 46.4811 820.925 49.1134C821.072 51.7456 822.792 53.7905 824.767 53.6808Z" fill="#113355"/>
<path d="M813.969 53.6705C815.944 53.5608 817.427 51.338 817.28 48.7058C817.134 46.0735 815.414 44.0286 813.439 44.1384C811.464 44.2481 809.981 46.4709 810.127 49.1031C810.274 51.7354 811.994 53.7803 813.969 53.6705Z" fill="#113355"/>
<path d="M783.846 47.7326C783.846 53.6992 779.07 58.4725 773.101 59.6658C767.131 59.6658 763.549 56.0858 761.161 51.3126C761.161 50.1193 761.161 50.1193 761.161 48.9259C761.161 42.9594 765.937 38.1861 771.907 36.9928C775.489 36.9928 777.877 38.1861 780.264 40.5727C782.652 41.7661 783.846 45.346 783.846 47.7326Z" fill="#FFCC00"/>
<path d="M823.25 23.8663C823.25 23.8663 812.504 31.0262 793.401 28.6396V46.5393L781.461 44.1527C781.461 44.1527 777.879 33.4128 768.328 38.1861C768.328 38.1861 765.94 17.8998 777.879 11.9332C798.177 4.7733 817.28 13.1265 823.25 23.8663Z" fill="#113355"/>
<path d="M783.844 219.57C808.917 220.763 832.796 233.89 848.317 254.176L1035.77 498.805L965.325 571.598L779.068 313.842L753.995 412.887C745.637 443.913 715.788 464.199 683.551 458.233L558.186 434.366C558.186 434.366 542.665 424.82 545.052 384.247C547.44 343.675 567.738 340.095 567.738 340.095L671.612 359.188L691.909 284.009C703.849 243.436 742.055 217.183 783.844 219.57Z" fill="#FFCC00"/>
<path d="M576.093 437.946C571.317 426.013 567.735 411.693 572.511 398.567C573.705 392.6 578.481 386.634 583.256 385.44C589.226 383.054 595.196 387.827 599.972 391.407C617.881 409.307 632.208 430.786 647.73 452.266H648.924C641.76 439.14 632.208 426.013 622.657 414.08C617.881 408.113 613.105 402.147 608.329 397.374C603.554 392.6 599.972 386.634 592.808 384.247C582.062 379.474 573.705 389.02 570.123 397.374C565.347 410.5 568.929 426.013 576.093 437.946C574.899 439.14 576.093 439.14 576.093 437.946Z" fill="#FF3366"/>
<path d="M614.307 349.641C617.889 365.154 627.44 378.28 638.186 389.02C648.931 399.76 662.065 410.5 677.586 415.273C690.72 420.046 706.241 420.046 713.405 406.92C720.569 393.794 718.181 375.894 713.405 362.767C711.017 354.414 706.241 344.868 702.659 337.708C697.883 329.355 693.108 319.808 687.138 312.648C685.944 311.455 684.75 312.648 685.944 313.842C694.302 326.968 702.659 338.901 708.629 353.221C714.599 366.347 718.181 383.054 715.793 397.373C714.599 404.533 711.017 411.693 703.853 414.08C696.69 416.467 688.332 415.273 681.168 412.887C666.841 408.113 654.901 399.76 644.156 390.214C631.022 379.474 620.276 365.154 614.307 349.641C615.501 348.448 614.307 348.448 614.307 349.641Z" fill="#FF3366"/>
<path d="M711.019 457.039C706.243 442.719 702.661 428.4 702.661 414.08C702.661 400.953 706.243 386.634 711.019 374.7C715.795 363.961 722.959 352.028 732.51 344.868C745.644 335.321 758.777 342.481 768.329 352.028C768.329 352.028 769.523 352.028 769.523 350.834C762.359 343.674 754.001 336.514 743.256 337.708C733.704 338.901 726.54 344.868 721.765 352.028C708.631 369.927 700.273 392.6 700.273 415.273C701.467 429.593 705.049 443.913 709.825 457.039C711.019 458.232 712.213 458.232 711.019 457.039Z" fill="#FF3366"/>
<path d="M554.605 352.028C560.575 355.608 567.739 360.381 574.903 357.994C580.872 355.608 584.454 348.448 584.454 343.675C584.454 342.481 583.26 342.481 583.26 343.675C580.872 348.448 579.679 355.608 573.709 356.801C566.545 357.994 559.381 354.414 554.605 352.028C553.411 350.834 553.411 352.028 554.605 352.028Z" fill="#FF3366"/>
<path d="M701.463 262.529C707.433 270.882 714.596 279.235 724.148 284.009C732.506 287.588 740.863 286.395 748.027 280.429C756.385 274.462 761.161 264.916 764.743 255.369C769.518 244.629 773.1 232.696 775.488 220.763C775.488 219.57 774.294 219.57 774.294 220.763C767.13 239.856 763.549 261.336 750.415 276.849C743.251 284.009 733.7 288.782 724.148 284.009C715.79 276.849 708.627 268.495 701.463 262.529C702.657 261.336 701.463 261.336 701.463 262.529Z" fill="#FF3366"/>
<path d="M859.067 268.496C851.903 264.916 844.74 262.529 837.576 261.336C830.412 260.142 820.861 260.142 814.891 263.722C800.563 272.075 813.697 293.555 820.861 303.102C830.412 316.228 843.546 328.161 855.485 337.708C868.619 348.448 882.946 357.994 898.468 365.154C915.183 374.7 933.092 383.054 952.196 387.827C952.196 387.827 953.39 386.634 952.196 386.634C922.347 375.894 894.886 362.767 869.813 344.868C857.873 336.514 845.934 325.775 835.188 315.035C830.412 309.068 824.442 303.102 820.861 297.135C816.085 289.975 811.309 282.815 811.309 274.462C811.309 262.529 824.442 261.336 833.994 261.336C841.158 262.529 850.71 264.916 859.067 268.496Z" fill="#FF3366"/>
<path d="M805.334 350.834C811.304 342.481 818.468 334.128 825.632 328.161C830.407 324.582 835.183 321.002 841.153 319.808C848.317 318.615 854.286 321.002 860.256 325.775C878.166 342.481 880.553 371.121 876.972 394.987C874.584 409.307 871.002 423.627 868.614 439.14C868.614 440.333 869.808 440.333 869.808 439.14C874.584 424.82 876.972 409.307 879.359 394.987C880.553 383.054 881.747 371.121 879.359 359.188C876.972 346.061 871.002 331.741 861.45 323.388C851.899 315.035 839.959 316.228 830.407 322.195C819.662 329.355 810.11 338.901 805.334 350.834C804.14 350.834 805.334 350.834 805.334 350.834Z" fill="#FF3366"/>
<path d="M905.633 490.452C923.542 488.065 939.064 483.292 955.779 477.325C971.3 471.359 988.016 464.199 1001.15 453.459C1002.34 453.459 1001.15 452.266 999.955 452.266C992.792 455.846 985.628 460.619 977.27 464.199C968.912 467.779 961.749 471.359 953.391 474.939C939.064 482.099 922.348 486.872 905.633 490.452C904.439 489.259 904.439 490.452 905.633 490.452Z" fill="#FF3366"/>
<path d="M970.099 412.887C961.741 412.887 952.189 414.08 943.832 416.467C935.474 418.853 927.116 422.433 919.953 426.013C912.789 429.593 905.625 434.366 899.655 440.333C893.686 445.106 886.522 451.073 881.746 458.233C881.746 459.426 881.746 459.426 882.94 459.426C894.88 448.686 905.625 437.946 919.953 429.593C935.474 421.24 952.189 416.467 968.905 415.273C970.099 414.08 970.099 412.887 970.099 412.887Z" fill="#FF3366"/>
<path d="M931.892 525.058C945.025 515.512 961.74 509.545 978.456 509.545C995.171 509.545 1010.69 514.318 1025.02 522.671C1026.21 522.671 1026.21 521.478 1026.21 521.478C1013.08 510.738 996.365 505.965 979.65 507.158C960.546 508.352 945.025 514.318 931.892 525.058C930.698 525.058 930.698 526.251 931.892 525.058Z" fill="#FF3366"/>
<path d="M1010.69 546.435C1030.31 525.98 1040.82 504.221 1034.16 497.835C1027.49 491.45 1006.18 502.855 986.56 523.31C966.936 543.766 956.429 565.524 963.092 571.91C969.756 578.296 991.066 566.891 1010.69 546.435Z" fill="#113355"/>
<path d="M977.263 558.471L1017.86 615.75L1091.88 501.192L1016.66 562.051L996.366 533.411" fill="#2288EE"/>
<path d="M1028.61 559.664L1032.19 532.218" stroke="white" stroke-width="4" stroke-miterlimit="10"/>
<path d="M1040.55 551.311L1044.13 525.058" stroke="white" stroke-width="4" stroke-miterlimit="10"/>
<path d="M1051.29 541.765L1056.06 515.512" stroke="white" stroke-width="4" stroke-miterlimit="10"/>
<path d="M779.07 313.842L788.622 263.722" stroke="white" stroke-width="3" stroke-miterlimit="10"/>
<path d="M1072.11 563.224C1096.17 529.381 1111.32 498.851 1105.95 495.033C1100.58 491.215 1076.71 515.555 1052.64 549.398C1028.58 583.241 1013.43 613.772 1018.8 617.589C1024.18 621.407 1048.04 597.067 1072.11 563.224Z" fill="#113355"/>
<path d="M869.805 150.358C865.029 173.031 843.538 187.35 820.853 183.77L742.052 168.257C719.367 163.484 705.04 142.004 708.621 119.331C713.397 96.6585 734.888 82.3387 757.574 85.9186L836.375 101.432C859.06 106.205 874.581 127.685 869.805 150.358Z" fill="#113355"/>
<path d="M743.253 151.551L674.004 171.837C674.004 171.837 651.318 256.562 629.827 255.369C629.827 255.369 584.457 251.789 582.069 248.209C579.681 244.629 611.918 241.049 611.918 241.049C611.918 241.049 574.905 241.049 572.517 237.469C570.129 232.696 609.53 230.309 609.53 230.309C609.53 230.309 577.293 229.116 577.293 224.343C577.293 219.57 615.5 218.376 615.5 218.376C615.5 218.376 623.857 155.131 641.767 138.424C662.064 119.331 750.417 100.238 750.417 100.238" stroke="#113355" stroke-width="3" stroke-miterlimit="10"/>
<path d="M713.402 100.238L749.221 91.8853" stroke="white" stroke-width="3" stroke-miterlimit="10"/>
<path d="M721.762 157.518L745.641 151.551" stroke="white" stroke-width="3" stroke-miterlimit="10"/>
</svg>
