<svg width="1563" height="1040" viewBox="0 0 1563 1040" fill="none" xmlns="http://www.w3.org/2000/svg">
<path d="M1563 487.637H641.812V1021.66H1563V487.637Z" fill="#FFCC00" fill-opacity="0.24"/>
<path d="M634.261 0H0V877.095H634.261V0Z" fill="#11BB99" fill-opacity="0.24"/>
<path d="M42.0674 610.624C43.1461 613.861 47.4608 842.574 47.4608 842.574C47.4608 842.574 92.7651 822.076 93.8438 778.923L258.881 767.056C320.366 762.74 372.142 717.429 385.086 657.014L412.053 532.948C412.053 532.948 453.043 564.234 449.807 564.234C447.649 565.313 379.693 835.023 379.693 835.023H606.214C606.214 835.023 584.641 786.475 554.438 783.238L605.136 609.545C622.394 550.209 606.214 486.558 563.067 442.325L449.807 324.732C408.817 282.657 343.018 275.105 293.399 307.471C258.881 330.126 237.308 367.886 236.229 408.881L232.993 564.234L42.0674 610.624Z" fill="#2288EE"/>
<path d="M309.582 432.615C314.975 439.088 415.292 539.42 415.292 539.42" stroke="white" stroke-width="6" stroke-miterlimit="10"/>
<path d="M1332.16 979.584H1457.29C1495.04 979.584 1525.25 949.376 1525.25 911.617V552.364C1525.25 525.393 1503.67 511.368 1476.71 511.368C1449.74 511.368 1428.17 525.393 1428.17 552.364V888.962H1299.8" stroke="#113355" stroke-width="3" stroke-linejoin="bevel"/>
<path d="M1025.82 999.004H831.66C750.759 999.004 689.275 925.643 703.297 845.809L750.759 573.942C750.759 573.942 691.432 562.074 692.511 518.921L908.246 513.527L851.076 814.522L990.225 812.365L983.753 626.805C981.595 554.522 1047.39 499.502 1118.59 515.684L1330.01 563.153C1330.01 563.153 1352.66 501.659 1385.02 505.975L1368.84 705.56L1143.4 658.091L1160.66 853.361C1167.13 927.8 1112.12 992.531 1038.77 999.004C1033.37 999.004 1030.14 999.004 1025.82 999.004Z" fill="#FF3366"/>
<path d="M1339.72 999.006H1177.91C1150.95 999.006 1133.69 969.877 1147.71 946.143L1228.61 808.052C1241.56 785.396 1275 785.396 1289.02 808.052L1369.92 946.143C1382.86 969.877 1366.68 999.006 1339.72 999.006Z" fill="#2288EE"/>
<path d="M1205.96 895.436L729.184 898.672C729.184 898.672 669.857 899.751 673.093 909.46C676.329 921.328 736.735 918.091 736.735 918.091C736.735 918.091 655.834 918.091 657.992 931.037C660.149 940.747 732.42 938.589 732.42 938.589C732.42 938.589 666.621 938.589 668.778 949.377C670.936 962.324 739.971 958.008 739.971 958.008C739.971 958.008 707.611 960.166 708.689 970.954C709.768 980.664 747.522 979.585 747.522 979.585L1207.04 978.506" stroke="#113355" stroke-width="3" stroke-linejoin="bevel"/>
<path d="M1271.76 865.227L1331.08 783.236C1331.08 783.236 1311.67 755.186 1325.69 737.925C1340.79 720.663 1355.89 740.082 1355.89 740.082C1355.89 740.082 1379.62 718.505 1408.75 731.452C1438.95 744.398 1436.79 785.393 1422.77 806.97C1402.28 839.335 1377.47 845.808 1347.26 820.995L1308.43 878.174" fill="#FFCC00"/>
<path d="M1342.95 731.451C1342.95 731.451 1350.5 696.928 1394.73 702.323C1440.03 707.717 1441.11 726.057 1460.53 722.821C1478.86 720.663 1477.78 775.684 1428.17 765.974C1379.63 757.343 1381.78 754.107 1381.78 754.107C1381.78 754.107 1374.23 775.684 1362.37 770.289C1350.5 764.895 1353.74 741.161 1353.74 741.161" fill="#113355"/>
<path d="M1410.91 798.34L1408.75 817.759" stroke="#113355" stroke-width="3" stroke-miterlimit="10"/>
<path d="M1401.2 794.026C1404.18 794.026 1406.59 791.611 1406.59 788.632C1406.59 785.652 1404.18 783.237 1401.2 783.237C1398.22 783.237 1395.8 785.652 1395.8 788.632C1395.8 791.611 1398.22 794.026 1401.2 794.026Z" fill="#113355"/>
<path d="M1421.69 800.5C1424.67 800.5 1427.09 798.085 1427.09 795.106C1427.09 792.126 1424.67 789.711 1421.69 789.711C1418.71 789.711 1416.3 792.126 1416.3 795.106C1416.3 798.085 1418.71 800.5 1421.69 800.5Z" fill="#113355"/>
<path d="M1068.97 809.128H989.146" stroke="white" stroke-width="6" stroke-miterlimit="10"/>
<path d="M1435.72 546.973C1435.72 546.973 1469.15 549.13 1469.15 560.998C1469.15 572.865 1433.56 575.022 1433.56 575.022" stroke="#113355" stroke-width="3" stroke-linejoin="bevel"/>
<path d="M1522.01 546.97C1522.01 546.97 1524.17 582.572 1514.46 582.572C1504.75 582.572 1498.28 546.97 1498.28 546.97C1498.28 546.97 1502.59 589.045 1487.49 589.045C1472.39 589.045 1470.23 543.733 1470.23 543.733C1470.23 543.733 1468.08 590.123 1457.29 590.123C1445.42 590.123 1443.27 573.941 1443.27 573.941" stroke="#113355" stroke-width="3" stroke-linejoin="bevel"/>
<path d="M494.031 343.071V717.427C494.031 744.398 515.605 758.423 542.572 758.423C569.538 758.423 591.112 745.477 591.112 718.506V264.315" stroke="#113355" stroke-width="3" stroke-linejoin="bevel"/>
<path d="M582.484 723.9C582.484 723.9 549.045 721.743 549.045 709.875C549.045 698.008 584.641 695.851 584.641 695.851" stroke="white" stroke-width="3" stroke-linejoin="bevel"/>
<path d="M494.034 723.902C494.034 723.902 491.876 688.3 502.663 688.3C513.45 688.3 518.843 723.902 518.843 723.902C518.843 723.902 514.528 682.906 529.63 681.827C544.731 681.827 546.889 727.138 546.889 727.138C546.889 727.138 549.046 680.748 560.911 680.748C572.777 680.748 574.934 696.931 574.934 696.931" stroke="white" stroke-width="3" stroke-linejoin="bevel"/>
<path d="M265.353 877.093H444.413C484.324 877.093 516.685 909.458 516.685 949.375C516.685 989.292 484.324 1021.66 444.413 1021.66H265.353C225.442 1021.66 193.082 989.292 193.082 949.375C193.082 909.458 225.442 877.093 265.353 877.093Z" fill="#FF3366"/>
<path d="M1507.99 486.557H1356.97C1356.97 423.984 1306.28 372.2 1242.63 372.2C1180.07 372.2 1128.29 422.906 1128.29 486.557H977.28C977.28 339.835 1095.93 222.242 1241.56 222.242C1387.18 222.242 1507.99 340.914 1507.99 486.557Z" fill="#5555FF"/>
<path d="M810.085 485.475C882.169 485.475 940.605 427.031 940.605 354.936C940.605 282.841 882.169 224.396 810.085 224.396C738.001 224.396 679.565 282.841 679.565 354.936C679.565 427.031 738.001 485.475 810.085 485.475Z" fill="white"/>
<path d="M810.084 226.558C881.276 226.558 938.446 283.736 938.446 354.94C938.446 426.143 881.276 483.321 810.084 483.321C738.891 483.321 681.721 426.143 681.721 354.94C681.721 320.417 695.744 288.052 719.475 264.317C743.206 239.504 776.645 226.558 810.084 226.558ZM810.084 223.321C737.812 223.321 678.485 282.657 678.485 354.94C678.485 427.222 737.812 486.558 810.084 486.558C882.355 486.558 941.682 427.222 941.682 354.94C942.761 282.657 883.434 223.321 810.084 223.321Z" fill="#113355"/>
<path d="M810.083 223.32C841.657 223.32 867.253 197.721 867.253 166.142C867.253 134.563 841.657 108.963 810.083 108.963C778.509 108.963 752.913 134.563 752.913 166.142C752.913 197.721 778.509 223.32 810.083 223.32Z" fill="#5555FF"/>
<path d="M132.679 1020.58C117.578 1020.58 104.634 1008.71 104.634 992.53C104.634 977.427 116.499 964.48 132.679 964.48C148.859 964.48 160.725 976.348 160.725 992.53C159.646 1008.71 147.781 1020.58 132.679 1020.58Z" fill="white"/>
<path d="M132.678 966.638C146.701 966.638 158.566 978.505 158.566 992.53C158.566 1006.56 146.701 1018.42 132.678 1018.42C118.655 1018.42 106.79 1006.56 106.79 992.53C105.711 978.505 117.576 966.638 132.678 966.638ZM132.678 964.48C116.498 964.48 103.554 977.427 103.554 993.609C103.554 1009.79 116.498 1022.74 132.678 1022.74C148.858 1022.74 161.802 1009.79 161.802 993.609C161.802 977.427 147.779 964.48 132.678 964.48Z" fill="#113355"/>
<path d="M599.744 115.438C599.744 115.438 614.845 161.828 597.586 189.877C580.328 217.927 532.866 215.769 532.866 215.769L480.011 120.832L599.744 115.438Z" fill="#113355"/>
<path d="M288.008 169.376C332.233 102.488 421.763 84.1482 488.641 128.381C555.519 172.613 573.857 262.157 529.631 329.044C528.552 330.123 528.552 331.202 527.474 332.281L288.008 169.376Z" fill="#FF3366"/>
<path d="M469.224 165.063L515.607 94.9386C515.607 94.9386 501.584 67.9677 516.685 56.1005C531.787 44.2332 542.574 61.4946 542.574 61.4946C542.574 61.4946 565.226 45.3121 590.035 60.4158C613.766 75.5195 607.294 111.121 592.193 127.304C570.619 152.117 549.046 157.511 526.393 131.619L502.663 171.536" fill="#FFCC00"/>
<path d="M577.092 116.513L572.777 131.616" stroke="#113355" stroke-width="3" stroke-miterlimit="10"/>
<path d="M482.168 145.641C512.371 156.429 556.597 65.8067 556.597 65.8067C570.619 98.1719 602.98 111.118 602.98 111.118C602.98 111.118 623.474 67.9644 578.17 42.0723C532.866 16.1802 504.82 36.6781 504.82 36.6781C504.82 36.6781 451.965 15.1013 426.077 50.703C399.11 86.3046 420.684 138.089 420.684 138.089C420.684 138.089 458.437 137.01 482.168 145.641Z" fill="#113355"/>
<path d="M592.64 120.99C594.872 119.018 595.403 115.971 593.826 114.185C592.248 112.398 589.16 112.549 586.927 114.521C584.695 116.494 584.164 119.54 585.741 121.327C587.319 123.113 590.407 122.962 592.64 120.99Z" fill="#113355"/>
<path d="M575.38 109.254C577.612 107.282 578.143 104.235 576.566 102.448C574.988 100.662 571.9 100.813 569.667 102.785C567.435 104.757 566.904 107.804 568.481 109.59C570.059 111.377 573.147 111.226 575.38 109.254Z" fill="#113355"/>
<path d="M494.031 370.04V726.056C494.031 726.056 498.346 758.421 542.572 758.421C550.122 758.421 556.594 757.342 564.145 755.185" stroke="white" stroke-width="3" stroke-linejoin="bevel"/>
<path d="M330.074 182.322H151.014L149.935 453.11C149.935 453.11 149.935 495.185 139.148 496.263C127.283 497.342 122.968 462.819 122.968 462.819C122.968 462.819 125.126 538.338 111.103 541.575C98.1587 543.732 99.2373 470.371 99.2373 470.371C99.2373 470.371 99.2373 550.205 88.4506 552.363C74.4278 554.521 74.4278 464.977 74.4278 464.977C74.4278 464.977 75.5065 531.865 62.5624 535.102C51.7756 537.259 49.6183 472.529 49.6183 472.529L47.4609 155.351C47.4609 110.039 84.1359 73.3589 129.44 73.3589H369.985" stroke="#113355" stroke-width="3" stroke-linejoin="bevel"/>
<path d="M0 1023.82H1563" stroke="#113355" stroke-width="3" stroke-miterlimit="10"/>
<path d="M1315.98 141.329C1308.43 141.329 1301.96 140.25 1294.41 139.171C1241.55 127.304 1208.11 75.5198 1218.9 22.6567L1413.06 65.8103C1402.28 110.043 1362.37 141.329 1315.98 141.329Z" fill="white"/>
<path d="M1219.98 24.8124L1410.91 66.8871C1397.96 119.75 1344.03 151.036 1292.25 138.09C1241.56 124.066 1210.28 75.5178 1219.98 24.8124ZM1217.83 20.4971C1204.88 75.5178 1239.4 129.46 1294.41 141.327C1349.42 153.194 1403.36 118.671 1415.22 64.7294L1217.83 20.4971Z" fill="#113355"/>
<path d="M976.202 196.349L1446.5 125.146C1463.76 122.988 1478.86 133.776 1481.02 151.038C1483.18 168.299 1472.39 183.403 1455.13 185.561L984.832 256.764C967.573 258.922 952.471 248.133 950.314 230.872C947.078 214.689 958.943 199.585 976.202 196.349Z" fill="#FF3366"/>
</svg>
