<svg width="1355" height="1104" viewBox="0 0 1355 1104" fill="none" xmlns="http://www.w3.org/2000/svg">
<g clip-path="url(#clip0)">
<path d="M409.376 903.946C409.376 1003.97 327.872 1085.48 227.845 1085.48C127.818 1085.48 47.2402 1003.97 47.2402 903.946C47.2402 903.019 47.2402 901.167 47.2402 900.241C49.0926 800.214 132.449 720.563 232.476 723.342C330.651 725.194 409.376 805.771 409.376 903.946Z" fill="#2288EE"/>
<path d="M210.244 691.852C210.244 691.852 225.989 791.879 351.95 800.215" stroke="white" stroke-width="2" stroke-miterlimit="10"/>
<path d="M264.584 884.597C281.987 877.159 292.02 861.597 286.995 849.839C281.969 838.08 263.787 834.578 246.385 842.016C228.983 849.454 218.949 865.015 223.975 876.774C229 888.532 247.182 892.035 264.584 884.597Z" fill="white"/>
<path d="M247.159 1026.06C247.584 1018.4 240.889 1011.8 232.206 1011.32C223.523 1010.83 216.141 1016.66 215.716 1024.32C215.292 1031.98 221.987 1038.58 230.67 1039.06C239.352 1039.54 246.735 1033.72 247.159 1026.06Z" fill="white"/>
<path d="M66.6865 987.302C116.7 995.637 172.271 997.49 184.311 970.63C206.54 919.691 100.029 810.402 110.217 797.436C119.479 784.469 156.526 795.584 164.862 780.765C169.492 771.503 164.862 754.832 157.452 738.161" stroke="white" stroke-width="2" stroke-miterlimit="10"/>
<path d="M495.504 900.241C495.504 900.241 335.275 885.422 328.791 910.429C324.16 928.026 370.469 963.221 370.469 963.221C370.469 963.221 276.925 936.362 261.18 964.147C251.918 981.744 314.899 1019.72 351.02 1040.09" stroke="white" stroke-width="2" stroke-linejoin="round"/>
<path d="M86.1398 902.094C82.435 908.577 67.6162 907.651 47.2402 901.168C47.2402 888.201 49.0926 874.309 52.7973 861.342C75.9518 877.087 90.7706 893.758 86.1398 902.094Z" fill="white"/>
<path d="M411.227 433.45C411.227 433.45 421.415 427.893 441.79 444.564C458.462 458.457 466.797 476.981 466.797 476.981" stroke="#113355" stroke-width="3" stroke-miterlimit="10"/>
<path d="M1234.6 1043.8L1260.53 1085.48H1207.74L1234.6 1043.8Z" fill="#FFCC00"/>
<path d="M1071.59 71.3149L1217 215.798L1009.54 267.664L1071.59 71.3149Z" fill="#113355"/>
<path d="M156.529 273.221C156.529 273.221 199.133 290.819 208.395 321.383C217.657 351.946 186.167 384.362 186.167 384.362L84.2871 363.06L156.529 273.221Z" fill="#020203"/>
<path d="M47.2328 526.992C21.2998 470.496 46.3066 403.811 102.804 377.878C159.3 351.945 225.985 376.952 251.918 433.449C251.918 433.449 251.918 434.375 252.845 434.375L47.2328 526.992Z" fill="#FF3366"/>
<path d="M1070.67 440.859C1002.13 500.134 899.323 491.799 840.048 424.188C780.772 355.651 789.108 252.846 856.719 193.571L857.645 192.645L1070.67 440.859Z" fill="#FF3366"/>
<path d="M110.218 397.33L89.8418 320.457C89.8418 320.457 62.0564 313.048 62.9826 294.524C63.9088 276.001 83.3586 279.706 83.3586 279.706C83.3586 279.706 86.1371 253.773 112.07 245.437C138.003 237.101 159.305 264.887 162.084 286.189C165.788 317.679 156.527 335.276 124.11 335.276L138.003 376.954" fill="#FFCC00"/>
<path d="M143.558 289.893L150.967 302.859" stroke="#113355" stroke-width="3" stroke-miterlimit="10"/>
<path d="M103.734 376.953C129.667 362.134 92.6195 274.148 92.6195 274.148C124.11 284.336 154.674 269.517 154.674 269.517C154.674 269.517 136.15 226.913 89.841 243.584C43.532 260.255 39.8273 292.671 39.8273 292.671C39.8273 292.671 -8.33398 316.752 0.00163543 358.43C8.33725 400.108 59.2771 416.779 59.2771 416.779C59.2771 416.779 83.3577 388.067 103.734 376.953Z" fill="#020203"/>
<path d="M150.04 294.524C152.086 294.524 153.744 292.036 153.744 288.967C153.744 285.898 152.086 283.41 150.04 283.41C147.994 283.41 146.335 285.898 146.335 288.967C146.335 292.036 147.994 294.524 150.04 294.524Z" fill="#113355"/>
<path d="M134.32 295.452C136.366 295.444 138.014 292.949 138.002 289.88C137.99 286.811 136.321 284.33 134.275 284.338C132.229 284.346 130.58 286.841 130.593 289.91C130.605 292.979 132.274 295.46 134.32 295.452Z" fill="#113355"/>
<path d="M597.388 914.133L425.119 1014.16L293.601 735.382C273.225 727.046 250.997 723.341 228.769 723.341C217.654 725.194 205.614 725.194 193.574 725.194C153.748 723.341 87.0632 705.744 93.5464 625.167C100.03 544.59 319.534 396.402 360.286 398.254C401.038 400.107 652.032 656.657 652.032 656.657C652.032 656.657 707.603 624.241 730.758 627.019L580.717 797.435L491.803 715.932C515.884 803.919 530.703 915.06 530.703 915.06C530.703 915.06 574.233 909.502 597.388 914.133Z" fill="#113355"/>
<path d="M852.083 1085.48C881.24 1085.48 904.875 1061.84 904.875 1032.68C904.875 1003.53 881.24 979.893 852.083 979.893C822.927 979.893 799.291 1003.53 799.291 1032.68C799.291 1061.84 822.927 1085.48 852.083 1085.48Z" fill="#FF3366"/>
<path d="M931.741 958.59C1000.28 914.133 1092.9 932.657 1138.28 1001.19L1013.25 1083.62L931.741 958.59Z" fill="white"/>
<path d="M1013.24 936.362C1062.33 936.362 1108.64 960.442 1136.42 1001.19L1014.17 1081.77L933.591 959.516C957.672 943.771 985.458 936.362 1013.24 936.362ZM1013.24 932.657C983.605 932.657 953.967 940.993 929.887 957.664L1014.17 1084.55L1141.06 1000.27C1112.34 958.59 1064.18 932.657 1013.24 932.657Z" fill="#113355"/>
<path d="M1111.41 1085.48C1127.78 1085.48 1141.05 1072.21 1141.05 1055.84C1141.05 1039.47 1127.78 1026.2 1111.41 1026.2C1095.04 1026.2 1081.78 1039.47 1081.78 1055.84C1081.78 1072.21 1095.04 1085.48 1111.41 1085.48Z" fill="#113355"/>
<path d="M727.975 1086.4C739.74 1086.4 749.277 1076.86 749.277 1065.1C749.277 1053.34 739.74 1043.8 727.975 1043.8C716.21 1043.8 706.673 1053.34 706.673 1065.1C706.673 1076.86 716.21 1086.4 727.975 1086.4Z" fill="#2288EE"/>
<path d="M974.342 634.43C969.711 634.43 965.08 630.725 965.08 625.168C965.08 620.537 968.785 615.906 974.342 615.906C978.973 615.906 983.604 619.611 983.604 625.168C983.604 629.799 978.973 634.43 974.342 634.43Z" fill="white"/>
<path d="M974.341 616.833C978.972 616.833 981.75 620.537 981.75 624.242C981.75 628.873 978.045 631.651 974.341 631.651C969.71 631.651 966.931 627.947 966.931 624.242C966.931 620.537 969.71 616.833 974.341 616.833ZM974.341 614.054C968.784 614.054 963.227 618.685 963.227 625.168C963.227 630.725 967.857 636.282 974.341 636.282C979.898 636.282 985.455 631.652 985.455 625.168C984.529 618.685 979.898 614.054 974.341 614.054Z" fill="#113355"/>
<path d="M974.346 583.49C1002.99 583.49 1026.21 560.269 1026.21 531.625C1026.21 502.98 1002.99 479.759 974.346 479.759C945.701 479.759 922.479 502.98 922.479 531.625C922.479 560.269 945.701 583.49 974.346 583.49Z" fill="#2288EE"/>
<path d="M1082.7 433.45C1102.65 433.45 1118.82 417.278 1118.82 397.329C1118.82 377.38 1102.65 361.208 1082.7 361.208C1062.75 361.208 1046.58 377.38 1046.58 397.329C1046.58 417.278 1062.75 433.45 1082.7 433.45Z" fill="white"/>
<path d="M1082.71 363.06C1101.23 363.06 1116.97 378.804 1116.97 397.328C1116.97 415.851 1101.23 431.596 1082.71 431.596C1064.18 431.596 1048.44 415.851 1048.44 397.328C1048.44 377.878 1064.18 363.06 1082.71 363.06ZM1082.71 360.281C1062.33 360.281 1045.66 376.952 1045.66 397.328C1045.66 417.704 1062.33 434.375 1082.71 434.375C1103.08 434.375 1119.75 417.704 1119.75 397.328C1119.75 376.952 1103.08 360.281 1082.71 360.281Z" fill="#113355"/>
<path d="M1146.61 331.57C1173.21 331.57 1194.78 310.007 1194.78 283.409C1194.78 256.81 1173.21 235.248 1146.61 235.248C1120.02 235.248 1098.45 256.81 1098.45 283.409C1098.45 310.007 1120.02 331.57 1146.61 331.57Z" fill="#FFCC00"/>
<path d="M1079 299.155C1089.74 299.155 1098.45 290.447 1098.45 279.706C1098.45 268.964 1089.74 260.256 1079 260.256C1068.26 260.256 1059.55 268.964 1059.55 279.706C1059.55 290.447 1068.26 299.155 1079 299.155Z" fill="#FF3366"/>
<path d="M784.472 149.115C799.306 149.115 811.332 137.089 811.332 122.256C811.332 107.422 799.306 95.3965 784.472 95.3965C769.638 95.3965 757.613 107.422 757.613 122.256C757.613 137.089 769.638 149.115 784.472 149.115Z" fill="#FFCC00"/>
<path d="M796.535 185.25L722.411 201.791L738.952 275.915L813.076 259.374L796.535 185.25Z" fill="#2288EE"/>
<path d="M1162.36 347.316L781.699 150.967" stroke="#113355" stroke-width="4" stroke-miterlimit="10"/>
<path d="M0 1085.48H1352.22" stroke="#113355" stroke-width="3" stroke-miterlimit="10"/>
<path d="M68.5422 501.987L145.415 539.96C145.415 539.96 240.812 446.416 314.906 414C314.906 414 340.839 401.96 355.658 401.034C370.477 400.108 343.617 389.92 313.98 396.403C233.402 413.074 150.972 455.678 150.972 455.678C150.972 455.678 100.032 421.41 65.7637 424.188" stroke="#113355" stroke-width="3" stroke-miterlimit="10"/>
<path d="M307.493 427.892C307.493 427.892 327.869 434.375 338.983 433.449C351.95 432.523 318.607 417.704 318.607 417.704C318.607 417.704 347.319 426.04 363.99 426.966C379.735 426.966 338.057 408.442 338.057 408.442C338.057 408.442 366.769 412.147 376.03 413.073C389.923 414 363.064 400.107 363.064 400.107" stroke="white" stroke-width="3" stroke-linejoin="bevel"/>
<path d="M415.854 433.45C415.854 433.45 410.297 442.712 414.002 449.195C417.707 455.678 424.19 439.933 429.747 442.712C435.304 445.49 424.19 474.202 426.042 484.39C427.895 494.577 444.566 454.752 444.566 454.752C444.566 454.752 435.304 496.43 439.009 500.135C442.714 503.839 456.606 465.866 456.606 465.866C456.606 465.866 452.902 491.799 455.68 494.577C459.385 497.356 466.794 476.98 466.794 476.98" stroke="white" stroke-width="3" stroke-linejoin="bevel"/>
<path d="M345.467 600.161C345.467 600.161 290.822 690.926 238.03 715.933C210.245 728.9 159.305 723.343 159.305 723.343" stroke="white" stroke-width="3" stroke-miterlimit="10"/>
<path d="M345.463 600.161L365.839 598.309C420.483 592.752 470.497 627.946 484.39 680.738L494.578 719.638" stroke="white" stroke-width="3" stroke-miterlimit="10"/>
<path d="M1024.35 552L1327.21 999.342C1352.22 1036.39 1325.36 1085.48 1281.83 1085.48H666.849C622.392 1085.48 596.459 1036.39 621.466 999.342L924.327 552L621.466 104.658C596.459 67.6107 623.319 18.5234 666.849 18.5234H1280.91C1325.36 18.5234 1351.3 67.6107 1326.29 104.658L1024.35 552Z" stroke="#113355" stroke-width="4" stroke-miterlimit="10"/>
<path d="M974.339 665.919C993.789 665.919 1010.46 681.664 1010.46 702.04V771.503C1010.46 790.952 994.715 807.623 974.339 807.623C954.889 807.623 938.218 791.878 938.218 771.503V702.04C938.218 682.59 953.963 665.919 974.339 665.919Z" fill="#113355"/>
</g>
<defs>
<clipPath id="clip0">
<rect width="1355" height="1104" fill="white"/>
</clipPath>
</defs>
</svg>
