<svg width="1516" height="1048" viewBox="0 0 1516 1048" fill="none" xmlns="http://www.w3.org/2000/svg">
<g clip-path="url(#clip0)">
<path d="M919.308 175.268C919.308 124.036 877.072 83.5903 826.749 83.5903C775.526 84.4891 734.189 125.834 735.088 177.065V177.964L919.308 175.268Z" fill="#FF3366"/>
<path d="M784.511 34.1562C784.511 34.1562 756.654 54.8286 754.856 78.1974C753.059 101.566 781.815 120.441 781.815 120.441L852.808 87.1854L784.511 34.1562Z" fill="#113355"/>
<path d="M840.222 116.844L842.02 56.6245C842.02 56.6245 860.891 46.7377 857.297 33.2557C853.702 19.7738 839.324 26.0654 839.324 26.0654C839.324 26.0654 832.135 7.19057 812.365 6.29177C791.696 5.39297 780.912 28.7618 782.71 44.9401C785.406 68.3089 795.291 79.9933 819.554 74.6005L816.858 107.856" fill="#FFCC00"/>
<path d="M798.888 55.7271L795.293 66.5126" stroke="#113355" stroke-width="3" stroke-miterlimit="10"/>
<path d="M840.224 100.667C818.656 94.3754 830.339 23.3703 830.339 23.3703C808.771 35.9534 784.508 30.5606 784.508 30.5606C784.508 30.5606 790.799 -3.59372 827.643 0.0014739C864.487 3.59667 872.575 26.9655 872.575 26.9655C872.575 26.9655 912.115 35.9534 913.013 68.3102C913.912 100.667 879.764 121.339 879.764 121.339C879.764 121.339 858.196 106.06 840.224 100.667Z" fill="#113355"/>
<path d="M792.787 57.527C794.237 57.1878 794.954 54.9537 794.388 52.537C793.823 50.1203 792.189 48.4362 790.74 48.7754C789.29 49.1147 788.573 51.3488 789.138 53.7655C789.704 56.1821 791.337 57.8663 792.787 57.527Z" fill="#113355"/>
<path d="M806.257 56.61C807.707 56.2708 808.424 54.0367 807.859 51.62C807.294 49.2033 805.66 47.5192 804.21 47.8584C802.761 48.1977 802.044 50.4318 802.609 52.8485C803.174 55.2652 804.808 56.9493 806.257 56.61Z" fill="#113355"/>
<path d="M827.645 236.385C748.565 231.891 587.709 328.062 593.1 381.091C598.492 434.12 648.816 567.143 648.816 567.143C648.816 567.143 616.465 582.422 614.668 604.892L747.666 576.131L712.619 405.359L829.442 364.014L904.029 454.793L900.434 628.261L1031.64 646.237C1023.55 632.755 1012.76 621.969 999.284 613.88C999.284 613.88 1030.74 478.161 1014.56 418.841C998.386 361.318 927.393 240.879 827.645 236.385Z" fill="#113355"/>
<path d="M930.092 1003.96C1032.33 1003.96 1115.21 921.063 1115.21 818.806C1115.21 716.549 1032.33 633.653 930.092 633.653C827.853 633.653 744.973 716.549 744.973 818.806C744.973 921.063 827.853 1003.96 930.092 1003.96Z" fill="#FF3366"/>
<path d="M713.517 746.005C757.688 746.005 793.496 710.191 793.496 666.012C793.496 621.833 757.688 586.019 713.517 586.019C669.346 586.019 633.539 621.833 633.539 666.012C633.539 710.191 669.346 746.005 713.517 746.005Z" fill="#11BB99"/>
<path d="M501.439 413.451C487.96 413.451 476.277 402.665 476.277 388.285C476.277 374.803 487.061 363.118 501.439 363.118C514.919 363.118 526.601 373.904 526.601 388.285C525.702 401.767 514.919 413.451 501.439 413.451Z" fill="white"/>
<path d="M501.442 364.015C514.922 364.015 524.807 374.801 524.807 387.384C524.807 400.866 514.023 410.753 501.442 410.753C487.963 410.753 478.078 399.967 478.078 387.384C477.179 374.801 487.963 364.015 501.442 364.015ZM501.442 361.319C487.064 361.319 475.382 373.003 475.382 387.384C475.382 401.765 487.064 413.449 501.442 413.449C515.82 413.449 527.503 401.765 527.503 387.384C527.503 373.902 515.82 361.319 501.442 361.319Z" fill="#113355"/>
<path d="M280.375 390.078C316.109 390.078 345.077 361.105 345.077 325.365C345.077 289.625 316.109 260.651 280.375 260.651C244.641 260.651 215.673 289.625 215.673 325.365C215.673 361.105 244.641 390.078 280.375 390.078Z" fill="white"/>
<path d="M280.378 262.453C315.425 262.453 343.282 290.316 343.282 325.369C343.282 360.422 315.425 388.285 280.378 388.285C245.331 388.285 217.473 360.422 217.473 325.369C217.473 290.316 246.23 262.453 280.378 262.453ZM280.378 259.756C244.432 259.756 214.777 289.417 214.777 325.369C214.777 361.321 244.432 390.981 280.378 390.981C316.323 390.981 345.978 361.321 345.978 325.369C345.978 289.417 317.222 259.756 280.378 259.756Z" fill="#113355"/>
<path d="M1101.73 519.509C1147.39 519.509 1184.41 482.488 1184.41 436.819C1184.41 391.151 1147.39 354.13 1101.73 354.13C1056.07 354.13 1019.06 391.151 1019.06 436.819C1019.06 482.488 1056.07 519.509 1101.73 519.509Z" fill="white"/>
<path d="M1101.73 355.027C1146.66 355.027 1183.51 391.878 1183.51 436.818C1183.51 481.758 1146.66 518.608 1101.73 518.608C1056.8 518.608 1019.95 481.758 1019.95 436.818C1020.85 391.878 1056.8 355.027 1101.73 355.027ZM1101.73 352.331C1055 352.331 1017.26 390.08 1017.26 436.818C1017.26 483.555 1055 521.305 1101.73 521.305C1148.46 521.305 1186.2 483.555 1186.2 436.818C1186.2 390.08 1148.46 352.331 1101.73 352.331Z" fill="#113355"/>
<path d="M641.628 990.479C702.177 990.479 751.262 941.386 751.262 880.826C751.262 820.266 702.177 771.172 641.628 771.172C581.079 771.172 531.995 820.266 531.995 880.826C531.995 941.386 581.079 990.479 641.628 990.479Z" fill="#2288EE"/>
<path d="M1259.89 438.614C1317.46 438.614 1364.13 391.935 1364.13 334.354C1364.13 276.772 1317.46 230.093 1259.89 230.093C1202.31 230.093 1155.64 276.772 1155.64 334.354C1155.64 391.935 1202.31 438.614 1259.89 438.614Z" fill="#11BB99"/>
<path d="M393.601 523.103C443.232 523.103 483.465 482.863 483.465 433.223C483.465 383.584 443.232 343.343 393.601 343.343C343.971 343.343 303.738 383.584 303.738 433.223C303.738 482.863 343.971 523.103 393.601 523.103Z" fill="#2288EE"/>
<path d="M1183.5 763.081C1254.97 763.081 1312.91 705.135 1312.91 633.654C1312.91 562.174 1254.97 504.227 1183.5 504.227C1112.04 504.227 1054.1 562.174 1054.1 633.654C1054.1 705.135 1112.04 763.081 1183.5 763.081Z" fill="#FFCC00"/>
<path d="M611.968 772.967C589.502 772.967 571.529 754.991 571.529 732.521C571.529 710.051 589.502 692.075 611.968 692.075C634.434 692.075 652.407 710.051 652.407 732.521C652.407 754.991 634.434 772.967 611.968 772.967Z" fill="white"/>
<path d="M611.972 693.877C633.539 693.877 650.613 710.954 650.613 732.525C650.613 754.096 633.539 771.173 611.972 771.173C590.404 771.173 573.33 754.096 573.33 732.525C573.33 711.853 590.404 693.877 611.972 693.877ZM611.972 691.18C589.506 691.18 570.634 710.055 570.634 732.525C570.634 754.995 589.506 773.87 611.972 773.87C634.437 773.87 653.309 754.995 653.309 732.525C653.309 710.055 634.437 691.18 611.972 691.18Z" fill="#113355"/>
<path d="M1221.25 796.337C1231.18 796.337 1239.22 788.289 1239.22 778.361C1239.22 768.433 1231.18 760.385 1221.25 760.385C1211.32 760.385 1203.28 768.433 1203.28 778.361C1203.28 788.289 1211.32 796.337 1221.25 796.337Z" fill="white"/>
<path d="M1221.25 761.286C1230.23 761.286 1238.32 769.375 1238.32 778.363C1238.32 787.351 1230.23 795.44 1221.25 795.44C1212.26 795.44 1204.17 788.25 1204.17 778.363C1204.17 768.476 1211.36 761.286 1221.25 761.286ZM1221.25 758.59C1210.46 758.59 1201.48 767.578 1201.48 778.363C1201.48 789.149 1210.46 798.137 1221.25 798.137C1232.03 798.137 1241.02 789.149 1241.02 778.363C1241.02 767.578 1232.03 758.59 1221.25 758.59Z" fill="#113355"/>
<path d="M307.335 625.565C317.261 625.565 325.308 617.517 325.308 607.589C325.308 597.661 317.261 589.613 307.335 589.613C297.409 589.613 289.362 597.661 289.362 607.589C289.362 617.517 297.409 625.565 307.335 625.565Z" fill="white"/>
<path d="M307.333 590.514C316.32 590.514 324.408 597.705 324.408 607.591C324.408 617.478 317.219 624.669 307.333 624.669C298.347 624.669 290.259 617.478 290.259 607.591C290.259 597.705 297.448 590.514 307.333 590.514ZM307.333 587.818C296.55 587.818 287.563 596.806 287.563 607.591C287.563 618.377 296.55 627.365 307.333 627.365C318.117 627.365 327.104 618.377 327.104 607.591C327.104 596.806 318.117 587.818 307.333 587.818Z" fill="#113355"/>
<path d="M1383 309.189C1366.82 309.189 1353.34 295.707 1353.34 279.529C1353.34 263.35 1366.82 249.868 1383 249.868C1399.17 249.868 1412.65 263.35 1412.65 279.529C1412.65 296.606 1399.17 309.189 1383 309.189Z" fill="white"/>
<path d="M1383 251.665C1398.28 251.665 1410.86 264.248 1410.86 279.528C1410.86 294.807 1398.28 307.391 1383 307.391C1367.73 307.391 1355.14 294.807 1355.14 279.528C1354.25 264.248 1366.83 251.665 1383 251.665ZM1383 248.969C1365.93 248.969 1352.45 262.451 1352.45 279.528C1352.45 296.605 1365.93 310.087 1383 310.087C1400.08 310.087 1413.56 296.605 1413.56 279.528C1413.56 262.451 1400.08 248.969 1383 248.969Z" fill="#113355"/>
<path d="M310.928 587.816C336.24 587.816 356.759 567.293 356.759 541.977C356.759 516.661 336.24 496.138 310.928 496.138C285.617 496.138 265.098 516.661 265.098 541.977C265.098 567.293 285.617 587.816 310.928 587.816Z" fill="#11BB99"/>
<path d="M545.471 535.686C582.197 535.686 611.97 505.908 611.97 469.175C611.97 432.442 582.197 402.664 545.471 402.664C508.744 402.664 478.972 432.442 478.972 469.175C478.972 505.908 508.744 535.686 545.471 535.686Z" fill="#11BB99"/>
<path d="M445.721 354.13C468.055 354.13 486.16 336.021 486.16 313.684C486.16 291.346 468.055 273.238 445.721 273.238C423.387 273.238 405.282 291.346 405.282 313.684C405.282 336.021 423.387 354.13 445.721 354.13Z" fill="#FFCC00"/>
<path d="M550.865 376.599C587.095 376.599 616.465 347.223 616.465 310.986C616.465 274.75 587.095 245.374 550.865 245.374C514.634 245.374 485.264 274.75 485.264 310.986C485.264 347.223 514.634 376.599 550.865 376.599Z" fill="#FF3366"/>
<path d="M456.505 784.654C530.951 784.654 591.301 724.293 591.301 649.834C591.301 575.375 530.951 515.014 456.505 515.014C382.06 515.014 321.71 575.375 321.71 649.834C321.71 724.293 382.06 784.654 456.505 784.654Z" fill="#FF3366"/>
<path d="M816.859 570.74C864.504 570.74 903.128 532.109 903.128 484.455C903.128 436.801 864.504 398.17 816.859 398.17C769.214 398.17 730.59 436.801 730.59 484.455C730.59 532.109 769.214 570.74 816.859 570.74Z" fill="#2288EE"/>
<path d="M826.744 657.024C803.38 657.024 784.508 638.149 784.508 614.781C784.508 591.412 803.38 572.537 826.744 572.537C850.109 572.537 868.98 591.412 868.98 614.781C868.98 638.149 850.109 657.024 826.744 657.024Z" fill="white"/>
<path d="M826.743 573.434C849.209 573.434 868.08 592.309 868.08 614.779C868.08 637.248 849.209 656.123 826.743 656.123C804.277 656.123 785.405 637.248 785.405 614.779C785.405 592.309 804.277 573.434 826.743 573.434ZM826.743 570.737C802.479 570.737 782.709 590.511 782.709 614.779C782.709 639.046 802.479 658.82 826.743 658.82C851.006 658.82 870.776 639.046 870.776 614.779C870.776 590.511 851.006 570.737 826.743 570.737Z" fill="#113355"/>
<path d="M488.857 883.521C516.65 883.521 539.181 860.986 539.181 833.188C539.181 805.39 516.65 782.855 488.857 782.855C461.064 782.855 438.533 805.39 438.533 833.188C438.533 860.986 461.064 883.521 488.857 883.521Z" fill="#FFCC00"/>
<path d="M1029.84 629.162C1045.22 629.162 1057.7 616.687 1057.7 601.299C1057.7 585.911 1045.22 573.436 1029.84 573.436C1014.45 573.436 1001.98 585.911 1001.98 601.299C1001.98 616.687 1014.45 629.162 1029.84 629.162Z" fill="#11BB99"/>
<path d="M1131.39 897.9C1144.79 897.9 1155.65 887.035 1155.65 873.633C1155.65 860.23 1144.79 849.365 1131.39 849.365C1117.99 849.365 1107.12 860.23 1107.12 873.633C1107.12 887.035 1117.99 897.9 1131.39 897.9Z" fill="#11BB99"/>
<path d="M723.399 798.134C737.792 798.134 749.46 786.464 749.46 772.068C749.46 757.673 737.792 746.003 723.399 746.003C709.007 746.003 697.339 757.673 697.339 772.068C697.339 786.464 709.007 798.134 723.399 798.134Z" fill="#FFCC00"/>
<path d="M1047.81 576.13C1066.67 576.13 1081.96 560.839 1081.96 541.976C1081.96 523.113 1066.67 507.821 1047.81 507.821C1028.95 507.821 1013.66 523.113 1013.66 541.976C1013.66 560.839 1028.95 576.13 1047.81 576.13Z" fill="#FF3366"/>
<path d="M681.168 777.463C691.59 777.463 700.039 769.013 700.039 758.589C700.039 748.164 691.59 739.714 681.168 739.714C670.745 739.714 662.296 748.164 662.296 758.589C662.296 769.013 670.745 777.463 681.168 777.463Z" fill="#FF3366"/>
<path d="M266.892 513.218C277.314 513.218 285.763 504.767 285.763 494.343C285.763 483.919 277.314 475.468 266.892 475.468C256.47 475.468 248.021 483.919 248.021 494.343C248.021 504.767 256.47 513.218 266.892 513.218Z" fill="#FF3366"/>
<path d="M16.1755 590.512C25.1089 590.512 32.3509 583.268 32.3509 574.333C32.3509 565.398 25.1089 558.155 16.1755 558.155C7.242 558.155 0 565.398 0 574.333C0 583.268 7.242 590.512 16.1755 590.512Z" fill="#2288EE"/>
<path d="M1285.95 154.595C1300.84 154.595 1312.91 142.523 1312.91 127.631C1312.91 112.739 1300.84 100.667 1285.95 100.667C1271.06 100.667 1258.99 112.739 1258.99 127.631C1258.99 142.523 1271.06 154.595 1285.95 154.595Z" fill="#11BB99"/>
<path d="M162.65 946.438C177.539 946.438 189.609 934.366 189.609 919.474C189.609 904.582 177.539 892.51 162.65 892.51C147.761 892.51 135.691 904.582 135.691 919.474C135.691 934.366 147.761 946.438 162.65 946.438Z" fill="#FF3366"/>
<path d="M1497.13 620.173C1507.55 620.173 1516 611.723 1516 601.299C1516 590.874 1507.55 582.424 1497.13 582.424C1486.71 582.424 1478.26 590.874 1478.26 601.299C1478.26 611.723 1486.71 620.173 1497.13 620.173Z" fill="#FF3366"/>
<path d="M437.633 128.529C457.981 128.529 474.477 112.03 474.477 91.6779C474.477 71.3258 457.981 54.8271 437.633 54.8271C417.284 54.8271 400.789 71.3258 400.789 91.6779C400.789 112.03 417.284 128.529 437.633 128.529Z" fill="#FF3366"/>
<path d="M279.474 477.262C293.371 477.262 304.636 465.995 304.636 452.096C304.636 438.197 293.371 426.93 279.474 426.93C265.578 426.93 254.312 438.197 254.312 452.096C254.312 465.995 265.578 477.262 279.474 477.262Z" fill="#FFCC00"/>
<path d="M576.023 408.954C585.949 408.954 593.996 400.906 593.996 390.978C593.996 381.05 585.949 373.002 576.023 373.002C566.097 373.002 558.05 381.05 558.05 390.978C558.05 400.906 566.097 408.954 576.023 408.954Z" fill="#2288EE"/>
<path d="M364.846 346.94C375.268 346.94 383.717 338.489 383.717 328.065C383.717 317.64 375.268 309.19 364.846 309.19C354.424 309.19 345.975 317.64 345.975 328.065C345.975 338.489 354.424 346.94 364.846 346.94Z" fill="#11BB99"/>
<path d="M611.973 691.177C623.884 691.177 633.54 681.52 633.54 669.606C633.54 657.693 623.884 648.035 611.973 648.035C600.062 648.035 590.406 657.693 590.406 669.606C590.406 681.52 600.062 691.177 611.973 691.177Z" fill="#FF3366"/>
<path d="M601.186 594.109C621.534 594.109 638.03 577.61 638.03 557.258C638.03 536.906 621.534 520.407 601.186 520.407C580.837 520.407 564.342 536.906 564.342 557.258C564.342 577.61 580.837 594.109 601.186 594.109Z" fill="#FFCC00"/>
<path d="M1161.94 856.557C1188.24 856.557 1209.57 835.23 1209.57 808.921C1209.57 782.612 1188.24 761.284 1161.94 761.284C1135.63 761.284 1114.31 782.612 1114.31 808.921C1114.31 835.23 1135.63 856.557 1161.94 856.557Z" fill="#2288EE"/>
<path d="M1417.15 934.754C1458.35 934.754 1491.74 901.354 1491.74 860.154C1491.74 818.953 1458.35 785.553 1417.15 785.553C1375.96 785.553 1342.57 818.953 1342.57 860.154C1342.57 901.354 1375.96 934.754 1417.15 934.754Z" fill="#2288EE"/>
<path d="M1312.91 553.662C1347.15 553.662 1374.92 525.896 1374.92 491.645C1374.92 457.394 1347.15 429.628 1312.91 429.628C1278.66 429.628 1250.9 457.394 1250.9 491.645C1250.9 525.896 1278.66 553.662 1312.91 553.662Z" fill="#FF3366"/>
<path d="M256.112 893.409C285.89 893.409 310.03 869.265 310.03 839.481C310.03 809.698 285.89 785.553 256.112 785.553C226.333 785.553 202.193 809.698 202.193 839.481C202.193 869.265 226.333 893.409 256.112 893.409Z" fill="#FFCC00"/>
<path d="M1028.04 373.901C1057.82 373.901 1081.96 349.757 1081.96 319.973C1081.96 290.19 1057.82 266.045 1028.04 266.045C998.265 266.045 974.125 290.19 974.125 319.973C974.125 349.757 998.265 373.901 1028.04 373.901Z" fill="#FFCC00"/>
<path d="M1216.76 507.821C1236.61 507.821 1252.7 491.725 1252.7 471.869C1252.7 452.014 1236.61 435.917 1216.76 435.917C1196.9 435.917 1180.81 452.014 1180.81 471.869C1180.81 491.725 1196.9 507.821 1216.76 507.821Z" fill="#2288EE"/>
<path d="M1119.7 348.737C1140.55 348.737 1157.45 331.836 1157.45 310.987C1157.45 290.139 1140.55 273.238 1119.7 273.238C1098.86 273.238 1081.96 290.139 1081.96 310.987C1081.96 331.836 1098.86 348.737 1119.7 348.737Z" fill="#2288EE"/>
<path d="M962.441 310.087C971.871 310.087 979.516 302.441 979.516 293.01C979.516 283.578 971.871 275.933 962.441 275.933C953.012 275.933 945.367 283.578 945.367 293.01C945.367 302.441 953.012 310.087 962.441 310.087Z" fill="#FF3366"/>
<path d="M734.184 440.413C743.614 440.413 751.259 432.767 751.259 423.336C751.259 413.904 743.614 406.259 734.184 406.259C724.755 406.259 717.11 413.904 717.11 423.336C717.11 432.767 724.755 440.413 734.184 440.413Z" fill="#FF3366"/>
<path d="M762.94 1030.02C789.244 1030.02 810.567 1008.7 810.567 982.388C810.567 956.079 789.244 934.751 762.94 934.751C736.636 934.751 715.312 956.079 715.312 982.388C715.312 1008.7 736.636 1030.02 762.94 1030.02Z" fill="white"/>
<path d="M762.942 936.552C788.104 936.552 808.773 957.224 808.773 982.391C808.773 1007.56 788.104 1028.23 762.942 1028.23C737.781 1028.23 717.112 1007.56 717.112 982.391C716.213 957.224 736.882 936.552 762.942 936.552ZM762.942 933.855C735.983 933.855 714.416 955.427 714.416 982.391C714.416 1009.35 735.983 1030.93 762.942 1030.93C789.902 1030.93 811.469 1009.35 811.469 982.391C811.469 955.427 789.902 933.855 762.942 933.855Z" fill="#113355"/>
<path d="M1417.15 191.446C1417.15 657.024 1145.76 1034.52 811.469 1034.52C477.176 1034.52 206.687 657.024 206.687 191.446H1417.15Z" stroke="#113355" stroke-width="3" stroke-miterlimit="10"/>
<path d="M744.071 115.049C710.822 115.049 697.342 175.268 697.342 175.268C697.342 175.268 661.397 161.786 622.755 171.673C594.897 178.864 602.985 229.196 608.377 229.196C614.667 229.196 614.667 198.637 614.667 198.637C614.667 198.637 615.566 237.286 623.654 236.387C629.944 236.387 629.046 196.84 629.046 196.84C629.046 196.84 631.742 229.196 638.032 229.196C643.424 229.196 642.525 197.738 642.525 197.738" stroke="#113355" stroke-width="3" stroke-miterlimit="10"/>
<path d="M758.45 145.606L741.375 191.445" stroke="#113355" stroke-width="3" stroke-miterlimit="10"/>
<path d="M890.546 145.606L908.519 191.445" stroke="#113355" stroke-width="3" stroke-miterlimit="10"/>
<path d="M913.915 112.353C944.468 111.454 961.542 191.447 961.542 191.447" stroke="#113355" stroke-width="3" stroke-miterlimit="10"/>
<path d="M1035.23 184.257C1037.03 191.447 1037.03 222.905 1028.94 224.703C1023.55 225.602 1021.75 197.739 1021.75 197.739C1021.75 197.739 1022.65 232.792 1015.46 234.59C1008.27 235.488 1005.58 197.739 1005.58 197.739C1005.58 197.739 1001.08 224.703 994.794 225.602C988.504 226.5 985.808 197.739 990.301 188.751C992.997 182.459 1001.08 176.168 1011.87 174.37C1025.35 171.674 1033.44 177.965 1035.23 184.257Z" stroke="#113355" stroke-width="3" stroke-linejoin="bevel"/>
</g>
<defs>
<clipPath id="clip0">
<rect width="1516" height="1048" fill="white"/>
</clipPath>
</defs>
</svg>
