<svg width="1499" height="978" viewBox="0 0 1499 978" fill="none" xmlns="http://www.w3.org/2000/svg">
<g clip-path="url(#clip0)">
<path d="M1340.01 38.2592C1335.23 38.2592 1330.45 34.6724 1330.45 28.6944C1330.45 26.3032 1331.65 23.912 1332.84 21.5208C1334.04 20.3252 1336.43 19.1296 1338.82 19.1296C1343.6 19.1296 1348.38 22.7164 1348.38 28.6944C1349.58 33.4768 1345.99 38.2592 1340.01 38.2592Z" fill="white"/>
<path d="M1340.01 20.3252C1344.79 20.3252 1348.38 23.912 1348.38 28.6944C1348.38 33.4768 1344.79 37.0636 1340.01 37.0636C1335.23 37.0636 1331.64 33.4768 1331.64 28.6944C1332.84 23.912 1336.43 20.3252 1340.01 20.3252ZM1340.01 17.934C1334.03 17.934 1329.25 22.7164 1329.25 28.6944C1329.25 34.6724 1334.03 39.4548 1340.01 39.4548C1345.99 39.4548 1350.77 34.6724 1350.77 28.6944C1350.77 22.7164 1345.99 17.934 1340.01 17.934Z" fill="#113355"/>
<path d="M1488.24 937.35C1483.46 937.35 1478.68 933.763 1478.68 927.785C1478.68 923.002 1482.27 918.22 1488.24 918.22C1493.03 918.22 1497.81 921.807 1497.81 927.785C1497.81 930.176 1496.61 932.567 1495.42 934.958C1493.03 936.154 1490.63 936.154 1488.24 937.35Z" fill="white"/>
<path d="M1488.24 919.416C1493.02 919.416 1496.61 923.002 1496.61 927.785C1496.61 932.567 1493.02 936.154 1488.24 936.154C1483.46 936.154 1479.88 932.567 1479.88 927.785C1479.88 925.394 1481.07 924.198 1482.27 921.807C1483.46 920.611 1485.85 919.416 1488.24 919.416ZM1488.24 917.024C1482.27 917.024 1477.48 921.807 1477.48 927.785C1477.48 933.763 1482.27 938.545 1488.24 938.545C1494.22 938.545 1499 933.763 1499 927.785C1499 921.807 1494.22 917.024 1488.24 917.024Z" fill="#113355"/>
<path d="M940.759 949.306C935.977 949.306 931.196 945.719 931.196 939.741C931.196 934.958 934.782 930.176 940.759 930.176C945.54 930.176 950.322 933.763 950.322 939.741C950.322 942.132 949.127 944.523 947.931 946.914C945.54 948.11 943.15 949.306 940.759 949.306Z" fill="white"/>
<path d="M940.758 931.372C945.539 931.372 949.125 934.958 949.125 939.741C949.125 942.132 947.93 943.328 946.735 945.719C945.539 946.914 943.149 948.11 940.758 948.11C935.976 948.11 932.39 944.523 932.39 939.741C932.39 934.958 935.976 931.372 940.758 931.372ZM940.758 928.98C934.781 928.98 930 933.763 930 939.741C930 945.719 934.781 950.501 940.758 950.501C946.735 950.501 951.516 945.719 951.516 939.741C951.516 933.763 946.735 928.98 940.758 928.98Z" fill="#113355"/>
<path d="M944.347 535.628C939.566 535.628 934.784 532.041 934.784 526.063C934.784 523.672 935.98 521.281 937.175 518.89C938.37 517.694 940.761 516.499 943.152 516.499C947.933 516.499 952.715 520.085 952.715 526.063C953.91 530.846 950.324 535.628 944.347 535.628Z" fill="white"/>
<path d="M944.347 518.89C949.129 518.89 952.715 522.477 952.715 527.259C952.715 529.65 951.519 530.846 950.324 533.237C949.129 535.628 946.738 535.628 944.347 535.628C939.566 535.628 935.98 532.041 935.98 527.259C937.175 522.477 940.761 518.89 944.347 518.89ZM944.347 516.499C938.37 516.499 933.589 521.281 933.589 527.259C933.589 533.237 938.37 538.02 944.347 538.02C950.324 538.02 955.105 533.237 955.105 527.259C955.105 520.085 950.324 516.499 944.347 516.499Z" fill="#113355"/>
<path d="M109.975 559.54C108.78 559.54 107.585 559.54 107.585 559.54C102.803 558.345 100.413 552.367 101.608 547.584C102.803 543.998 106.389 541.606 109.975 541.606C111.171 541.606 112.366 541.606 112.366 541.606C114.757 542.802 117.148 543.998 117.148 546.389C117.148 548.78 118.343 551.171 117.148 553.562C117.148 557.149 113.562 559.54 109.975 559.54Z" fill="white"/>
<path d="M109.975 541.606C111.17 541.606 111.17 541.606 112.366 541.606C117.147 542.802 118.343 547.584 117.147 552.367C115.952 555.954 113.561 558.345 109.975 558.345C108.78 558.345 108.78 558.345 107.584 558.345C105.194 557.149 103.998 555.954 102.803 554.758C101.607 552.367 101.607 551.171 102.803 548.78C102.803 543.998 106.389 541.606 109.975 541.606ZM109.975 539.215C105.194 539.215 101.607 541.606 100.412 546.389C98.0213 552.367 101.607 558.345 107.584 559.54C108.78 559.54 109.975 559.54 111.17 559.54C115.952 559.54 119.538 557.149 120.733 552.367C123.124 546.389 119.538 540.411 113.561 539.215C111.17 540.411 109.975 539.215 109.975 539.215Z" fill="#113355"/>
<path d="M532.189 834.913L519.457 843.826L528.368 856.56L541.1 847.648L532.189 834.913Z" fill="white"/>
<path d="M531.94 836.919L539.112 847.68L528.354 854.853L521.181 844.093L531.94 836.919ZM531.94 833.332L517.595 842.897L527.158 857.244L541.503 847.68L531.94 833.332Z" fill="#113355"/>
<path d="M1470.83 308.541L1458.1 317.454L1467.01 330.188L1479.74 321.276L1470.83 308.541Z" fill="white"/>
<path d="M1469.11 310.856L1476.29 321.616L1465.53 328.79L1458.36 318.029L1469.11 310.856ZM1470.31 307.269L1455.96 316.834L1465.53 331.181L1479.87 321.616L1470.31 307.269Z" fill="#113355"/>
<path d="M619.344 439.957L606.612 448.869L615.522 461.603L628.254 452.691L619.344 439.957Z" fill="white"/>
<path d="M618.01 442.372L625.182 453.132L614.424 460.306L607.251 449.545L618.01 442.372ZM619.205 438.785L604.861 448.35L614.424 462.697L628.768 453.132L619.205 438.785Z" fill="#113355"/>
<path d="M448.842 1.38598L436.89 11.3209L446.823 23.2749L458.775 13.3399L448.842 1.38598Z" fill="white"/>
<path d="M448.265 3.5868L456.632 13.1516L447.069 21.5208L438.702 11.956L448.265 3.5868ZM448.265 0L435.115 10.7604L445.874 23.912L459.023 13.1516L448.265 0Z" fill="#113355"/>
<path d="M738.74 670.731L754.279 698.23" stroke="#113355" stroke-width="3" stroke-miterlimit="10"/>
<path d="M35.8602 261.836L4.78046 270.205" stroke="#113355" stroke-width="3" stroke-miterlimit="10"/>
<path d="M66.942 943.328L43.0345 963.653" stroke="#113355" stroke-width="3" stroke-miterlimit="10"/>
<path d="M964.664 22.7164L986.181 46.6284" stroke="#113355" stroke-width="3" stroke-miterlimit="10"/>
<path d="M1408.15 535.628L1421.3 564.323" stroke="#113355" stroke-width="3" stroke-miterlimit="10"/>
<path d="M710.052 254.663L739.936 241.511" stroke="#113355" stroke-width="3" stroke-miterlimit="10"/>
<path d="M1234.82 850.071L1241.99 818.985" stroke="#113355" stroke-width="3" stroke-miterlimit="10"/>
<path d="M155.4 40.6504L138.665 15.5428" stroke="#113355" stroke-width="3" stroke-miterlimit="10"/>
<path d="M1325.67 688.665L1421.3 714.968L1356.75 858.44L1369.9 731.707L1325.67 712.577" fill="#FF3366"/>
<path d="M1068.67 748.445L1088.99 827.354L933.589 809.42L1048.34 792.682L1035.2 738.88" fill="#FF3366"/>
<path d="M1188.21 428.024C1242 416.068 1281.44 426.829 1299.38 466.284C1314.92 498.565 1299.38 554.758 1263.51 619.32L1360.34 665.949C1360.34 665.949 1378.27 687.469 1360.34 717.359C1342.41 747.249 1316.11 749.641 1316.11 749.641L1195.38 688.665C1166.69 674.318 1153.54 640.841 1165.49 610.951L1196.57 527.259L1118.87 604.973L1099.75 754.423C1099.75 754.423 1092.58 773.553 1059.11 774.748C1022.05 777.139 1007.7 761.597 1007.7 761.597L1020.85 598.995C1022.05 578.67 1030.42 559.54 1042.37 543.997C1069.86 506.934 1127.24 442.372 1188.21 428.024Z" fill="#FFCC00"/>
<path d="M1043.56 719.751C1048.34 719.751 1051.93 723.337 1051.93 728.12C1051.93 730.511 1050.73 731.707 1049.54 734.098C1048.34 736.489 1045.95 736.489 1043.56 736.489C1038.78 736.489 1035.19 732.902 1035.19 728.12C1035.19 723.337 1038.78 719.751 1043.56 719.751ZM1043.56 717.359C1037.58 717.359 1032.8 722.142 1032.8 728.12C1032.8 734.098 1037.58 738.88 1043.56 738.88C1049.54 738.88 1054.32 734.098 1054.32 728.12C1054.32 722.142 1049.54 717.359 1043.56 717.359Z" fill="#113355"/>
<path d="M1045.95 590.626C1050.74 590.626 1054.32 594.213 1054.32 598.995C1054.32 603.777 1050.74 607.364 1045.95 607.364C1041.17 607.364 1037.59 603.777 1037.59 598.995C1037.59 596.604 1038.78 595.408 1039.98 593.017C1041.17 590.626 1043.56 590.626 1045.95 590.626ZM1045.95 588.235C1039.98 588.235 1035.2 593.017 1035.2 598.995C1035.2 604.973 1039.98 609.755 1045.95 609.755C1051.93 609.755 1056.71 604.973 1056.71 598.995C1056.71 593.017 1051.93 588.235 1045.95 588.235Z" fill="#113355"/>
<path d="M1092.57 538.019C1097.35 538.019 1100.94 541.606 1100.94 546.389C1100.94 551.171 1097.35 554.758 1092.57 554.758C1087.79 554.758 1084.2 551.171 1084.2 546.389C1084.2 543.997 1085.4 542.802 1086.6 540.411C1087.79 538.019 1090.18 538.019 1092.57 538.019ZM1092.57 535.628C1086.6 535.628 1081.81 540.411 1081.81 546.389C1081.81 552.367 1086.6 557.149 1092.57 557.149C1098.55 557.149 1103.33 552.367 1103.33 546.389C1103.33 539.215 1098.55 535.628 1092.57 535.628Z" fill="#113355"/>
<path d="M1047.15 535.628C1051.93 539.215 1053.13 545.193 1049.54 549.975C1045.95 554.758 1039.98 555.953 1035.2 552.367" stroke="#113355" stroke-width="3" stroke-miterlimit="10"/>
<path d="M1175.05 455.523C1179.83 455.523 1183.42 459.11 1183.42 463.892C1183.42 466.284 1182.22 467.479 1181.03 469.87C1179.83 472.262 1177.44 472.262 1175.05 472.262C1170.27 472.262 1166.68 468.675 1166.68 463.892C1167.88 459.11 1171.47 455.523 1175.05 455.523ZM1175.05 453.132C1169.08 453.132 1164.29 457.914 1164.29 463.892C1164.29 469.87 1169.08 474.653 1175.05 474.653C1181.03 474.653 1185.81 469.87 1185.81 463.892C1185.81 457.914 1181.03 453.132 1175.05 453.132Z" fill="#113355"/>
<path d="M1104.53 474.653C1106.92 477.044 1109.31 479.435 1109.31 483.022C1109.31 489 1104.53 493.782 1098.55 493.782C1093.77 493.782 1090.18 491.391 1088.99 487.804" stroke="#113355" stroke-width="3" stroke-miterlimit="10"/>
<path d="M1159.51 508.129C1164.3 508.129 1167.88 511.716 1167.88 516.499C1167.88 518.89 1166.69 520.086 1165.49 522.477C1164.3 523.672 1161.91 524.868 1159.51 524.868C1154.73 524.868 1151.15 521.281 1151.15 516.499C1151.15 514.108 1152.34 512.912 1153.54 510.521C1154.73 508.13 1157.12 508.129 1159.51 508.129ZM1159.51 505.738C1153.54 505.738 1148.76 510.521 1148.76 516.499C1148.76 522.477 1153.54 527.259 1159.51 527.259C1165.49 527.259 1170.27 522.477 1170.27 516.499C1170.27 510.521 1165.49 505.738 1159.51 505.738Z" fill="#113355"/>
<path d="M1243.19 424.438C1241.99 428.024 1238.41 430.415 1233.63 430.415C1228.84 430.415 1225.26 428.024 1224.06 423.242" stroke="#113355" stroke-width="3" stroke-miterlimit="10"/>
<path d="M1236.02 533.237C1240.8 533.237 1244.39 536.824 1244.39 541.606C1244.39 543.997 1243.19 545.193 1241.99 547.584C1240.8 548.78 1238.41 549.975 1236.02 549.975C1231.24 549.975 1227.65 546.389 1227.65 541.606C1228.85 536.824 1232.43 533.237 1236.02 533.237ZM1236.02 530.846C1230.04 530.846 1225.26 535.628 1225.26 541.606C1225.26 547.584 1230.04 552.367 1236.02 552.367C1241.99 552.367 1246.78 547.584 1246.78 541.606C1246.78 534.433 1241.99 530.846 1236.02 530.846Z" fill="#113355"/>
<path d="M1208.53 607.364C1213.31 607.364 1216.89 610.951 1216.89 615.733C1216.89 620.516 1213.31 624.103 1208.53 624.103C1203.74 624.103 1200.16 620.516 1200.16 615.733C1200.16 613.342 1201.35 612.147 1202.55 609.755C1203.74 607.364 1207.33 607.364 1208.53 607.364ZM1208.53 604.973C1202.55 604.973 1197.77 609.755 1197.77 615.733C1197.77 621.711 1202.55 626.494 1208.53 626.494C1214.5 626.494 1219.28 621.711 1219.28 615.733C1219.28 609.755 1214.5 604.973 1208.53 604.973Z" fill="#113355"/>
<path d="M1316.11 644.428C1313.72 646.819 1311.33 649.21 1307.74 649.21C1301.76 649.21 1296.98 644.428 1296.98 638.45C1296.98 637.254 1296.98 636.059 1296.98 634.863" stroke="#113355" stroke-width="3" stroke-miterlimit="10"/>
<path d="M1368.71 693.447C1362.73 694.643 1357.95 691.056 1356.75 685.078C1355.56 679.1 1359.14 674.318 1365.12 673.122" stroke="#113355" stroke-width="3" stroke-miterlimit="10"/>
<path d="M1164.29 655.188C1165.49 655.188 1165.49 655.188 1166.68 655.188C1172.66 655.188 1177.44 659.971 1177.44 665.949C1177.44 668.34 1176.25 671.926 1173.86 673.122" stroke="#113355" stroke-width="3" stroke-miterlimit="10"/>
<path d="M1243.19 461.501C1247.97 461.501 1251.56 465.088 1251.56 469.87C1251.56 474.653 1247.97 478.239 1243.19 478.239C1238.41 478.239 1234.82 474.653 1234.82 469.87C1234.82 467.479 1236.02 466.283 1237.21 463.892C1239.6 462.697 1242 461.501 1243.19 461.501ZM1243.19 459.11C1237.21 459.11 1232.43 463.892 1232.43 469.87C1232.43 475.848 1237.21 480.631 1243.19 480.631C1249.17 480.631 1253.95 475.848 1253.95 469.87C1253.95 463.892 1249.17 459.11 1243.19 459.11Z" fill="#113355"/>
<path d="M1277.86 591.821C1273.08 590.626 1269.49 587.039 1269.49 582.257C1269.49 576.279 1274.27 571.496 1280.25 571.496C1282.64 571.496 1285.03 571.496 1286.23 572.692" stroke="#113355" stroke-width="3" stroke-miterlimit="10"/>
<path d="M1239.61 710.186C1242 707.795 1244.39 706.599 1246.78 706.599C1252.76 706.599 1257.54 711.381 1257.54 717.359C1257.54 718.555 1257.54 718.555 1257.54 719.751" stroke="#113355" stroke-width="3" stroke-miterlimit="10"/>
<path d="M1304.15 515.303C1300.57 514.107 1296.98 510.521 1296.98 505.738C1296.98 500.956 1300.57 496.174 1305.35 494.978" stroke="#113355" stroke-width="3" stroke-miterlimit="10"/>
<path d="M1073.45 659.971C1078.23 659.971 1081.81 663.557 1081.81 668.34C1081.81 673.122 1078.23 676.709 1073.45 676.709C1068.66 676.709 1065.08 673.122 1065.08 668.34C1065.08 665.949 1066.27 664.753 1067.47 662.362C1068.66 661.166 1071.05 659.971 1073.45 659.971ZM1073.45 657.579C1067.47 657.579 1062.69 662.362 1062.69 668.34C1062.69 674.318 1067.47 679.1 1073.45 679.1C1079.42 679.1 1084.2 674.318 1084.2 668.34C1084.2 662.362 1079.42 657.579 1073.45 657.579Z" fill="#113355"/>
<path d="M1112.9 649.21C1106.92 648.015 1103.33 643.232 1103.33 637.254C1103.33 631.276 1109.31 627.689 1115.29 627.689" stroke="#113355" stroke-width="3" stroke-miterlimit="10"/>
<path d="M1014.88 662.362C1020.85 662.362 1024.44 668.34 1024.44 673.122C1024.44 679.1 1018.46 682.687 1013.68 682.687" stroke="#113355" stroke-width="3" stroke-miterlimit="10"/>
<path d="M1128.44 594.213C1127.24 593.017 1127.24 590.626 1127.24 588.235C1127.24 582.257 1132.02 577.474 1138 577.474C1140.39 577.474 1142.78 577.474 1143.98 578.67" stroke="#113355" stroke-width="3" stroke-miterlimit="10"/>
<path d="M1233.63 644.428C1238.41 644.428 1242 648.015 1242 652.797C1242 657.579 1238.41 661.166 1233.63 661.166C1228.85 661.166 1225.26 657.579 1225.26 652.797C1225.26 650.406 1226.46 649.21 1227.65 646.819C1228.85 644.428 1231.24 644.428 1233.63 644.428ZM1233.63 642.037C1227.65 642.037 1222.87 646.819 1222.87 652.797C1222.87 658.775 1227.65 663.557 1233.63 663.557C1239.61 663.557 1244.39 658.775 1244.39 652.797C1243.19 646.819 1238.41 642.037 1233.63 642.037Z" fill="#113355"/>
<path d="M1301.76 686.274C1306.54 686.274 1310.13 689.861 1310.13 694.643C1310.13 699.425 1306.54 703.012 1301.76 703.012C1296.98 703.012 1293.4 699.425 1293.4 694.643C1293.4 692.252 1294.59 691.056 1295.79 688.665C1296.98 686.274 1299.37 686.274 1301.76 686.274ZM1301.76 683.883C1295.79 683.883 1291 688.665 1291 694.643C1291 700.621 1295.79 705.403 1301.76 705.403C1307.74 705.403 1312.52 700.621 1312.52 694.643C1312.52 688.665 1307.74 683.883 1301.76 683.883Z" fill="#113355"/>
<path d="M1324.47 747.249C1322.08 744.858 1319.69 742.467 1319.69 737.684C1319.69 731.706 1324.47 726.924 1330.45 726.924C1336.43 726.924 1341.21 731.706 1341.21 737.684" stroke="#113355" stroke-width="3" stroke-miterlimit="10"/>
<path d="M1103.33 723.337C1097.35 722.142 1093.77 717.359 1093.77 711.381C1094.96 705.403 1099.74 701.817 1105.72 701.817" stroke="#113355" stroke-width="3" stroke-miterlimit="10"/>
<path d="M1057.91 774.748C1056.71 768.77 1060.3 763.988 1066.28 762.792C1072.25 761.597 1077.03 765.183 1078.23 771.161" stroke="#113355" stroke-width="3" stroke-miterlimit="10"/>
<path d="M1381.85 746.054L1356.75 763.988" stroke="white" stroke-width="4" stroke-miterlimit="10"/>
<path d="M1379.46 762.792L1353.17 780.726" stroke="white" stroke-width="4" stroke-miterlimit="10"/>
<path d="M1375.88 779.531L1349.58 797.464" stroke="white" stroke-width="4" stroke-miterlimit="10"/>
<path d="M1039.98 802.247L1011.29 789.095" stroke="white" stroke-width="4" stroke-miterlimit="10"/>
<path d="M1025.63 808.225L995.75 795.073" stroke="white" stroke-width="4" stroke-miterlimit="10"/>
<path d="M1154.73 222.381C1155.93 242.707 1172.67 258.249 1192.99 257.054C1210.92 255.858 1225.26 242.707 1227.65 225.968C1227.65 223.577 1227.65 221.186 1227.65 218.795C1226.46 198.469 1209.72 182.927 1189.4 184.122C1178.64 184.122 1169.08 188.905 1163.1 196.078C1157.13 203.252 1153.54 212.817 1154.73 222.381Z" fill="#FFCC00"/>
<path d="M1155.93 181.731C1155.93 190.1 1163.1 197.274 1171.47 196.078C1178.64 196.078 1184.62 190.1 1185.81 182.927C1185.81 181.731 1185.81 180.535 1185.81 180.535C1185.81 172.166 1178.64 164.993 1170.27 166.188C1165.49 166.188 1161.91 168.579 1159.52 170.971C1157.12 174.557 1155.93 178.144 1155.93 181.731Z" fill="#113355"/>
<path d="M1181.03 176.949C1181.03 181.731 1185.81 186.513 1190.6 185.318C1195.38 185.318 1198.96 181.731 1198.96 176.949V175.753C1198.96 170.971 1194.18 166.188 1189.4 167.384C1187.01 167.384 1184.62 168.579 1182.23 170.971C1182.23 172.166 1181.03 174.557 1181.03 176.949Z" fill="#113355"/>
<path d="M1158.55 224.787C1160.53 224.713 1162.03 221.978 1161.91 218.679C1161.78 215.379 1160.08 212.765 1158.1 212.839C1156.12 212.913 1154.62 215.648 1154.74 218.947C1154.86 222.246 1156.57 224.861 1158.55 224.787Z" fill="#113355"/>
<path d="M1171.7 224.789C1173.68 224.714 1175.18 221.98 1175.06 218.681C1174.94 215.381 1173.23 212.767 1171.25 212.841C1169.27 212.915 1167.77 215.65 1167.89 218.949C1168.01 222.248 1169.72 224.863 1171.7 224.789Z" fill="#113355"/>
<path d="M1214.5 219.99C1214.5 227.164 1220.48 233.142 1228.85 233.142C1234.82 233.142 1240.8 228.359 1242 222.381C1242 221.186 1242 221.186 1242 219.99C1242 212.817 1236.02 206.839 1227.65 206.839C1224.06 206.839 1220.48 209.23 1218.09 211.621C1215.7 212.817 1214.5 216.403 1214.5 219.99Z" fill="#FFCC00"/>
<path d="M1164.29 196.078C1164.29 196.078 1177.44 204.447 1201.35 198.469L1203.74 219.99L1218.09 216.403C1218.09 216.403 1221.67 203.252 1233.63 208.034C1233.63 208.034 1233.63 182.927 1219.28 178.144C1192.98 170.971 1170.27 182.927 1164.29 196.078Z" fill="#113355"/>
<path d="M1165.49 223.577C1165.49 223.577 1163.1 229.555 1157.13 228.359" stroke="#113355" stroke-width="4" stroke-miterlimit="10"/>
<path d="M1258.73 361.071L1165.49 376.614C1141.58 380.2 1118.87 364.658 1114.09 340.746C1110.51 316.834 1126.05 294.117 1149.95 289.335L1243.19 273.792C1267.1 270.205 1289.81 285.748 1294.59 309.66C1299.37 333.572 1282.64 356.289 1258.73 361.071Z" fill="#113355"/>
<path d="M1274.27 333.572C1274.27 333.572 1145.17 429.22 1117.68 414.873C1086.6 399.33 1069.86 283.357 1069.86 283.357C1069.86 283.357 1022.05 259.445 1022.05 253.467C1023.24 247.489 1055.52 257.054 1055.52 257.054C1055.52 257.054 1018.46 239.12 1019.66 234.337C1022.05 225.968 1062.69 246.293 1062.69 246.293C1062.69 246.293 1032.81 218.795 1035.2 215.208C1037.59 211.621 1075.84 236.729 1075.84 236.729C1075.84 236.729 1068.67 217.599 1072.25 215.208C1077.03 211.621 1092.57 234.337 1102.14 245.098C1110.51 254.663 1139.19 349.115 1139.19 349.115L1216.89 295.313" stroke="#113355" stroke-width="4" stroke-miterlimit="10" stroke-linejoin="bevel"/>
<path d="M1087.79 388.57C1087.79 388.57 1051.93 389.765 1028.02 377.809C1002.92 364.658 953.91 276.183 953.91 276.183C953.91 276.183 904.899 245.098 908.486 239.12C912.072 233.142 943.151 247.489 943.151 247.489C943.151 247.489 906.095 221.186 910.876 215.208C916.853 208.034 953.91 234.337 953.91 234.337C953.91 234.337 931.198 206.839 935.979 204.447C940.761 202.056 968.254 227.164 968.254 227.164C968.254 227.164 971.84 208.034 976.622 208.034C982.599 208.034 981.403 230.751 992.162 245.098C999.334 254.663 1060.3 328.79 1060.3 328.79L1074.64 331.181" stroke="#113355" stroke-width="4" stroke-miterlimit="10" stroke-linejoin="bevel"/>
<path d="M1209.72 493.782L1176.25 566.714" stroke="white" stroke-width="5" stroke-miterlimit="10"/>
<path d="M326.34 394.548C326.34 394.548 442.292 383.787 466.199 368.244C491.302 351.506 521.186 290.531 535.531 261.836C537.922 257.054 574.978 229.555 571.392 224.773C567.806 219.99 545.094 241.511 545.094 241.511" stroke="#113355" stroke-width="4" stroke-miterlimit="10" stroke-linejoin="bevel"/>
<path d="M504.447 259.445C546.039 259.445 579.756 225.722 579.756 184.122C579.756 142.523 546.039 108.799 504.447 108.799C462.855 108.799 429.138 142.523 429.138 184.122C429.138 225.722 462.855 259.445 504.447 259.445Z" fill="#FF3366"/>
<path d="M138.665 703.012L60.9651 707.794L88.4588 857.244L105.194 735.293L157.791 731.706" fill="#113355"/>
<path d="M317.971 741.271L258.202 793.878L368.176 895.504L309.603 787.9L349.051 753.227" fill="#113355"/>
<path d="M338.293 462.697C300.041 444.763 248.64 451.936 228.319 485.413C205.606 522.477 204.411 555.954 260.594 671.927L141.056 681.491C141.056 681.491 114.758 689.861 118.344 730.511C121.93 769.966 142.252 778.335 142.252 778.335L303.627 767.575C343.075 765.183 370.568 725.729 359.81 686.274L329.925 577.474L413.602 615.733L316.776 738.88C316.776 738.88 308.409 758.01 334.707 778.335C357.419 795.073 386.108 790.291 386.108 790.291L491.301 665.949C524.771 625.298 514.013 584.648 481.738 558.345C426.751 508.13 381.326 483.022 338.293 462.697Z" fill="#2288EE"/>
<path d="M157.791 777.139C156.596 765.183 155.4 750.836 149.424 740.076C143.447 729.315 130.298 724.533 118.344 728.12C117.148 728.12 117.148 730.511 119.539 730.511C131.493 728.12 143.447 734.098 149.424 744.858C154.205 754.423 155.4 766.379 156.596 777.139C155.4 779.531 157.791 779.531 157.791 777.139Z" fill="white"/>
<path d="M142.249 681.491C142.249 704.208 161.375 724.533 180.501 735.293C193.65 743.662 207.994 748.445 223.534 747.249C237.879 746.054 249.832 737.684 255.809 724.533C259.395 716.164 260.591 707.794 259.395 699.425C258.2 689.86 255.809 680.296 252.223 670.731C252.223 669.535 249.832 669.535 249.832 671.927C254.614 687.469 259.395 701.816 255.809 717.359C252.223 731.706 240.269 742.467 224.729 743.662C210.385 744.858 196.04 740.076 184.087 732.902C173.328 726.924 162.57 717.359 155.398 707.794C149.421 699.425 144.639 689.86 144.639 680.296C144.639 680.296 142.249 680.296 142.249 681.491Z" fill="white"/>
<path d="M322.754 760.401C322.754 746.054 317.973 734.098 308.41 723.337C300.042 712.577 289.284 704.208 276.135 698.23C264.181 693.447 249.837 693.447 237.883 698.23C223.538 704.208 212.78 714.968 203.217 726.924C191.263 742.467 181.7 758.01 172.137 774.748C170.942 775.944 173.333 777.139 174.528 775.944C181.7 762.792 190.068 749.641 198.435 737.685C206.803 725.729 216.366 713.773 229.515 705.403C241.469 698.23 254.618 695.839 267.767 698.23C280.916 701.817 291.675 710.186 301.238 719.751C311.996 730.511 319.168 744.858 319.168 760.401C320.364 762.792 322.754 762.792 322.754 760.401Z" fill="white"/>
<path d="M340.68 591.822C326.336 587.039 310.796 585.844 295.256 588.235C284.498 589.43 267.762 591.822 261.786 602.582C254.613 613.342 267.762 625.298 276.13 631.276C286.888 640.841 301.233 646.819 314.382 652.797C329.922 659.971 346.657 664.753 364.588 668.34C365.783 668.34 366.979 665.949 365.783 665.949C339.485 661.166 313.187 651.602 290.475 638.45C284.498 634.863 279.716 631.276 274.935 626.494C270.153 621.712 264.176 616.929 262.981 609.756C261.786 596.604 283.302 593.017 291.67 590.626C307.21 588.235 323.945 588.235 339.485 593.017C341.876 595.408 343.071 593.017 340.68 591.822Z" fill="white"/>
<path d="M218.755 569.105C231.904 572.692 245.053 572.692 257.007 567.909C268.96 563.127 276.133 553.562 280.914 541.606C286.891 528.455 289.282 512.912 291.673 498.565C294.063 483.022 297.649 467.479 294.063 451.936C294.063 450.741 291.673 450.741 291.673 453.132C294.063 467.479 291.673 483.022 289.282 498.565C286.891 511.716 284.5 524.868 280.914 536.824C277.328 548.78 270.156 559.54 258.202 564.323C246.248 570.301 231.904 570.301 218.755 566.714C217.559 566.714 217.559 569.105 218.755 569.105Z" fill="white"/>
<path d="M231.903 479.435C252.225 502.152 283.305 509.325 311.994 510.521C338.292 511.716 366.981 505.738 387.302 489C388.498 487.804 387.302 486.609 386.107 487.804C365.785 504.543 338.292 509.325 311.994 508.13C283.305 506.934 253.42 499.76 233.099 478.24C233.099 477.044 230.708 478.24 231.903 479.435Z" fill="white"/>
<path d="M431.533 515.303C420.775 520.086 413.603 528.455 410.017 539.215C406.43 549.975 407.626 560.736 411.212 570.301C419.58 594.213 443.487 607.364 465.004 618.125C472.176 621.711 479.348 624.103 486.521 627.689C493.693 630.081 500.865 632.472 508.037 632.472C509.233 632.472 509.233 630.081 508.037 630.081C502.06 630.081 496.084 628.885 490.107 626.494C484.13 624.103 476.958 621.711 470.981 619.32C460.222 614.538 449.464 609.755 439.901 602.582C421.97 590.626 407.626 570.301 410.017 547.584C411.212 534.433 419.58 523.672 431.533 518.89C433.924 516.499 432.729 514.108 431.533 515.303Z" fill="white"/>
<path d="M362.199 712.577C387.302 708.99 413.6 716.164 424.359 741.271C425.554 742.467 426.749 742.467 426.749 740.076C415.991 713.773 388.497 706.599 362.199 710.186C359.808 710.186 361.004 712.577 362.199 712.577Z" fill="white"/>
<path d="M445.876 714.968C426.75 716.164 406.428 722.142 389.693 732.902C371.763 746.054 363.395 766.379 359.809 787.9C359.809 789.095 362.2 790.291 362.2 789.095C365.786 767.574 372.958 747.249 392.084 735.293C407.624 724.533 426.75 719.75 445.876 718.555C448.267 717.359 448.267 714.968 445.876 714.968Z" fill="white"/>
<path d="M386.108 602.582C401.648 591.821 420.774 587.039 438.705 585.843C454.245 585.843 473.371 589.43 482.934 602.582C493.692 618.125 487.715 638.45 475.761 650.406C463.808 663.557 445.877 671.926 429.142 679.1C408.82 687.469 384.913 694.643 363.396 688.665C362.201 688.665 361.005 691.056 362.201 691.056C383.718 695.838 405.234 691.056 425.556 683.882C443.486 676.709 463.808 668.34 476.957 653.992C487.715 642.036 494.887 622.907 487.715 607.364C480.543 591.821 463.808 585.843 448.268 583.452C426.751 581.061 402.844 587.039 384.913 600.191C383.718 601.386 384.913 603.777 386.108 602.582Z" fill="white"/>
<path d="M278.525 771.161C350.248 768.77 365.788 725.729 361.006 695.839C358.616 676.709 320.364 539.215 320.364 539.215" stroke="white" stroke-width="5" stroke-miterlimit="10"/>
<path d="M90.8495 741.271L111.171 763.988" stroke="white" stroke-width="4" stroke-miterlimit="10"/>
<path d="M89.6531 758.01L109.974 780.726" stroke="white" stroke-width="4" stroke-miterlimit="10"/>
<path d="M89.6531 774.748L109.974 797.464" stroke="white" stroke-width="4" stroke-miterlimit="10"/>
<path d="M301.237 801.051L331.121 807.029" stroke="white" stroke-width="4" stroke-miterlimit="10"/>
<path d="M309.601 814.203L339.485 820.181" stroke="white" stroke-width="4" stroke-miterlimit="10"/>
<path d="M319.167 827.354L349.052 833.332" stroke="white" stroke-width="4" stroke-miterlimit="10"/>
<path d="M329.927 329.985C337.099 374.222 308.41 416.068 264.181 423.242C219.952 430.416 178.114 401.721 170.942 357.484" fill="#11BB99"/>
<path d="M273.743 274.988C276.134 297.704 259.399 316.834 237.882 319.225C218.756 321.616 200.825 308.465 194.848 290.531C193.653 288.139 193.653 285.748 193.653 283.357C191.262 260.641 207.997 241.511 229.514 239.12C241.468 237.924 252.226 241.511 260.594 248.685C267.766 254.663 272.548 264.227 273.743 274.988Z" fill="#FFCC00"/>
<path d="M259.398 248.685C251.03 271.401 230.709 288.139 204.41 290.531C200.824 290.531 197.238 290.531 193.652 290.531C192.457 288.139 192.457 285.748 192.457 283.357C190.066 260.641 206.801 241.511 228.318 239.12C241.467 237.924 252.225 241.511 259.398 248.685Z" fill="#113355"/>
<path d="M192.459 257.054C201.041 257.054 207.998 250.095 207.998 241.511C207.998 232.927 201.041 225.968 192.459 225.968C183.876 225.968 176.919 232.927 176.919 241.511C176.919 250.095 183.876 257.054 192.459 257.054Z" fill="#113355"/>
<path d="M194.847 227.164C219.274 227.164 239.076 207.358 239.076 182.927C239.076 158.495 219.274 138.689 194.847 138.689C170.42 138.689 150.618 158.495 150.618 182.927C150.618 207.358 170.42 227.164 194.847 227.164Z" fill="#113355"/>
<path d="M267.142 280.941C269.113 280.741 270.439 277.915 270.104 274.63C269.77 271.346 267.902 268.846 265.931 269.046C263.961 269.247 262.634 272.072 262.969 275.357C263.303 278.642 265.172 281.142 267.142 280.941Z" fill="#113355"/>
<path d="M254.051 283.32C256.021 283.119 257.347 280.293 257.013 277.009C256.679 273.724 254.81 271.224 252.84 271.425C250.869 271.625 249.543 274.451 249.877 277.735C250.212 281.02 252.08 283.52 254.051 283.32Z" fill="#113355"/>
<path d="M267.767 291.726C267.767 291.726 260.595 290.53 260.595 284.553" stroke="#113355" stroke-width="4" stroke-miterlimit="10"/>
<path d="M230.706 405.308C230.706 405.308 359.807 380.2 381.323 361.071C413.599 333.572 445.874 252.271 445.874 252.271C445.874 252.271 490.103 216.403 486.516 211.621C482.93 206.839 454.241 223.577 454.241 223.577C454.241 223.577 487.712 193.687 482.93 188.905C476.953 181.731 444.678 212.817 444.678 212.817C444.678 212.817 463.804 182.927 460.218 181.731C455.437 179.34 430.334 208.034 430.334 208.034C430.334 208.034 426.748 190.1 421.966 190.1C415.989 191.296 418.38 212.817 410.012 227.164C404.036 237.924 350.244 316.834 350.244 316.834L219.948 346.724" stroke="#113355" stroke-width="4" stroke-miterlimit="10" stroke-linejoin="bevel"/>
<path d="M491.302 258.249L442.292 322.812L421.97 321.616" stroke="#113355" stroke-width="4" stroke-miterlimit="10" stroke-linejoin="bevel"/>
<path d="M514.012 109.995C514.012 109.995 476.956 150.645 493.691 169.775C510.426 188.905 552.264 168.579 552.264 168.579C552.264 168.579 534.334 193.687 539.115 204.447C545.092 216.403 574.976 210.425 574.976 210.425" stroke="white" stroke-width="3" stroke-miterlimit="10"/>
<path d="M475.762 253.467C475.762 253.467 505.647 209.23 548.68 245.098" stroke="white" stroke-width="3" stroke-miterlimit="10"/>
<path d="M436.312 153.037C436.312 153.037 473.368 151.841 466.196 119.56" stroke="white" stroke-width="3" stroke-miterlimit="10"/>
<path d="M533.137 114.777C533.137 114.777 508.034 159.015 560.631 133.907" stroke="white" stroke-width="3" stroke-miterlimit="10"/>
</g>
<defs>
<clipPath id="clip0">
<rect width="1499" height="978" fill="white"/>
</clipPath>
</defs>
</svg>
