<svg width="1540" height="1007" viewBox="0 0 1540 1007" fill="none" xmlns="http://www.w3.org/2000/svg">
<g clip-path="url(#clip0)">
<path d="M926.755 200.295H730.629V352.243H926.755V200.295Z" fill="#2288EE"/>
<path d="M801.801 320.766C809.438 317.29 813.325 309.406 810.481 303.157C807.637 296.907 799.141 294.659 791.504 298.135C783.867 301.611 779.98 309.495 782.824 315.744C785.668 321.994 794.164 324.242 801.801 320.766Z" fill="white"/>
<path d="M730.629 283.176C762.396 281.794 792.782 279.032 795.544 270.743C798.306 258.311 761.015 237.591 761.015 237.591C761.015 237.591 835.598 252.786 846.647 233.447C850.791 225.159 828.692 211.346 805.212 200.295" stroke="white" stroke-width="2" stroke-linejoin="round"/>
<path d="M926.755 292.844C903.275 283.175 849.41 262.454 836.979 279.03C825.93 292.844 848.029 328.759 865.984 352.242" stroke="white" stroke-width="2" stroke-miterlimit="10"/>
<path d="M871.513 200.295C870.131 201.676 870.131 203.058 870.131 204.439C867.369 216.871 928.14 225.159 928.14 225.159" stroke="white" stroke-width="2" stroke-linejoin="round"/>
<path d="M364.623 317.709L319.045 240.353C303.852 214.108 321.807 182.337 352.193 182.337H443.349C473.735 182.337 491.69 215.489 476.497 240.353L430.919 317.709C417.107 342.573 379.816 342.573 364.623 317.709Z" fill="#FFCC00"/>
<path d="M482.021 229.303C462.684 222.397 414.343 204.439 406.056 219.634C397.769 232.066 430.917 256.93 457.16 273.506" stroke="white" stroke-width="2" stroke-linejoin="round"/>
<path d="M468.214 190.623C465.452 192.004 462.689 192.004 462.689 194.767C458.546 203.055 473.739 218.25 483.407 227.919" stroke="white" stroke-width="2" stroke-linejoin="round"/>
<path d="M856.32 158.855H660.195V310.802H856.32V158.855Z" stroke="#113355" stroke-width="3" stroke-miterlimit="10"/>
<path d="M660.195 309.42L730.634 352.242" stroke="#113355" stroke-width="3" stroke-linejoin="bevel"/>
<path d="M856.323 309.42L926.762 352.242" stroke="#113355" stroke-width="3" stroke-linejoin="bevel"/>
<path d="M856.323 158.855L926.762 200.295" stroke="#113355" stroke-width="3" stroke-linejoin="bevel"/>
<path d="M816.264 182.336L823.17 111.888C823.17 111.888 852.175 100.837 849.412 80.1167C846.65 59.3965 825.933 66.3033 825.933 66.3033C825.933 66.3033 819.027 38.6764 790.022 33.151C761.018 27.6256 744.444 42.8204 738.919 66.3033C727.87 104.981 748.587 120.176 791.403 124.32L787.26 171.285" fill="#FFCC00"/>
<path d="M838.362 66.3034C838.362 66.3034 850.793 35.9138 813.502 17.9563C776.21 -0.00114706 766.542 12.431 754.111 1.3802C741.681 -9.67056 715.439 33.1511 756.874 49.7272C798.309 67.6847 796.928 63.5407 796.928 63.5407C796.928 63.5407 792.784 82.8795 803.833 84.2609C814.883 88.4049 824.551 69.0661 824.551 69.0661" fill="#113355"/>
<path d="M754.117 87.0222L745.83 102.217" stroke="#113355" stroke-width="3" stroke-miterlimit="10"/>
<path d="M766.55 89.7861C768.838 89.7861 770.693 87.9308 770.693 85.6421C770.693 83.3534 768.838 81.498 766.55 81.498C764.261 81.498 762.406 83.3534 762.406 85.6421C762.406 87.9308 764.261 89.7861 766.55 89.7861Z" fill="#113355"/>
<path d="M743.067 89.7861C745.356 89.7861 747.211 87.9308 747.211 85.6421C747.211 83.3534 745.356 81.498 743.067 81.498C740.779 81.498 738.924 83.3534 738.924 85.6421C738.924 87.9308 740.779 89.7861 743.067 89.7861Z" fill="#113355"/>
<path d="M810.742 375.725C852.177 375.725 886.706 400.589 896.374 437.886L1013.77 903.398C1013.77 903.398 1064.88 896.492 1082.83 913.068L946.096 986.279L816.266 501.427L756.876 712.773L754.114 986.279H598.042C598.042 986.279 622.903 953.127 665.719 943.458C665.719 943.458 653.289 759.739 668.482 667.189C676.769 614.698 709.917 506.953 725.11 439.267C733.397 403.352 769.307 375.725 810.742 375.725Z" fill="#113355"/>
<path d="M1183.65 171.285C1135.31 171.285 1096.64 209.963 1096.64 258.31C1096.64 306.657 1135.31 345.335 1183.65 345.335C1231.99 345.335 1270.67 306.657 1270.67 258.31C1270.67 211.344 1231.99 171.285 1183.65 171.285ZM1183.65 295.606C1162.93 295.606 1146.36 279.03 1146.36 258.31C1146.36 237.59 1162.93 221.014 1183.65 221.014C1204.37 221.014 1220.94 237.59 1220.94 258.31C1220.94 279.03 1204.37 295.606 1183.65 295.606Z" fill="#11BB99"/>
<path d="M1520.66 201.674C1457.13 201.674 1406.02 252.784 1406.02 316.326H1522.04" fill="white"/>
<path d="M1520.66 201.674C1457.13 201.674 1406.02 252.784 1406.02 316.326H1522.04" stroke="#113355" stroke-width="3" stroke-miterlimit="10"/>
<path d="M17.9526 176.81L116.015 342.571H17.9526" fill="white"/>
<path d="M17.9526 176.81L116.015 342.571H17.9526" stroke="#113355" stroke-width="3" stroke-miterlimit="10"/>
<path d="M890.852 153.328C919.857 153.328 1005.49 245.878 1005.49 245.878C1005.49 245.878 988.915 157.472 977.866 142.277C966.816 127.082 1005.49 80.1167 1009.63 81.498C1013.78 82.8794 995.821 106.362 1005.49 110.506C1008.25 111.888 1062.12 73.21 1067.64 77.354C1070.4 80.1167 1026.21 114.65 1027.59 114.65C1028.97 114.65 1080.07 73.21 1084.22 78.7353C1088.36 84.2607 1035.87 121.557 1037.26 124.32C1038.64 127.082 1080.07 99.4555 1082.83 102.218C1085.6 104.981 1027.59 149.184 1027.59 149.184" stroke="#113355" stroke-width="3" stroke-linejoin="bevel"/>
<path d="M1042.78 140.896C1042.78 140.896 1075.93 291.463 1052.45 308.039C1011.01 335.666 881.181 234.828 881.181 234.828" stroke="#113355" stroke-width="3" stroke-linejoin="bevel"/>
<path d="M651.907 172.666L588.373 187.861C588.373 187.861 631.189 98.0733 636.714 85.6412C640.858 74.5904 622.902 38.6755 615.997 38.6755C609.091 38.6755 620.14 63.5397 611.853 64.921C602.185 66.3023 566.275 30.3874 560.75 34.5314C556.606 38.6755 585.611 62.1583 582.849 63.5397C581.467 64.921 534.508 27.6247 528.983 33.1501C524.84 38.6755 577.324 74.5904 575.943 78.7344C573.18 81.4971 531.745 52.4889 528.983 58.0143C524.84 62.1583 573.18 100.836 573.18 100.836C573.18 100.836 479.261 245.877 505.503 259.691C531.745 274.885 656.05 237.589 656.05 237.589" stroke="#113355" stroke-width="3" stroke-linejoin="bevel"/>
<path d="M592.512 454.46L632.566 415.783V493.138L592.512 454.46Z" fill="white"/>
<path d="M631.19 418.545V490.375L595.28 454.46L631.19 418.545ZM633.953 411.638L591.136 454.46L633.953 497.281V411.638Z" fill="#113355"/>
<path d="M984.769 415.783L1023.44 454.46L984.769 493.138V415.783Z" fill="white"/>
<path d="M986.155 418.545L1022.07 454.46L986.155 490.375V418.545ZM983.393 411.638V497.281L1026.21 454.46L983.393 411.638Z" fill="#113355"/>
<path d="M577.325 986.278H1106.31" stroke="#113355" stroke-width="3" stroke-linejoin="bevel"/>
<path d="M524.846 828.805H401.922L429.545 634.036L401.922 538.723L374.298 634.036L401.922 828.805H278.998C278.998 828.805 290.047 797.034 312.146 792.89C312.146 792.89 280.379 683.764 281.76 640.943C283.142 596.74 330.101 440.648 330.101 440.648H470.98C470.98 440.648 517.94 598.121 519.321 640.943C520.702 685.146 488.935 792.89 488.935 792.89C513.796 797.034 524.846 828.805 524.846 828.805Z" fill="#FF3366"/>
<path d="M1128.41 828.804H1273.43C1273.43 828.804 1256.86 805.321 1245.81 803.94L1258.24 518.002C1259.62 476.561 1227.85 442.028 1186.42 439.265C1185.04 439.265 1183.66 439.265 1183.66 439.265C1142.22 439.265 1109.07 472.417 1109.07 513.858C1109.07 518.002 1109.07 522.146 1110.45 526.29L1154.65 798.415C1154.65 799.796 1132.55 812.228 1128.41 828.804Z" fill="#2288EE"/>
<path d="M1203 828.806L1194.71 513.859" stroke="white" stroke-width="3" stroke-miterlimit="10"/>
<path d="M34.5293 455.844C63.5338 458.606 85.6324 482.089 88.3948 509.716L113.256 810.849C122.924 808.086 149.166 808.086 149.166 808.086L87.0136 828.807L38.6728 552.538" fill="white"/>
<path d="M34.5293 455.844C63.5338 458.606 85.6324 482.089 88.3948 509.716L113.256 810.849C122.924 808.086 149.166 808.086 149.166 808.086L87.0136 828.807L38.6728 552.538" stroke="#113355" stroke-width="3" stroke-linejoin="round"/>
<path d="M1504.09 563.586C1504.09 563.586 1508.23 649.229 1509.61 683.763C1509.61 718.297 1519.28 828.804 1519.28 828.804H1457.13C1457.13 828.804 1472.32 819.135 1487.51 819.135L1440.55 469.655L1519.28 459.985" fill="white"/>
<path d="M1504.09 563.586C1504.09 563.586 1508.23 649.229 1509.61 683.763C1509.61 718.297 1519.28 828.804 1519.28 828.804H1457.13C1457.13 828.804 1472.32 819.135 1487.51 819.135L1440.55 469.655L1519.28 459.985" stroke="#113355" stroke-width="3" stroke-linejoin="round"/>
<path d="M1211.27 284.555C1209.89 308.038 1209.89 331.521 1205.75 331.521C1197.46 332.902 1186.41 309.419 1178.13 312.182C1169.84 314.945 1162.93 331.521 1158.79 343.953" stroke="white" stroke-width="2" stroke-linejoin="round"/>
<path d="M1272.05 258.31C1256.86 238.971 1240.28 223.776 1229.23 227.92C1223.71 229.301 1219.56 236.208 1216.8 243.115" stroke="white" stroke-width="2" stroke-linejoin="round"/>
<path d="M359.1 308.038C378.436 308.038 393.629 305.275 397.772 295.606C407.441 270.742 331.477 216.869 337.001 209.962C341.145 203.056 366.006 209.962 370.149 201.674C372.911 197.53 370.149 189.242 367.387 180.954" stroke="white" stroke-width="2" stroke-linejoin="round"/>
<path d="M1150.51 243.116C1139.46 233.447 1127.03 216.87 1115.98 203.057" stroke="white" stroke-width="2" stroke-linejoin="round"/>
<path d="M1200.23 174.047C1201.61 192.005 1200.23 207.2 1194.7 209.962C1185.04 214.106 1161.56 189.242 1161.56 189.242C1161.56 189.242 1168.46 207.2 1172.61 225.157" stroke="white" stroke-width="2" stroke-linejoin="round"/>
<path d="M1099.4 236.208C1107.69 252.784 1118.74 283.174 1117.36 316.326" stroke="white" stroke-width="2" stroke-linejoin="round"/>
</g>
<defs>
<clipPath id="clip0">
<rect width="1540" height="1007" fill="white"/>
</clipPath>
</defs>
</svg>
