<svg width="1381" height="934" viewBox="0 0 1381 934" fill="none" xmlns="http://www.w3.org/2000/svg">
<g clip-path="url(#clip0)">
<path d="M774 285.95C746.718 294.647 716.774 300 685.5 300C654.226 300 624.282 294.647 597 285.95C602.323 241.122 639.586 207 685.5 207C731.414 207 768.677 241.791 774 285.95Z" fill="#FF3366"/>
<path d="M872.047 608.186C895.185 608.186 913.943 589.431 913.943 566.295C913.943 543.16 895.185 524.405 872.047 524.405C848.909 524.405 830.152 543.16 830.152 566.295C830.152 589.431 848.909 608.186 872.047 608.186Z" fill="#113355"/>
<path d="M886.011 561.641C892.218 605.082 862.736 645.421 819.289 653.179C775.841 659.385 735.498 629.906 727.739 586.464" fill="#11BB99"/>
<path d="M647.056 800.571V876.595L499.645 878.146L612.918 839.359L616.022 788.159" fill="#FFCC00"/>
<path d="M608.262 854.873L583.435 839.358" stroke="white" stroke-width="4" stroke-miterlimit="10"/>
<path d="M594.298 859.528L569.471 844.013" stroke="white" stroke-width="4" stroke-miterlimit="10"/>
<path d="M578.78 862.631L552.401 847.116" stroke="white" stroke-width="4" stroke-miterlimit="10"/>
<path d="M782.051 460.793C761.879 474.757 755.673 502.684 769.638 522.853C782.051 541.471 805.327 547.677 825.498 538.368C828.602 536.817 830.153 535.265 833.257 533.714C853.429 519.75 859.635 491.823 845.67 471.654C837.912 460.793 827.05 454.587 816.188 453.036C803.775 453.036 791.361 454.587 782.051 460.793Z" fill="#FFCC00"/>
<path d="M814.634 454.588C802.22 477.86 802.22 507.339 817.737 530.611C819.289 533.714 822.392 536.817 825.496 539.92C828.599 538.369 830.151 536.817 833.254 535.266C853.426 521.302 859.633 493.375 845.668 473.206C837.909 462.345 825.496 456.139 814.634 454.588Z" fill="#113355"/>
<path d="M868.943 522.854C878.369 522.854 886.011 515.213 886.011 505.787C886.011 496.362 878.369 488.721 868.943 488.721C859.516 488.721 851.874 496.362 851.874 505.787C851.874 515.213 859.516 522.854 868.943 522.854Z" fill="#113355"/>
<path d="M788.11 474.142C791.656 471.738 793.362 468.064 791.919 465.936C790.477 463.809 786.432 464.033 782.886 466.437C779.339 468.841 777.634 472.514 779.076 474.642C780.519 476.77 784.563 476.546 788.11 474.142Z" fill="#113355"/>
<path d="M796.58 486.411C800.126 484.007 801.832 480.334 800.39 478.206C798.947 476.078 794.903 476.302 791.356 478.706C787.809 481.11 786.104 484.784 787.546 486.912C788.989 489.039 793.033 488.815 796.58 486.411Z" fill="#113355"/>
<path d="M803.776 482.515L802.224 473.206" stroke="#113355" stroke-width="4" stroke-miterlimit="10"/>
<path d="M796.012 463.897L788.253 459.242" stroke="#113355" stroke-width="4" stroke-miterlimit="10"/>
<path d="M771.19 477.86C771.19 477.86 777.397 482.515 782.052 479.412" stroke="#113355" stroke-width="4" stroke-miterlimit="10"/>
<path d="M867.391 769.541L809.978 575.604C802.22 552.332 782.048 535.265 757.221 533.714C726.187 532.162 699.809 555.435 698.257 586.465L696.705 606.634L674.982 561.641C665.672 544.574 648.603 532.162 628.431 532.162C600.501 530.611 577.225 552.332 574.122 580.259L557.054 806.777H654.81L656.361 758.681L673.43 812.983C684.292 853.322 718.429 876.594 758.773 876.594H785.151C841.012 875.043 881.356 823.843 867.391 769.541Z" fill="#2288EE"/>
<path d="M696.705 549.229L688.947 806.777" stroke="white" stroke-width="3" stroke-miterlimit="10"/>
<path d="M661.019 625.252L653.261 806.777" stroke="white" stroke-width="3" stroke-miterlimit="10"/>
<path d="M786.702 625.252L780.495 806.777" stroke="white" stroke-width="3" stroke-miterlimit="10"/>
<path d="M771.19 806.777V876.595L623.78 878.146L737.053 839.359L738.605 806.777" fill="#FFCC00"/>
<path d="M733.948 854.873L707.57 839.358" stroke="white" stroke-width="4" stroke-miterlimit="10"/>
<path d="M718.433 859.528L693.606 844.013" stroke="white" stroke-width="4" stroke-miterlimit="10"/>
<path d="M702.916 862.631L678.089 847.116" stroke="white" stroke-width="4" stroke-miterlimit="10"/>
<path d="M688.947 806.777H780.496" stroke="white" stroke-width="3" stroke-miterlimit="10"/>
<path d="M886.015 625.252C886.015 625.252 865.844 752.474 836.362 755.577C808.431 758.68 764.984 653.179 764.984 653.179C764.984 653.179 730.847 673.348 727.744 668.694C723.089 664.039 749.467 643.87 749.467 643.87C749.467 643.87 710.675 660.936 707.572 654.73C704.468 648.524 749.467 623.7 749.467 623.7C749.467 623.7 713.778 629.906 712.227 626.803C710.675 623.7 740.157 611.288 755.674 608.185C786.708 601.979 817.741 659.385 817.741 659.385L830.155 584.913" stroke="#113355" stroke-width="4" stroke-miterlimit="10" stroke-linejoin="bevel"/>
<path d="M567.92 615.943C567.92 615.943 598.954 619.046 597.402 623.7C597.402 628.355 561.713 634.561 563.265 634.561C564.817 634.561 597.402 654.73 595.85 662.488C594.299 668.694 561.713 657.833 561.713 657.833C561.713 657.833 581.885 674.9 580.334 678.003C577.23 681.106 552.403 673.348 552.403 673.348C552.403 673.348 543.093 659.385 550.852 640.767C558.61 620.597 567.92 615.943 567.92 615.943Z" stroke="#113355" stroke-width="4" stroke-miterlimit="10" stroke-linejoin="bevel"/>
<path d="M1298.76 127.222C1298.76 148.943 1281.69 167.561 1259.97 167.561C1239.8 167.561 1224.28 155.149 1219.62 136.531C1219.62 133.428 1218.07 131.876 1218.07 128.773C1218.07 107.052 1235.14 88.4344 1256.87 88.4344C1267.73 88.4344 1278.59 93.0889 1286.35 100.846C1294.11 107.052 1298.76 116.361 1298.76 127.222Z" fill="#FF3366"/>
<path d="M1219.63 133.428C1241.35 145.84 1272.38 156.701 1295.66 144.289V142.737C1289.45 144.289 1283.25 147.392 1275.49 147.392C1269.28 147.392 1261.52 147.392 1255.31 145.84C1244.45 144.289 1232.04 138.083 1219.63 133.428C1219.63 131.877 1219.63 133.428 1219.63 133.428Z" fill="white"/>
<path d="M1228.94 102.398C1247.56 113.259 1275.49 124.119 1297.21 114.81V113.259C1291.01 114.81 1286.35 116.362 1280.14 116.362C1273.94 116.362 1267.73 116.362 1261.52 114.81C1250.66 111.707 1239.8 105.501 1228.94 102.398C1228.94 100.847 1228.94 102.398 1228.94 102.398Z" fill="white"/>
<path d="M195.512 833.153L99.3078 744.718L62.0674 868.837L195.512 833.153Z" fill="#FF3366"/>
<path d="M79.1373 812.983C96.2058 811.431 113.274 811.431 130.343 817.637C144.308 823.843 158.273 833.152 173.79 837.807C173.79 837.807 175.342 836.255 173.79 836.255C166.032 833.152 158.273 828.498 152.067 825.395C144.308 822.292 138.101 817.637 130.343 814.534C113.274 809.88 96.2058 808.328 79.1373 812.983Z" fill="white"/>
<path d="M117.929 853.321C113.274 839.358 110.171 825.395 111.723 809.88C111.723 802.122 114.826 794.365 116.378 788.159C119.481 781.953 124.136 775.747 125.688 767.989C125.688 767.989 125.688 766.438 124.136 767.989C108.619 792.813 105.516 826.946 117.929 853.321C117.929 854.873 117.929 853.321 117.929 853.321Z" fill="white"/>
<path d="M1266.18 712.136C1210.32 761.783 1124.97 757.129 1075.32 701.275C1025.67 645.421 1030.32 560.089 1086.18 510.441" fill="#FF3366"/>
<path d="M1093.94 716.791C1115.66 684.209 1154.45 634.561 1180.83 648.525C1202.56 659.385 1207.21 702.827 1208.76 741.614" stroke="white" stroke-width="3" stroke-miterlimit="10"/>
<path d="M1173.07 606.635C1137.38 619.046 1092.38 629.907 1079.97 606.635C1070.66 588.017 1084.62 555.435 1101.69 527.508" stroke="white" stroke-width="3" stroke-miterlimit="10"/>
<path d="M1300.22 357.544L1271.06 437.74L1351.26 466.898L1380.42 386.702L1300.22 357.544Z" fill="#FFCC00"/>
<path d="M122.822 82.4285L54.65 133.764L105.992 201.928L174.164 150.592L122.822 82.4285Z" fill="#FFCC00"/>
<path d="M83.7897 111.707C86.893 133.428 86.893 156.7 86.893 176.87" stroke="white" stroke-width="3" stroke-miterlimit="10"/>
<path d="M139.65 176.87C130.34 175.319 124.133 170.664 121.03 164.458C113.272 148.943 122.582 122.568 136.547 97.744" stroke="white" stroke-width="3" stroke-miterlimit="10"/>
<path d="M1343.76 871.94C1343.76 893.66 1326.69 912.278 1304.97 912.278C1284.79 912.278 1269.28 899.866 1264.62 881.248C1264.62 878.145 1263.07 876.594 1263.07 873.491C1263.07 851.77 1280.14 833.152 1301.86 833.152C1312.72 833.152 1323.59 837.807 1331.34 845.564C1339.1 853.322 1342.21 862.631 1343.76 871.94Z" fill="#FFCC00"/>
<path d="M79.136 437.521C79.136 459.242 62.0674 477.86 40.3438 477.86C20.1719 477.86 4.65506 465.448 0 446.83C0 443.727 0 442.175 0 439.072C0 417.351 17.0685 398.734 38.7921 398.734C49.6539 398.734 60.5157 403.388 68.2742 411.145C74.4809 417.351 79.136 426.66 79.136 437.521Z" fill="#FF3366"/>
<path d="M863 233C863 233 817.794 272.333 753.974 292.333C732.7 299 709.433 303 685.5 303C660.903 303 637.635 299 617.026 292.333C553.206 273 508 233 508 233C508 233 587.775 163 685.5 163C783.225 163 863 233 863 233Z" stroke="#113355" stroke-width="7" stroke-miterlimit="10"/>
<path d="M743 293.615C725.155 298.978 705.989 303 685.5 303C665.011 303 645.845 299.648 628 293.615C631.305 264.121 655.759 242 685.5 242C715.241 242 739.695 264.121 743 293.615Z" fill="#113355"/>
<path d="M532 215L500 191" stroke="#113355" stroke-width="7" stroke-miterlimit="10"/>
<path d="M577 189L549 153" stroke="#113355" stroke-width="7" stroke-miterlimit="10"/>
<path d="M629 169L617 132" stroke="#113355" stroke-width="7" stroke-miterlimit="10"/>
<path d="M692 162L694 122" stroke="#113355" stroke-width="5" stroke-miterlimit="10"/>
<path d="M843 217L869 189" stroke="#113355" stroke-width="7" stroke-miterlimit="10"/>
<path d="M800 192L821 156" stroke="#113355" stroke-width="7" stroke-miterlimit="10"/>
<path d="M751 171L764 135" stroke="#113355" stroke-width="7" stroke-miterlimit="10"/>
<path d="M220.338 662.488C209.476 662.488 200.166 659.385 190.856 651.627C170.684 634.561 167.581 605.082 183.098 583.362L265.337 477.86C280.854 457.69 310.336 453.036 330.508 470.102C350.68 487.169 353.783 516.647 338.266 538.368L256.027 643.87C246.717 656.282 234.303 662.488 220.338 662.488Z" fill="#FFCC00"/>
<path d="M215.683 541.471C251.372 566.295 237.407 659.385 237.407 659.385" stroke="white" stroke-width="3" stroke-miterlimit="10"/>
<path d="M310.337 575.604C293.269 577.155 277.752 574.053 273.097 561.641C262.235 538.368 285.51 493.375 308.786 460.793" stroke="white" stroke-width="3" stroke-miterlimit="10"/>
</g>
<defs>
<clipPath id="clip0">
<rect width="1381" height="934" fill="white"/>
</clipPath>
</defs>
</svg>
