<svg width="1840" height="1039" viewBox="0 0 1840 1039" fill="none" xmlns="http://www.w3.org/2000/svg">
<path d="M603.26 218.796C616.769 325.492 505.999 432.189 420.895 379.516C381.72 355.205 397.93 297.13 391.176 241.756C384.422 194.485 343.896 160.72 370.913 118.852C427.649 32.4141 587.05 103.995 603.26 218.796Z" fill="#11BB99"/>
<path d="M786.984 128.306C786.984 128.306 753.212 152.617 750.511 180.979C747.809 209.342 782.931 232.302 782.931 232.302L868.035 193.135L786.984 128.306Z" fill="#113355"/>
<path d="M962.59 313.337C962.59 248.509 909.906 195.836 845.065 195.836C780.224 195.836 727.541 248.509 727.541 313.337H962.59Z" fill="#2288EE"/>
<path d="M857.226 217.447L854.524 158.021C854.524 158.021 877.488 145.866 873.436 129.658C870.734 112.101 853.173 120.204 853.173 120.204C853.173 120.204 845.068 97.2443 820.753 95.8937C796.437 94.5431 782.929 122.906 784.279 141.814C786.981 170.176 800.49 183.682 830.209 176.929L828.858 210.694" fill="#FFCC00"/>
<path d="M801.833 140.46L796.429 153.966" stroke="#113355" stroke-width="3" stroke-miterlimit="10"/>
<path d="M820.747 137.762L805.888 136.411" stroke="#113355" stroke-width="3" stroke-miterlimit="10"/>
<path d="M789.675 137.762L797.78 136.411" stroke="#113355" stroke-width="3" stroke-miterlimit="10"/>
<path d="M857.228 195.837C830.211 191.785 842.368 116.152 842.368 116.152C816.702 131.009 786.983 124.256 786.983 124.256C786.983 124.256 795.089 83.7379 838.316 87.7897C882.894 93.1921 892.35 121.554 892.35 121.554C892.35 121.554 939.63 133.71 940.981 171.526C942.332 209.343 912.613 216.096 912.613 216.096C912.613 216.096 886.947 199.889 857.228 195.837Z" fill="#113355"/>
<path d="M711.336 303.881C711.336 303.881 592.46 311.985 577.601 283.623C562.741 255.26 580.303 97.2409 580.303 97.2409C580.303 97.2409 562.741 54.0219 570.847 48.6196C580.303 43.2172 596.513 86.4361 596.513 86.4361C596.513 86.4361 585.706 27.0101 595.162 25.6595C604.618 24.3089 616.776 75.6314 616.776 75.6314C616.776 75.6314 626.232 52.6713 650.547 59.4243C668.108 63.4761 672.161 82.3844 665.406 85.0855C657.301 89.1373 650.547 76.982 642.442 79.6832C635.688 81.0338 634.337 89.1373 637.038 95.8903C641.091 103.994 649.196 106.695 655.95 101.293C662.705 95.8903 658.652 87.7867 666.757 83.7349C674.862 79.6832 684.318 99.942 672.161 114.799C661.354 129.655 634.337 125.603 634.337 125.603L632.986 226.898L724.844 230.949" stroke="#113355" stroke-width="3" stroke-miterlimit="10"/>
<path d="M978.8 303.883C978.8 303.883 1097.68 311.987 1112.53 283.624C1127.39 255.262 1109.83 97.2425 1109.83 97.2425C1109.83 97.2425 1127.39 54.0236 1119.29 48.6212C1111.18 43.2188 1094.97 86.4378 1094.97 86.4378C1094.97 86.4378 1105.78 27.0117 1096.32 27.0117C1086.87 27.0117 1074.71 76.9836 1074.71 76.9836C1074.71 76.9836 1065.25 54.0236 1040.94 60.7765C1023.38 64.8283 1019.33 83.7366 1026.08 86.4378C1034.18 90.4895 1040.94 78.3342 1049.04 81.0354C1055.8 83.7366 1057.15 91.8401 1054.45 97.2425C1050.4 105.346 1042.29 108.047 1035.54 102.645C1028.78 97.2425 1032.83 89.1389 1024.73 85.0872C1016.62 81.0354 1007.17 101.294 1019.33 116.151C1030.13 131.007 1055.8 126.956 1055.8 126.956L1057.15 228.25L963.94 229.6" stroke="#113355" stroke-width="3" stroke-miterlimit="10"/>
<path d="M923.414 384.916C874.783 356.553 813.995 356.553 765.364 384.916C714.032 414.629 643.787 456.497 574.893 497.015C497.895 541.585 524.912 659.086 614.068 667.19L804.539 683.397L830.205 783.341C834.258 798.197 854.52 798.197 858.573 783.341L884.239 683.397L1074.71 667.19C1163.87 659.086 1190.88 541.585 1113.88 497.015C1044.99 455.147 976.097 414.629 923.414 384.916ZM689.716 560.493L800.486 518.624C828.854 507.82 859.924 507.82 888.292 518.624L999.062 560.493H689.716Z" fill="#FF3366"/>
<path d="M845.067 792.797V560.496" stroke="white" stroke-width="3" stroke-miterlimit="10"/>
<path d="M687.01 474.055C712.376 474.055 732.939 453.496 732.939 428.135C732.939 402.774 712.376 382.215 687.01 382.215C661.644 382.215 641.081 402.774 641.081 428.135C641.081 453.496 661.644 474.055 687.01 474.055Z" fill="#FFCC00"/>
<path d="M1117.94 852.221C1085.52 852.221 1058.5 825.209 1058.5 792.795C1058.5 760.381 1085.52 733.369 1117.94 733.369C1150.36 733.369 1177.38 760.381 1177.38 792.795C1177.38 826.56 1151.71 852.221 1117.94 852.221Z" fill="white"/>
<path d="M1117.94 736.07C1149.01 736.07 1174.68 761.731 1174.68 792.795C1174.68 823.858 1149.01 849.52 1117.94 849.52C1086.87 849.52 1061.21 823.858 1061.21 792.795C1061.21 761.731 1086.87 736.07 1117.94 736.07ZM1117.94 733.369C1084.17 733.369 1057.15 760.38 1057.15 794.145C1057.15 827.91 1084.17 854.922 1117.94 854.922C1151.71 854.922 1178.73 827.91 1178.73 794.145C1178.73 760.38 1151.71 733.369 1117.94 733.369Z" fill="#113355"/>
<path d="M1578.57 648.287C1555.61 703.661 1505.63 736.076 1442.14 710.414C1377.3 684.753 1343.53 618.574 1366.49 563.2C1389.45 507.826 1458.35 483.515 1523.19 509.176C1586.68 534.837 1600.19 592.913 1578.57 648.287Z" fill="#FFCC00"/>
<path d="M100.739 334.944C134.312 334.944 161.528 307.734 161.528 274.168C161.528 240.602 134.312 213.391 100.739 213.391C67.1666 213.391 39.9507 240.602 39.9507 274.168C39.9507 307.734 67.1666 334.944 100.739 334.944Z" fill="#FFCC00"/>
<path d="M739.698 836.018C753.873 836.018 765.364 824.529 765.364 810.356C765.364 796.184 753.873 784.695 739.698 784.695C725.523 784.695 714.032 796.184 714.032 810.356C714.032 824.529 725.523 836.018 739.698 836.018Z" fill="#11BB99"/>
<path d="M641.091 613.167L476.287 644.231L597.864 764.433L641.091 613.167Z" fill="#2288EE"/>
<path d="M249.34 0L176.394 47.2707L261.498 85.0873L249.34 0Z" fill="#2288EE"/>
<path d="M1459.71 320.091L1524.55 224.199V293.079L1459.71 388.971V320.091Z" fill="white"/>
<path d="M1523.19 229.598V293.076L1461.05 384.916V321.438L1523.19 229.598ZM1527.24 220.144L1458.35 320.088V393.02L1527.24 293.076V220.144Z" fill="#113355"/>
<path d="M1458.36 393.019L1223.31 232.299V159.367L1458.36 320.088V393.019Z" fill="#2288EE"/>
<path d="M334.442 714.465L275.004 754.983L85.8848 663.143L145.322 623.976L334.442 714.465Z" fill="#FF3366"/>
<path d="M237.181 434.893L176.392 474.06L85.8848 663.143L145.322 623.976L237.181 434.893Z" fill="#2288EE"/>
<path d="M1235.46 551.04L1185.48 521.327L1121.99 363.308L1173.33 393.021L1235.46 551.04Z" fill="#11BB99"/>
<path d="M1093.62 557.796L1143.6 587.509L1235.46 551.043L1185.48 521.33L1093.62 557.796Z" fill="#2288EE"/>
<path d="M18.3418 394.375L76.4286 478.112" stroke="#113355" stroke-width="3" stroke-miterlimit="10"/>
<path d="M1586.69 776.59L1489.43 809.004" stroke="#113355" stroke-width="3" stroke-miterlimit="10"/>
<path d="M160.176 814.408L60.2131 791.448" stroke="#113355" stroke-width="3" stroke-miterlimit="10"/>
<path d="M265.544 172.874L235.825 270.116" stroke="#113355" stroke-width="3" stroke-miterlimit="10"/>
<path d="M963.94 827.91L896.397 904.894" stroke="#113355" stroke-width="3" stroke-miterlimit="10"/>
<path d="M1284.1 700.956L1253.03 798.198" stroke="#113355" stroke-width="3" stroke-miterlimit="10"/>
<path d="M1575.88 495.67L1488.07 546.992" stroke="#113355" stroke-width="3" stroke-miterlimit="10"/>
<path d="M1332.72 424.087L1240.87 379.518" stroke="#113355" stroke-width="3" stroke-miterlimit="10"/>
<path d="M1611 163.419L1565.07 71.5786" stroke="#113355" stroke-width="3" stroke-miterlimit="10"/>
<path d="M973.401 98.5907L922.068 10.8022" stroke="#113355" stroke-width="3" stroke-miterlimit="10"/>
<path d="M437.107 339L342.547 376.816" stroke="#113355" stroke-width="3" stroke-miterlimit="10"/>
<path d="M460.074 799.553L488.442 896.795" stroke="#113355" stroke-width="3" stroke-miterlimit="10"/>
<path d="M461.422 109.396L416.844 18.9067" stroke="#113355" stroke-width="3" stroke-miterlimit="10"/>
<path d="M1292.65 58.4245L1223.91 158.682L1457.89 319.043L1526.63 218.786L1292.65 58.4245Z" fill="#FFCC00"/>
<path d="M236.897 437.247L147.135 623.389L333.313 713.133L423.075 526.991L236.897 437.247Z" fill="white"/>
<path d="M238.531 438.945L420.896 528.084L331.74 711.764L148.024 622.625L238.531 438.945ZM237.18 434.893L146.673 623.976L335.793 714.465L426.3 525.383L237.18 434.893Z" fill="#113355"/>
<path d="M1121.49 364.938L1032.33 400.284L1094.07 555.967L1183.23 520.622L1121.49 364.938Z" fill="white"/>
<path d="M1120.64 367.359L1181.43 519.976L1094.98 553.741L1034.19 401.124L1120.64 367.359ZM1122 363.308L1030.14 399.774L1093.63 557.793L1185.49 521.327L1122 363.308Z" fill="#113355"/>
<path d="M1324.62 145.861L1425.94 112.097" stroke="#113355" stroke-width="3" stroke-miterlimit="10"/>
</svg>
