<svg width="1452" height="989" viewBox="0 0 1452 989" fill="none" xmlns="http://www.w3.org/2000/svg">
<g clip-path="url(#clip0)">
<path d="M736.445 749.454L710.569 733.55" stroke="#113355" stroke-width="3" stroke-miterlimit="10"/>
<path d="M1081.78 35.7833L1053.91 27.8315" stroke="#113355" stroke-width="3" stroke-miterlimit="10"/>
<path d="M626.978 33.7949L602.098 16.8975" stroke="#113355" stroke-width="3" stroke-miterlimit="10"/>
<path d="M1223.1 912.464L1197.23 896.561" stroke="#113355" stroke-width="3" stroke-miterlimit="10"/>
<path d="M352.3 426.412L326.425 411.503" stroke="#113355" stroke-width="3" stroke-miterlimit="10"/>
<path d="M30.8483 202.77L0.992188 200.782" stroke="#113355" stroke-width="3" stroke-miterlimit="10"/>
<path d="M55.7287 664.966L30.8486 638.128" stroke="#113355" stroke-width="3" stroke-miterlimit="10"/>
<path d="M365.236 957.193L349.312 931.35" stroke="#113355" stroke-width="3" stroke-miterlimit="10"/>
<path d="M1345.51 570.538L1329.59 545.689" stroke="#113355" stroke-width="3" stroke-miterlimit="10"/>
<path d="M1388.31 32.8007L1402.24 6.95752" stroke="#113355" stroke-width="3" stroke-miterlimit="10"/>
<path d="M48.7652 889.603L19.9043 897.555" stroke="#113355" stroke-width="3" stroke-miterlimit="10"/>
<path d="M853.877 158.041L837.954 183.884" stroke="#113355" stroke-width="3" stroke-miterlimit="10"/>
<path d="M511.533 179.907L490.634 201.775" stroke="#113355" stroke-width="3" stroke-miterlimit="10"/>
<path d="M180.132 11.9272L164.209 37.7705" stroke="#113355" stroke-width="3" stroke-miterlimit="10"/>
<path d="M1277.83 117.289L1247.98 120.271" stroke="#113355" stroke-width="3" stroke-miterlimit="10"/>
<path d="M1411.19 291.234L1382.33 281.294" stroke="#113355" stroke-width="3" stroke-miterlimit="10"/>
<path d="M1050.93 792.194L1036 818.037" stroke="#113355" stroke-width="3" stroke-miterlimit="10"/>
<path d="M356.282 733.55L343.345 760.388" stroke="#113355" stroke-width="3" stroke-miterlimit="10"/>
<path d="M1444.04 748.46L1418.16 764.363" stroke="#113355" stroke-width="3" stroke-miterlimit="10"/>
<path d="M994.205 402.558L978.282 427.407" stroke="#113355" stroke-width="3" stroke-miterlimit="10"/>
<path d="M78.6146 429.395L51.7441 444.304" stroke="#113355" stroke-width="3" stroke-miterlimit="10"/>
<path d="M1184.29 196.185C1127.56 185.252 1072.82 221.035 1061.88 277.691C1050.93 334.347 1086.76 389.016 1143.48 399.949C1172.34 405.913 1201.2 398.955 1224.09 383.052C1231.06 378.082 1238.03 372.118 1244 365.16C1254.95 352.239 1262.91 336.335 1265.89 319.438C1277.84 261.787 1241.01 207.119 1184.29 196.185ZM1216.13 308.504C1214.14 317.45 1210.16 325.401 1205.19 332.359C1202.2 336.335 1199.21 339.317 1195.23 341.305C1184.29 349.257 1169.36 353.233 1154.43 350.251C1125.57 344.287 1107.66 316.456 1112.63 288.625C1117.61 260.793 1146.47 241.908 1174.33 246.878C1203.2 251.848 1222.1 279.679 1216.13 308.504Z" fill="#11BB99"/>
<path d="M1085.76 365.159C1096.7 355.219 1109.64 352.238 1123.57 352.238C1139.5 352.238 1154.43 359.195 1170.35 363.171C1194.23 370.129 1226.08 371.123 1241.01 347.268C1246.98 338.322 1248.97 326.394 1244.99 315.461C1241.01 305.521 1231.06 299.557 1221.1 295.581C1209.16 291.605 1197.22 289.618 1185.28 285.642C1172.34 280.672 1161.39 270.732 1154.43 258.804C1143.48 238.925 1143.48 207.118 1165.37 194.196C1166.37 193.202 1165.37 192.208 1164.38 192.208C1145.47 202.148 1141.49 225.009 1145.47 243.895C1150.44 267.75 1169.35 284.648 1192.24 290.611C1204.19 294.587 1216.13 295.581 1227.08 301.545C1239.02 307.509 1245.98 319.437 1243 333.352C1240.01 347.268 1230.06 357.207 1216.13 362.177C1201.2 367.147 1186.27 365.159 1172.34 360.189C1155.42 355.219 1139.5 349.256 1122.58 349.256C1108.65 349.256 1095.71 353.232 1085.76 363.171C1083.77 364.165 1084.76 366.153 1085.76 365.159Z" fill="white"/>
<path d="M1196.23 198.173C1190.26 213.083 1194.24 227.992 1206.18 238.926C1213.15 244.89 1221.11 247.872 1230.07 250.854C1240.02 253.836 1250.96 257.811 1261.91 258.805C1262.91 258.805 1262.91 256.817 1262.91 256.817C1246.98 249.86 1227.08 249.86 1212.15 238.926C1207.18 234.95 1202.2 229.98 1199.21 223.022C1193.24 216.065 1194.24 207.119 1196.23 198.173C1197.22 198.173 1196.23 197.179 1196.23 198.173Z" fill="white"/>
<path d="M1111.63 388.022C1134.52 379.077 1164.38 384.046 1183.29 399.95C1184.28 400.944 1185.28 399.95 1184.28 398.956C1177.32 388.022 1162.39 385.04 1151.44 382.059C1137.51 379.077 1124.57 381.065 1111.63 386.034C1110.64 387.028 1110.64 388.022 1111.63 388.022Z" fill="white"/>
<path d="M1096.7 219.046C1098.69 239.919 1099.69 260.793 1094.71 280.672C1091.73 290.612 1088.74 300.551 1083.77 309.497C1078.79 318.443 1072.82 325.401 1066.85 333.352C1065.85 334.346 1067.84 335.34 1067.84 334.346C1075.8 329.376 1081.78 319.437 1086.75 311.485C1091.73 302.539 1095.71 292.6 1098.69 282.66C1103.67 261.786 1103.67 239.919 1098.69 219.046C1097.7 218.052 1096.7 218.052 1096.7 219.046Z" fill="white"/>
<path d="M1104.67 457.6L1149.46 541.094L1243.01 551.034L1177.32 619.617L1196.23 712.057L1111.64 670.31L1030.03 717.026L1042.97 623.593L973.307 559.979L1065.86 544.076L1104.67 457.6Z" fill="#FFCC00"/>
<path d="M1083.77 504.317C1087.75 506.304 1091.73 507.298 1095.71 508.292C1100.68 509.286 1104.67 510.28 1109.64 512.268C1118.6 514.256 1127.56 517.238 1136.51 518.232C1137.51 518.232 1137.51 517.238 1136.51 517.238C1127.56 513.262 1118.6 512.268 1109.64 510.28C1105.66 509.286 1100.68 508.292 1096.7 507.298C1092.72 505.31 1087.75 503.323 1083.77 504.317C1083.77 503.323 1082.77 504.317 1083.77 504.317Z" fill="white"/>
<path d="M1024.06 560.972C1027.04 562.96 1030.03 562.96 1034.01 563.954C1038.99 564.948 1043.96 565.942 1047.94 566.936C1060.88 569.918 1072.82 572.9 1085.76 575.882C1112.63 581.846 1139.5 588.803 1166.37 594.767C1176.32 596.755 1185.28 599.737 1195.23 600.731C1196.23 600.731 1196.23 599.737 1195.23 599.737C1175.33 592.779 1153.43 588.803 1132.54 583.833C1105.67 577.87 1078.79 571.906 1051.92 564.948C1045.95 563.954 1040.98 561.966 1035.01 560.972C1032.02 561.966 1028.04 560.972 1024.06 560.972Z" fill="white"/>
<path d="M1040.98 631.545C1045.95 634.527 1052.92 634.527 1057.9 636.515C1063.87 638.503 1069.84 639.497 1075.81 641.485C1087.75 644.467 1100.69 647.449 1112.63 650.43C1137.51 656.394 1162.39 663.352 1187.27 668.322C1188.27 668.322 1188.27 667.328 1187.27 667.328C1163.39 659.376 1137.51 654.406 1113.63 648.443C1101.68 645.461 1089.74 642.479 1076.8 639.497C1070.83 638.503 1063.87 636.515 1057.9 635.521C1052.92 633.533 1046.95 630.551 1040.98 631.545C1039.98 630.551 1039.98 631.545 1040.98 631.545Z" fill="white"/>
<path d="M1115.62 478.472C1108.65 503.322 1102.68 528.171 1096.71 553.02C1086.75 592.779 1076.8 631.544 1067.85 671.303C1065.85 680.248 1063.86 690.188 1061.87 698.14C1061.87 699.134 1063.86 700.128 1063.86 699.134C1069.84 675.278 1076.8 649.435 1082.77 624.586C1092.73 584.827 1101.68 546.062 1111.63 506.304C1113.62 497.358 1115.62 488.412 1117.61 479.466C1116.61 478.472 1115.62 478.472 1115.62 478.472Z" fill="white"/>
<path d="M1165.38 543.08C1158.41 565.942 1153.43 588.803 1148.46 611.664C1145.47 623.592 1142.49 634.526 1139.5 646.453C1136.51 657.387 1133.53 669.315 1131.54 681.242C1131.54 682.236 1133.53 683.23 1133.53 682.236C1137.51 671.302 1139.5 659.375 1142.49 648.441C1145.47 636.514 1148.46 625.58 1151.44 613.652C1157.41 590.791 1163.38 567.93 1167.37 544.074C1167.37 542.086 1166.37 542.086 1165.38 543.08Z" fill="white"/>
<path d="M872.789 893.953L852.885 935.7L926.53 1009.25L802.13 961.543L839.948 880.038" fill="#FFCC00"/>
<path d="M847.906 950.608L874.777 943.651" stroke="white" stroke-width="3" stroke-miterlimit="10"/>
<path d="M857.857 960.548L884.728 953.59" stroke="white" stroke-width="3" stroke-miterlimit="10"/>
<path d="M867.811 969.493L894.681 962.535" stroke="white" stroke-width="3" stroke-miterlimit="10"/>
<path d="M600.101 853.199L621 894.946L549.346 969.494L672.751 918.801L633.938 839.284" fill="#FFCC00"/>
<path d="M626.976 909.855L600.105 902.897" stroke="white" stroke-width="3" stroke-miterlimit="10"/>
<path d="M618.019 918.8L590.153 912.837" stroke="white" stroke-width="3" stroke-miterlimit="10"/>
<path d="M608.068 928.741L580.202 921.784" stroke="white" stroke-width="3" stroke-miterlimit="10"/>
<path d="M592.142 875.067L513.521 737.899C495.608 707.086 499.589 667.327 522.478 641.484L603.09 549.045C633.941 513.262 677.73 494.376 723.509 495.37C770.283 497.358 815.068 521.214 842.933 560.972L923.545 673.291C939.468 696.152 944.444 724.977 936.482 751.815L883.737 926.753L793.173 885.007L834.972 735.911L713.557 608.683L614.037 703.11L678.725 833.32L592.142 875.067Z" fill="#113355"/>
<path d="M743.408 639.496C757.341 631.544 776.25 624.586 792.173 632.538C805.111 638.502 813.073 651.423 821.034 662.357C837.953 685.218 858.852 707.086 888.708 710.068C904.631 712.056 923.54 708.08 936.478 697.146C937.473 696.152 936.478 694.164 934.487 695.158C927.521 699.134 920.554 703.11 911.598 705.098C903.636 707.086 894.679 707.086 886.717 706.092C870.794 704.104 856.861 696.152 844.919 685.219C833.972 675.279 826.01 663.351 817.053 651.423C810.087 641.484 801.13 631.544 789.188 627.568C773.264 621.604 755.351 628.562 741.418 637.508C741.418 639.496 742.413 640.49 743.408 639.496Z" fill="white"/>
<path d="M855.866 581.846C846.909 598.743 840.938 620.61 853.875 637.508C859.846 645.46 867.808 649.436 876.765 652.417C887.712 656.393 899.654 659.375 911.597 659.375C912.592 659.375 912.592 657.387 911.597 657.387C893.683 652.417 870.794 651.424 858.851 636.514C845.914 621.604 850.89 598.743 858.851 582.84C858.851 580.852 856.861 579.858 855.866 581.846Z" fill="white"/>
<path d="M810.094 820.398C820.046 828.349 823.031 842.265 822.036 854.193C822.036 868.108 815.07 881.03 809.099 892.957C809.099 893.951 810.094 894.945 811.089 893.951C827.012 874.072 833.979 836.301 811.089 818.41C810.094 819.404 810.094 820.398 810.094 820.398Z" fill="white"/>
<path d="M555.316 812.446C572.235 810.458 590.149 812.446 606.072 818.41C621.995 824.374 635.928 835.307 647.87 848.229C648.865 849.223 649.861 848.229 648.865 847.235C626.971 819.404 590.149 804.494 554.321 811.452C554.321 810.458 554.321 812.446 555.316 812.446Z" fill="white"/>
<path d="M629.955 734.916C620.003 744.856 611.046 759.766 618.013 773.681C620.998 780.639 626.97 784.615 632.941 787.597C640.902 790.579 649.859 793.56 658.816 792.566C659.811 792.566 660.806 790.579 658.816 790.579C645.878 787.597 627.965 786.603 620.998 773.681C613.037 760.759 620.998 745.85 630.95 735.91C631.946 735.91 630.95 733.922 629.955 734.916Z" fill="white"/>
<path d="M655.837 509.287C666.784 515.251 678.727 519.227 690.669 523.202C702.612 527.178 714.554 530.16 726.496 529.166C741.424 528.172 765.309 523.202 767.3 504.317C767.3 503.323 765.309 502.329 765.309 503.323C763.319 507.299 761.328 510.281 758.343 513.263C755.357 516.245 752.372 518.233 748.391 520.221C740.429 524.196 730.477 525.19 721.52 525.19C698.631 524.196 677.731 514.257 656.832 507.299C655.837 507.299 654.842 509.287 655.837 509.287Z" fill="white"/>
<path d="M569.253 586.816C579.205 591.786 591.148 595.762 602.095 597.75C613.042 599.738 623.989 601.726 634.936 600.732C643.893 599.738 652.85 596.756 658.821 588.804C664.792 580.852 662.802 573.895 660.812 564.949C659.816 558.985 659.816 554.015 665.788 551.033C671.759 549.045 677.73 549.045 683.701 550.039C695.644 552.027 706.591 557.991 716.543 563.955C726.495 568.925 735.452 573.895 746.399 575.883C756.351 577.87 766.303 576.876 776.255 574.889C787.202 571.907 798.15 566.937 808.102 560.973C816.063 556.003 823.03 549.045 826.015 539.106C826.015 537.118 824.025 536.124 823.03 538.112C820.044 547.057 813.078 553.021 805.116 557.991C796.159 563.955 786.207 567.931 776.255 570.913C765.308 573.895 754.361 573.895 744.409 571.907C733.461 568.925 724.505 563.955 714.553 558.985C705.596 554.015 695.644 549.045 685.692 547.057C677.73 546.063 666.783 545.069 660.812 550.039C653.845 556.003 657.826 564.949 659.817 571.907C661.807 582.84 655.836 591.786 645.884 594.768C633.941 598.744 620.008 596.756 608.066 594.768C596.124 592.78 584.181 588.804 572.239 584.828C569.253 585.822 568.258 586.816 569.253 586.816Z" fill="white"/>
<path d="M827.004 764.736C841.932 756.784 855.865 747.838 873.778 745.85C881.74 744.856 890.696 745.85 897.663 750.82C905.624 755.79 907.615 764.736 905.625 773.681C903.634 782.627 897.663 789.585 893.682 797.537C889.701 805.488 884.725 813.44 879.749 821.392C872.783 834.313 864.821 849.223 866.812 864.133C868.802 879.042 879.749 891.964 892.687 898.921C893.682 899.915 894.677 897.927 893.682 896.934C880.745 886.994 868.802 874.072 869.797 856.181C870.793 838.289 882.735 821.392 891.692 806.482C895.672 798.531 900.649 790.579 904.629 782.627C907.615 775.669 910.6 768.711 907.615 760.76C903.634 746.844 888.706 741.874 875.768 742.868C866.812 743.862 857.855 746.844 848.898 749.826C840.937 753.802 832.975 757.778 827.004 764.736C825.013 764.736 826.008 765.73 827.004 764.736Z" fill="white"/>
<path d="M528.444 769.707C539.392 774.676 557.305 777.658 565.267 765.731C570.243 758.773 569.248 748.833 566.262 741.875C562.281 731.936 556.31 723.984 552.329 714.044C544.368 695.159 540.387 671.304 554.32 654.406C564.272 641.485 582.185 637.509 597.113 638.503C618.013 639.497 636.921 652.418 652.845 666.334C653.84 667.328 654.835 666.334 653.84 665.34C631.945 641.485 594.128 625.581 564.272 642.478C549.344 651.424 542.377 667.328 542.377 684.225C542.377 694.165 545.363 704.105 549.344 713.05C553.325 721.996 558.3 730.942 562.281 739.888C567.257 749.827 569.248 764.737 556.31 769.707C548.349 772.689 537.401 770.701 529.44 767.719C528.444 767.719 527.449 769.707 528.444 769.707Z" fill="white"/>
<path d="M777.247 345.281C787.199 393.986 754.357 441.696 705.592 451.636C656.827 461.576 609.057 428.775 599.105 380.07" fill="#11BB99"/>
<path d="M229.886 390.009C170.174 386.033 125.39 334.347 129.371 274.709C133.352 215.07 185.102 170.342 244.815 174.318" fill="#FF3366"/>
<path d="M632.946 288.625C632.946 312.48 651.855 330.372 675.74 330.372C696.639 330.372 713.558 315.462 717.538 295.583C717.538 292.601 718.534 290.613 718.534 287.631C718.534 263.776 699.625 245.884 675.74 245.884C663.798 245.884 652.85 250.854 644.889 259.8C636.927 267.752 632.946 277.691 632.946 288.625Z" fill="#FFCC00"/>
<path d="M643.89 259.8C655.832 281.667 678.722 297.571 705.592 296.577C709.573 296.577 712.559 296.577 716.539 295.583C716.539 292.601 717.535 290.613 717.535 287.631C717.535 263.776 698.626 245.884 674.741 245.884C662.799 245.884 651.851 251.848 643.89 259.8Z" fill="#113355"/>
<path d="M692.653 248.865C701.447 248.865 708.576 241.744 708.576 232.961C708.576 224.178 701.447 217.058 692.653 217.058C683.859 217.058 676.729 224.178 676.729 232.961C676.729 241.744 683.859 248.865 692.653 248.865Z" fill="#113355"/>
<path d="M671.757 220.04C697.04 220.04 717.536 199.57 717.536 174.318C717.536 149.066 697.04 128.595 671.757 128.595C646.474 128.595 625.978 149.066 625.978 174.318C625.978 199.57 646.474 220.04 671.757 220.04Z" fill="#113355"/>
<path d="M656.19 302.453C656.369 298.615 654.733 295.42 652.537 295.318C650.341 295.216 648.416 298.246 648.237 302.084C648.059 305.923 649.694 309.117 651.89 309.219C654.087 309.321 656.012 306.291 656.19 302.453Z" fill="#113355"/>
<path d="M670.077 303.627C670.255 299.789 668.62 296.595 666.424 296.493C664.228 296.391 662.303 299.42 662.124 303.258C661.946 307.097 663.581 310.291 665.777 310.393C667.973 310.495 669.898 307.466 670.077 303.627Z" fill="#113355"/>
<path d="M650.857 318.444C650.857 318.444 657.824 317.45 657.824 310.492" stroke="#113355" stroke-width="4" stroke-miterlimit="10"/>
<path d="M567.257 367.147L457.785 315.461L365.231 202.148L358.265 269.738C358.265 269.738 394.092 348.262 418.972 368.141C443.852 388.021 553.324 428.774 553.324 428.774" stroke="#113355" stroke-width="4" stroke-miterlimit="10" stroke-linejoin="bevel"/>
<path d="M559.299 433.744L468.736 513.261L327.417 553.02L345.331 587.809C345.331 587.809 472.717 584.827 501.577 569.918C530.438 555.008 611.05 471.515 611.05 471.515" stroke="#113355" stroke-width="4" stroke-miterlimit="10" stroke-linejoin="bevel"/>
<path d="M802.13 321.425L920.559 290.612L1012.12 208.113L1039.98 248.866C1039.98 248.866 978.281 333.353 950.415 348.263C922.549 364.166 806.111 385.039 806.111 385.039" stroke="#113355" stroke-width="4" stroke-miterlimit="10" stroke-linejoin="bevel"/>
<path d="M240.833 120.644C298.555 105.734 358.267 140.523 373.195 198.173C388.123 255.823 353.291 315.462 295.569 330.371" fill="#FF3366"/>
<path d="M241.832 196.186C213.966 202.149 187.096 207.119 159.23 214.077C155.249 215.071 151.268 216.065 148.283 217.059C147.287 217.059 147.287 219.047 149.278 219.047C159.23 217.059 171.172 215.071 181.124 212.089C198.043 208.113 214.961 204.137 231.88 200.161C235.86 199.167 239.841 198.173 243.822 197.18C243.822 198.173 242.827 196.186 241.832 196.186Z" fill="white"/>
<path d="M135.341 239.919C153.254 241.907 171.168 242.901 189.082 243.895C200.029 244.889 209.981 244.889 220.928 245.883C226.899 245.883 232.871 245.883 238.842 245.883C239.837 245.883 239.837 244.889 238.842 243.895C233.866 243.895 227.895 241.907 221.923 241.907C210.976 240.913 201.024 240.913 190.077 239.919C172.163 238.925 154.25 236.937 135.341 237.931C135.341 238.925 134.346 239.919 135.341 239.919Z" fill="white"/>
<path d="M234.863 306.515C204.011 303.533 173.16 301.546 143.304 299.558C139.323 299.558 134.347 299.558 130.367 299.558C129.371 299.558 129.371 301.546 130.367 301.546C141.314 302.54 154.251 303.533 166.194 304.527C185.103 305.521 204.011 307.509 222.92 308.503C226.901 308.503 231.877 309.497 235.858 309.497C236.853 308.503 236.853 306.515 234.863 306.515Z" fill="white"/>
<path d="M159.23 357.208C168.187 356.214 176.148 354.227 184.11 352.239C198.043 349.257 210.98 346.275 224.913 343.293C226.904 342.299 229.889 342.299 231.88 341.305C232.875 341.305 234.865 340.311 234.865 340.311C236.856 340.311 235.861 337.329 233.87 338.323H231.88C229.889 338.323 227.899 339.317 225.909 339.317C219.937 340.311 213.966 342.299 207.995 343.293C194.062 346.275 181.124 349.257 167.192 352.239C164.206 353.233 161.22 354.226 158.235 354.226C157.24 356.214 157.24 357.208 159.23 357.208Z" fill="white"/>
<path d="M300.546 120.643C297.56 120.643 294.574 121.637 291.589 122.631C285.618 124.619 278.651 125.613 272.68 127.601C266.709 129.589 259.742 131.577 253.771 132.571C251.781 133.565 249.79 133.565 247.8 134.559C246.805 134.559 246.805 134.559 245.809 135.553C245.809 135.553 243.819 136.547 245.809 135.553C244.814 135.553 244.814 138.535 246.805 137.541C245.809 137.541 246.805 137.541 247.8 137.541C248.795 137.541 248.795 137.541 249.79 137.541C251.781 136.547 253.771 136.547 255.761 135.553C261.733 133.565 268.699 131.577 274.67 130.583C280.642 128.595 287.608 126.607 293.579 124.619C296.565 123.625 299.55 123.625 301.541 121.637L300.546 120.643Z" fill="white"/>
<path d="M360.254 167.359C337.364 173.323 314.475 178.293 291.585 183.263C280.638 186.245 270.686 189.227 259.739 191.215C258.743 191.215 258.743 193.203 260.734 193.203C270.686 191.215 282.628 188.233 293.576 186.245C316.465 180.281 339.355 175.311 361.249 168.353C362.244 169.347 361.249 167.359 360.254 167.359Z" fill="white"/>
<path d="M273.676 249.86C284.623 251.847 296.566 252.841 307.513 253.835C318.46 254.829 328.412 255.823 339.359 257.811C347.321 258.805 354.287 259.799 362.249 259.799C365.235 259.799 368.22 259.799 371.206 260.793C372.201 260.793 372.201 259.799 371.206 258.805C368.22 258.805 365.235 257.811 362.249 256.817C355.282 255.823 347.321 254.829 340.354 253.835C330.402 252.841 319.455 251.847 309.503 250.854C297.561 249.86 285.618 247.872 274.671 247.872C273.676 248.866 272.681 249.86 273.676 249.86Z" fill="white"/>
<path d="M328.409 314.467C322.438 313.473 316.466 312.479 309.5 312.479C305.519 312.479 301.538 311.485 296.562 311.485C294.572 311.485 291.586 311.485 290.591 311.485C289.596 311.485 289.596 313.473 290.591 313.473C291.586 313.473 294.572 314.467 296.562 314.467C300.543 315.461 305.519 315.461 309.5 315.461C315.471 316.455 321.442 316.455 328.409 316.455C329.404 316.455 329.404 315.461 328.409 314.467Z" fill="white"/>
<path d="M375.184 251.848C375.184 251.848 349.309 210.101 352.295 204.137C356.275 198.173 382.151 228.986 382.151 228.986" fill="white"/>
<path d="M375.184 251.848C375.184 251.848 349.309 210.101 352.295 204.137C356.275 198.173 382.151 228.986 382.151 228.986" stroke="#113355" stroke-width="4" stroke-miterlimit="10" stroke-linejoin="bevel"/>
<path d="M948.586 148.419L926.482 182.676L1126.42 311.362L1148.53 277.105L948.586 148.419Z" fill="#2288EE"/>
<path d="M1019.08 185.251C1019.08 185.251 992.209 228.986 999.176 232.962C1005.15 236.938 1035 197.179 1035 197.179C1035 197.179 1002.16 236.938 1008.13 243.896C1015.1 250.853 1047.94 203.143 1047.94 203.143C1047.94 203.143 1020.07 243.896 1026.05 249.86C1032.02 255.823 1059.88 214.077 1059.88 214.077" fill="white"/>
<path d="M1019.08 185.251C1019.08 185.251 992.209 228.986 999.176 232.962C1005.15 236.938 1035 197.179 1035 197.179C1035 197.179 1002.16 236.938 1008.13 243.896C1015.1 250.853 1047.94 203.143 1047.94 203.143C1047.94 203.143 1020.07 243.896 1026.05 249.86C1032.02 255.823 1059.88 214.077 1059.88 214.077" stroke="#113355" stroke-width="4" stroke-miterlimit="10" stroke-linejoin="bevel"/>
<path d="M805.116 413.864C810.092 413.864 905.632 496.364 905.632 496.364L1027.05 547.056C1027.05 547.056 1045.96 510.279 1051.93 511.273C1056.9 512.267 1043.96 556.002 1043.96 556.002C1043.96 556.002 1067.85 511.273 1072.83 512.267C1077.8 513.261 1060.88 564.948 1060.88 564.948C1060.88 564.948 1084.77 525.189 1088.75 528.171C1091.73 531.153 1065.86 580.851 1066.85 590.791C1068.84 600.731 1089.74 611.664 1088.75 616.634C1087.75 621.604 910.608 567.93 876.771 549.044C841.939 529.165 757.347 463.563 757.347 463.563" fill="white"/>
<path d="M805.116 413.864C810.092 413.864 905.632 496.364 905.632 496.364L1027.05 547.056C1027.05 547.056 1045.96 510.279 1051.93 511.273C1056.9 512.267 1043.96 556.002 1043.96 556.002C1043.96 556.002 1067.85 511.273 1072.83 512.267C1077.8 513.261 1060.88 564.948 1060.88 564.948C1060.88 564.948 1084.77 525.189 1088.75 528.171C1091.73 531.153 1065.86 580.851 1066.85 590.791C1068.84 600.731 1089.74 611.664 1088.75 616.634C1087.75 621.604 910.608 567.93 876.771 549.044C841.939 529.165 757.347 463.563 757.347 463.563" stroke="#113355" stroke-width="4" stroke-miterlimit="10" stroke-linejoin="bevel"/>
<path d="M408.027 612.66L190.078 472.51L171.169 727.96L408.027 612.66Z" fill="#2288EE"/>
<path d="M178.139 632.538C188.091 635.52 198.043 637.508 208.99 639.495C219.938 641.483 230.885 643.471 240.837 646.453C251.784 648.441 261.736 651.423 271.688 654.405C276.664 655.399 282.635 657.387 287.611 659.375C292.587 661.363 298.559 663.351 304.53 664.345C305.525 664.345 306.52 663.351 305.525 662.357C300.549 660.369 295.573 658.381 290.597 657.387C285.621 655.399 280.645 654.405 275.669 653.411C264.722 650.429 253.774 647.447 242.827 645.459C231.88 642.477 220.933 640.489 210.981 638.502C200.034 636.514 190.081 635.52 179.134 632.538C177.144 631.544 177.144 632.538 178.139 632.538Z" fill="white"/>
<path d="M362.247 634.526C348.314 613.652 324.429 597.749 302.535 585.821C279.645 573.893 254.765 564.948 228.89 560.972C221.924 559.978 214.957 558.984 207.991 557.99C200.029 556.996 191.072 556.002 183.111 557.99C182.115 557.99 182.115 559.978 183.111 559.978C190.077 559.978 197.043 559.978 204.01 560.972C210.976 561.966 217.943 562.96 224.909 563.954C236.852 565.942 248.794 568.923 260.736 572.899C284.621 580.851 307.511 591.785 327.415 605.7C339.357 614.646 351.3 624.586 361.252 636.513C361.252 635.52 363.242 635.52 362.247 634.526Z" fill="white"/>
<path d="M297.562 541.092C280.643 557.99 263.725 573.893 250.787 593.772C237.85 612.658 228.893 634.525 226.903 658.381C225.907 671.302 225.907 687.206 231.879 699.133C232.874 700.127 233.869 699.133 233.869 698.139C231.879 690.188 229.888 682.236 229.888 674.284C229.888 666.332 229.888 658.381 230.883 650.429C232.874 635.519 237.85 621.604 245.811 609.676C259.744 583.833 280.643 564.947 299.552 543.08C298.557 541.092 297.562 540.098 297.562 541.092Z" fill="white"/>
<path d="M186.095 532.147C194.057 527.177 202.018 521.213 210.975 515.249C214.956 512.267 218.937 510.279 223.913 507.298C227.893 505.31 232.869 503.322 235.855 500.34C236.85 499.346 235.855 498.352 234.86 498.352C229.884 499.346 225.903 502.328 221.922 504.316C217.941 507.298 212.965 509.285 208.985 512.267C201.023 517.237 192.066 523.201 185.1 530.159C184.105 532.147 185.1 533.141 186.095 532.147Z" fill="white"/>
<path d="M352.299 569.917C352.299 569.917 302.539 564.947 300.549 557.989C298.558 551.032 338.366 550.038 338.366 550.038" fill="white"/>
<path d="M352.299 569.917C352.299 569.917 302.539 564.947 300.549 557.989C298.558 551.032 338.366 550.038 338.366 550.038" stroke="#113355" stroke-width="4" stroke-miterlimit="10" stroke-linejoin="bevel"/>
</g>
<defs>
<clipPath id="clip0">
<rect width="1452" height="989" fill="white"/>
</clipPath>
</defs>
</svg>
