<svg width="1335" height="929" viewBox="0 0 1335 929" fill="none" xmlns="http://www.w3.org/2000/svg">
<path d="M929.962 732.497L894.979 803.239L965.734 838.216L1000.72 767.474L929.962 732.497Z" fill="#FFCC00"/>
<path d="M950.629 483.801L1053.59 391.158C1068.17 396.305 1082.76 398.878 1096.48 398.878C1116.22 398.878 1133.38 392.874 1146.25 381.722L1172.84 502.672C1153.97 514.682 1135.95 525.833 1120.51 536.127L950.629 483.801Z" fill="white"/>
<path d="M1145.39 384.294L1171.98 501.813C1153.11 512.965 1135.95 524.116 1120.51 534.41L953.201 482.084L1053.58 392.015C1068.17 397.161 1081.9 399.735 1095.62 399.735C1115.36 399.735 1132.52 394.588 1145.39 384.294ZM1147.1 380.005C1134.23 392.015 1116.22 398.019 1096.48 398.019C1082.75 398.019 1068.17 395.446 1053.58 390.299L948.911 484.657L1121.36 538.699C1136.81 527.547 1154.82 516.396 1175.42 504.387L1147.1 380.005Z" fill="#113355"/>
<path d="M1141.96 794.322C1105.92 794.322 1076.75 765.157 1076.75 729.129C1076.75 715.404 1081.04 702.537 1088.76 691.386C1105.92 693.101 1125.66 693.959 1143.67 693.959C1163.41 694.817 1182.28 694.817 1197.73 697.39C1215.74 728.271 1204.59 768.588 1173.7 785.744C1164.26 790.891 1154.83 793.464 1144.53 794.322C1143.67 794.322 1142.82 794.322 1141.96 794.322Z" fill="white"/>
<path d="M1089.62 693.105C1106.78 694.82 1125.65 695.678 1143.67 695.678C1163.4 696.536 1181.42 696.536 1196.86 699.109C1214.02 729.99 1202.87 768.591 1171.98 785.747C1163.4 790.894 1153.96 793.468 1143.67 793.468C1142.81 793.468 1141.95 793.468 1141.1 793.468C1105.92 793.468 1077.61 765.16 1077.61 729.99C1078.46 716.265 1082.75 703.398 1089.62 693.105ZM1088.76 690.531C1067.31 719.697 1073.32 761.729 1102.49 783.174C1113.64 791.752 1127.37 796.041 1141.95 796.041C1142.81 796.041 1143.67 796.041 1144.53 796.041C1181.42 794.325 1209.73 763.444 1208.02 727.417C1208.02 716.265 1204.58 705.972 1199.44 696.536C1168.55 692.247 1124.79 693.962 1088.76 690.531Z" fill="#113355"/>
<path d="M862.256 636.489L807.346 885.251L558.535 830.352L573.979 760.87C663.207 772.022 749.862 778.884 752.436 762.586C756.726 736.852 657.202 696.535 594.57 665.654L612.587 582.447L862.256 636.489Z" fill="#11DD66"/>
<path d="M267.687 357.701C251.385 337.114 218.783 329.393 187.038 322.531C152.719 314.811 120.974 307.09 120.116 284.788C120.116 271.063 128.696 250.475 144.139 228.173C161.299 205.012 181.032 184.425 204.197 168.126L332.893 342.26L267.687 357.701Z" fill="white"/>
<path d="M204.193 169.844L331.172 341.405L267.683 355.987C251.381 335.4 217.92 328.538 186.175 320.818C169.016 316.529 151.857 313.097 139.845 307.093C126.976 301.088 120.97 293.368 120.112 283.932C120.112 270.207 128.691 249.62 144.135 228.175C162.152 205.872 181.886 186.143 204.193 169.844ZM205.051 166.413C156.146 200.725 117.538 255.625 118.396 284.79C119.254 329.396 234.222 315.671 266.825 359.419L335.462 343.978L205.051 166.413Z" fill="#113355"/>
<path d="M505.34 342.261C470.163 342.261 440.992 313.095 440.992 277.925C440.992 255.622 452.146 235.035 471.021 223.884C477.885 253.907 477.027 285.646 477.027 286.503H479.601C479.601 284.788 480.459 248.76 506.198 248.76C518.209 248.76 534.511 278.783 547.38 325.962C536.227 336.256 521.641 342.261 506.198 343.118C507.056 342.261 506.198 342.261 505.34 342.261Z" fill="white"/>
<path d="M471.022 225.601C477.886 255.624 477.028 284.789 477.028 286.505H482.176C482.176 279.642 483.891 273.637 485.607 267.633C489.897 255.624 497.619 249.619 507.915 249.619C519.068 249.619 535.37 279.642 547.381 325.106C536.228 334.541 522.5 340.546 507.915 341.404C507.057 341.404 506.199 341.404 505.341 341.404C470.164 341.404 442.709 313.096 442.709 278.784C442.709 256.481 453.005 236.752 471.022 225.601ZM472.738 221.312C441.851 239.325 431.555 279.642 449.573 310.523C461.584 330.252 483.034 343.119 506.199 343.119C507.057 343.119 507.915 343.119 508.773 343.119C524.216 342.262 539.659 336.257 550.813 325.106C538.801 280.5 521.642 247.046 507.915 247.046C480.46 247.046 479.602 285.647 479.602 285.647C479.602 285.647 479.602 253.05 472.738 221.312Z" fill="#113355"/>
<path d="M116.679 767.731C97.8041 767.731 78.9288 761.726 63.4854 750.575C72.065 728.272 83.2186 710.258 95.2302 696.533C110.674 679.377 129.549 669.084 150.14 666.51C151.856 666.51 154.43 666.51 156.146 666.51C172.447 666.51 188.749 675.946 206.766 694.818C202.476 714.547 192.181 732.561 176.737 745.428C161.294 759.153 141.561 766.873 120.111 767.731C119.253 767.731 117.537 767.731 116.679 767.731Z" fill="white"/>
<path d="M156.149 667.37C171.593 667.37 187.894 675.948 205.054 694.82C200.764 713.692 190.468 731.706 175.883 744.573C160.439 758.297 140.706 766.018 120.115 766.875C119.257 766.875 117.541 766.875 116.683 766.875C97.8076 766.875 79.7902 760.871 65.2048 750.577C73.7845 729.132 84.0801 711.976 96.9496 698.251C112.393 681.095 130.41 670.802 151.002 668.228C151.86 667.37 153.576 667.37 156.149 667.37ZM156.149 664.797C154.434 664.797 151.86 664.797 150.144 665.655C104.671 671.659 78.0743 712.834 62.6309 751.435C78.0743 762.586 97.8076 769.449 117.541 769.449C118.399 769.449 120.115 769.449 120.973 769.449C163.871 767.733 199.906 736.852 208.486 694.82C191.326 676.806 174.167 664.797 156.149 664.797Z" fill="#113355"/>
<path d="M709.538 771.163C679.509 771.163 634.894 767.732 575.694 760.012L596.286 667.369C608.297 673.374 622.025 680.236 635.752 686.241C691.52 712.833 755.01 742.856 751.578 762.585C751.578 765.159 745.572 771.163 709.538 771.163Z" fill="white"/>
<path d="M597.147 669.086C609.159 675.091 622.028 681.095 635.756 687.958C664.069 701.682 694.098 715.407 716.405 729.132C740.428 743.715 752.439 754.866 750.724 762.586C750.724 764.302 746.434 770.307 709.541 770.307C680.37 770.307 635.756 766.875 577.414 759.155L597.147 669.086ZM595.431 664.797L574.84 760.871C625.46 767.733 676.08 772.022 710.399 772.022C736.138 772.022 752.439 769.449 754.155 762.586C756.729 736.852 658.063 696.536 595.431 664.797Z" fill="#113355"/>
<path d="M1199.44 696.532C1167.69 692.243 1124.79 693.959 1088.76 690.528C1110.21 661.363 1152.25 654.5 1181.42 676.803C1189.14 681.95 1195.15 688.812 1199.44 696.532Z" fill="#FFCC00"/>
<path d="M549.959 325.107C537.947 280.502 520.788 247.047 507.061 247.047C479.606 247.047 478.748 286.506 478.748 286.506C478.748 286.506 479.606 253.052 471.884 222.171C502.771 204.157 543.095 214.451 561.113 245.332C577.414 271.066 572.266 304.52 549.959 325.107Z" fill="#FFCC00"/>
<path d="M558.534 126.096C571.328 126.096 581.7 115.726 581.7 102.935C581.7 90.1438 571.328 79.7744 558.534 79.7744C545.741 79.7744 535.369 90.1438 535.369 102.935C535.369 115.726 545.741 126.096 558.534 126.096Z" fill="#5555FF"/>
<path d="M207.628 693.961C189.61 674.231 170.735 662.222 149.286 665.653C103.813 671.658 77.2163 712.832 61.7729 751.434C20.5904 720.553 11.1527 663.08 41.1816 621.048C71.2106 579.015 129.552 570.437 171.593 600.46C200.764 621.905 215.349 658.791 207.628 693.961Z" fill="#FFCC00"/>
<path d="M1147.1 380.003C1124.8 400.591 1088.76 402.306 1053.58 389.439L1133.38 318.242L1147.1 380.003Z" fill="#FFCC00"/>
<path d="M1186.57 558.427L1120.5 537.84C1135.95 526.689 1153.97 515.537 1174.56 503.528L1186.57 558.427Z" fill="#5555FF"/>
<path d="M267.683 358.561L33.457 412.602L132.123 67.7656L205.051 166.413C156.147 200.725 118.396 255.624 118.396 284.79C120.112 329.395 234.222 315.671 267.683 358.561Z" fill="#11DD66"/>
<path d="M950.63 233.321C948.056 256.482 949.772 281.358 961.784 305.376C1002.11 392.015 1115.36 425.469 1154.83 370.569C1201.16 307.092 1164.26 230.748 1207.16 214.449C1250.06 198.151 1369.32 388.583 1196.01 489.804C1061.31 568.722 1019.27 617.617 1022.7 650.213C1027.85 705.112 1152.25 689.672 1212.31 697.392C1313.55 709.401 1316.98 818.342 1232.04 862.948C1102.49 931.572 952.346 794.324 952.346 794.324" stroke="#FF3366" stroke-width="10" stroke-miterlimit="10"/>
<path d="M966.93 168.985C962.641 180.994 958.351 193.861 954.919 205.87" stroke="#FF3366" stroke-width="10" stroke-miterlimit="10"/>
<path d="M842.527 65.1911C889.716 45.4617 936.046 35.168 966.075 50.6085C1002.97 69.4801 990.956 104.65 974.655 147.54" stroke="#FF3366" stroke-width="10" stroke-miterlimit="10"/>
<path d="M429.843 526.689C429.843 526.689 405.819 514.679 371.501 516.395C321.738 519.826 257.391 600.46 236.799 553.281C216.208 506.101 298.573 410.027 269.402 362.848C240.231 315.669 120.116 330.252 118.4 284.788C117.542 238.467 211.918 131.242 291.71 135.531C371.501 138.962 367.211 266.775 367.211 266.775C367.211 266.775 380.938 160.407 431.558 167.269C482.179 174.132 479.605 286.504 479.605 286.504C479.605 286.504 480.463 247.045 507.918 247.045C535.373 247.045 573.981 385.151 568.834 471.789C563.686 558.427 519.071 606.464 550.816 638.203C581.703 669.084 758.445 729.13 753.297 763.442C748.149 797.754 382.654 732.561 382.654 732.561C382.654 732.561 453.866 855.227 386.086 884.392C298.573 919.562 240.231 652.786 149.287 665.653C59.1998 678.52 42.8984 825.204 42.8984 825.204" stroke="#FF3366" stroke-width="10" stroke-miterlimit="10"/>
<path d="M765.306 173.275L755.868 128.669C755.868 128.669 771.311 115.802 765.306 104.651C759.3 93.4996 748.146 101.22 748.146 101.22C748.146 101.22 737.851 85.7794 719.833 88.3528C700.958 90.9262 695.81 114.087 700.958 128.669C707.822 150.115 720.691 157.835 741.283 147.541L747.288 172.417" fill="#FFCC00"/>
<path d="M755.867 97.7876C755.867 97.7876 756.725 77.2004 730.986 73.7692C704.389 70.338 700.957 79.7738 691.519 75.4848C681.223 71.1958 674.36 102.077 702.673 104.65C731.844 107.223 730.128 105.508 730.128 105.508C730.128 105.508 730.986 118.375 738.707 117.517C746.429 116.659 748.145 102.934 748.145 102.934" fill="#113355"/>
<path d="M703.533 126.095L701.817 137.246" stroke="#113355" stroke-width="3" stroke-miterlimit="10"/>
<path d="M708.685 125.238C710.58 125.238 712.117 123.702 712.117 121.807C712.117 119.912 710.58 118.375 708.685 118.375C706.789 118.375 705.253 119.912 705.253 121.807C705.253 123.702 706.789 125.238 708.685 125.238Z" fill="#113355"/>
<path d="M839.952 386.011L796.196 513.823L917.17 632.2L831.373 705.113C831.373 705.113 816.787 683.668 837.379 658.792C837.379 658.792 727.558 589.31 709.541 549.851C685.518 496.667 744.718 302.804 807.35 293.368C873.413 283.074 957.494 439.194 957.494 439.194L1101.63 457.208L1103.35 587.594C1103.35 587.594 1068.17 578.158 1069.03 536.126C1069.03 536.126 950.63 548.993 909.448 515.539C868.265 482.942 780.753 372.286 780.753 372.286" fill="#113355"/>
<path d="M815.928 183.567L797.052 255.623C791.904 274.494 767.881 280.499 754.154 265.916L709.539 217.022C700.102 206.728 700.96 190.43 711.255 180.994C713.829 178.421 716.403 176.705 719.835 175.847L784.183 152.687C802.2 146.682 821.075 164.696 815.928 183.567Z" fill="#2288EE"/>
<path d="M838.237 145.824C838.237 145.824 934.33 135.531 968.649 156.118C990.098 168.985 1042.43 229.889 1042.43 229.889C1042.43 229.889 1066.46 257.339 1062.17 260.77C1056.16 265.059 1034.71 238.467 1034.71 238.467C1034.71 238.467 1066.46 272.779 1060.45 277.068C1055.3 280.499 1026.13 247.045 1026.13 247.045C1026.13 247.045 1054.45 277.068 1048.44 281.357C1042.43 285.646 1015.84 251.334 1015.84 251.334C1015.84 251.334 1026.13 268.49 1020.98 272.779C1016.69 277.068 1002.11 257.339 1002.11 257.339L940.336 206.728L857.971 201.582" stroke="#113355" stroke-width="3" stroke-linejoin="bevel"/>
<path d="M546.526 355.988L869.98 174.991L954.919 326.822L631.465 507.819C622.027 512.965 612.59 516.397 602.294 517.254L436.706 537.842C418.689 540.415 406.677 518.97 418.689 505.245L522.503 375.717C529.367 367.139 537.088 360.277 546.526 355.988Z" fill="#FF3366"/>
<path d="M868.261 174.989L871.693 173.273C888.852 163.837 911.16 169.842 920.597 186.998L970.359 276.209C979.797 293.365 973.791 315.668 956.632 325.104L953.2 326.82C936.041 336.255 913.734 330.251 904.296 313.095L854.534 223.883C845.096 206.727 851.102 185.282 868.261 174.989Z" fill="#FF3366"/>
<path d="M894.004 219.596L895.72 218.738C902.584 214.449 911.163 217.023 915.453 223.885L936.902 261.629C941.192 268.491 938.618 277.069 931.755 281.358L930.039 282.216C923.175 286.505 914.595 283.931 910.305 277.069L888.856 239.326C884.566 232.463 887.14 223.027 894.004 219.596Z" fill="white"/>
<path d="M753.293 189.572C753.293 189.572 834.8 271.063 845.096 296.797C855.391 322.531 823.646 400.591 823.646 400.591C799.623 448.628 733.56 451.201 733.56 451.201L761.015 435.761L781.606 319.958L702.673 241.04" stroke="#113355" stroke-width="3" stroke-miterlimit="10"/>
<path d="M824.506 400.592C800.483 448.629 734.419 451.202 734.419 451.202L761.874 435.762" stroke="white" stroke-width="3" stroke-miterlimit="10"/>
<path d="M1182.03 31.8999L1076.13 98.8027L1143.05 204.68L1248.95 137.777L1182.03 31.8999Z" fill="#11DD66"/>
<path d="M463.3 643.352C456.436 673.375 425.549 692.247 395.52 685.384C365.491 678.522 346.616 648.499 353.48 617.618L463.3 643.352Z" fill="#5555FF"/>
<path d="M753.296 189.572L785.899 223.026" stroke="white" stroke-width="3" stroke-miterlimit="10"/>
</svg>
