<svg width="1357" height="939" viewBox="0 0 1357 939" fill="none" xmlns="http://www.w3.org/2000/svg">
<g clip-path="url(#clip0)">
<path d="M627.873 104.971C627.873 104.971 663.364 127.95 706.683 112.805C745.306 99.749 749.481 96.0933 749.481 96.0933L735.389 139.962C735.389 139.962 683.719 176.519 627.873 148.318" stroke="#113355" stroke-width="3" stroke-miterlimit="10"/>
<path d="M553.238 317.003L656.579 401.607L658.144 567.682L787.581 521.724C787.581 521.724 769.836 506.579 732.258 517.546C732.258 517.546 757.31 379.673 744.262 353.038C731.214 326.926 596.036 185.397 534.449 210.987C469.73 237.099 474.949 431.898 474.949 431.898L353.863 528.513L370.043 601.628L421.713 653.33C421.713 653.33 418.582 616.773 405.012 591.183C405.012 591.183 540.19 532.691 560.023 478.9C579.856 425.108 601.777 272.09 601.777 272.09" fill="#113355"/>
<path d="M520.357 132.129L559.502 189.054C566.808 199.499 581.422 202.632 592.383 194.799C596.036 192.188 599.168 188.532 600.733 184.354L624.742 127.429C629.961 115.417 624.22 101.839 612.216 96.6163C609.084 95.5718 606.475 94.5273 603.343 94.5273H540.19C520.879 95.0496 509.397 116.462 520.357 132.129Z" fill="#2288EE"/>
<path d="M630.482 180.697L670.67 138.395L725.472 126.905L739.564 64.2358L805.327 203.676L789.669 264.256L732.257 271.568L686.328 310.214L630.482 180.697Z" fill="#11BB99"/>
<path d="M789.669 264.256L732.258 271.568L670.671 138.395L725.473 126.905L789.669 264.256Z" fill="#113355"/>
<path d="M349.471 668.61L258.283 865.186L398.405 930.266L489.593 733.69L349.471 668.61Z" fill="#FF3366"/>
<path d="M1175.63 458.645L1066.06 668.882L1149.82 712.591L1259.39 502.354L1175.63 458.645Z" fill="#2288EE"/>
<path d="M784.972 805.305V928.556H719.209V805.305H784.972ZM787.581 802.172H716.6V931.167H787.581V802.172Z" fill="#113355"/>
<path d="M1308.46 415.709H989.566V457.489H1308.46V415.709Z" fill="white"/>
<path d="M1307.42 417.275V456.443H991.132V417.275H1307.42ZM1310.03 414.141H988.522V458.532H1310.03V414.141Z" fill="#113355"/>
<path d="M658.145 573.427C606.474 606.851 659.711 647.064 638.834 674.221C618.479 701.378 599.167 736.89 629.961 765.614C660.754 794.338 713.991 804.783 752.091 802.694C830.379 797.993 896.664 742.635 906.058 682.055C915.453 621.474 883.616 572.905 806.893 555.149C729.648 536.87 692.592 550.971 658.145 573.427Z" fill="#FFCC00"/>
<path d="M113.779 736.368C176.618 736.368 227.558 685.396 227.558 622.518C227.558 559.641 176.618 508.668 113.779 508.668C50.9407 508.668 0 559.641 0 622.518C0 685.396 50.9407 736.368 113.779 736.368Z" fill="#FFCC00"/>
<path d="M1148.23 162.94C1132.57 162.94 1119.52 149.884 1119.52 134.217C1119.52 118.549 1132.57 105.493 1148.23 105.493C1163.89 105.493 1176.94 118.549 1176.94 134.217C1176.94 150.406 1164.41 162.94 1148.23 162.94Z" fill="white"/>
<path d="M1148.23 107.061C1163.37 107.061 1175.37 119.073 1175.37 134.218C1175.37 149.363 1163.37 161.375 1148.23 161.375C1133.1 161.375 1121.09 149.363 1121.09 134.218C1121.09 119.073 1133.1 107.061 1148.23 107.061ZM1148.23 104.45C1131.53 104.45 1117.96 118.028 1117.96 134.74C1117.96 151.452 1131.53 165.03 1148.23 165.03C1164.93 165.03 1178.5 151.452 1178.5 134.74C1178.5 117.506 1164.93 104.45 1148.23 104.45Z" fill="#113355"/>
<path d="M113.78 507.624C83.5084 507.624 58.978 483.601 58.4561 453.833H169.104C168.06 483.601 143.529 507.624 113.78 507.624Z" fill="white"/>
<path d="M167.537 454.878C166.493 484.646 140.919 507.625 111.169 506.58C82.9856 505.536 61.0648 483.079 59.499 454.878H167.537ZM170.147 452.267H56.8894C57.4113 483.601 82.9856 508.669 114.301 508.147C145.094 507.625 170.147 483.079 170.147 452.267Z" fill="#113355"/>
<path d="M1273.49 289.325C1273.49 358.261 1217.65 413.62 1148.75 413.62C1079.86 413.62 1024.53 357.739 1024.53 288.803C1024.53 219.866 1080.38 164.508 1149.27 164.508C1199.9 164.508 1245.31 195.32 1264.62 242.323C1270.36 257.468 1273.49 273.135 1273.49 289.325Z" fill="#FF3366"/>
<path d="M204.594 931.166H22.9644L113.779 736.368L204.594 931.166Z" fill="#2288EE"/>
<path d="M548.542 100.272L568.375 54.3142C568.375 54.3142 554.283 37.6023 563.155 26.1129C572.028 14.6234 582.467 26.1129 582.467 26.1129C582.467 26.1129 596.558 11.4899 615.87 18.2791C635.181 25.0684 636.225 51.1807 628.396 65.8036C616.913 87.2158 601.256 92.9605 581.423 78.3376L569.418 103.928" fill="#FFCC00"/>
<path d="M574.638 20.8896C574.638 20.8896 577.769 -1.56703 606.475 -0.00028611C635.181 1.56646 637.268 12.5336 648.751 10.4447C660.233 8.35567 661.799 43.3462 630.483 39.6905C599.168 36.0348 600.212 34.468 600.212 34.468C600.212 34.468 596.558 48.0464 588.73 45.4352C580.901 42.3017 581.945 27.6788 581.945 27.6788" fill="#113355"/>
<path d="M753.135 96.0933C753.135 96.0933 750.003 142.573 754.701 143.618C758.876 144.662 767.749 111.761 767.749 111.761C767.749 111.761 759.92 150.929 764.617 151.974C768.793 153.018 776.099 124.295 776.099 124.295C776.099 124.295 771.402 155.629 776.099 156.152C780.797 156.674 785.494 123.25 777.665 113.85C772.968 107.583 767.227 102.36 760.964 97.1378" stroke="#113355" stroke-width="3" stroke-miterlimit="10"/>
<path d="M512.529 132.65C512.529 132.65 523.49 192.709 545.41 212.554C567.853 232.4 635.703 245.456 647.707 241.278C659.712 237.1 672.76 226.655 671.716 223.521C670.672 220.388 644.576 229.788 644.576 229.788C644.576 229.788 676.413 214.643 674.325 209.421C671.716 202.631 640.922 218.299 640.922 218.299C640.922 218.299 667.019 202.631 665.975 198.453C663.887 193.231 637.791 203.676 637.791 203.676L582.989 183.308L574.116 153.54" stroke="#113355" stroke-width="3" stroke-miterlimit="10"/>
<path d="M786.538 803.738H718.167V929.6H786.538V803.738Z" fill="white"/>
<path d="M784.972 805.305V928.556H719.209V805.305H784.972ZM787.581 802.172H716.6V931.167H787.581V802.172Z" fill="#113355"/>
<path d="M621.088 60.5811L620.044 72.5927" stroke="#113355" stroke-width="3" stroke-miterlimit="10"/>
<path d="M613.781 58.4921C615.511 58.4921 616.913 57.0892 616.913 55.3586C616.913 53.628 615.511 52.2251 613.781 52.2251C612.052 52.2251 610.65 53.628 610.65 55.3586C610.65 57.0892 612.052 58.4921 613.781 58.4921Z" fill="#113355"/>
<path d="M627.874 62.6693C629.604 62.6693 631.006 61.2664 631.006 59.5358C631.006 57.8052 629.604 56.4023 627.874 56.4023C626.145 56.4023 624.743 57.8052 624.743 59.5358C624.743 61.2664 626.145 62.6693 627.874 62.6693Z" fill="#113355"/>
<path d="M1264.1 242.323C1235.39 253.29 1210.34 254.335 1205.64 243.89C1200.95 234.489 1215.56 217.777 1239.05 203.677C1250.01 215.166 1258.36 228.222 1264.1 242.323Z" fill="white"/>
<path d="M1094.96 253.32C1100.11 248.698 1099.91 240.077 1094.52 234.066C1089.13 228.055 1080.59 226.93 1075.44 231.553C1070.29 236.175 1070.48 244.796 1075.87 250.807C1081.26 256.818 1089.81 257.943 1094.96 253.32Z" fill="white"/>
<path d="M86.908 698.71C93.988 692.354 95.3581 682.328 89.9683 676.317C84.5785 670.306 74.4697 670.586 67.3897 676.942C60.3098 683.298 58.9396 693.324 64.3295 699.335C69.7193 705.346 79.828 705.066 86.908 698.71Z" fill="white"/>
<path d="M1181.63 168.685C1165.45 185.919 1115.87 243.366 1133.09 266.867C1147.19 286.713 1196.25 293.502 1196.25 293.502C1196.25 293.502 1136.23 320.137 1156.58 356.172C1166.5 373.406 1204.6 378.106 1235.39 378.628" stroke="white" stroke-width="2" stroke-linejoin="round"/>
<path d="M4.69678 655.42C38.6218 654.375 73.0687 651.242 75.1564 640.797C78.2879 626.696 38.6218 600.584 38.6218 600.584C38.6218 600.584 117.432 618.862 128.914 595.883C136.743 579.694 68.8933 546.792 41.7533 534.258" stroke="white" stroke-width="2" stroke-linejoin="round"/>
<path d="M1059.5 377.062C1086.64 365.573 1120.05 347.816 1116.92 330.06C1112.74 307.603 1057.42 292.98 1023.49 286.713" stroke="white" stroke-width="2" stroke-miterlimit="10"/>
<path d="M217.643 667.953C195.2 656.986 134.135 629.829 120.043 650.197C109.083 666.386 127.872 703.466 145.617 731.667" stroke="white" stroke-width="2" stroke-miterlimit="10"/>
<path d="M1335.6 898.787C1335.6 909.754 1334.56 920.199 1332.99 931.166H1230.17C1247.92 886.253 1226 835.595 1181.11 817.839C1136.23 800.082 1085.6 822.017 1067.85 866.93C1059.5 887.82 1059.5 910.799 1067.85 931.166H966.08C963.992 920.721 963.47 909.754 963.47 898.787C963.47 795.904 1046.98 712.345 1149.8 712.345C1252.62 712.345 1335.6 795.904 1335.6 898.787Z" fill="#FF3366"/>
<path d="M1273.49 284.102C1259.4 290.891 1241.66 300.814 1240.09 310.214C1239.05 317.526 1252.62 323.271 1267.23 327.971" stroke="white" stroke-width="2" stroke-linejoin="round"/>
<path d="M186.327 535.303C172.757 542.092 156.056 552.015 154.49 560.893C151.88 576.561 221.296 585.961 221.296 585.961" stroke="white" stroke-width="2" stroke-linejoin="round"/>
<path d="M714.754 733.655C717.75 726.156 709.981 715.997 697.4 710.965C684.82 705.933 672.193 707.933 669.197 715.432C666.201 722.932 673.97 733.091 686.551 738.123C699.131 743.155 711.758 741.154 714.754 733.655Z" fill="#113355"/>
<path d="M898.23 749.425C898.23 749.425 832.467 632.442 799.586 644.453C766.705 656.465 779.753 776.06 769.837 777.104C759.92 778.149 744.784 749.425 734.346 752.559C718.166 757.259 704.596 810.528 704.596 810.528" stroke="#113355" stroke-width="2" stroke-miterlimit="10"/>
<path d="M752.091 494.046C752.091 494.046 775.578 613.119 756.789 619.908C743.741 625.13 713.991 592.751 713.991 592.751C713.991 592.751 741.653 661.165 721.298 674.744C703.553 686.233 634.659 582.828 634.659 582.828" stroke="#113355" stroke-width="2" stroke-miterlimit="10"/>
<path d="M625.265 664.299C625.265 664.299 651.883 723.313 614.304 771.36" stroke="#113355" stroke-width="2" stroke-miterlimit="10"/>
<path d="M809.504 540.526C809.504 540.526 800.631 578.65 818.899 601.107C860.652 653.854 941.55 626.697 941.55 626.697" stroke="#113355" stroke-width="2" stroke-miterlimit="10"/>
<path d="M6.26392 931.166H220.774" stroke="#113355" stroke-width="3" stroke-miterlimit="10"/>
<path d="M290.712 931.166H867.959" stroke="#113355" stroke-width="3" stroke-miterlimit="10"/>
<path d="M949.9 931.166H1357" stroke="#113355" stroke-width="3" stroke-miterlimit="10"/>
<path d="M598.646 300.292L587.686 377.585" stroke="white" stroke-width="3" stroke-miterlimit="10"/>
<path d="M541.755 208.376C541.755 208.376 557.413 229.789 627.351 241.278" stroke="white" stroke-width="3" stroke-miterlimit="10"/>
</g>
<defs>
<clipPath id="clip0">
<rect width="1357" height="939" fill="white"/>
</clipPath>
</defs>
</svg>
