<svg width="1562" height="1019" viewBox="0 0 1562 1019" fill="none" xmlns="http://www.w3.org/2000/svg">
<path d="M1248.79 337.841C1247.42 337.841 1246.05 337.841 1246.05 337.841C1240.58 336.473 1237.84 331.002 1240.58 325.531C1241.95 321.427 1246.05 318.692 1250.15 318.692C1251.52 318.692 1252.89 318.692 1252.89 318.692C1255.62 320.06 1256.99 321.427 1258.36 324.163C1259.73 326.899 1259.73 329.634 1258.36 331.002C1255.62 335.105 1252.89 337.841 1248.79 337.841Z" fill="white"/>
<path d="M1248.78 318.691C1250.15 318.691 1250.15 318.691 1251.52 318.691C1254.25 320.058 1255.62 321.426 1256.99 322.794C1258.35 324.162 1258.35 326.897 1256.99 329.633C1255.62 333.736 1252.88 335.104 1248.78 335.104C1247.41 335.104 1247.41 335.104 1246.04 335.104C1241.94 333.736 1239.21 328.265 1240.57 324.162C1241.94 321.426 1244.68 318.691 1248.78 318.691ZM1248.78 317.323C1244.68 317.323 1239.21 320.058 1237.84 325.529C1236.47 331.001 1239.21 337.84 1244.68 339.207C1246.04 339.207 1247.41 339.207 1248.78 339.207C1252.88 339.207 1258.35 336.472 1259.72 331.001C1261.09 325.529 1258.35 318.691 1252.88 317.323C1250.15 317.323 1250.15 317.323 1248.78 317.323Z" fill="#113355"/>
<path d="M1172.19 1017.63C1170.83 1017.63 1169.46 1017.63 1169.46 1017.63C1163.99 1016.26 1161.25 1010.79 1163.99 1005.32C1165.36 1001.22 1169.46 998.483 1173.56 998.483C1174.93 998.483 1176.3 998.483 1176.3 998.483C1179.03 999.851 1180.4 1001.22 1181.77 1003.95C1183.14 1006.69 1183.14 1009.43 1181.77 1010.79C1180.4 1014.9 1176.3 1017.63 1172.19 1017.63Z" fill="white"/>
<path d="M1172.19 998.481C1173.56 998.481 1173.56 998.481 1174.92 998.481C1177.66 999.848 1179.03 1001.22 1180.4 1002.58C1181.76 1003.95 1181.76 1006.69 1180.4 1009.42C1179.03 1013.53 1176.29 1014.89 1172.19 1014.89C1170.82 1014.89 1170.82 1014.89 1169.45 1014.89C1165.35 1013.53 1162.61 1008.06 1163.98 1003.95C1165.35 1001.22 1169.45 998.481 1172.19 998.481ZM1172.19 995.745C1168.09 995.745 1162.61 998.481 1161.25 1003.95C1159.88 1009.42 1162.61 1016.26 1168.09 1017.63C1169.45 1017.63 1170.82 1017.63 1172.19 1017.63C1176.29 1017.63 1181.76 1014.89 1183.13 1009.42C1184.5 1003.95 1181.76 997.113 1176.29 995.745C1174.92 995.745 1173.56 995.745 1172.19 995.745Z" fill="#113355"/>
<path d="M283.13 177.814C279.027 177.814 274.923 175.078 273.556 170.975C272.188 165.503 274.923 160.032 280.394 158.665C281.762 158.665 281.762 158.665 283.13 158.665C287.233 158.665 291.337 161.4 292.704 165.503C294.072 170.975 291.337 176.446 285.866 177.814C284.498 177.814 284.498 177.814 283.13 177.814Z" fill="white"/>
<path d="M283.132 158.663C287.235 158.663 289.971 161.399 291.339 165.502C292.707 169.605 289.971 175.077 285.868 176.444C284.5 176.444 284.5 176.444 283.132 176.444C279.029 176.444 276.293 173.709 274.925 169.605C273.558 165.502 276.293 160.031 280.397 158.663C281.764 160.031 281.764 158.663 283.132 158.663ZM283.132 157.295C281.764 157.295 281.764 157.295 280.397 157.295C274.925 158.663 270.822 165.502 272.19 170.973C273.558 176.444 277.661 179.18 283.132 179.18C284.5 179.18 284.5 179.18 285.868 179.18C291.339 177.812 295.442 170.973 294.074 165.502C292.707 160.031 288.603 157.295 283.132 157.295Z" fill="#113355"/>
<path d="M23.672 612.823L8.44043 618.937L14.5544 634.169L29.7859 628.055L23.672 612.823Z" fill="white"/>
<path d="M21.8889 615.5L27.36 627.81L15.05 633.281L9.57891 620.971L21.8889 615.5ZM23.2567 611.396L5.47559 618.235L13.6822 636.017L30.0956 629.178L23.2567 611.396Z" fill="#113355"/>
<path d="M626.728 14.7884L612.761 23.4087L621.381 37.3765L635.349 28.7562L626.728 14.7884Z" fill="white"/>
<path d="M626.443 16.4124L633.282 27.3547L622.34 34.1936L615.501 23.2514L626.443 16.4124ZM626.443 12.3091L611.397 21.8836L620.972 36.9292L636.017 27.3547L626.443 12.3091Z" fill="#113355"/>
<path d="M1461.89 26.0607L1449.27 36.5522L1459.76 49.1758L1472.38 38.6843L1461.89 26.0607Z" fill="white"/>
<path d="M1460.79 28.721L1469 38.2955L1459.43 46.5022L1451.22 36.9277L1460.79 28.721ZM1460.79 24.6177L1447.12 36.9277L1459.43 50.6056L1473.1 38.2955L1460.79 24.6177Z" fill="#113355"/>
<path d="M1418.35 646.44L1405.72 656.932L1416.22 669.555L1428.84 659.064L1418.35 646.44Z" fill="white"/>
<path d="M1418.39 648.326L1426.59 657.9L1417.02 666.107L1408.81 656.532L1418.39 648.326ZM1418.39 644.222L1404.71 656.532L1417.02 670.21L1430.7 657.9L1418.39 644.222Z" fill="#113355"/>
<path d="M297.451 806.762L283.224 814.948L291.409 829.175L305.636 820.99L297.451 806.762Z" fill="white"/>
<path d="M296.814 808.359L303.653 819.301L292.711 826.14L285.872 815.198L296.814 808.359ZM298.182 804.255L281.769 813.83L291.343 830.243L307.756 820.669L298.182 804.255Z" fill="#113355"/>
<path d="M1038.15 39.6634L1055.93 10.9399" stroke="#113355" stroke-width="3" stroke-miterlimit="10"/>
<path d="M322.802 448.631L350.157 467.78" stroke="#113355" stroke-width="3" stroke-miterlimit="10"/>
<path d="M889.054 646.957L906.835 616.866" stroke="#113355" stroke-width="3" stroke-miterlimit="10"/>
<path d="M90.2803 328.267L124.475 326.899" stroke="#113355" stroke-width="3" stroke-miterlimit="10"/>
<path d="M915.047 228.417L894.53 201.061" stroke="#113355" stroke-width="3" stroke-miterlimit="10"/>
<path d="M65.6631 993.008L58.8242 960.182" stroke="#113355" stroke-width="3" stroke-miterlimit="10"/>
<path d="M1540.12 329.632L1523.71 303.645" stroke="#113355" stroke-width="3" stroke-miterlimit="10"/>
<path d="M753.647 960.18L741.337 931.457" stroke="#113355" stroke-width="3" stroke-miterlimit="10"/>
<path d="M34.2033 57.4436L17.79 30.0879" stroke="#113355" stroke-width="3" stroke-miterlimit="10"/>
<path d="M1549.69 925.987L1523.71 943.768" stroke="#113355" stroke-width="3" stroke-miterlimit="10"/>
<path d="M1360.94 88.9062H1225.53V224.317H1360.94V88.9062Z" fill="#113355"/>
<path d="M1159.87 222.952V91.6445H1282.97C1319.9 91.6445 1348.62 121.736 1348.62 157.298C1348.62 192.861 1318.53 222.952 1282.97 222.952H1159.87Z" fill="white"/>
<path d="M1284.34 93.0096C1319.91 93.0096 1348.63 121.733 1348.63 157.296C1348.63 192.858 1319.91 221.581 1284.34 221.581H1162.61V93.0096H1284.34ZM1284.34 88.9062H1158.51V224.317H1284.34C1321.27 224.317 1352.73 194.226 1352.73 155.928C1351.36 118.998 1321.27 88.9062 1284.34 88.9062Z" fill="#113355"/>
<path d="M995.619 774.63L900.192 934.308L1035.21 1015L1130.64 855.322L995.619 774.63Z" fill="white"/>
<path d="M995.747 778.27L1128.42 857.602L1035.41 1013.53L902.739 934.198L995.747 778.27ZM994.38 772.799L897.268 935.565L1035.41 1017.63L1132.53 854.866L994.38 772.799Z" fill="#113355"/>
<path d="M1209.12 551.218H1377.35L1292.55 410.336L1209.12 551.218Z" fill="#113355"/>
<path d="M994.375 772.8L1132.52 856.235L1133.89 698.939L994.375 772.8Z" fill="#FFCC00"/>
<path d="M1292.56 920.517C1334.11 920.517 1367.79 886.836 1367.79 845.289C1367.79 803.741 1334.11 770.061 1292.56 770.061C1251.01 770.061 1217.33 803.741 1217.33 845.289C1217.33 886.836 1251.01 920.517 1292.56 920.517Z" fill="#113355"/>
<path d="M1096.7 408.784L1067.08 545.117L1250.19 584.899L1279.81 448.566L1096.7 408.784Z" fill="white"/>
<path d="M1098.33 411.706L1277.51 451.372L1248.78 584.047L1069.61 544.381L1098.33 411.706ZM1095.59 406.235L1065.5 547.117L1251.52 588.15L1281.61 448.636L1095.59 406.235Z" fill="#113355"/>
<path d="M983.538 382.742L953.048 523.085L1065.32 547.477L1095.81 407.134L983.538 382.742Z" fill="#FF3366"/>
<path d="M715.351 180.548C712.616 205.168 690.731 222.949 667.479 220.213C645.595 217.478 629.181 201.064 627.813 180.548C627.813 177.812 627.813 175.077 627.813 172.341C630.549 147.721 652.433 129.94 675.686 132.675C687.996 134.043 698.938 140.882 707.144 149.089C713.983 157.295 716.719 168.238 715.351 180.548Z" fill="#FFCC00"/>
<path d="M716.717 131.305C715.349 140.88 707.143 149.086 696.2 147.719C686.626 146.351 679.787 139.512 679.787 131.305C679.787 129.937 679.787 128.57 679.787 127.202C681.155 117.627 689.362 109.421 700.304 110.788C705.775 110.788 709.878 113.524 712.614 117.627C715.349 121.731 716.717 127.202 716.717 131.305Z" fill="#113355"/>
<path d="M686.63 123.103C686.63 129.942 681.159 134.046 674.321 132.678C668.849 132.678 664.746 127.207 664.746 123.103C664.746 121.736 664.746 121.736 664.746 120.368C664.746 113.529 670.217 109.426 677.056 110.793C679.792 110.793 682.527 112.161 685.263 114.897C686.63 117.632 686.63 120.368 686.63 123.103Z" fill="#113355"/>
<path d="M703.047 206.538C703.047 206.538 694.841 203.803 696.208 194.228" stroke="#113355" stroke-width="4" stroke-miterlimit="10"/>
<path d="M708.159 189.695C708.592 185.184 706.505 181.292 703.497 181.004C700.489 180.715 697.7 184.139 697.267 188.65C696.834 193.162 698.922 197.053 701.929 197.342C704.937 197.63 707.726 194.207 708.159 189.695Z" fill="#113355"/>
<path d="M690.126 188.133C690.559 183.621 688.471 179.73 685.464 179.441C682.456 179.153 679.667 182.576 679.234 187.088C678.801 191.599 680.888 195.491 683.896 195.779C686.904 196.068 689.693 192.645 690.126 188.133Z" fill="#113355"/>
<path d="M644.224 173.707C642.856 181.914 636.017 188.753 626.443 188.753C618.236 187.385 612.765 181.914 611.397 173.707C611.397 172.34 611.397 172.34 611.397 170.972C612.765 162.765 619.604 155.926 629.179 155.926C633.282 155.926 637.385 158.662 640.121 162.765C642.856 164.133 644.224 168.236 644.224 173.707Z" fill="#FFCC00"/>
<path d="M704.416 147.722C704.416 147.722 688.003 155.929 659.28 147.722L656.544 173.71L640.131 168.239C640.131 168.239 637.395 151.826 622.35 155.929C622.35 155.929 623.717 125.838 642.866 121.734C672.957 114.895 698.945 131.309 704.416 147.722Z" fill="#113355"/>
<path d="M254.413 558.058L169.611 521.127L124.475 694.836L202.438 574.471L259.884 597.723" fill="#113355"/>
<path d="M175.085 588.148L191.498 615.504" stroke="white" stroke-width="4" stroke-miterlimit="10"/>
<path d="M168.246 601.826L184.659 629.181" stroke="white" stroke-width="4" stroke-miterlimit="10"/>
<path d="M181.924 575.839L198.337 603.195" stroke="white" stroke-width="4" stroke-miterlimit="10"/>
<path d="M422.645 800.155L337.843 834.349L426.748 984.806L398.025 846.659L454.104 823.407" fill="#113355"/>
<path d="M388.453 876.752L418.544 884.959" stroke="white" stroke-width="4" stroke-miterlimit="10"/>
<path d="M392.554 890.43L422.645 898.636" stroke="white" stroke-width="4" stroke-miterlimit="10"/>
<path d="M384.352 863.074L414.443 871.281" stroke="white" stroke-width="4" stroke-miterlimit="10"/>
<path d="M532.076 377.509C439.067 393.923 411.712 585.413 411.712 585.413L266.728 534.804C266.728 534.804 233.901 534.804 220.223 589.516C209.281 631.917 235.269 651.066 235.269 651.066L400.77 707.145C444.538 719.456 486.939 705.778 504.721 663.376C529.341 605.929 556.696 552.586 556.696 552.586L596.362 701.674L421.286 778.27C421.286 778.27 407.608 809.729 424.022 842.556C443.171 880.854 484.204 875.383 484.204 875.383L671.589 793.316C711.255 775.535 733.139 731.766 723.565 689.364C704.416 607.297 671.589 488.3 653.808 444.531C633.291 391.187 578.58 369.302 532.076 377.509Z" fill="#FF3366"/>
<path d="M578.581 380.246C579.949 388.453 579.949 395.291 578.581 403.498C577.213 413.073 571.742 422.647 564.903 429.486C551.226 443.164 533.445 450.003 518.399 459.577C503.354 467.784 489.676 480.094 482.837 496.508C475.998 514.289 484.205 529.334 495.147 543.012C501.986 551.219 510.192 559.426 517.031 569C523.87 578.575 529.341 589.517 534.812 599.091C536.18 600.459 538.916 599.092 537.548 597.724C532.077 578.575 519.767 562.161 506.089 548.483C493.779 534.806 480.101 518.392 488.308 497.875C495.147 480.094 511.56 469.152 526.606 459.577C541.651 451.371 558.065 443.164 570.375 429.486C577.213 422.647 581.317 413.073 582.684 403.498C584.052 395.291 582.684 387.085 581.317 378.878C579.949 377.51 578.581 378.878 578.581 380.246Z" fill="#113355"/>
<path d="M655.177 448.635C649.706 462.313 640.132 473.255 633.293 486.933C627.822 499.243 623.719 511.553 625.086 525.231C626.454 551.219 640.132 575.839 662.016 590.884C672.959 597.723 688.004 601.827 701.682 599.091C703.05 599.091 703.05 596.356 701.682 596.356C689.372 596.356 678.43 594.988 667.487 588.149C656.545 582.678 648.339 573.103 641.5 562.161C627.822 540.276 625.086 511.553 637.396 488.301C644.235 475.99 652.442 463.68 657.913 450.003C657.913 447.267 656.545 447.267 655.177 448.635Z" fill="#113355"/>
<path d="M570.371 593.62C593.624 590.885 618.244 597.723 636.025 614.137C651.07 627.815 663.38 651.067 660.645 671.584C659.277 683.894 651.07 692.101 641.496 700.307C633.289 707.146 623.715 713.985 615.508 720.824C599.095 734.502 584.049 749.548 574.475 768.697C564.9 787.846 562.165 815.201 574.475 834.35C575.843 835.718 578.578 834.35 577.21 832.983C569.004 811.098 569.004 786.478 581.314 765.961C592.256 745.444 610.037 730.399 627.818 716.721C636.025 709.882 646.967 703.043 653.806 694.836C662.013 686.629 664.748 677.055 664.748 666.113C663.38 645.596 653.806 625.079 638.76 611.401C619.611 593.62 593.624 586.781 569.004 590.885C567.636 590.885 567.636 593.62 570.371 593.62Z" fill="#113355"/>
<path d="M719.462 668.846C697.577 674.317 685.267 696.201 679.796 716.718C674.325 738.603 674.325 764.591 683.9 785.107C685.267 786.475 686.635 785.107 686.635 783.74C685.267 772.797 682.532 763.223 681.164 752.281C681.164 741.338 681.164 730.396 683.9 720.822C688.003 701.673 698.945 677.052 720.83 671.581C722.197 671.581 720.83 668.846 719.462 668.846Z" fill="#113355"/>
<path d="M527.968 730.399C537.543 760.49 529.336 794.685 506.084 815.202C495.142 824.776 481.464 831.615 467.786 832.983C451.373 835.719 434.96 831.615 421.282 824.776C419.914 823.409 418.546 826.144 419.914 827.512C443.166 841.19 469.154 842.558 492.406 831.615C514.291 820.673 530.704 798.788 534.807 774.168C537.543 759.123 536.175 744.077 530.704 730.399C529.336 727.664 526.601 729.031 527.968 730.399Z" fill="#113355"/>
<path d="M426.75 519.756C440.428 527.963 448.635 543.008 455.474 556.686C460.945 570.364 466.416 585.41 466.416 600.455C467.784 618.237 462.313 636.018 447.267 646.96C433.589 657.902 414.44 663.374 396.659 667.477C381.614 670.212 359.729 672.948 352.891 689.362C351.523 692.097 355.626 693.465 356.994 690.729C361.097 683.89 367.936 679.787 376.143 677.051C385.717 674.316 395.292 671.58 403.498 670.212C421.279 666.109 439.06 660.638 452.738 648.328C478.726 625.076 471.887 585.41 459.577 556.686C452.738 540.273 441.796 525.227 426.75 517.021C426.75 517.021 425.383 519.756 426.75 519.756Z" fill="#113355"/>
<path d="M373.41 573.104C372.043 586.782 363.836 599.092 354.261 608.666C341.952 619.608 325.538 619.608 311.86 612.769C298.183 605.931 285.873 593.62 276.298 582.678C265.356 570.368 257.149 556.69 247.575 543.012C247.575 541.645 244.839 543.012 246.207 544.38C251.678 556.69 258.517 569 268.092 579.943C276.298 590.885 285.873 600.459 296.815 608.666C307.757 616.873 320.067 623.712 332.377 622.344C344.687 622.344 355.629 615.505 362.468 607.298C366.571 601.827 370.675 596.356 373.41 590.885C376.146 585.414 376.146 579.943 376.146 574.471C376.146 571.736 373.41 571.736 373.41 573.104Z" fill="#113355"/>
<path d="M280.399 664.742C273.56 652.431 263.985 642.857 253.043 634.65C247.572 630.547 243.469 626.444 237.998 622.34C232.527 618.237 225.688 614.133 220.217 612.766C218.849 612.766 217.481 614.133 218.849 615.501C224.32 619.605 229.791 622.34 235.262 626.443C240.733 630.547 246.204 634.65 251.675 638.754C261.25 645.593 270.824 656.535 280.399 664.742C281.766 664.742 280.399 664.742 280.399 664.742Z" fill="#113355"/>
<path d="M555.324 559.424L582.68 499.242" stroke="white" stroke-width="4" stroke-miterlimit="10"/>
<path d="M688.003 177.812L677.061 183.284" stroke="#113355" stroke-width="4" stroke-miterlimit="10"/>
<path d="M700.304 162.766L711.246 166.869" stroke="#113355" stroke-width="4" stroke-miterlimit="10"/>
<path d="M748.18 283.134L1009.43 391.189C1009.43 391.189 1034.05 387.086 1042.25 388.454C1055.93 388.454 1091.49 398.028 1095.6 400.764C1101.07 404.867 1101.07 408.971 1101.07 408.971L1058.67 403.499C1058.67 403.499 1044.99 421.281 1047.72 426.752C1050.46 436.326 1076.45 432.223 1076.45 441.797C1076.45 450.004 1050.46 454.107 995.748 445.901C950.611 437.694 726.296 355.627 726.296 355.627" fill="white"/>
<path d="M748.18 283.134L1009.43 391.189C1009.43 391.189 1034.05 387.086 1042.25 388.454C1055.93 388.454 1091.49 398.028 1095.6 400.764C1101.07 404.867 1101.07 408.971 1101.07 408.971L1058.67 403.499C1058.67 403.499 1044.99 421.281 1047.72 426.752C1050.46 436.326 1076.45 432.223 1076.45 441.797C1076.45 450.004 1050.46 454.107 995.748 445.901C950.611 437.694 726.296 355.627 726.296 355.627" stroke="#113355" stroke-width="3" stroke-miterlimit="10" stroke-linejoin="bevel"/>
<path d="M555.33 221.583L512.929 175.078L626.454 168.239C633.293 168.239 638.764 162.768 640.132 155.929C641.5 150.458 642.868 143.619 648.339 136.78C652.442 131.309 657.913 127.205 663.384 124.47C667.488 123.102 666.12 117.631 662.017 117.631C657.913 117.631 653.81 117.631 649.707 117.631C629.19 117.631 618.248 129.941 618.248 129.941C618.248 129.941 432.23 109.424 424.024 147.722C414.449 191.491 512.929 283.133 512.929 283.133" fill="white"/>
<path d="M555.33 221.583L512.929 175.078L626.454 168.239C633.293 168.239 638.764 162.768 640.132 155.929C641.5 150.458 642.868 143.619 648.339 136.78C652.442 131.309 657.913 127.205 663.384 124.47C667.488 123.102 666.12 117.631 662.017 117.631C657.913 117.631 653.81 117.631 649.707 117.631C629.19 117.631 618.248 129.941 618.248 129.941C618.248 129.941 432.23 109.424 424.024 147.722C414.449 191.491 512.929 283.133 512.929 283.133" stroke="#113355" stroke-width="3" stroke-miterlimit="10" stroke-linejoin="bevel"/>
<path d="M735.872 320.063C727.665 346.051 700.31 361.096 674.322 352.89L567.635 320.063C541.648 311.856 526.602 284.5 534.809 258.513C543.015 232.525 570.371 217.479 596.359 225.686L703.045 258.513C729.033 265.351 744.078 294.075 735.872 320.063Z" fill="#113355"/>
<path d="M1158.51 225.685C1196.28 225.685 1226.9 195.066 1226.9 157.296C1226.9 119.525 1196.28 88.9062 1158.51 88.9062C1120.74 88.9062 1090.12 119.525 1090.12 157.296C1090.12 195.066 1120.74 225.685 1158.51 225.685Z" fill="#2288EE"/>
<path d="M642.856 117.631C642.856 117.631 631.914 120.366 625.075 134.044L642.856 117.631Z" fill="white"/>
<path d="M642.856 117.631C642.856 117.631 631.914 120.366 625.075 134.044" stroke="#113355" stroke-width="3" stroke-miterlimit="10" stroke-linejoin="bevel"/>
<path d="M659.278 116.262C659.278 116.262 641.497 116.262 633.29 135.411L659.278 116.262Z" fill="white"/>
<path d="M659.278 116.262C659.278 116.262 641.497 116.262 633.29 135.411" stroke="#113355" stroke-width="3" stroke-miterlimit="10" stroke-linejoin="bevel"/>
</svg>
