<svg width="1689" height="1131" viewBox="0 0 1689 1131" fill="none" xmlns="http://www.w3.org/2000/svg">
<g clip-path="url(#clip0)">
<path d="M834.586 907.973C892.076 907.973 937.671 954.561 937.671 1011.06C937.671 1068.55 891.085 1114.15 834.586 1114.15C777.097 1114.15 731.502 1067.56 731.502 1011.06C731.502 953.57 778.088 907.973 834.586 907.973Z" fill="#0D83C6"/>
<path d="M731.502 1024.94C764.211 1036.83 799.895 1046.75 811.789 1035.84C836.569 1015.03 780.071 941.675 788.991 937.71C797.912 932.754 821.701 945.64 829.63 939.692C835.578 934.736 833.595 920.859 828.639 907.973" stroke="white" stroke-width="2" stroke-miterlimit="10"/>
<path d="M920.824 952.577C894.061 948.612 865.317 946.63 858.378 959.516C850.449 974.384 894.061 1020.97 928.753 1053.68" stroke="white" stroke-width="2" stroke-miterlimit="10"/>
<path d="M964.433 325.124C964.433 325.124 995.16 329.089 1018.95 315.212C1042.74 302.326 1048.68 276.554 1048.68 276.554" stroke="#113355" stroke-width="3" stroke-miterlimit="10"/>
<path d="M602.646 195.273C602.646 195.273 677.977 194.282 715.643 230.958" stroke="#113355" stroke-width="3" stroke-miterlimit="10"/>
<path d="M131.828 1116.13H356.829C356.829 1116.13 322.137 1082.43 301.322 1078.46C301.322 1078.46 435.134 901.033 453.967 824.708C466.852 774.155 461.896 724.593 461.896 724.593L482.711 809.839L397.468 1115.14H616.523C616.523 1115.14 575.884 1086.39 557.051 1082.43C557.051 1082.43 645.268 857.419 641.303 801.91C636.347 746.4 633.373 519.407 550.113 437.135C491.632 378.652 388.548 370.722 327.093 461.916C270.595 545.179 290.419 791.006 290.419 791.006L131.828 1116.13Z" fill="#113355"/>
<path d="M455.951 560.048L465.863 821.735" stroke="white" stroke-width="3" stroke-miterlimit="10"/>
<path d="M593.731 66.4124C593.731 66.4124 633.379 107.053 629.414 145.711C625.449 184.369 573.907 206.177 573.907 206.177L469.831 133.816L593.731 66.4124Z" fill="#113355"/>
<path d="M336.014 314.221C334.032 229.966 400.442 160.58 484.694 158.597C568.946 156.615 638.33 223.028 640.312 307.283L336.014 314.221Z" fill="#FF3366"/>
<path d="M481.723 185.36L495.6 88.2194C495.6 88.2194 467.846 67.4034 476.767 45.5962C485.688 23.789 507.494 38.6576 507.494 38.6576C507.494 38.6576 523.354 9.91173 557.054 13.8767C590.755 17.8416 600.667 58.4823 593.729 83.2632C582.825 120.93 563.993 136.79 527.318 120.93L522.362 174.457" fill="#FFCC00"/>
<path d="M570.926 79.2988L574.891 97.1411" stroke="#113355" stroke-width="3" stroke-miterlimit="10"/>
<path d="M485.691 158.598C522.365 154.633 523.356 36.6759 523.356 36.6759C554.083 62.448 594.722 60.4655 594.722 60.4655C594.722 60.4655 594.722 3.9651 534.259 0.000157177C473.796 -3.96479 453.972 31.7197 453.972 31.7197C453.972 31.7197 387.562 35.6847 377.65 87.2289C367.738 138.773 416.307 182.388 416.307 182.388C416.307 182.388 455.955 161.572 485.691 158.598Z" fill="#113355"/>
<path d="M586.368 80.745C587.855 77.2133 587.425 73.6612 585.407 72.8111C583.389 71.9611 580.547 74.1349 579.06 77.6666C577.572 81.1983 578.002 84.7504 580.02 85.6005C582.038 86.4505 584.88 84.2767 586.368 80.745Z" fill="#113355"/>
<path d="M564.966 76.1352C566.453 72.6035 566.023 69.0514 564.005 68.2013C561.987 67.3512 559.145 69.5251 557.658 73.0568C556.17 76.5885 556.6 80.1405 558.618 80.9906C560.636 81.8407 563.478 79.6668 564.966 76.1352Z" fill="#113355"/>
<path d="M495.599 251.773L815.755 420.283L1228.09 171.483L906.945 1.98193" fill="#113355"/>
<path d="M908.931 364.774L496.593 614.566L494.611 251.773L905.958 1.98193L908.931 364.774Z" fill="#11BB99"/>
<path d="M972.365 327.109C970.382 328.1 929.743 309.266 934.699 301.337C940.647 292.415 992.189 313.231 992.189 313.231C992.189 313.231 939.655 287.459 948.576 278.538C957.497 269.617 1022.92 298.363 1022.92 298.363C1022.92 298.363 991.198 280.521 998.136 273.582C1005.07 266.643 1048.69 278.538 1048.69 278.538" stroke="white" stroke-width="3" stroke-linejoin="bevel"/>
<path d="M961.462 702.785H758.266V905.988H961.462V702.785Z" fill="white"/>
<path d="M959.477 703.777V904.007H760.246V703.777H959.477ZM963.442 700.803H756.282V907.972H963.442V700.803Z" fill="#113355"/>
<path d="M1609.7 907.973H1619.62V1115.14H1412.46V1105.23C1413.45 995.202 1501.66 907.973 1609.7 907.973Z" fill="#113355"/>
<path d="M1685.04 700.803H1270.72V907.972H1685.04V700.803Z" fill="#0D83C6"/>
<path d="M1049.68 703.777C1106.17 694.856 1159.7 732.523 1168.62 789.023L1202.32 993.218C1211.24 1049.72 1173.58 1103.25 1117.08 1112.17C1060.58 1121.09 1007.05 1083.42 998.134 1026.92L964.433 822.725C955.512 766.225 993.178 712.698 1049.68 703.777Z" fill="#FFCC00"/>
<path d="M860.357 702.785V907.971" stroke="#113355" stroke-width="3" stroke-miterlimit="10"/>
<path d="M759.253 804.883H961.458" stroke="#113355" stroke-width="3" stroke-miterlimit="10"/>
<path d="M773.132 447.047C746.37 403.432 717.625 349.906 731.502 337.02C747.361 321.16 809.806 343.958 809.806 343.958C809.806 343.958 729.52 270.607 751.326 236.905C770.159 208.159 906.944 289.44 906.944 289.44" stroke="white" stroke-width="3" stroke-linejoin="round"/>
<path d="M496.586 355.853C547.137 380.634 621.477 410.371 644.275 385.59C678.967 347.923 604.627 227.984 617.512 220.054C630.398 211.133 663.108 230.957 674.011 220.054C685.905 209.15 676.984 171.483 669.055 145.711" stroke="white" stroke-width="3" stroke-miterlimit="10"/>
<path d="M424.232 196.265C456.942 208.16 577.868 349.907 577.868 349.907L758.266 425.241C764.213 421.276 797.914 403.433 812.782 413.346C817.738 417.311 797.914 427.223 783.046 444.074C777.098 451.013 776.107 461.916 752.319 476.785C718.618 497.601 699.785 491.653 699.785 491.653C699.785 491.653 523.352 448.039 490.642 431.188C457.933 414.337 376.655 312.24 376.655 312.24" stroke="#113355" stroke-width="3" stroke-linejoin="bevel"/>
<path d="M450.995 397.486C450.995 397.486 473.792 423.259 494.607 433.171" stroke="white" stroke-width="3" stroke-miterlimit="10"/>
<path d="M753.31 97.1406C777.099 136.79 816.747 195.273 846.483 189.325C876.219 183.378 886.131 83.2633 890.095 11.8943" stroke="white" stroke-width="3" stroke-miterlimit="10"/>
<path d="M496.586 518.416C496.586 518.416 555.067 468.855 673.02 507.513" stroke="white" stroke-width="3" stroke-miterlimit="10"/>
<path d="M1460.03 698.821C1446.16 726.576 1439.22 750.366 1448.14 761.269C1475.89 792.989 1573.03 717.655 1579.97 722.611C1586.9 727.567 1511.57 845.524 1541.31 866.34C1557.17 877.244 1623.58 846.515 1683.05 814.796" stroke="white" stroke-width="2" stroke-miterlimit="10"/>
<path d="M1376.77 699.813C1363.89 726.577 1334.15 768.208 1271.7 803.893" stroke="white" stroke-width="2" stroke-miterlimit="10"/>
<path d="M1437.24 907.972C1453.1 884.183 1462.02 860.393 1454.09 847.507C1439.22 824.708 1338.12 855.437 1270.72 879.226" stroke="white" stroke-width="2" stroke-miterlimit="10"/>
<path d="M1413.45 907.973H1206.29V1115.14H1413.45V907.973Z" fill="#FF3366"/>
<path d="M1379.75 1025.93C1387.96 1025.93 1394.62 1019.27 1394.62 1011.06C1394.62 1002.85 1387.96 996.192 1379.75 996.192C1371.54 996.192 1364.88 1002.85 1364.88 1011.06C1364.88 1019.27 1371.54 1025.93 1379.75 1025.93Z" fill="#FFCC00"/>
<path d="M911.898 1082.43C910.906 1082.43 870.267 1044.76 784.033 1101.26" stroke="white" stroke-width="2" stroke-miterlimit="10"/>
<path d="M0 1116.13H1674.13" stroke="#113355" stroke-width="3" stroke-miterlimit="10"/>
</g>
<defs>
<clipPath id="clip0">
<rect width="1689" height="1131" fill="white"/>
</clipPath>
</defs>
</svg>
