<svg width="1681" height="1093" viewBox="0 0 1681 1093" fill="none" xmlns="http://www.w3.org/2000/svg">
<path d="M434.074 900.674L285.738 913.032L298.094 1061.39L446.43 1049.03L434.074 900.674Z" fill="#11BB99"/>
<path d="M950.025 1051.85L1077.1 913.859L1121.88 1093L950.025 1051.85Z" fill="#FFCC00"/>
<path d="M447.78 194.875C482.537 194.875 510.712 166.696 510.712 131.934C510.712 97.1725 482.537 68.9927 447.78 68.9927C413.024 68.9927 384.849 97.1725 384.849 131.934C384.849 166.696 413.024 194.875 447.78 194.875Z" fill="#11BB99"/>
<path d="M1201.75 482.952C1234.5 482.952 1261.05 456.398 1261.05 423.642C1261.05 390.886 1234.5 364.332 1201.75 364.332C1169 364.332 1142.45 390.886 1142.45 423.642C1142.45 456.398 1169 482.952 1201.75 482.952Z" fill="#11BB99"/>
<path d="M33.884 687.513C43.9099 687.513 52.0374 679.384 52.0374 669.357C52.0374 659.33 43.9099 651.201 33.884 651.201C23.8582 651.201 15.7307 659.33 15.7307 669.357C15.7307 679.384 23.8582 687.513 33.884 687.513Z" fill="#FF3366"/>
<path d="M1205.38 636.674C1215.41 636.674 1223.54 628.545 1223.54 618.517C1223.54 608.49 1215.41 600.361 1205.38 600.361C1195.36 600.361 1187.23 608.49 1187.23 618.517C1187.23 628.545 1195.36 636.674 1205.38 636.674Z" fill="#FFCC00"/>
<path d="M390.9 821.867C400.926 821.867 409.053 813.738 409.053 803.711C409.053 793.683 400.926 785.555 390.9 785.555C380.874 785.555 372.747 793.683 372.747 803.711C372.747 813.738 380.874 821.867 390.9 821.867Z" fill="#11BB99"/>
<path d="M1075.89 176.719C1083.91 176.719 1090.41 170.216 1090.41 162.194C1090.41 154.172 1083.91 147.669 1075.89 147.669C1067.86 147.669 1061.36 154.172 1061.36 162.194C1061.36 170.216 1067.86 176.719 1075.89 176.719Z" fill="#11BB99"/>
<path d="M608.743 254.184C616.764 254.184 623.266 247.681 623.266 239.659C623.266 231.638 616.764 225.135 608.743 225.135C600.723 225.135 594.221 231.638 594.221 239.659C594.221 247.681 600.723 254.184 608.743 254.184Z" fill="#FF3366"/>
<path d="M260.196 395.805C268.216 395.805 274.718 389.301 274.718 381.28C274.718 373.258 268.216 366.755 260.196 366.755C252.175 366.755 245.673 373.258 245.673 381.28C245.673 389.301 252.175 395.805 260.196 395.805Z" fill="#FFCC00"/>
<path d="M1270.73 1027.64C1278.75 1027.64 1285.25 1021.13 1285.25 1013.11C1285.25 1005.09 1278.75 998.588 1270.73 998.588C1262.71 998.588 1256.21 1005.09 1256.21 1013.11C1256.21 1021.13 1262.71 1027.64 1270.73 1027.64Z" fill="#FF3366"/>
<path d="M876.198 932.014C884.219 932.014 890.721 925.511 890.721 917.489C890.721 909.467 884.219 902.964 876.198 902.964C868.178 902.964 861.676 909.467 861.676 917.489C861.676 925.511 868.178 932.014 876.198 932.014Z" fill="#FF3366"/>
<path d="M1615.65 482.953C1623.67 482.953 1630.17 476.45 1630.17 468.428C1630.17 460.407 1623.67 453.904 1615.65 453.904C1607.63 453.904 1601.12 460.407 1601.12 468.428C1601.12 476.45 1607.63 482.953 1615.65 482.953Z" fill="#11BB99"/>
<path d="M1177.55 49.626C1185.57 49.626 1192.07 43.123 1192.07 35.1011C1192.07 27.0792 1185.57 20.5762 1177.55 20.5762C1169.53 20.5762 1163.03 27.0792 1163.03 35.1011C1163.03 43.123 1169.53 49.626 1177.55 49.626Z" fill="#FFCC00"/>
<path d="M1391.75 449.06L1481.31 548.314L1346.98 571.311L1391.75 449.06Z" fill="white"/>
<path d="M1392.96 451.482L1478.89 547.104L1349.4 570.102L1392.96 451.482ZM1391.75 446.64L1345.76 573.733L1484.94 549.525L1391.75 446.64Z" fill="#113355"/>
<path d="M203.319 288.076L66.5634 200.926L61.7225 358.28L203.319 288.076Z" fill="#FFCC00"/>
<path d="M1307.04 705.669L1217.49 748.034" stroke="#113355" stroke-width="3" stroke-miterlimit="10"/>
<path d="M888.303 668.146L858.047 762.557" stroke="#113355" stroke-width="3" stroke-miterlimit="10"/>
<path d="M1169.08 331.651L1200.54 426.063" stroke="#113355" stroke-width="3" stroke-miterlimit="10"/>
<path d="M182.743 871.495L113.76 942.909" stroke="#113355" stroke-width="3" stroke-miterlimit="10"/>
<path d="M606.321 718.982L531.287 784.344" stroke="#113355" stroke-width="3" stroke-miterlimit="10"/>
<path d="M640.205 21.7878L571.222 93.202" stroke="#113355" stroke-width="3" stroke-miterlimit="10"/>
<path d="M561.542 550.735L494.98 476.9" stroke="#113355" stroke-width="3" stroke-miterlimit="10"/>
<path d="M10.8909 1003.43L89.5554 1063.95" stroke="#113355" stroke-width="3" stroke-miterlimit="10"/>
<path d="M49.6203 66.5725L19.3647 160.984" stroke="#113355" stroke-width="3" stroke-miterlimit="10"/>
<path d="M488.93 330.442L393.323 302.602" stroke="#113355" stroke-width="3" stroke-miterlimit="10"/>
<path d="M279.563 82.3071L200.898 20.5762" stroke="#113355" stroke-width="3" stroke-miterlimit="10"/>
<path d="M1584.18 95.6217L1632.59 8.47217" stroke="#113355" stroke-width="3" stroke-miterlimit="10"/>
<path d="M1349.4 1017.95L1268.31 1074.84" stroke="#113355" stroke-width="3" stroke-miterlimit="10"/>
<path d="M1671.32 1017.95L1590.23 1074.84" stroke="#113355" stroke-width="3" stroke-miterlimit="10"/>
<path d="M966.967 947.751L1017.8 1033.69" stroke="#113355" stroke-width="3" stroke-miterlimit="10"/>
<path d="M1374.82 256.607L1493.42 171.878C1522.46 151.301 1528.51 111.358 1507.94 83.5185C1487.37 54.4686 1447.43 48.4166 1419.59 68.9936L1300.99 153.722C1271.95 174.299 1265.89 214.243 1286.47 242.082C1307.04 269.922 1345.77 277.184 1374.82 256.607Z" fill="#FFCC00"/>
<path d="M346.125 187.613L444.153 153.721" stroke="#113355" stroke-width="3" stroke-miterlimit="10"/>
<path d="M206.949 706.88C171.853 706.88 136.756 699.618 104.08 685.093L206.949 449.063L442.943 551.948C401.795 646.36 309.818 706.88 206.949 706.88Z" fill="white"/>
<path d="M208.158 451.483L441.731 554.367C421.158 600.363 388.482 637.886 346.124 665.725C304.976 692.354 256.567 706.879 206.948 706.879C171.852 706.879 137.965 699.617 106.5 686.302L208.158 451.483ZM206.948 447.851L102.869 686.302C136.755 700.827 171.852 708.089 206.948 708.089C307.397 708.089 403.004 649.99 445.362 551.947L206.948 447.851Z" fill="#113355"/>
<path d="M517.973 967.116L421.155 990.114" stroke="#113355" stroke-width="3" stroke-miterlimit="10"/>
<path d="M1507.94 363.122L1599.92 325.599" stroke="#113355" stroke-width="3" stroke-miterlimit="10"/>
<path d="M1579.34 687.513L1618.07 596.732" stroke="#113355" stroke-width="3" stroke-miterlimit="10"/>
<path d="M1460.24 751.48L1343.47 916.466L1508.43 1033.26L1625.2 868.276L1460.24 751.48Z" fill="#11BB99"/>
<path d="M1304.62 68.9927L1371.18 142.828" stroke="#113355" stroke-width="3" stroke-miterlimit="10"/>
<path d="M186.373 583.416L101.658 531.369" stroke="#113355" stroke-width="3" stroke-miterlimit="10"/>
<path d="M1359.08 831.551L1430.48 900.544" stroke="#113355" stroke-width="3" stroke-miterlimit="10"/>
<path d="M993.592 37.521L924.609 108.935" stroke="#113355" stroke-width="3" stroke-miterlimit="10"/>
<path d="M968.179 733.506L931.872 812.183L1095.25 863.02L982.701 783.133L997.224 751.662" fill="#FF3366"/>
<path d="M979.07 795.238L1012.96 791.607" stroke="white" stroke-width="4" stroke-miterlimit="10"/>
<path d="M992.383 806.132L1026.27 803.711" stroke="white" stroke-width="4" stroke-miterlimit="10"/>
<path d="M1006.9 818.236L1040.79 815.815" stroke="white" stroke-width="4" stroke-miterlimit="10"/>
<path d="M781.805 910.227L801.169 992.535L660.783 1080.9L755.18 967.117L745.499 929.594" fill="#FF3366"/>
<path d="M753.97 985.272L721.294 991.324" stroke="white" stroke-width="4" stroke-miterlimit="10"/>
<path d="M745.495 999.797L711.609 1005.85" stroke="white" stroke-width="4" stroke-miterlimit="10"/>
<path d="M733.394 1015.53L700.718 1021.58" stroke="white" stroke-width="4" stroke-miterlimit="10"/>
<path d="M906.459 260.238C923.402 313.496 894.356 370.385 842.317 387.331C789.067 404.277 732.186 375.227 715.243 323.179" fill="#FF3366"/>
<path d="M848.367 237.238C849.577 261.447 830.214 280.813 807.22 282.023C785.435 283.234 767.282 268.709 763.651 248.132C763.651 245.711 762.441 243.29 762.441 239.659C761.231 215.451 780.595 196.084 803.589 194.874C815.691 194.874 827.793 199.716 836.265 206.978C842.316 215.451 847.157 225.134 848.367 237.238Z" fill="#FFCC00"/>
<path d="M835.053 206.978C824.161 229.976 801.167 246.922 773.332 248.132C769.701 248.132 766.071 248.132 762.44 248.132C762.44 245.711 761.23 243.29 761.23 239.659C760.02 215.451 779.383 196.084 802.377 194.874C815.69 194.874 826.582 199.716 835.053 206.978Z" fill="#113355"/>
<path d="M773.333 205.769C782.69 205.769 790.276 198.182 790.276 188.823C790.276 179.464 782.69 171.877 773.333 171.877C763.975 171.877 756.39 179.464 756.39 188.823C756.39 198.182 763.975 205.769 773.333 205.769Z" fill="#113355"/>
<path d="M726.135 196.085C752.202 196.085 773.334 174.95 773.334 148.879C773.334 122.808 752.202 101.673 726.135 101.673C700.068 101.673 678.936 122.808 678.936 148.879C678.936 174.95 700.068 196.085 726.135 196.085Z" fill="#113355"/>
<path d="M830.462 265.061C833.133 264.956 835.172 261.622 835.014 257.614C834.857 253.607 832.564 250.443 829.893 250.548C827.221 250.652 825.183 253.986 825.34 257.994C825.497 262.002 827.79 265.166 830.462 265.061Z" fill="#113355"/>
<path d="M812.32 267.508C814.992 267.403 817.03 264.069 816.873 260.061C816.716 256.053 814.422 252.889 811.751 252.994C809.08 253.099 807.042 256.433 807.199 260.441C807.356 264.448 809.649 267.612 812.32 267.508Z" fill="#113355"/>
<path d="M830.213 271.131C830.213 271.131 822.952 269.921 822.952 262.658" stroke="#113355" stroke-width="4" stroke-miterlimit="10"/>
<path d="M807.216 250.554L816.897 252.975" stroke="#113355" stroke-width="4" stroke-miterlimit="10"/>
<path d="M832.63 238.45L825.369 243.292" stroke="#113355" stroke-width="4" stroke-miterlimit="10"/>
<path d="M861.679 467.217L841.105 472.058C798.748 484.162 764.861 513.212 745.498 551.945C715.242 614.886 674.095 706.878 675.305 737.138C676.515 783.133 711.611 930.803 711.611 930.803C711.611 930.803 737.026 948.96 772.123 934.435C807.219 921.12 808.429 902.964 808.429 902.964L787.856 733.507L874.992 574.943L985.122 582.205L934.292 722.613C934.292 722.613 945.184 749.242 968.179 757.715C991.173 766.188 1022.64 754.084 1022.64 754.084L1094.04 574.943C1108.56 539.841 1086.78 499.898 1050.47 491.425L937.923 464.796C911.298 459.954 885.884 459.954 861.679 467.217Z" fill="#FFCC00"/>
<path d="M778.171 401.854L878.62 326.808L1037.16 306.231L936.711 380.066L778.171 401.854Z" fill="#2288EE"/>
<path d="M958.496 538.63L1058.94 463.584L1037.16 306.231L936.712 380.066L958.496 538.63Z" fill="#FF3366"/>
<path d="M936.222 380.977L780.34 402.299L801.658 558.204L957.54 536.883L936.222 380.977Z" fill="white"/>
<path d="M934.29 382.488L956.074 536.21L802.376 556.787L781.802 404.276L934.29 382.488ZM936.711 380.067L778.171 401.855L799.955 560.418L958.495 538.631L936.711 380.067Z" fill="#113355"/>
<path d="M916.136 260.238C916.136 260.238 1062.57 252.975 1072.25 278.394C1081.94 303.813 999.641 341.335 999.641 341.335C999.641 341.335 996.01 397.014 992.38 398.225C989.959 399.435 983.908 360.702 983.908 360.702C983.908 360.702 981.488 412.75 977.857 412.75C974.226 412.75 971.806 367.964 971.806 367.964C971.806 367.964 969.385 406.697 964.545 406.697C960.914 406.697 957.283 364.333 957.283 364.333C957.283 364.333 923.397 364.333 923.397 359.492C923.397 354.65 940.34 353.439 947.601 344.967C956.073 336.494 997.221 288.077 997.221 288.077" stroke="#113355" stroke-width="4" stroke-miterlimit="10" stroke-linejoin="bevel"/>
<path d="M697.088 340.123C697.088 340.123 616.003 464.795 652.31 504.739C688.616 544.683 804.798 464.796 804.798 464.796C804.798 464.796 826.582 496.266 830.212 492.635C833.843 489.004 819.32 466.006 819.32 466.006C819.32 466.006 838.684 498.687 843.525 495.056C848.366 491.425 822.951 451.481 822.951 451.481C822.951 451.481 849.576 478.11 855.627 474.479C861.678 470.848 824.161 443.008 822.951 430.904C821.741 418.8 832.633 409.117 829.002 406.696C825.372 404.275 807.218 426.062 807.218 426.062L705.559 456.323L744.287 387.329" fill="white"/>
<path d="M697.088 340.123C697.088 340.123 616.003 464.795 652.31 504.739C688.616 544.683 804.798 464.795 804.798 464.795C804.798 464.795 826.582 496.266 830.212 492.635C833.843 489.004 819.32 466.006 819.32 466.006C819.32 466.006 838.684 498.687 843.525 495.056C848.366 491.425 822.951 451.481 822.951 451.481C822.951 451.481 849.576 478.11 855.627 474.479C861.678 470.848 824.161 443.008 822.951 430.904C821.741 418.8 832.633 409.117 829.002 406.696C825.372 404.275 807.218 426.062 807.218 426.062L705.559 456.323L744.287 387.329" stroke="#113355" stroke-width="4" stroke-miterlimit="10" stroke-linejoin="bevel"/>
</svg>
