<svg width="1665" height="1093" viewBox="0 0 1665 1093" fill="none" xmlns="http://www.w3.org/2000/svg">
<path d="M339.289 1084.33C393.768 1084.33 437.932 1040.15 437.932 985.652C437.932 931.156 393.768 886.979 339.289 886.979C284.81 886.979 240.646 931.156 240.646 985.652C240.646 1040.15 284.81 1084.33 339.289 1084.33Z" fill="#FF3366"/>
<path d="M339.291 1027.94C362.639 1027.94 381.566 1009.01 381.566 985.652C381.566 962.297 362.639 943.363 339.291 943.363C315.943 943.363 297.016 962.297 297.016 985.652C297.016 1009.01 315.943 1027.94 339.291 1027.94Z" fill="white"/>
<path d="M343.003 26.8059L81.097 178.069L149.93 297.326L411.836 146.062L343.003 26.8059Z" fill="#FFCC00"/>
<path d="M1545.76 271.082C1600.24 271.082 1644.4 226.904 1644.4 172.408C1644.4 117.912 1600.24 73.7344 1545.76 73.7344C1491.28 73.7344 1447.12 117.912 1447.12 172.408C1447.12 226.904 1491.28 271.082 1545.76 271.082Z" fill="#FF3366"/>
<path d="M1603.22 692.883C1659.59 644.089 1665.01 559.511 1616.23 503.126C1567.45 446.741 1482.9 441.32 1426.53 490.114" stroke="#113355" stroke-width="3" stroke-miterlimit="10"/>
<path d="M1545.76 214.697C1569.11 214.697 1588.04 195.763 1588.04 172.408C1588.04 149.052 1569.11 130.119 1545.76 130.119C1522.42 130.119 1503.49 149.052 1503.49 172.408C1503.49 195.763 1522.42 214.697 1545.76 214.697Z" fill="white"/>
<path d="M575.6 1060.47C588.77 1060.47 599.447 1049.79 599.447 1036.61C599.447 1023.44 588.77 1012.76 575.6 1012.76C562.429 1012.76 551.752 1023.44 551.752 1036.61C551.752 1049.79 562.429 1060.47 575.6 1060.47Z" fill="#113355"/>
<path d="M711.098 85.6615C724.268 85.6615 734.945 74.9812 734.945 61.8063C734.945 48.6315 724.268 37.9512 711.098 37.9512C697.927 37.9512 687.25 48.6315 687.25 61.8063C687.25 74.9812 697.927 85.6615 711.098 85.6615Z" fill="#11BB99"/>
<path d="M87.8066 924.929C100.977 924.929 111.654 914.248 111.654 901.073C111.654 887.899 100.977 877.218 87.8066 877.218C74.6359 877.218 63.9589 887.899 63.9589 901.073C63.9589 914.248 74.6359 924.929 87.8066 924.929Z" fill="#11BB99"/>
<path d="M1309.46 632.16C1322.63 632.16 1333.31 621.48 1333.31 608.305C1333.31 595.13 1322.63 584.45 1309.46 584.45C1296.29 584.45 1285.61 595.13 1285.61 608.305C1285.61 621.48 1296.29 632.16 1309.46 632.16Z" fill="#113355"/>
<path d="M1275.85 121.445C1289.02 121.445 1299.7 110.764 1299.7 97.5895C1299.7 84.4147 1289.02 73.7344 1275.85 73.7344C1262.68 73.7344 1252 84.4147 1252 97.5895C1252 110.764 1262.68 121.445 1275.85 121.445Z" fill="#113355"/>
<path d="M1627.06 1066.98C1640.24 1066.98 1650.91 1056.3 1650.91 1043.12C1650.91 1029.95 1640.24 1019.27 1627.06 1019.27C1613.89 1019.27 1603.22 1029.95 1603.22 1043.12C1603.22 1056.3 1613.89 1066.98 1627.06 1066.98Z" fill="#11BB99"/>
<path d="M1575.03 592.041C1588.21 592.041 1598.88 581.361 1598.88 568.186C1598.88 555.011 1588.21 544.331 1575.03 544.331C1561.86 544.331 1551.19 555.011 1551.19 568.186C1551.19 581.361 1561.86 592.041 1575.03 592.041Z" fill="#11BB99"/>
<path d="M1243.33 739.509L1153.36 781.798" stroke="#113355" stroke-width="3" stroke-miterlimit="10"/>
<path d="M1199.97 631.077L1129.51 560.596" stroke="#113355" stroke-width="3" stroke-miterlimit="10"/>
<path d="M842.261 1071.31L749.039 1035.53" stroke="#113355" stroke-width="3" stroke-miterlimit="10"/>
<path d="M366.394 783.969L454.197 738.427" stroke="#113355" stroke-width="3" stroke-miterlimit="10"/>
<path d="M508.392 96.5046L596.195 50.9629" stroke="#113355" stroke-width="3" stroke-miterlimit="10"/>
<path d="M719.77 235.298L622.211 159.396" stroke="#113355" stroke-width="3" stroke-miterlimit="10"/>
<path d="M578.855 611.56L512.732 537.826" stroke="#113355" stroke-width="3" stroke-miterlimit="10"/>
<path d="M20.5995 968.303L99.7304 1029.03" stroke="#113355" stroke-width="3" stroke-miterlimit="10"/>
<path d="M45.5312 39.0366L15.1796 134.457" stroke="#113355" stroke-width="3" stroke-miterlimit="10"/>
<path d="M381.564 323.129L354.465 419.634" stroke="#113355" stroke-width="3" stroke-miterlimit="10"/>
<path d="M231.978 144.215L152.848 83.4927" stroke="#113355" stroke-width="3" stroke-miterlimit="10"/>
<path d="M1597.8 117.108L1646.58 30.3618" stroke="#113355" stroke-width="3" stroke-miterlimit="10"/>
<path d="M694.84 948.785L743.619 862.039" stroke="#113355" stroke-width="3" stroke-miterlimit="10"/>
<path d="M1582.62 1014.93L1507.83 1081.07" stroke="#113355" stroke-width="3" stroke-miterlimit="10"/>
<path d="M73.7186 363.249L166.941 407.706" stroke="#113355" stroke-width="3" stroke-miterlimit="10"/>
<path d="M20.5995 559.513C140.922 454.333 323.031 466.261 428.178 585.536L211.381 776.378L20.5995 559.513Z" fill="#2288EE"/>
<path d="M1378.83 1053.96C1295.37 917.339 1338.73 739.51 1474.22 656.017L1625.98 903.243L1378.83 1053.96Z" fill="#2288EE"/>
<path d="M489.969 996.494L393.494 1019.26" stroke="#113355" stroke-width="3" stroke-miterlimit="10"/>
<path d="M1533.84 390.358L1627.06 353.491" stroke="#113355" stroke-width="3" stroke-miterlimit="10"/>
<path d="M1323.55 10.8433L1390.76 84.5774" stroke="#113355" stroke-width="3" stroke-miterlimit="10"/>
<path d="M146.34 645.174L94.3085 729.751" stroke="#113355" stroke-width="3" stroke-miterlimit="10"/>
<path d="M1285.61 834.931L1370.16 889.147" stroke="#113355" stroke-width="3" stroke-miterlimit="10"/>
<path d="M1127.35 210.359C1116.51 224.455 1097 226.623 1082.91 215.78L953.912 116.022C939.82 105.179 937.652 85.6611 948.492 71.5649C959.332 57.4686 978.844 55.3 992.935 66.1432L1121.93 165.901C1136.02 176.744 1138.19 196.262 1127.35 210.359Z" fill="#FFCC00"/>
<path d="M1229.24 918.424C1234.66 934.689 1225.99 953.122 1209.73 958.544L1055.81 1012.76C1039.55 1018.18 1021.12 1009.51 1015.7 993.242C1010.28 976.977 1018.95 958.544 1035.21 953.122L1189.14 898.906C1205.4 893.484 1222.74 902.159 1229.24 918.424Z" fill="#11BB99"/>
<path d="M1121.92 969.386L1172.87 1055.05" stroke="#113355" stroke-width="3" stroke-miterlimit="10"/>
<path d="M1102.42 39.0366L1012.45 98.6745" stroke="#113355" stroke-width="3" stroke-miterlimit="10"/>
<path d="M601.611 755.774L493.213 813.244L537.656 950.953L543.076 819.75L613.535 787.22" fill="#FFCC00"/>
<path d="M523.562 828.423L551.746 846.857" stroke="white" stroke-width="4" stroke-miterlimit="10"/>
<path d="M526.812 845.773L554.996 864.207" stroke="white" stroke-width="4" stroke-miterlimit="10"/>
<path d="M531.152 863.121L560.42 881.555" stroke="white" stroke-width="4" stroke-miterlimit="10"/>
<path d="M869.359 829.509L795.648 927.098L894.291 1032.28L843.344 911.917L893.207 852.28" fill="#FFCC00"/>
<path d="M829.248 928.181L862.852 932.518" stroke="white" stroke-width="4" stroke-miterlimit="10"/>
<path d="M840.088 942.277L873.691 946.615" stroke="white" stroke-width="4" stroke-miterlimit="10"/>
<path d="M852.008 956.374L885.611 960.711" stroke="white" stroke-width="4" stroke-miterlimit="10"/>
<path d="M920.307 397.947H818.412C791.312 397.947 768.549 375.177 768.549 348.068C768.549 320.96 791.312 298.189 818.412 298.189H920.307C947.406 298.189 970.17 320.96 970.17 348.068C971.254 375.177 948.49 397.947 920.307 397.947Z" fill="#113355"/>
<path d="M825.993 241.803C830.329 264.574 853.093 278.67 875.856 274.333C895.368 269.996 909.46 252.647 909.46 233.129C909.46 230.96 909.46 227.707 908.376 225.538C904.04 202.768 881.276 188.671 858.513 193.009C846.589 195.177 836.833 202.768 831.413 212.527C825.993 220.117 823.825 230.96 825.993 241.803Z" fill="#FFCC00"/>
<path d="M820.572 196.263C822.74 206.022 831.412 211.443 841.168 209.275C849.84 207.106 855.26 200.6 855.26 191.926C855.26 190.841 855.26 189.757 855.26 188.673C853.092 178.914 844.42 173.492 834.664 175.661C829.244 176.745 825.992 179.998 823.824 183.251C820.572 187.588 819.488 191.926 820.572 196.263Z" fill="#113355"/>
<path d="M847.679 185.419C848.763 190.841 854.183 195.178 860.687 194.094C866.107 193.009 869.359 188.672 869.359 183.25C869.359 182.166 869.359 182.166 869.359 181.082C868.275 175.66 862.855 171.323 856.351 172.407C853.099 173.491 850.931 174.576 849.847 176.744C847.679 179.997 846.595 183.25 847.679 185.419Z" fill="#113355"/>
<path d="M846.588 255.899C846.588 255.899 855.26 253.73 854.176 245.056" stroke="#113355" stroke-width="4" stroke-miterlimit="10"/>
<path d="M847.737 246.144C850.132 246.129 852.052 242.719 852.025 238.527C851.999 234.335 850.036 230.949 847.642 230.964C845.247 230.979 843.327 234.389 843.353 238.581C843.38 242.773 845.342 246.159 847.737 246.144Z" fill="#113355"/>
<path d="M868.337 246.144C870.732 246.129 872.652 242.719 872.626 238.527C872.599 234.335 870.637 230.949 868.242 230.964C865.847 230.979 863.927 234.389 863.954 238.581C863.98 242.773 865.942 246.159 868.337 246.144Z" fill="#113355"/>
<path d="M893.199 227.708C895.367 236.383 902.955 240.72 911.627 239.636C919.215 238.551 923.551 232.045 923.551 224.455C923.551 223.371 923.551 222.286 923.551 221.202C921.383 212.528 913.795 208.19 905.123 209.275C900.787 210.359 897.535 212.528 895.367 215.781C893.199 220.118 892.115 223.371 893.199 227.708Z" fill="#FFCC00"/>
<path d="M832.498 209.274C832.498 209.274 848.758 215.779 874.773 204.936L881.277 228.791L896.453 222.285C896.453 222.285 897.537 207.105 912.713 209.274C912.713 209.274 908.377 181.081 889.949 178.912C859.598 175.659 836.834 194.093 832.498 209.274Z" fill="#113355"/>
<path d="M562.592 754.69C562.592 754.69 546.332 775.293 557.172 811.075C568.012 846.858 600.531 865.292 600.531 865.292L797.816 766.618C823.832 753.606 841.176 728.667 845.512 700.474L861.771 585.536L943.07 712.402L840.092 844.689C840.092 844.689 834.672 877.219 857.436 903.243C887.787 936.857 917.055 927.098 917.055 927.098L1049.3 767.702C1073.15 739.51 1076.4 699.39 1057.97 667.944L964.75 506.38C943.07 469.513 904.047 446.742 861.771 445.658C801.068 443.489 746.869 487.946 737.113 548.668L718.686 663.607L562.592 754.69Z" fill="#FF3366"/>
<path d="M566.92 831.676C569.088 816.495 578.844 802.399 590.768 793.725C603.775 785.05 618.951 781.797 634.127 780.713C648.219 779.628 663.395 778.544 673.15 768.785C682.906 759.026 682.906 743.846 681.822 730.834C679.654 717.822 673.15 702.641 661.227 696.135C660.143 695.051 657.975 697.22 659.059 698.304C662.311 703.726 667.731 708.063 669.898 713.485C673.15 718.906 675.318 724.328 675.318 730.834C677.486 744.93 676.402 761.195 662.311 768.785C649.303 776.375 633.043 774.207 617.867 776.375C607.027 780.713 595.104 785.05 585.348 793.725C573.424 803.484 566.92 816.495 564.752 831.676C564.752 832.76 566.92 833.845 566.92 831.676Z" fill="#FFCC00"/>
<path d="M561.504 755.773C569.092 768.785 587.519 766.617 599.443 760.111C605.947 755.774 611.367 750.352 614.619 743.846C618.955 737.34 622.207 729.75 622.207 722.159C622.207 721.075 620.039 719.991 618.955 721.075C616.787 726.497 614.619 733.003 611.367 738.424C608.115 743.846 603.779 749.268 599.443 753.605C594.023 757.942 588.603 760.111 582.099 761.195C574.511 762.279 569.092 759.026 563.672 754.689C561.504 753.605 560.42 754.689 561.504 755.773Z" fill="#FFCC00"/>
<path d="M679.662 827.34C685.082 800.232 711.098 790.473 733.861 780.714C743.617 776.377 753.373 772.04 759.877 764.449C766.381 755.775 769.633 744.931 768.549 735.173C768.549 723.245 764.213 712.402 758.793 701.558C753.373 689.631 746.869 676.619 745.785 663.607C744.701 641.921 763.129 623.487 782.641 619.15C808.656 612.644 834.672 632.162 852.016 649.511C853.1 650.595 855.268 649.511 854.184 647.342C841.176 628.909 819.496 614.812 796.732 612.644C776.137 610.475 754.457 623.487 744.701 641.921C732.777 665.776 747.953 689.631 756.625 712.402C760.961 724.329 764.213 738.426 759.877 751.437C755.541 763.365 744.701 770.955 733.861 775.293C721.937 780.714 708.93 785.051 698.09 793.726C687.25 802.401 678.578 813.244 676.41 827.34C676.41 828.425 678.578 829.509 679.662 827.34Z" fill="#FFCC00"/>
<path d="M805.4 762.28C792.392 741.678 786.972 716.739 791.308 691.799C792.392 686.378 794.56 679.872 799.98 675.534C806.484 671.197 812.988 674.45 818.408 678.787C828.164 686.378 835.751 696.136 842.255 705.895C843.339 706.98 845.507 705.895 844.423 704.811C839.003 691.799 829.248 680.956 817.324 673.366C811.904 670.113 806.484 667.944 801.064 670.113C795.644 672.281 791.308 677.703 789.14 683.125C783.72 696.137 783.72 711.317 785.888 724.329C788.056 738.425 793.476 752.521 802.148 764.449C804.316 765.533 806.484 763.365 805.4 762.28Z" fill="#FFCC00"/>
<path d="M737.106 549.754C742.526 557.344 749.03 563.85 757.702 568.187C766.374 571.44 775.046 572.524 783.718 571.44C793.473 570.356 802.145 566.018 808.649 559.512C816.237 553.006 820.573 544.332 823.825 535.657C828.161 525.898 831.413 516.139 837.917 508.549C843.337 502.043 852.009 496.622 859.596 493.369C875.856 486.863 895.368 487.947 910.544 496.622C920.3 502.043 927.887 510.718 938.727 513.971C947.399 517.224 958.239 515.055 964.743 507.465C965.827 505.296 963.659 503.128 962.575 505.296C945.231 521.561 925.719 499.875 910.544 492.284C896.452 484.694 880.192 483.61 865.016 487.947C849.841 492.284 836.833 500.959 829.245 513.971C818.405 531.32 816.237 551.922 797.809 562.765C777.214 575.777 752.282 568.187 738.19 549.754C738.19 546.501 736.022 548.669 737.106 549.754Z" fill="#FFCC00"/>
<path d="M753.373 505.294C770.717 513.969 790.229 510.716 805.404 498.788C820.58 486.861 834.672 467.343 834.672 447.825C834.672 446.741 832.504 446.741 832.504 447.825C826 465.174 818.412 481.439 804.32 494.451C797.816 499.873 790.229 504.21 782.641 506.379C772.885 508.547 764.213 506.379 754.457 504.21C753.373 503.126 752.289 505.294 753.373 505.294Z" fill="#FFCC00"/>
<path d="M987.51 543.247C976.67 541.078 965.83 542.162 954.99 544.331C945.234 546.5 935.478 548.668 927.891 554.09C913.799 563.849 908.379 581.198 911.631 597.463C914.883 615.896 927.891 629.993 941.982 640.836C959.326 653.848 978.838 662.522 997.266 670.113C1020.03 679.872 1043.88 687.462 1067.72 696.136C1070.98 697.221 1072.06 692.883 1068.81 691.799C1031.95 676.619 992.93 666.86 958.242 646.257C943.066 637.583 927.891 625.655 919.219 609.39C911.631 595.294 911.631 575.776 922.471 562.764C930.059 555.174 939.814 550.837 949.57 548.668C961.494 545.415 973.418 545.415 985.342 544.331C988.594 545.415 988.594 543.247 987.51 543.247Z" fill="#FFCC00"/>
<path d="M997.261 561.681C984.253 572.524 984.253 590.957 992.925 603.969C997.261 610.475 1003.76 615.897 1010.27 620.234C1016.77 624.571 1026.53 628.909 1034.12 627.824C1036.28 627.824 1036.28 624.571 1034.12 623.487C1027.61 621.318 1020.02 619.15 1013.52 615.897C1008.1 612.644 1002.68 608.307 998.345 603.969C988.589 592.042 986.421 575.777 998.345 564.933C1001.6 562.765 999.429 560.596 997.261 561.681Z" fill="#FFCC00"/>
<path d="M932.227 695.052C951.739 696.136 971.25 701.558 978.838 721.075C988.594 744.931 971.25 766.617 953.907 781.798C936.563 796.978 917.051 809.99 902.959 828.424C893.204 841.435 888.868 856.616 894.287 872.881C899.707 890.23 913.799 905.411 932.227 909.748C933.311 909.748 934.395 907.579 933.311 907.579C917.051 899.989 904.043 886.977 898.623 869.628C896.455 863.122 896.455 855.532 897.539 847.941C900.791 837.098 908.379 827.339 917.051 819.749C933.311 803.484 953.907 790.472 970.166 772.039C983.174 756.858 990.762 735.172 981.006 716.738C972.334 698.305 950.655 690.714 931.143 692.883C930.059 692.883 930.059 695.052 932.227 695.052Z" fill="#FFCC00"/>
<path d="M884.528 790.472C886.696 792.64 884.528 800.231 884.528 803.483C882.361 811.074 880.193 818.664 876.941 826.254C869.353 845.772 857.429 864.206 843.337 879.386C842.253 880.471 844.421 882.639 845.505 881.555C862.849 867.459 874.773 845.772 882.361 825.17C885.613 817.58 887.78 808.905 888.864 800.231C888.864 796.978 889.948 790.472 886.697 787.219C885.613 786.134 882.361 788.303 884.528 790.472Z" fill="#FFCC00"/>
<path d="M966.912 868.543C960.408 855.531 970.164 838.182 975.584 827.339C982.087 814.327 990.759 801.315 1000.52 790.472C1010.27 779.629 1021.11 768.785 1034.12 761.195C1040.62 756.858 1047.13 752.52 1054.71 749.267C1057.97 748.183 1063.39 744.93 1066.64 744.93C1068.81 744.93 1068.81 741.677 1066.64 741.677C1056.88 742.762 1049.29 744.93 1041.71 750.352C1030.87 756.858 1020.03 764.448 1011.36 773.123C992.927 790.472 977.752 812.158 967.996 836.014C963.66 845.772 959.324 860.953 967.996 870.712C965.828 870.712 966.912 869.628 966.912 868.543Z" fill="#FFCC00"/>
<path d="M860.688 607.222L869.359 529.151" stroke="white" stroke-width="4" stroke-miterlimit="10"/>
<path d="M767.465 318.791C749.037 328.549 672.074 405.537 672.074 405.537C672.074 405.537 571.264 350.236 551.752 353.489L564.76 409.874C564.76 409.874 639.555 476.018 681.83 466.259C724.105 457.584 801.068 383.85 801.068 383.85" stroke="#113355" stroke-width="4" stroke-miterlimit="10"/>
<path d="M925.727 375.175C925.727 375.175 959.33 468.427 1001.61 485.776C1044.96 502.041 1156.62 419.632 1156.62 419.632" stroke="#113355" stroke-width="4" stroke-miterlimit="10"/>
<path d="M986.426 330.719L1037.37 412.044" stroke="#113355" stroke-width="4" stroke-miterlimit="10"/>
<path d="M1020.03 421.802L1126.26 367.586C1126.26 367.586 1146.85 320.96 1160.94 311.201" stroke="#113355" stroke-width="4" stroke-miterlimit="10"/>
<path d="M1164.2 236.383L1169.62 345.9L1126.26 460.839L1349.56 492.284L1378.83 260.238L1164.2 236.383Z" fill="white" stroke="#113355" stroke-width="4" stroke-miterlimit="10" stroke-linejoin="bevel"/>
<path d="M1156.61 340.478C1156.61 340.478 1188.05 304.695 1196.72 305.78C1205.39 306.864 1156.61 376.261 1156.61 376.261" fill="white"/>
<path d="M1156.61 340.478C1156.61 340.478 1188.05 304.695 1196.72 305.78C1205.39 306.864 1156.61 376.261 1156.61 376.261" stroke="#113355" stroke-width="4" stroke-miterlimit="10" stroke-linejoin="bevel"/>
<path d="M609.199 505.296C598.36 510.717 585.352 507.464 579.932 496.621L447.686 254.817C442.266 243.973 445.518 230.961 456.358 225.54C467.197 220.118 480.205 223.371 485.625 234.214L617.871 476.019C623.291 485.778 618.955 498.79 609.199 505.296Z" fill="#113355"/>
<path d="M561.508 355.658C561.508 355.658 531.156 339.393 530.072 345.899C530.072 352.405 575.6 382.766 575.6 382.766" fill="white"/>
<path d="M561.508 355.658C561.508 355.658 531.156 339.393 530.072 345.899C530.072 352.405 575.6 382.766 575.6 382.766" stroke="#113355" stroke-width="4" stroke-miterlimit="10" stroke-linejoin="bevel"/>
<path d="M500.803 364.332C500.803 364.332 536.574 366.5 539.826 374.09C543.078 382.765 500.803 376.259 500.803 376.259C500.803 376.259 552.834 381.681 551.75 389.271C550.666 396.861 508.391 393.608 508.391 393.608C508.391 393.608 544.162 397.946 545.246 405.536C546.33 413.126 509.475 409.873 509.475 409.873" fill="white"/>
<path d="M500.803 364.332C500.803 364.332 536.574 366.5 539.826 374.09C543.078 382.765 500.803 376.259 500.803 376.259C500.803 376.259 552.834 381.681 551.75 389.271C550.666 396.861 508.391 393.608 508.391 393.608C508.391 393.608 544.162 397.946 545.246 405.536C546.33 413.126 509.475 409.873 509.475 409.873" stroke="#113355" stroke-width="4" stroke-miterlimit="10" stroke-linejoin="bevel"/>
<path d="M1218.4 406.622C1227.98 406.622 1235.74 398.855 1235.74 389.273C1235.74 379.691 1227.98 371.924 1218.4 371.924C1208.82 371.924 1201.05 379.691 1201.05 389.273C1201.05 398.855 1208.82 406.622 1218.4 406.622Z" fill="#FF3366"/>
<path d="M1304.04 421.802C1313.61 421.802 1321.38 414.034 1321.38 404.453C1321.38 394.871 1313.61 387.104 1304.04 387.104C1294.46 387.104 1286.69 394.871 1286.69 404.453C1286.69 414.034 1294.46 421.802 1304.04 421.802Z" fill="#FF3366"/>
<path d="M1312.7 370.84L1220.56 354.575C1225.98 324.214 1250.91 303.611 1275.85 307.949C1301.86 312.286 1318.12 340.478 1312.7 370.84Z" fill="#2288EE"/>
<path d="M1341.97 393.61C1340.89 397.947 1338.72 402.285 1334.38 404.453C1331.13 406.622 1325.71 407.706 1321.38 407.706L1199.97 387.104C1190.21 386.02 1183.71 376.261 1185.88 366.502C1186.96 362.165 1189.13 357.827 1193.47 355.659C1196.72 353.49 1202.14 352.406 1206.47 352.406L1327.88 373.008C1337.64 375.177 1343.06 383.851 1341.97 393.61Z" stroke="#113355" stroke-width="3" stroke-miterlimit="10"/>
<path d="M1267.18 362.164L1275.85 307.947" stroke="#113355" stroke-width="3" stroke-miterlimit="10"/>
</svg>
