<svg width="1521" height="1115" viewBox="0 0 1521 1115" fill="none" xmlns="http://www.w3.org/2000/svg">
<g clip-path="url(#clip0)">
<path d="M1335.15 832.734C1408.39 832.734 1467.76 773.369 1467.76 700.139C1467.76 626.91 1408.39 567.545 1335.15 567.545C1261.91 567.545 1202.54 626.91 1202.54 700.139C1202.54 773.369 1261.91 832.734 1335.15 832.734Z" fill="#FF3366"/>
<path d="M1379.34 824.698C1383.36 800.59 1389.39 753.378 1372.31 741.324C1349.21 724.247 1292.95 809.63 1292.95 809.63C1292.95 809.63 1309.02 776.482 1304 761.414C1299.98 749.36 1254.77 777.486 1236.69 789.54" stroke="white" stroke-width="2" stroke-miterlimit="10"/>
<path d="M1203.54 686.076C1231.67 698.131 1294.96 722.239 1308.02 704.157C1324.09 680.049 1257.79 605.716 1263.81 599.689C1269.84 593.662 1293.95 606.721 1299.98 599.689C1304 594.666 1302.99 583.617 1299.98 572.567" stroke="white" stroke-width="2" stroke-miterlimit="10"/>
<path d="M1407.48 588.64C1385.38 590.649 1363.27 595.672 1361.26 604.712C1356.24 624.802 1415.51 641.879 1415.51 645.897C1415.51 649.915 1346.2 655.942 1346.2 673.019C1346.2 691.1 1461.73 738.311 1461.73 738.311" stroke="white" stroke-width="2" stroke-miterlimit="10"/>
<path d="M373.724 1083.86H64.2998L219.012 833.739L373.724 1083.86Z" fill="#FF3366"/>
<path d="M555.555 313.403L494.273 353.583L490.255 279.25L555.555 313.403Z" fill="#11BB99"/>
<path d="M156.723 935.194C182.843 955.284 206.954 976.379 203.94 984.415C198.917 996.469 150.695 990.442 150.695 990.442C150.695 990.442 235.083 1025.6 226.042 1048.7C220.014 1062.77 135.626 1047.7 92.4268 1038.66" stroke="white" stroke-width="2" stroke-linejoin="round"/>
<path d="M342.575 1033.64C316.455 1023.59 286.316 1016.56 277.274 1030.62C269.237 1041.67 275.265 1062.77 286.316 1083.86" stroke="white" stroke-width="2" stroke-miterlimit="10"/>
<path d="M277.275 927.156C258.187 933.183 240.104 942.223 238.095 949.255C235.081 959.3 274.261 966.331 304.4 971.354" stroke="white" stroke-width="2" stroke-linejoin="round"/>
<path d="M958.407 220.989C939.32 170.764 964.435 115.516 1014.67 96.4305C1064.9 77.345 1120.15 102.458 1139.24 152.683L958.407 220.989Z" fill="#FFCC00"/>
<path d="M876.028 768.446L796.663 630.829L707.251 731.279L728.348 949.257L578.659 923.139C594.733 901.04 626.881 897.022 626.881 897.022C626.881 897.022 588.705 754.383 590.715 698.131C594.733 623.797 750.45 459.058 822.783 485.176C900.139 512.297 995.578 678.04 1000.6 747.351C1005.62 812.644 968.453 960.306 968.453 960.306L1005.62 996.468L860.958 971.356L876.028 768.446Z" fill="#113355"/>
<path d="M731.37 357.605L774.569 436.961C782.606 453.033 802.698 458.055 818.772 450.019C823.795 447.006 827.814 443.992 830.828 438.97L881.059 361.623C895.123 340.528 880.054 312.402 854.938 311.398L761.509 308.384C736.393 309.389 720.319 335.506 731.37 357.605Z" fill="#2288EE"/>
<path d="M816.763 340.529L825.804 289.299C825.804 289.299 849.915 287.29 851.924 271.218C853.934 255.146 836.855 256.15 836.855 256.15C836.855 256.15 837.86 234.051 817.767 223.002C797.675 212.957 781.601 220.993 772.559 236.06C756.485 263.182 767.536 279.254 798.679 291.308L793.656 325.461" fill="#FFCC00"/>
<path d="M847.9 258.157C847.9 258.157 862.969 238.067 839.863 216.973C816.756 195.878 805.705 201.905 798.673 190.855C791.641 179.806 762.507 205.923 789.631 228.022C816.756 250.121 816.756 248.112 816.756 248.112C816.756 248.112 808.719 262.175 816.756 266.193C824.793 270.211 835.844 258.157 835.844 258.157" fill="#113355"/>
<path d="M785.614 234.047L776.572 244.092" stroke="#113355" stroke-width="3" stroke-miterlimit="10"/>
<path d="M792.648 242.083C794.868 242.083 796.667 240.284 796.667 238.065C796.667 235.846 794.868 234.047 792.648 234.047C790.429 234.047 788.63 235.846 788.63 238.065C788.63 240.284 790.429 242.083 792.648 242.083Z" fill="#113355"/>
<path d="M781.601 233.044C783.82 233.044 785.619 231.245 785.619 229.026C785.619 226.807 783.82 225.008 781.601 225.008C779.381 225.008 777.582 226.807 777.582 229.026C777.582 231.245 779.381 233.044 781.601 233.044Z" fill="#113355"/>
<path d="M717.304 316.418C676.115 319.432 621.865 409.837 621.865 409.837" stroke="#113355" stroke-width="3" stroke-linejoin="bevel"/>
<path d="M717.301 400.796C717.301 400.796 670.084 476.134 634.922 481.156C598.755 486.179 570.626 438.967 562.589 438.967" stroke="#113355" stroke-width="3" stroke-linejoin="bevel"/>
<path d="M579.671 426.915C579.671 426.915 542.499 449.014 534.462 447.005C525.421 444.996 566.61 420.888 566.61 420.888C566.61 420.888 515.375 451.023 507.338 444.996C503.319 440.978 550.536 414.861 550.536 414.861C550.536 414.861 510.351 435.955 503.319 433.946C495.282 431.937 547.523 403.811 547.523 403.811C547.523 403.811 516.379 405.82 524.416 394.771C526.425 391.757 568.62 384.725 583.689 387.739C598.758 390.753 643.966 427.919 643.966 427.919" stroke="#113355" stroke-width="3" stroke-linejoin="bevel"/>
<path d="M890.093 403.81C890.093 403.81 979.504 464.08 1011.65 457.049C1043.8 450.017 1090.01 391.756 1090.01 391.756C1090.01 391.756 1120.15 388.743 1128.19 385.729C1136.23 382.716 1151.29 363.63 1148.28 359.612C1145.27 355.594 1123.17 374.679 1123.17 374.679" stroke="#113355" stroke-width="3" stroke-linejoin="bevel"/>
<path d="M1104.08 366.645C1104.08 366.645 1129.2 359.613 1138.24 363.631" stroke="#113355" stroke-width="3" stroke-linejoin="bevel"/>
<path d="M1081.98 354.589C1081.98 354.589 1069.92 349.567 1060.88 354.589C1052.84 359.612 1003.62 388.742 1003.62 388.742C1003.62 388.742 931.282 326.463 905.162 325.458" stroke="#113355" stroke-width="3" stroke-linejoin="bevel"/>
<path d="M1102.07 373.675C1122.04 373.675 1138.24 357.485 1138.24 337.513C1138.24 317.541 1122.04 301.351 1102.07 301.351C1082.09 301.351 1065.9 317.541 1065.9 337.513C1065.9 357.485 1082.09 373.675 1102.07 373.675Z" fill="#2288EE"/>
<path d="M210.969 781.503C228.724 781.503 243.117 767.112 243.117 749.359C243.117 731.606 228.724 717.215 210.969 717.215C193.214 717.215 178.821 731.606 178.821 749.359C178.821 767.112 193.214 781.503 210.969 781.503Z" fill="#2288EE"/>
<path d="M623.868 187.84C599.757 187.84 575.646 179.804 555.554 165.741C535.461 151.678 520.392 131.588 513.359 107.48L622.863 73.3267L657.021 182.818C645.97 186.836 634.919 187.84 623.868 187.84Z" fill="white"/>
<path d="M621.865 75.3392L655.018 181.817C644.971 184.83 633.921 185.835 622.87 185.835C598.759 185.835 575.652 177.799 555.56 163.736C536.472 149.673 521.403 130.587 514.37 107.483L621.865 75.3392ZM623.874 72.3257L511.356 107.483C530.444 169.763 596.749 203.916 659.036 184.83L623.874 72.3257Z" fill="#113355"/>
<path d="M507.483 910.945L502.066 942.63L1049.68 1036.23L1055.1 1004.55L507.483 910.945Z" fill="#11BB99"/>
<path d="M88.4046 854.833C74.3399 854.833 63.2891 843.784 63.2891 829.72C63.2891 817.666 72.3307 806.617 84.3862 804.608L345.588 759.405C359.653 757.396 372.713 766.437 374.722 780.5C376.732 794.563 367.69 807.621 353.625 809.63L92.4231 854.833C91.4185 854.833 90.4139 854.833 88.4046 854.833Z" fill="white"/>
<path d="M350.61 760.409C363.67 760.409 374.721 771.458 374.721 784.517C374.721 796.571 366.684 805.611 354.628 807.62L92.4215 852.823C91.4168 852.823 89.4076 852.823 88.403 852.823C75.3429 852.823 64.292 841.774 64.292 828.715C64.292 816.661 72.329 807.62 84.3845 805.611L345.587 760.409C347.596 760.409 348.6 760.409 350.61 760.409ZM350.61 757.395C348.6 757.395 347.596 757.395 345.587 757.395L84.3845 802.598C69.3151 804.607 60.2735 818.67 62.2828 833.738C64.292 847.801 78.3567 857.846 93.4261 855.837L354.628 810.634C369.698 808.625 378.739 794.562 376.73 779.494C374.721 767.44 363.67 757.395 350.61 757.395Z" fill="#113355"/>
<path d="M819.964 -0.0630916L771.755 40.9448L812.768 89.1481L860.977 48.1402L819.964 -0.0630916Z" fill="#FF3366"/>
<path d="M1334.77 833.415L1241.53 908.233L1387.41 1089.98L1480.65 1015.17L1334.77 833.415Z" fill="#FFCC00"/>
<path d="M211.501 519.321L112.049 618.761L211.501 718.201L310.952 618.761L211.501 519.321Z" fill="#FFCC00"/>
<path d="M1335.15 565.535C1320.08 565.535 1308.02 553.481 1308.02 538.413C1308.02 523.346 1320.08 511.292 1335.15 511.292C1350.22 511.292 1362.27 523.346 1362.27 538.413C1362.27 553.481 1350.22 565.535 1335.15 565.535Z" fill="white"/>
<path d="M1335.14 513.3C1349.21 513.3 1360.26 524.349 1360.26 539.417C1360.26 553.48 1349.21 564.529 1334.14 564.529C1320.07 564.529 1309.02 553.48 1309.02 538.412C1309.02 525.354 1321.08 513.3 1335.14 513.3ZM1335.14 510.286C1319.07 510.286 1307.01 523.345 1307.01 538.412C1307.01 553.48 1320.07 566.538 1335.14 566.538C1351.22 566.538 1363.27 553.48 1363.27 538.412C1363.27 523.345 1350.21 510.286 1335.14 510.286Z" fill="#113355"/>
<path d="M1293.95 1089.89C1318.92 1089.89 1339.16 1069.65 1339.16 1044.68C1339.16 1019.72 1318.92 999.482 1293.95 999.482C1268.99 999.482 1248.75 1019.72 1248.75 1044.68C1248.75 1069.65 1268.99 1089.89 1293.95 1089.89Z" fill="#2288EE"/>
<path d="M185.855 886.976C199.92 894.007 224.031 901.039 256.179 893.003" stroke="white" stroke-width="2" stroke-linejoin="round"/>
<path d="M160.739 665.985C178.822 654.935 146.674 601.696 149.688 598.683C152.702 595.669 204.943 640.872 216.998 628.818C225.035 620.782 207.957 570.557 194.896 535.399" stroke="white" stroke-width="2" stroke-miterlimit="10"/>
<path d="M276.267 583.618C276.267 583.618 233.068 628.82 234.073 696.122" stroke="white" stroke-width="2" stroke-miterlimit="10"/>
<path d="M1251.76 1028.61C1267.83 1040.67 1289.93 1061.76 1297.97 1088.88" stroke="white" stroke-width="2" stroke-miterlimit="10"/>
<path d="M1292.95 1000.49C1292.95 1000.49 1282.91 1011.54 1292.95 1023.59C1303 1035.64 1339.17 1037.65 1339.17 1037.65" stroke="white" stroke-width="2" stroke-miterlimit="10"/>
<path d="M0 1084.86L1521 1094.91" stroke="#1C1D24" stroke-width="4" stroke-miterlimit="10"/>
<path d="M787.627 1087.88C761.506 1087.88 740.409 1066.78 740.409 1040.67C740.409 1014.55 761.506 993.454 787.627 993.454C813.747 993.454 834.844 1014.55 834.844 1040.67C834.844 1066.78 813.747 1087.88 787.627 1087.88Z" fill="white"/>
<path d="M787.621 995.462C812.737 995.462 832.829 1015.55 832.829 1040.66C832.829 1065.78 812.737 1085.87 787.621 1085.87C762.506 1085.87 742.413 1065.78 742.413 1040.66C742.413 1015.55 762.506 995.462 787.621 995.462ZM787.621 992.448C760.497 992.448 739.399 1014.55 739.399 1040.66C739.399 1067.79 761.501 1088.88 787.621 1088.88C814.746 1088.88 835.843 1066.78 835.843 1040.66C835.843 1014.55 814.746 992.448 787.621 992.448Z" fill="#113355"/>
</g>
<defs>
<clipPath id="clip0">
<rect width="1521" height="1115" fill="white"/>
</clipPath>
</defs>
</svg>
